<?xml version="1.0" encoding="UTF-8" standalone="no"?>
<!DOCTYPE svg PUBLIC "-//W3C//DTD SVG 1.1//EN" "http://www.w3.org/Graphics/SVG/1.1/DTD/svg11.dtd">
<svg xmlns="http://www.w3.org/2000/svg" version="1.1" viewBox="0.00 0.00 100.00 180.00">
<g stroke-width="2.00" fill="none" stroke-linecap="butt">
<path stroke="#393c4b" vector-effect="non-scaling-stroke" d="
  M 52.21 71.38
  A 0.54 0.53 19.9 0 1 52.64 72.29
  L 47.69 77.25
  Q 47.31 77.64 47.30 78.17
  L 47.10 95.25
  A 1.02 1.02 0.0 0 0 48.81 96.02
  L 53.87 91.43
  Q 54.86 90.54 55.36 91.77
  Q 55.42 91.91 55.44 92.05
  Q 55.75 93.61 54.75 94.51
  L 48.15 100.49
  A 2.43 2.41 69.3 0 0 47.34 102.30
  L 47.11 129.77
  Q 47.11 130.38 47.72 130.40
  Q 56.72 130.71 64.86 130.10
  C 72.52 129.53 79.29 125.83 85.30 120.89
  Q 86.72 119.72 87.21 117.96
  Q 87.35 117.46 87.09 117.01
  Q 85.96 115.03 84.25 113.53
  Q 78.13 108.12 71.82 102.63
  Q 70.31 101.32 69.55 99.93
  Q 69.28 99.45 69.45 98.93
  Q 70.16 96.69 72.00 95.41
  C 75.71 92.83 80.55 89.78 83.36 86.14
  A 0.71 0.70 46.6 0 0 83.38 85.30
  Q 76.05 74.94 68.44 66.02
  A 2.60 2.58 40.0 0 1 68.17 63.04
  C 70.18 59.55 74.93 56.40 70.79 51.95
  Q 66.76 47.62 62.09 43.22
  C 60.35 41.58 60.26 39.19 60.58 36.95
  C 61.39 31.21 61.34 24.77 59.16 19.37
  C 57.72 15.82 49.14 1.28 43.38 7.14
  C 39.63 10.95 36.33 15.35 33.98 20.21
  Q 28.72 31.07 25.29 41.06
  C 23.73 45.61 25.87 51.38 26.90 55.92
  C 27.44 58.28 26.92 60.52 25.56 62.44
  C 22.54 66.72 18.76 70.75 15.60 75.25
  C 13.79 77.82 8.79 83.55 10.91 86.84
  Q 12.34 89.06 14.37 90.61
  Q 19.07 94.21 23.40 98.35
  Q 25.71 100.57 23.19 102.55
  Q 18.24 106.42 13.24 110.61
  C 11.15 112.36 6.66 116.83 8.88 119.98
  C 12.46 125.05 19.52 128.58 25.09 129.81
  C 30.78 131.07 37.37 130.38 43.37 130.60
  A 0.58 0.57 -88.6 0 0 43.97 130.02
  Q 44.00 121.46 44.00 113.07
  C 44.00 111.60 43.67 110.16 43.83 108.74
  Q 43.99 107.24 43.99 105.70
  Q 44.00 84.20 44.02 63.25
  Q 44.02 61.89 43.26 61.25
  Q 38.56 57.30 36.17 53.63
  A 0.70 0.70 0.0 0 1 36.17 52.85
  Q 36.49 52.35 36.97 52.40
  Q 38.38 52.55 39.41 53.52
  Q 41.37 55.37 43.08 57.33
  Q 43.93 58.30 43.93 57.01
  L 43.99 28.34
  A 1.30 1.29 54.1 0 1 44.05 27.95
  Q 45.03 24.84 46.70 25.82
  A 1.10 1.08 15.8 0 1 47.23 26.75
  L 47.30 35.15
  A 0.43 0.43 0.0 0 0 47.97 35.50
  Q 49.07 34.76 49.79 33.70
  A 0.27 0.26 44.5 0 1 50.22 33.70
  L 50.39 33.93
  Q 50.49 34.06 50.39 34.19
  Q 49.44 35.47 48.14 36.31
  Q 47.26 36.88 47.27 37.92
  Q 47.34 47.44 47.44 57.24
  Q 47.45 58.24 47.81 59.08
  A 1.13 1.12 55.4 0 0 49.65 59.42
  L 56.62 52.25
  A 1.00 1.00 0.0 0 1 58.05 52.24
  Q 59.36 53.53 57.83 55.33
  Q 57.14 56.14 56.27 56.96
  Q 52.89 60.15 48.77 63.04
  A 2.61 2.57 -16.9 0 0 47.66 65.08
  L 47.34 74.76
  A 0.33 0.33 0.0 0 0 47.87 75.03
  C 48.58 74.49 49.30 73.83 49.71 73.02
  Q 50.48 71.53 52.21 71.38"
/>
<path stroke="#393c4b" vector-effect="non-scaling-stroke" d="
  M 42.44 109.81
  Q 43.08 110.80 42.85 109.64
  L 42.61 108.44
  Q 42.51 107.91 42.13 107.51
  L 37.40 102.62
  Q 37.16 102.38 36.93 102.63
  L 36.58 103.00
  A 0.16 0.16 0.0 0 0 36.59 103.22
  Q 40.37 106.54 42.44 109.81"
/>
</g>
<path fill="#02040a" d="
  M 44.00 171.25
  L 44.01 132.74
  A 0.69 0.68 -89.6 0 0 43.34 132.05
  Q 36.97 131.87 30.63 132.08
  Q 27.61 132.19 24.75 131.20
  C 16.69 128.41 9.99 127.10 5.62 118.91
  A 1.41 1.39 44.6 0 1 5.60 117.63
  Q 8.07 112.74 12.04 109.39
  Q 15.98 106.07 20.44 102.63
  Q 20.98 102.22 21.64 102.04
  Q 22.01 101.94 22.08 101.55
  Q 22.47 99.29 20.51 97.92
  C 16.18 94.87 10.22 90.11 7.99 85.21
  Q 7.78 84.74 8.06 84.31
  C 9.03 82.83 10.22 81.43 10.80 79.73
  C 12.06 76.07 14.87 73.62 16.91 70.40
  Q 20.27 65.10 24.97 60.55
  Q 25.57 59.97 25.39 59.15
  C 24.27 54.08 21.01 46.71 23.69 41.73
  A 1.95 1.95 0.0 0 0 23.92 40.60
  Q 23.73 38.82 24.76 37.64
  Q 25.08 37.27 25.01 36.79
  C 24.87 35.77 25.48 34.88 25.81 33.92
  Q 27.02 30.49 28.67 27.47
  Q 29.85 25.30 30.45 22.85
  C 31.24 19.58 33.47 17.04 35.20 14.15
  Q 37.28 10.68 40.60 6.93
  Q 42.73 4.54 45.67 3.56
  Q 46.16 3.40 46.64 3.56
  Q 52.14 5.37 54.73 8.31
  Q 59.14 13.31 61.50 20.97
  C 62.27 23.46 61.92 26.04 62.60 28.52
  C 63.33 31.19 63.00 34.41 63.00 37.22
  Q 63.00 37.94 62.29 38.04
  Q 62.06 38.07 62.04 38.30
  Q 62.02 38.67 62.30 38.90
  Q 63.94 40.26 64.04 42.16
  Q 64.07 42.64 64.41 42.98
  C 65.98 44.55 67.47 46.15 69.26 47.48
  Q 71.09 48.84 72.72 50.93
  Q 73.96 52.52 74.07 54.36
  Q 74.39 60.07 70.22 63.26
  A 1.52 1.51 -39.2 0 0 69.99 65.45
  C 71.29 66.97 72.75 68.27 73.99 69.87
  Q 79.00 76.37 85.00 83.85
  Q 86.79 86.07 84.69 88.00
  Q 78.84 93.34 72.62 97.89
  A 1.62 1.62 0.0 0 0 72.56 100.45
  Q 77.22 104.23 81.89 108.39
  Q 84.96 111.11 87.90 115.11
  Q 90.12 118.12 87.91 120.66
  C 85.38 123.59 82.88 125.66 79.28 127.40
  Q 76.29 128.85 73.47 130.11
  C 70.28 131.53 66.08 132.03 62.42 132.01
  Q 54.59 131.98 47.50 132.01
  A 0.50 0.50 0.0 0 0 47.00 132.51
  L 46.99 171.49
  A 0.50 0.50 0.0 0 0 47.49 171.99
  L 69.75 172.00
  Q 70.00 172.00 70.00 172.25
  L 70.00 174.76
  A 0.26 0.25 -0.0 0 1 69.74 175.01
  L 24.21 174.98
  Q 23.04 174.98 22.96 173.81
  Q 22.95 173.65 22.93 173.49
  Q 22.77 172.02 24.25 172.02
  L 43.25 171.99
  Q 44.00 171.99 44.00 171.25
  Z
  M 52.21 71.38
  A 0.54 0.53 19.9 0 1 52.64 72.29
  L 47.69 77.25
  Q 47.31 77.64 47.30 78.17
  L 47.10 95.25
  A 1.02 1.02 0.0 0 0 48.81 96.02
  L 53.87 91.43
  Q 54.86 90.54 55.36 91.77
  Q 55.42 91.91 55.44 92.05
  Q 55.75 93.61 54.75 94.51
  L 48.15 100.49
  A 2.43 2.41 69.3 0 0 47.34 102.30
  L 47.11 129.77
  Q 47.11 130.38 47.72 130.40
  Q 56.72 130.71 64.86 130.10
  C 72.52 129.53 79.29 125.83 85.30 120.89
  Q 86.72 119.72 87.21 117.96
  Q 87.35 117.46 87.09 117.01
  Q 85.96 115.03 84.25 113.53
  Q 78.13 108.12 71.82 102.63
  Q 70.31 101.32 69.55 99.93
  Q 69.28 99.45 69.45 98.93
  Q 70.16 96.69 72.00 95.41
  C 75.71 92.83 80.55 89.78 83.36 86.14
  A 0.71 0.70 46.6 0 0 83.38 85.30
  Q 76.05 74.94 68.44 66.02
  A 2.60 2.58 40.0 0 1 68.17 63.04
  C 70.18 59.55 74.93 56.40 70.79 51.95
  Q 66.76 47.62 62.09 43.22
  C 60.35 41.58 60.26 39.19 60.58 36.95
  C 61.39 31.21 61.34 24.77 59.16 19.37
  C 57.72 15.82 49.14 1.28 43.38 7.14
  C 39.63 10.95 36.33 15.35 33.98 20.21
  Q 28.72 31.07 25.29 41.06
  C 23.73 45.61 25.87 51.38 26.90 55.92
  C 27.44 58.28 26.92 60.52 25.56 62.44
  C 22.54 66.72 18.76 70.75 15.60 75.25
  C 13.79 77.82 8.79 83.55 10.91 86.84
  Q 12.34 89.06 14.37 90.61
  Q 19.07 94.21 23.40 98.35
  Q 25.71 100.57 23.19 102.55
  Q 18.24 106.42 13.24 110.61
  C 11.15 112.36 6.66 116.83 8.88 119.98
  C 12.46 125.05 19.52 128.58 25.09 129.81
  C 30.78 131.07 37.37 130.38 43.37 130.60
  A 0.58 0.57 -88.6 0 0 43.97 130.02
  Q 44.00 121.46 44.00 113.07
  C 44.00 111.60 43.67 110.16 43.83 108.74
  Q 43.99 107.24 43.99 105.70
  Q 44.00 84.20 44.02 63.25
  Q 44.02 61.89 43.26 61.25
  Q 38.56 57.30 36.17 53.63
  A 0.70 0.70 0.0 0 1 36.17 52.85
  Q 36.49 52.35 36.97 52.40
  Q 38.38 52.55 39.41 53.52
  Q 41.37 55.37 43.08 57.33
  Q 43.93 58.30 43.93 57.01
  L 43.99 28.34
  A 1.30 1.29 54.1 0 1 44.05 27.95
  Q 45.03 24.84 46.70 25.82
  A 1.10 1.08 15.8 0 1 47.23 26.75
  L 47.30 35.15
  A 0.43 0.43 0.0 0 0 47.97 35.50
  Q 49.07 34.76 49.79 33.70
  A 0.27 0.26 44.5 0 1 50.22 33.70
  L 50.39 33.93
  Q 50.49 34.06 50.39 34.19
  Q 49.44 35.47 48.14 36.31
  Q 47.26 36.88 47.27 37.92
  Q 47.34 47.44 47.44 57.24
  Q 47.45 58.24 47.81 59.08
  A 1.13 1.12 55.4 0 0 49.65 59.42
  L 56.62 52.25
  A 1.00 1.00 0.0 0 1 58.05 52.24
  Q 59.36 53.53 57.83 55.33
  Q 57.14 56.14 56.27 56.96
  Q 52.89 60.15 48.77 63.04
  A 2.61 2.57 -16.9 0 0 47.66 65.08
  L 47.34 74.76
  A 0.33 0.33 0.0 0 0 47.87 75.03
  C 48.58 74.49 49.30 73.83 49.71 73.02
  Q 50.48 71.53 52.21 71.38
  Z"
/>
<path fill="#6f748b" d="
  M 52.21 71.38
  Q 50.48 71.53 49.71 73.02
  C 49.30 73.83 48.58 74.49 47.87 75.03
  A 0.33 0.33 0.0 0 1 47.34 74.76
  L 47.66 65.08
  A 2.61 2.57 -16.9 0 1 48.77 63.04
  Q 52.89 60.15 56.27 56.96
  Q 57.14 56.14 57.83 55.33
  Q 59.36 53.53 58.05 52.24
  A 1.00 1.00 0.0 0 0 56.62 52.25
  L 49.65 59.42
  A 1.13 1.12 55.4 0 1 47.81 59.08
  Q 47.45 58.24 47.44 57.24
  Q 47.34 47.44 47.27 37.92
  Q 47.26 36.88 48.14 36.31
  Q 49.44 35.47 50.39 34.19
  Q 50.49 34.06 50.39 33.93
  L 50.22 33.70
  A 0.27 0.26 44.5 0 0 49.79 33.70
  Q 49.07 34.76 47.97 35.50
  A 0.43 0.43 0.0 0 1 47.30 35.15
  L 47.23 26.75
  A 1.10 1.08 15.8 0 0 46.70 25.82
  Q 45.03 24.84 44.05 27.95
  A 1.30 1.29 54.1 0 0 43.99 28.34
  L 43.93 57.01
  Q 43.93 58.30 43.08 57.33
  Q 41.37 55.37 39.41 53.52
  Q 38.38 52.55 36.97 52.40
  Q 36.49 52.35 36.17 52.85
  A 0.70 0.70 0.0 0 0 36.17 53.63
  Q 38.56 57.30 43.26 61.25
  Q 44.02 61.89 44.02 63.25
  Q 44.00 84.20 43.99 105.70
  Q 43.99 107.24 43.83 108.74
  C 43.67 110.16 44.00 111.60 44.00 113.07
  Q 44.00 121.46 43.97 130.02
  A 0.58 0.57 -88.6 0 1 43.37 130.60
  C 37.37 130.38 30.78 131.07 25.09 129.81
  C 19.52 128.58 12.46 125.05 8.88 119.98
  C 6.66 116.83 11.15 112.36 13.24 110.61
  Q 18.24 106.42 23.19 102.55
  Q 25.71 100.57 23.40 98.35
  Q 19.07 94.21 14.37 90.61
  Q 12.34 89.06 10.91 86.84
  C 8.79 83.55 13.79 77.82 15.60 75.25
  C 18.76 70.75 22.54 66.72 25.56 62.44
  C 26.92 60.52 27.44 58.28 26.90 55.92
  C 25.87 51.38 23.73 45.61 25.29 41.06
  Q 28.72 31.07 33.98 20.21
  C 36.33 15.35 39.63 10.95 43.38 7.14
  C 49.14 1.28 57.72 15.82 59.16 19.37
  C 61.34 24.77 61.39 31.21 60.58 36.95
  C 60.26 39.19 60.35 41.58 62.09 43.22
  Q 66.76 47.62 70.79 51.95
  C 74.93 56.40 70.18 59.55 68.17 63.04
  A 2.60 2.58 40.0 0 0 68.44 66.02
  Q 76.05 74.94 83.38 85.30
  A 0.71 0.70 46.6 0 1 83.36 86.14
  C 80.55 89.78 75.71 92.83 72.00 95.41
  Q 70.16 96.69 69.45 98.93
  Q 69.28 99.45 69.55 99.93
  Q 70.31 101.32 71.82 102.63
  Q 78.13 108.12 84.25 113.53
  Q 85.96 115.03 87.09 117.01
  Q 87.35 117.46 87.21 117.96
  Q 86.72 119.72 85.30 120.89
  C 79.29 125.83 72.52 129.53 64.86 130.10
  Q 56.72 130.71 47.72 130.40
  Q 47.11 130.38 47.11 129.77
  L 47.34 102.30
  A 2.43 2.41 69.3 0 1 48.15 100.49
  L 54.75 94.51
  Q 55.75 93.61 55.44 92.05
  Q 55.42 91.91 55.36 91.77
  Q 54.86 90.54 53.87 91.43
  L 48.81 96.02
  A 1.02 1.02 0.0 0 1 47.10 95.25
  L 47.30 78.17
  Q 47.31 77.64 47.69 77.25
  L 52.64 72.29
  A 0.54 0.53 19.9 0 0 52.21 71.38
  Z
  M 42.44 109.81
  Q 43.08 110.80 42.85 109.64
  L 42.61 108.44
  Q 42.51 107.91 42.13 107.51
  L 37.40 102.62
  Q 37.16 102.38 36.93 102.63
  L 36.58 103.00
  A 0.16 0.16 0.0 0 0 36.59 103.22
  Q 40.37 106.54 42.44 109.81
  Z"
/>
<path fill="#02040a" d="
  M 42.44 109.81
  Q 40.37 106.54 36.59 103.22
  A 0.16 0.16 0.0 0 1 36.58 103.00
  L 36.93 102.63
  Q 37.16 102.38 37.40 102.62
  L 42.13 107.51
  Q 42.51 107.91 42.61 108.44
  L 42.85 109.64
  Q 43.08 110.80 42.44 109.81
  Z"
/>
</svg>
