<?xml version="1.0" encoding="UTF-8" standalone="no"?>
<!DOCTYPE svg PUBLIC "-//W3C//DTD SVG 1.1//EN" "http://www.w3.org/Graphics/SVG/1.1/DTD/svg11.dtd">
<svg xmlns="http://www.w3.org/2000/svg" version="1.1" viewBox="0.00 0.00 582.00 623.00">
<g stroke-width="2.00" fill="none" stroke-linecap="butt">
<path stroke="#445639" vector-effect="non-scaling-stroke" d="
  M 459.44 91.30
  Q 455.15 85.30 450.77 79.40
  C 449.53 77.73 448.05 76.35 446.85 74.63
  Q 445.54 72.77 443.84 71.10
  C 439.06 66.40 434.64 61.22 429.68 56.97
  Q 402.71 33.86 370.82 20.73
  Q 343.53 9.50 312.21 6.19
  Q 303.24 5.24 292.79 5.35
  C 291.78 5.36 290.86 5.01 289.86 5.05
  C 282.69 5.33 275.79 5.40 268.45 6.27
  Q 262.01 7.04 255.50 7.62"
/>
<path stroke="#445639" vector-effect="non-scaling-stroke" d="
  M 462.21 95.57
  Q 475.96 118.45 482.88 145.38
  Q 483.10 146.26 483.09 146.84
  A 1.84 1.82 32.9 0 0 483.29 147.75
  Q 484.20 149.57 484.14 151.57
  A 2.15 2.15 0.0 0 0 485.82 153.74
  Q 487.60 154.13 489.31 154.91
  Q 505.89 162.44 519.64 174.35
  Q 524.50 178.55 527.08 180.47"
/>
<path stroke="#445639" vector-effect="non-scaling-stroke" d="
  M 532.20 185.71
  Q 536.66 191.41 541.40 196.84
  Q 547.35 203.65 554.88 217.54
  Q 561.37 229.54 566.61 242.26"
/>
<path stroke="#445639" vector-effect="non-scaling-stroke" d="
  M 577.54 296.18
  L 576.30 323.52"
/>
<path stroke="#445639" vector-effect="non-scaling-stroke" d="
  M 576.12 325.95
  Q 574.84 328.02 575.46 330.11"
/>
<path stroke="#445639" vector-effect="non-scaling-stroke" d="
  M 570.97 350.10
  Q 568.68 356.45 566.62 362.85
  Q 563.22 373.35 554.87 388.87
  Q 552.11 394.00 544.55 406.03"
/>
<path stroke="#445639" vector-effect="non-scaling-stroke" d="
  M 511.72 440.74
  Q 489.90 456.93 464.35 464.97
  Q 461.08 466.00 457.11 466.86
  C 453.26 467.70 449.22 468.91 445.23 469.24
  Q 442.97 469.43 440.89 470.09
  Q 440.76 470.13 440.62 470.07
  Q 440.57 470.04 440.52 470.00
  Q 440.40 469.89 440.35 470.06
  Q 440.33 470.14 440.29 470.24"
/>
<path stroke="#445639" vector-effect="non-scaling-stroke" d="
  M 438.50 470.18
  C 431.01 470.09 423.29 470.50 415.90 469.59
  Q 410.52 468.93 407.27 468.23
  Q 396.62 465.94 382.27 459.30
  Q 380.35 458.41 380.16 460.30"
/>
<path stroke="#445639" vector-effect="non-scaling-stroke" d="
  M 378.69 462.18
  Q 376.98 463.21 375.61 464.82
  Q 374.34 466.32 372.95 467.79
  Q 367.07 474.01 360.66 479.59
  Q 353.94 485.44 340.00 494.49
  Q 338.60 495.40 339.30 497.07"
/>
<path stroke="#445639" vector-effect="non-scaling-stroke" d="
  M 339.43 565.93
  Q 338.98 566.45 339.51 567.04
  Q 339.76 567.32 340.13 567.39
  Q 354.43 570.13 363.90 579.93
  Q 371.46 587.75 373.79 592.97
  Q 376.52 599.08 378.47 601.45"
/>
<path stroke="#445639" vector-effect="non-scaling-stroke" d="
  M 206.64 600.98
  Q 213.15 587.56 218.72 581.86
  Q 226.04 574.38 234.92 570.42
  Q 239.53 568.36 244.80 567.85
  A 2.07 2.07 0.0 0 0 246.67 565.82
  Q 247.13 532.22 246.71 499.25
  C 246.68 497.15 246.77 496.15 244.93 494.81
  Q 235.22 487.80 225.51 480.60"
/>
<path stroke="#445639" vector-effect="non-scaling-stroke" d="
  M 224.15 479.58
  Q 224.41 479.24 223.91 478.83
  Q 212.98 469.79 204.60 459.18
  A 1.44 1.43 -32.8 0 0 202.82 458.80
  Q 188.37 466.30 172.35 469.03
  C 161.14 470.94 147.31 470.77 136.71 469.52
  Q 125.65 468.22 114.26 464.23
  Q 92.70 456.68 73.54 442.88"
/>
<path stroke="#445639" vector-effect="non-scaling-stroke" d="
  M 43.27 413.46
  Q 11.16 370.99 6.28 318.05
  Q 5.86 313.53 5.77 308.99
  Q 5.68 304.66 5.81 294.69
  Q 5.85 292.42 6.34 288.36
  Q 6.73 285.21 6.74 282.00"
/>
<path stroke="#445639" vector-effect="non-scaling-stroke" d="
  M 6.83 279.24
  Q 7.33 278.79 7.49 277.49
  Q 8.64 268.34 10.95 259.50
  Q 16.39 238.67 25.10 222.06
  Q 33.97 205.13 40.13 197.64
  Q 43.92 193.04 45.34 190.47"
/>
<path stroke="#445639" vector-effect="non-scaling-stroke" d="
  M 67.29 169.14
  Q 76.91 162.42 87.01 157.00
  Q 89.63 155.59 92.76 154.57
  A 3.03 3.02 85.8 0 0 94.79 152.21
  Q 98.60 130.25 108.51 110.54
  Q 125.49 76.81 152.59 54.27
  Q 185.28 27.09 225.99 14.50
  Q 229.89 13.29 237.11 11.60
  Q 242.70 10.29 248.27 8.80"
/>
<path stroke="#445639" vector-effect="non-scaling-stroke" d="
  M 249.72 8.64
  Q 252.21 8.80 255.01 7.66"
/>
<path stroke="#7d7c3c" vector-effect="non-scaling-stroke" d="
  M 168.45 71.50
  L 157.21 82.26"
/>
<path stroke="#6a7435" vector-effect="non-scaling-stroke" d="
  M 157.21 82.26
  Q 155.88 83.35 153.72 85.72
  Q 139.02 101.91 129.60 120.85
  Q 120.80 138.52 118.29 154.75
  Q 116.68 165.12 116.37 167.87
  Q 116.18 169.60 115.82 170.39"
/>
<path stroke="#9d8883" vector-effect="non-scaling-stroke" d="
  M 115.82 170.39
  C 88.97 178.13 68.60 196.14 53.99 219.82"
/>
<path stroke="#7d7c3c" vector-effect="non-scaling-stroke" d="
  M 53.99 219.82
  Q 52.90 220.77 51.86 223.29"
/>
<path stroke="#6a7435" vector-effect="non-scaling-stroke" d="
  M 51.86 223.29
  Q 44.42 235.12 40.19 247.75"
/>
<path stroke="#445639" vector-effect="non-scaling-stroke" d="
  M 40.19 247.75
  Q 31.51 271.98 30.87 295.51
  Q 30.35 314.42 33.43 332.46
  C 39.87 370.30 61.99 405.00 93.88 427.07
  Q 121.11 445.91 153.89 445.93
  C 185.53 445.95 214.28 429.50 234.54 405.96
  A 1.08 1.07 -47.6 0 0 234.48 404.49
  C 229.12 399.29 215.51 385.55 225.54 378.36
  C 233.18 372.88 239.33 379.74 244.99 386.07
  Q 245.31 386.42 245.75 386.58
  A 1.00 1.00 0.0 0 0 246.99 386.04
  Q 249.05 381.43 251.39 376.60
  Q 253.48 372.28 257.70 371.72
  Q 265.26 370.73 269.20 377.18
  C 272.74 382.97 266.39 395.43 263.32 400.60
  A 0.61 0.60 -65.2 0 0 263.64 401.48
  Q 292.98 411.71 322.05 400.86
  A 0.53 0.53 0.0 0 0 322.34 400.15
  C 319.67 394.16 315.83 387.83 314.53 381.30
  C 313.40 375.59 316.62 370.26 322.55 369.23
  C 332.13 367.57 335.33 376.80 338.29 383.81
  A 0.60 0.60 0.0 0 0 339.30 383.96
  C 341.85 380.88 344.25 377.74 346.32 374.29
  Q 348.39 370.82 350.89 368.37
  C 354.88 364.44 361.03 365.83 364.64 369.64
  C 368.02 373.20 368.17 378.28 365.95 382.51
  Q 359.70 394.48 349.44 403.16
  A 0.75 0.74 -38.7 0 0 349.32 404.18
  C 358.25 416.01 371.46 426.11 384.02 433.45
  C 404.59 445.47 430.91 449.04 454.04 442.63
  Q 473.69 437.19 488.60 426.91
  Q 521.15 404.47 537.90 368.91
  Q 547.74 348.02 550.62 328.55
  Q 555.18 297.77 547.35 265.20"
/>
<path stroke="#6a7435" vector-effect="non-scaling-stroke" d="
  M 547.35 265.20
  Q 541.42 239.65 526.95 217.85"
/>
<path stroke="#7d7c3c" vector-effect="non-scaling-stroke" d="
  M 526.95 217.85
  L 525.54 216.06"
/>
<path stroke="#9d8883" vector-effect="non-scaling-stroke" d="
  M 525.54 216.06
  C 512.75 197.83 495.31 182.14 474.47 174.08
  Q 471.82 173.06 462.26 170.08"
/>
<path stroke="#6a7435" vector-effect="non-scaling-stroke" d="
  M 462.26 170.08
  Q 460.74 157.89 458.71 149.25
  Q 452.64 123.46 436.77 100.98"
/>
<path stroke="#7d7c3c" vector-effect="non-scaling-stroke" d="
  M 436.77 100.98
  Q 425.72 85.28 411.47 72.87"
/>
<path stroke="#9d8883" vector-effect="non-scaling-stroke" d="
  M 411.47 72.87
  Q 402.30 64.36 388.03 55.98
  Q 367.33 43.82 352.29 39.02
  Q 308.95 25.16 265.62 30.83
  Q 238.98 34.32 217.70 42.44
  Q 191.49 52.44 168.45 71.50"
/>
<path stroke="#def39a" vector-effect="non-scaling-stroke" d="
  M 411.47 72.87
  Q 410.53 76.16 407.13 78.19
  C 401.28 81.67 394.93 75.99 390.63 72.48
  Q 386.88 69.43 382.03 66.44
  Q 369.49 58.73 357.49 53.95
  Q 347.00 49.77 333.30 46.25
  C 313.29 41.10 293.01 40.17 272.02 42.17
  C 266.77 42.67 261.55 43.04 256.39 44.20
  Q 233.22 49.39 218.03 55.85
  Q 205.35 61.25 197.27 66.76
  Q 190.83 71.16 183.96 76.43
  Q 177.72 81.22 172.28 76.43
  Q 170.21 74.61 168.45 71.50"
/>
<path stroke="#abe04c" vector-effect="non-scaling-stroke" d="
  M 436.77 100.98
  L 436.89 102.82
  Q 436.92 103.30 437.15 103.74
  Q 437.76 104.89 437.01 105.98
  C 433.09 111.69 429.27 117.21 424.38 122.16
  Q 410.44 136.29 392.84 144.08
  Q 375.27 151.87 356.54 155.40
  Q 320.13 162.26 287.71 158.22
  Q 275.04 156.63 256.60 152.08
  C 251.09 150.71 245.92 148.57 240.62 146.75
  C 232.68 144.02 225.10 140.46 217.46 136.90
  Q 213.76 135.18 209.32 132.52
  Q 205.43 130.19 201.27 127.89"
/>
<path stroke="#85c250" vector-effect="non-scaling-stroke" d="
  M 201.27 127.89
  Q 198.07 120.69 189.84 119.30"
/>
<path stroke="#abe04c" vector-effect="non-scaling-stroke" d="
  M 189.84 119.30
  Q 188.65 119.39 187.62 119.03
  Q 187.23 118.89 186.97 118.56
  C 186.14 117.47 184.97 117.16 184.00 116.29
  Q 177.29 110.24 170.85 103.62
  C 165.25 97.86 159.49 90.07 157.21 82.26"
/>
<path stroke="#72ba49" vector-effect="non-scaling-stroke" d="
  M 189.84 119.30
  Q 183.09 120.00 180.38 124.86
  C 177.47 130.08 179.14 136.58 183.67 140.39
  Q 188.42 144.39 195.01 142.45
  C 202.01 140.38 202.50 134.34 201.27 127.89"
/>
<path stroke="#cbec93" vector-effect="non-scaling-stroke" d="
  M 462.26 170.08
  L 458.82 171.79"
/>
<path stroke="#abe04c" vector-effect="non-scaling-stroke" d="
  M 458.82 171.79
  Q 458.42 173.68 458.38 175.42
  Q 458.34 177.22 459.13 178.80
  Q 460.16 180.85 459.89 183.33
  Q 459.09 190.76 457.44 198.29
  C 456.44 202.84 454.82 207.28 453.88 211.96
  Q 453.24 215.15 451.58 217.84
  Q 451.33 218.25 451.62 218.62
  Q 455.92 224.13 453.29 230.10
  C 451.93 233.19 447.60 235.50 444.46 236.67
  A 0.72 0.71 74.1 0 0 444.01 237.49
  Q 444.44 239.41 443.71 241.12
  Q 441.26 246.90 441.06 253.28
  C 441.00 255.36 442.01 257.35 442.80 259.25
  A 2.13 2.13 0.0 0 0 445.74 260.32
  C 454.02 256.05 461.89 262.64 470.33 262.50"
/>
<path stroke="#cbec93" vector-effect="non-scaling-stroke" d="
  M 470.33 262.50
  Q 473.96 266.31 478.94 264.90
  Q 482.29 263.95 483.41 260.54"
/>
<path stroke="#abe04c" vector-effect="non-scaling-stroke" d="
  M 483.41 260.54
  Q 488.10 253.62 494.93 252.13
  Q 496.69 251.74 497.94 251.18
  C 500.49 250.03 502.98 249.49 505.12 247.79
  C 510.03 243.90 515.24 239.62 517.22 234.69
  Q 519.89 228.05 523.02 221.17
  C 523.41 220.31 523.49 219.34 523.84 218.43
  Q 524.02 217.95 524.53 217.93
  L 526.95 217.85"
/>
<path stroke="#72ba49" vector-effect="non-scaling-stroke" d="
  M 547.35 265.20
  Q 545.98 268.61 545.41 272.36
  Q 544.47 278.62 544.24 279.64
  Q 542.23 288.32 539.94 296.81
  C 538.93 300.59 537.23 304.25 535.91 307.90
  Q 532.18 318.22 524.25 329.42
  C 520.77 334.33 516.89 339.49 512.75 344.00
  Q 499.91 357.95 483.88 368.41
  Q 475.48 373.90 465.64 377.51
  Q 444.55 385.25 422.81 381.99
  C 414.70 380.77 405.84 377.51 398.52 373.85
  Q 388.35 368.76 377.06 362.62
  Q 352.53 349.27 326.76 346.37
  Q 298.14 343.15 266.04 348.47
  Q 238.48 353.03 211.16 364.95
  Q 201.64 369.10 193.77 372.63
  C 190.08 374.29 186.21 375.60 182.47 377.11
  Q 177.97 378.92 173.66 380.05
  Q 138.89 389.21 106.22 371.65
  C 92.02 364.02 79.93 353.54 69.23 341.42
  Q 64.73 336.32 60.41 329.86
  Q 42.57 303.18 37.58 271.88
  C 37.00 268.24 37.19 264.90 37.41 261.26
  Q 37.44 260.78 37.71 260.31
  Q 38.07 259.67 38.10 259.37
  Q 38.76 253.70 40.19 247.75"
/>
<path stroke="#abe04c" vector-effect="non-scaling-stroke" d="
  M 51.86 223.29
  Q 52.80 224.37 53.86 228.39
  Q 54.41 230.47 57.13 235.69
  C 61.09 243.25 66.16 248.14 74.08 252.24
  C 78.94 254.76 85.31 254.71 90.65 254.83
  Q 94.57 254.92 97.59 256.39
  Q 104.41 259.68 110.99 264.96
  Q 111.83 265.63 112.29 264.66
  Q 113.08 263.00 113.97 261.45
  Q 114.93 259.78 115.05 257.84
  Q 115.14 256.25 115.77 254.69
  Q 116.07 253.94 116.49 253.31
  Q 116.91 252.70 116.89 251.95
  Q 116.88 251.45 117.05 250.99
  Q 117.58 249.56 117.72 248.02
  Q 117.77 247.52 117.49 247.10
  Q 115.73 244.42 116.64 243.70"
/>
<path stroke="#cbec93" vector-effect="non-scaling-stroke" d="
  M 116.64 243.70
  C 124.84 241.67 130.82 232.39 123.18 225.75"
/>
<path stroke="#abe04c" vector-effect="non-scaling-stroke" d="
  M 123.18 225.75
  L 123.58 224.26
  A 1.26 1.24 -11.5 0 1 124.03 223.59
  Q 125.16 222.74 124.91 221.35
  A 1.65 1.58 53.7 0 1 125.03 220.42
  Q 126.00 218.33 126.24 216.13
  Q 126.72 215.53 126.43 214.88
  Q 126.26 214.50 126.67 214.46
  Q 127.40 214.40 127.00 213.93"
/>
<path stroke="#cbec93" vector-effect="non-scaling-stroke" d="
  M 127.00 213.93
  Q 131.07 217.29 135.12 215.15
  C 139.24 212.96 141.57 209.66 140.02 205.04
  Q 139.14 202.39 136.15 200.66
  Q 130.64 197.50 125.25 202.61"
/>
<path stroke="#abe04c" vector-effect="non-scaling-stroke" d="
  M 125.25 202.61
  Q 123.91 198.31 123.08 197.43
  Q 121.82 196.09 120.91 194.42
  C 120.20 193.12 120.49 191.91 120.49 190.50
  C 120.49 187.75 118.92 185.92 119.13 182.93
  Q 119.27 180.92 120.18 179.20
  Q 122.09 175.58 120.58 172.52
  Q 119.66 170.66 116.75 170.57"
/>
<path stroke="#cbec93" vector-effect="non-scaling-stroke" d="
  M 116.75 170.57
  Q 115.87 170.05 115.82 170.39"
/>
<path stroke="#def39a" vector-effect="non-scaling-stroke" d="
  M 525.54 216.06
  Q 523.79 218.01 519.82 215.42
  Q 512.98 210.95 497.53 199.26
  Q 484.63 189.49 462.57 179.91
  Q 461.07 179.26 459.78 178.13
  Q 459.39 177.78 459.43 177.27
  Q 459.63 174.63 458.82 171.79"
/>
<path stroke="#def39a" vector-effect="non-scaling-stroke" d="
  M 116.75 170.57
  Q 118.06 173.82 118.41 177.25
  Q 118.66 179.70 116.27 180.73
  Q 94.31 190.21 75.44 205.60
  Q 69.35 210.56 63.17 214.67
  Q 59.13 217.36 53.99 219.82"
/>
<path stroke="#def39a" vector-effect="non-scaling-stroke" d="
  M 125.25 202.61
  Q 121.55 209.89 127.00 213.93"
/>
<path stroke="#def39a" vector-effect="non-scaling-stroke" d="
  M 123.18 225.75
  C 118.79 222.10 111.54 222.19 107.91 226.85
  Q 106.08 229.21 106.02 232.80
  Q 105.88 241.89 116.64 243.70"
/>
<path stroke="#def39a" vector-effect="non-scaling-stroke" d="
  M 483.41 260.54
  Q 484.17 253.70 479.23 251.36
  C 471.62 247.77 466.11 255.48 470.33 262.50"
/>
<path stroke="#7a3d38" vector-effect="non-scaling-stroke" d="
  M 271.39 450.40
  Q 268.24 454.22 263.15 454.55
  C 260.00 454.76 256.54 453.56 254.00 451.74
  Q 251.24 449.77 242.56 442.58"
/>
<path stroke="#5f2131" vector-effect="non-scaling-stroke" d="
  M 242.56 442.58
  L 235.44 436.26
  A 0.82 0.81 50.8 0 0 234.52 436.16
  Q 232.38 437.36 230.59 439.11
  C 228.08 441.57 225.25 443.55 222.46 445.67
  A 1.05 1.04 -43.5 0 0 222.41 447.29
  C 225.99 450.37 229.17 453.82 232.85 456.93
  Q 238.65 461.82 249.89 471.61
  Q 257.31 478.06 269.15 486.98"
/>
<path stroke="#7a3d38" vector-effect="non-scaling-stroke" d="
  M 269.15 486.98
  Q 269.82 489.14 269.70 492.44
  Q 269.62 494.90 269.61 497.12
  Q 269.49 527.79 269.63 557.32
  Q 269.66 564.23 268.91 568.26
  Q 268.41 570.92 265.65 572.65
  C 255.38 579.08 246.04 583.61 238.92 594.39"
/>
<path stroke="#5f2131" vector-effect="non-scaling-stroke" d="
  M 238.92 594.39
  Q 234.23 596.62 231.03 600.65
  A 0.66 0.65 19.5 0 0 231.54 601.71
  L 246.68 601.91"
/>
<path stroke="#8f563e" vector-effect="non-scaling-stroke" d="
  M 246.68 601.91
  L 261.26 601.70"
/>
<path stroke="#5f2131" vector-effect="non-scaling-stroke" d="
  M 261.26 601.70
  L 284.83 601.56"
/>
<path stroke="#7a3d38" vector-effect="non-scaling-stroke" d="
  M 284.83 601.56
  L 307.10 601.38"
/>
<path stroke="#5f2131" vector-effect="non-scaling-stroke" d="
  M 307.10 601.38
  L 327.99 601.80"
/>
<path stroke="#7a3d38" vector-effect="non-scaling-stroke" d="
  M 327.99 601.80
  L 336.06 601.84"
/>
<path stroke="#5f2131" vector-effect="non-scaling-stroke" d="
  M 336.06 601.84
  L 351.81 601.56
  A 0.44 0.44 0.0 0 0 352.12 600.82
  L 345.26 593.40"
/>
<path stroke="#7a3d38" vector-effect="non-scaling-stroke" d="
  M 345.26 593.40
  Q 337.85 584.45 333.23 581.52
  Q 322.23 574.54 319.48 572.29
  Q 315.63 569.14 315.57 564.66
  Q 315.26 539.09 315.67 487.25"
/>
<path stroke="#5f2131" vector-effect="non-scaling-stroke" d="
  M 315.67 487.25
  Q 323.73 480.99 328.11 477.10
  Q 338.51 467.86 350.54 457.78
  Q 356.24 453.01 361.54 446.69
  A 1.38 1.38 0.0 0 0 361.36 444.73
  L 351.49 436.64
  A 1.18 1.18 0.0 0 0 349.98 436.65
  L 344.05 441.71"
/>
<path stroke="#7a3d38" vector-effect="non-scaling-stroke" d="
  M 344.05 441.71
  Q 339.16 445.48 334.23 449.37
  Q 328.79 453.65 325.59 454.37
  Q 318.82 455.90 313.45 449.77"
/>
<path stroke="#5f2131" vector-effect="non-scaling-stroke" d="
  M 313.45 449.77
  L 313.42 427.76
  A 0.88 0.87 84.3 0 0 312.38 426.90
  C 298.82 429.53 285.51 430.20 271.97 426.21
  A 0.68 0.68 0.0 0 0 271.10 426.87
  L 271.39 450.40"
/>
<path stroke="#9c4e44" vector-effect="non-scaling-stroke" d="
  M 313.45 449.77
  C 306.17 443.68 299.27 439.43 289.24 440.29
  Q 282.37 440.88 278.06 444.56
  Q 274.91 447.25 271.39 450.40"
/>
<path stroke="#9c4e44" vector-effect="non-scaling-stroke" d="
  M 345.26 593.40
  Q 343.12 600.48 336.06 601.84"
/>
<path stroke="#9c4e44" vector-effect="non-scaling-stroke" d="
  M 327.99 601.80
  Q 325.89 601.39 325.11 600.63
  Q 323.28 598.85 321.31 597.16
  Q 312.94 590.00 307.10 601.38"
/>
<path stroke="#9c4e44" vector-effect="non-scaling-stroke" d="
  M 284.83 601.56
  Q 283.44 600.39 279.00 595.75
  Q 276.83 593.48 273.29 593.22"
/>
<path stroke="#cc8352" vector-effect="non-scaling-stroke" d="
  M 273.29 593.22
  Q 272.22 589.34 267.11 587.41
  Q 262.54 585.69 258.49 585.17
  Q 251.97 584.33 247.53 588.89
  Q 242.62 593.95 241.07 597.41"
/>
<path stroke="#9c4e44" vector-effect="non-scaling-stroke" d="
  M 241.07 597.41
  Q 239.97 596.40 238.92 594.39"
/>
<path stroke="#9c4e44" vector-effect="non-scaling-stroke" d="
  M 315.67 487.25
  Q 315.92 484.40 316.02 481.05
  C 316.08 478.61 316.63 476.94 318.50 475.50
  C 325.02 470.47 331.29 465.18 337.78 460.17
  Q 341.82 457.04 346.44 452.48
  Q 347.93 451.01 349.78 449.91
  A 1.09 1.09 0.0 0 0 350.03 448.24
  L 344.05 441.71"
/>
<path stroke="#b1674b" vector-effect="non-scaling-stroke" d="
  M 273.29 593.22
  Q 269.85 593.98 268.72 595.43
  Q 265.23 599.91 261.26 601.70"
/>
<path stroke="#b1674b" vector-effect="non-scaling-stroke" d="
  M 246.68 601.91
  Q 243.65 601.02 241.07 597.41"
/>
<path stroke="#9c4e44" vector-effect="non-scaling-stroke" d="
  M 242.56 442.58
  L 236.69 448.19
  A 1.49 1.49 0.0 0 0 236.74 450.39
  C 243.78 456.52 250.76 462.77 258.18 468.34
  Q 263.06 472.00 267.38 476.03
  C 270.08 478.55 269.50 483.88 269.15 486.98"
/>
<path stroke="#def39a" vector-effect="non-scaling-stroke" d="
  M 338.84 81.42
  A 11.24 11.24 0.0 0 0 327.60 70.18
  A 11.24 11.24 0.0 0 0 316.36 81.42
  A 11.24 11.24 0.0 0 0 327.60 92.66
  A 11.24 11.24 0.0 0 0 338.84 81.42"
/>
<path stroke="#def39a" vector-effect="non-scaling-stroke" d="
  M 388.7970 104.7048
  A 16.52 16.16 8.3 0 0 374.7828 86.3293
  A 16.52 16.16 8.3 0 0 356.1030 99.9352
  A 16.52 16.16 8.3 0 0 370.1172 118.3107
  A 16.52 16.16 8.3 0 0 388.7970 104.7048"
/>
<path stroke="#def39a" vector-effect="non-scaling-stroke" d="
  M 272.9527 110.1503
  A 14.61 14.16 5.5 0 0 259.7672 94.6552
  A 14.61 14.16 5.5 0 0 243.8673 107.3497
  A 14.61 14.16 5.5 0 0 257.0528 122.8448
  A 14.61 14.16 5.5 0 0 272.9527 110.1503"
/>
<path stroke="#abe04c" vector-effect="non-scaling-stroke" d="
  M 329.8075 128.6393
  A 6.66 6.12 104.1 0 0 337.3656 123.6709
  A 6.66 6.12 104.1 0 0 333.0525 115.7207
  A 6.66 6.12 104.1 0 0 325.4944 120.6891
  A 6.66 6.12 104.1 0 0 329.8075 128.6393"
/>
<path stroke="#abe04c" vector-effect="non-scaling-stroke" d="
  M 294.00 143.81
  A 6.03 6.03 0.0 0 0 287.97 137.78
  A 6.03 6.03 0.0 0 0 281.94 143.81
  A 6.03 6.03 0.0 0 0 287.97 149.84
  A 6.03 6.03 0.0 0 0 294.00 143.81"
/>
<path stroke="#72ba49" vector-effect="non-scaling-stroke" d="
  M 401.5389 171.6954
  A 7.63 7.33 -19.8 0 0 391.8771 167.3833
  A 7.63 7.33 -19.8 0 0 387.1811 176.8646
  A 7.63 7.33 -19.8 0 0 396.8429 181.1767
  A 7.63 7.33 -19.8 0 0 401.5389 171.6954"
/>
<path stroke="#72ba49" vector-effect="non-scaling-stroke" d="
  M 300.0889 235.7990
  A 9.13 8.83 -21.6 0 0 288.3495 230.9501
  A 9.13 8.83 -21.6 0 0 283.1111 242.5210
  A 9.13 8.83 -21.6 0 0 294.8505 247.3699
  A 9.13 8.83 -21.6 0 0 300.0889 235.7990"
/>
<path stroke="#cbec93" vector-effect="non-scaling-stroke" d="
  M 150.20 298.80
  A 8.13 8.13 0.0 0 0 142.07 290.67
  A 8.13 8.13 0.0 0 0 133.94 298.80
  A 8.13 8.13 0.0 0 0 142.07 306.93
  A 8.13 8.13 0.0 0 0 150.20 298.80"
/>
<path stroke="#72ba49" vector-effect="non-scaling-stroke" d="
  M 526.0991 306.4436
  A 6.58 5.81 129.0 0 0 534.7552 304.9864
  A 6.58 5.81 129.0 0 0 534.3809 296.2164
  A 6.58 5.81 129.0 0 0 525.7248 297.6736
  A 6.58 5.81 129.0 0 0 526.0991 306.4436"
/>
<path stroke="#72ba49" vector-effect="non-scaling-stroke" d="
  M 101.8229 309.1811
  A 8.04 7.72 -33.0 0 0 90.8754 307.0855
  A 8.04 7.72 -33.0 0 0 88.3371 317.9389
  A 8.04 7.72 -33.0 0 0 99.2846 320.0345
  A 8.04 7.72 -33.0 0 0 101.8229 309.1811"
/>
<path stroke="#72ba49" vector-effect="non-scaling-stroke" d="
  M 317.1231 309.9538
  A 8.64 8.39 -33.4 0 0 305.2915 307.7056
  A 8.64 8.39 -33.4 0 0 302.6969 319.4662
  A 8.64 8.39 -33.4 0 0 314.5285 321.7144
  A 8.64 8.39 -33.4 0 0 317.1231 309.9538"
/>
<path stroke="#cbec93" vector-effect="non-scaling-stroke" d="
  M 485.9994 323.3175
  A 7.73 7.49 11.7 0 0 479.9489 314.4156
  A 7.73 7.49 11.7 0 0 470.8606 320.1825
  A 7.73 7.49 11.7 0 0 476.9111 329.0844
  A 7.73 7.49 11.7 0 0 485.9994 323.3175"
/>
<path stroke="#72ba49" vector-effect="non-scaling-stroke" d="
  M 241.6546 326.3131
  A 8.57 8.23 21.3 0 0 236.6596 315.5322
  A 8.57 8.23 21.3 0 0 225.6854 320.0869
  A 8.57 8.23 21.3 0 0 230.6804 330.8678
  A 8.57 8.23 21.3 0 0 241.6546 326.3131"
/>
<path stroke="#72ba49" vector-effect="non-scaling-stroke" d="
  M 416.37 341.60
  A 7.83 7.83 0.0 0 0 408.54 333.77
  A 7.83 7.83 0.0 0 0 400.71 341.60
  A 7.83 7.83 0.0 0 0 408.54 349.43
  A 7.83 7.83 0.0 0 0 416.37 341.60"
/>
<path stroke="#72ba49" vector-effect="non-scaling-stroke" d="
  M 185.03 342.08
  A 7.69 7.69 0.0 0 0 177.34 334.39
  A 7.69 7.69 0.0 0 0 169.65 342.08
  A 7.69 7.69 0.0 0 0 177.34 349.77
  A 7.69 7.69 0.0 0 0 185.03 342.08"
/>
<path stroke="#72ba49" vector-effect="non-scaling-stroke" d="
  M 131.54 360.56
  A 10.85 10.85 0.0 0 0 120.69 349.71
  A 10.85 10.85 0.0 0 0 109.84 360.56
  A 10.85 10.85 0.0 0 0 120.69 371.41
  A 10.85 10.85 0.0 0 0 131.54 360.56"
/>
<path stroke="#72ba49" vector-effect="non-scaling-stroke" d="
  M 472.91 360.74
  A 10.99 10.99 0.0 0 0 461.92 349.75
  A 10.99 10.99 0.0 0 0 450.93 360.74
  A 10.99 10.99 0.0 0 0 461.92 371.73
  A 10.99 10.99 0.0 0 0 472.91 360.74"
/>
<path stroke="#def39a" vector-effect="non-scaling-stroke" d="
  M 499.43 232.60
  A 8.62 8.62 0.0 0 0 490.81 223.98
  A 8.62 8.62 0.0 0 0 482.19 232.60
  A 8.62 8.62 0.0 0 0 490.81 241.22
  A 8.62 8.62 0.0 0 0 499.43 232.60"
/>
<path stroke="#9c4e44" vector-effect="non-scaling-stroke" d="
  M 297.5405 452.7211
  A 1.58 1.58 0.0 0 0 295.9856 451.1165
  L 287.5466 450.9839
  A 1.58 1.58 0.0 0 0 285.9420 452.5389
  L 285.9395 452.6989
  A 1.58 1.58 0.0 0 0 287.4944 454.3035
  L 295.9334 454.4361
  A 1.58 1.58 0.0 0 0 297.5380 452.8811
  L 297.5405 452.7211"
/>
<path stroke="#cc8352" vector-effect="non-scaling-stroke" d="
  M 306.40 539.63
  Q 306.32 524.29 306.14 508.80
  C 306.00 497.64 306.59 485.85 305.84 474.88
  C 305.60 471.34 300.56 468.96 297.64 468.30
  Q 290.04 466.59 282.23 469.03
  C 279.33 469.94 279.37 473.20 279.38 475.84
  Q 279.56 521.00 279.64 564.54
  Q 279.64 567.96 280.01 573.22
  A 2.11 2.11 0.0 0 0 282.32 575.17
  Q 293.52 574.11 304.90 574.76
  A 1.04 1.04 0.0 0 0 306.00 573.72
  Q 306.02 561.11 306.01 549.12
  C 306.00 546.60 306.42 542.82 306.40 539.63"
/>
<path stroke="#cc8352" vector-effect="non-scaling-stroke" d="
  M 307.32 584.46
  L 306.17 579.00
  Q 305.86 577.54 304.41 577.18
  Q 298.92 575.79 293.81 576.26
  Q 287.41 576.85 282.43 581.64
  Q 281.05 582.96 280.89 584.81
  A 0.88 0.88 0.0 0 0 281.95 585.74
  Q 294.46 583.03 306.16 585.61
  Q 307.63 585.93 307.32 584.46"
/>
<path stroke="#cc8352" vector-effect="non-scaling-stroke" d="
  M 298.0730 503.1230
  A 5.96 3.13 -7.2 0 0 291.7677 500.7647
  A 5.96 3.13 -7.2 0 0 286.2470 504.6170
  A 5.96 3.13 -7.2 0 0 292.5523 506.9753
  A 5.96 3.13 -7.2 0 0 298.0730 503.1230"
/>
<path stroke="#cc8352" vector-effect="non-scaling-stroke" d="
  M 301.2059 542.4576
  A 1.31 1.31 0.0 0 0 299.8665 541.1776
  L 295.2077 541.2833
  A 1.31 1.31 0.0 0 0 293.9278 542.6227
  L 293.9541 543.7824
  A 1.31 1.31 0.0 0 0 295.2935 545.0624
  L 299.9523 544.9567
  A 1.31 1.31 0.0 0 0 301.2322 543.6173
  L 301.2059 542.4576"
/>
</g>
<path fill="#4c9c4d" d="
  M 459.44 91.30
  Q 455.15 85.30 450.77 79.40
  C 449.53 77.73 448.05 76.35 446.85 74.63
  Q 445.54 72.77 443.84 71.10
  C 439.06 66.40 434.64 61.22 429.68 56.97
  Q 402.71 33.86 370.82 20.73
  Q 343.53 9.50 312.21 6.19
  Q 303.24 5.24 292.79 5.35
  C 291.78 5.36 290.86 5.01 289.86 5.05
  C 282.69 5.33 275.79 5.40 268.45 6.27
  Q 262.01 7.04 255.50 7.62
  Q 267.32 5.52 283.75 4.94
  Q 284.99 4.89 285.71 4.95
  C 290.75 5.37 296.25 5.00 301.58 5.01
  Q 306.63 5.01 311.87 5.73
  Q 315.23 6.19 318.82 6.52
  Q 322.56 6.86 325.55 7.37
  Q 380.60 16.71 423.51 51.12
  C 436.75 61.73 448.24 74.55 457.92 88.34
  Q 458.93 89.77 459.44 91.30
  Z"
/>
<path fill="#3c1024" d="
  M 459.44 91.30
  Q 461.26 93.20 462.21 95.57
  Q 475.96 118.45 482.88 145.38
  Q 483.10 146.26 483.09 146.84
  A 1.84 1.82 32.9 0 0 483.29 147.75
  Q 484.20 149.57 484.14 151.57
  A 2.15 2.15 0.0 0 0 485.82 153.74
  Q 487.60 154.13 489.31 154.91
  Q 505.89 162.44 519.64 174.35
  Q 524.50 178.55 527.08 180.47
  L 532.20 185.71
  Q 536.66 191.41 541.40 196.84
  Q 547.35 203.65 554.88 217.54
  Q 561.37 229.54 566.61 242.26
  C 573.31 259.34 576.53 277.94 577.54 296.18
  L 576.30 323.52
  Q 576.42 324.72 576.12 325.95
  Q 574.84 328.02 575.46 330.11
  Q 573.98 340.20 570.97 350.10
  Q 568.68 356.45 566.62 362.85
  Q 563.22 373.35 554.87 388.87
  Q 552.11 394.00 544.55 406.03
  C 539.44 413.56 533.16 420.31 527.14 427.14
  Q 523.57 431.20 511.72 440.74
  Q 489.90 456.93 464.35 464.97
  Q 461.08 466.00 457.11 466.86
  C 453.26 467.70 449.22 468.91 445.23 469.24
  Q 442.97 469.43 440.89 470.09
  Q 440.76 470.13 440.62 470.07
  Q 440.57 470.04 440.52 470.00
  Q 440.40 469.89 440.35 470.06
  Q 440.33 470.14 440.29 470.24
  Q 439.26 470.38 438.50 470.18
  C 431.01 470.09 423.29 470.50 415.90 469.59
  Q 410.52 468.93 407.27 468.23
  Q 396.62 465.94 382.27 459.30
  Q 380.35 458.41 380.16 460.30
  L 378.69 462.18
  Q 376.98 463.21 375.61 464.82
  Q 374.34 466.32 372.95 467.79
  Q 367.07 474.01 360.66 479.59
  Q 353.94 485.44 340.00 494.49
  Q 338.60 495.40 339.30 497.07
  Q 338.84 501.57 339.10 506.22
  Q 339.43 512.11 339.34 515.30
  Q 339.19 521.11 339.43 526.78
  Q 339.69 533.07 339.42 538.23
  Q 338.96 547.07 339.03 557.75
  Q 339.05 561.89 339.43 565.93
  Q 338.98 566.45 339.51 567.04
  Q 339.76 567.32 340.13 567.39
  Q 354.43 570.13 363.90 579.93
  Q 371.46 587.75 373.79 592.97
  Q 376.52 599.08 378.47 601.45
  Q 379.91 610.33 378.75 620.53
  Q 378.69 621.00 378.22 621.00
  L 206.56 621.00
  Q 206.10 621.00 206.07 620.54
  Q 205.47 609.98 206.64 600.98
  Q 213.15 587.56 218.72 581.86
  Q 226.04 574.38 234.92 570.42
  Q 239.53 568.36 244.80 567.85
  A 2.07 2.07 0.0 0 0 246.67 565.82
  Q 247.13 532.22 246.71 499.25
  C 246.68 497.15 246.77 496.15 244.93 494.81
  Q 235.22 487.80 225.51 480.60
  Q 224.88 480.35 224.15 479.58
  Q 224.41 479.24 223.91 478.83
  Q 212.98 469.79 204.60 459.18
  A 1.44 1.43 -32.8 0 0 202.82 458.80
  Q 188.37 466.30 172.35 469.03
  C 161.14 470.94 147.31 470.77 136.71 469.52
  Q 125.65 468.22 114.26 464.23
  Q 92.70 456.68 73.54 442.88
  Q 56.36 430.13 43.27 413.46
  Q 11.16 370.99 6.28 318.05
  Q 5.86 313.53 5.77 308.99
  Q 5.68 304.66 5.81 294.69
  Q 5.85 292.42 6.34 288.36
  Q 6.73 285.21 6.74 282.00
  L 6.83 279.24
  Q 7.33 278.79 7.49 277.49
  Q 8.64 268.34 10.95 259.50
  Q 16.39 238.67 25.10 222.06
  Q 33.97 205.13 40.13 197.64
  Q 43.92 193.04 45.34 190.47
  Q 55.27 178.69 67.29 169.14
  Q 76.91 162.42 87.01 157.00
  Q 89.63 155.59 92.76 154.57
  A 3.03 3.02 85.8 0 0 94.79 152.21
  Q 98.60 130.25 108.51 110.54
  Q 125.49 76.81 152.59 54.27
  Q 185.28 27.09 225.99 14.50
  Q 229.89 13.29 237.11 11.60
  Q 242.70 10.29 248.27 8.80
  Q 249.02 8.48 249.72 8.64
  Q 252.21 8.80 255.01 7.66
  Q 255.24 7.54 255.50 7.62
  Q 262.01 7.04 268.45 6.27
  C 275.79 5.40 282.69 5.33 289.86 5.05
  C 290.86 5.01 291.78 5.36 292.79 5.35
  Q 303.24 5.24 312.21 6.19
  Q 343.53 9.50 370.82 20.73
  Q 402.71 33.86 429.68 56.97
  C 434.64 61.22 439.06 66.40 443.84 71.10
  Q 445.54 72.77 446.85 74.63
  C 448.05 76.35 449.53 77.73 450.77 79.40
  Q 455.15 85.30 459.44 91.30
  Z
  M 168.45 71.50
  L 157.21 82.26
  Q 155.88 83.35 153.72 85.72
  Q 139.02 101.91 129.60 120.85
  Q 120.80 138.52 118.29 154.75
  Q 116.68 165.12 116.37 167.87
  Q 116.18 169.60 115.82 170.39
  C 88.97 178.13 68.60 196.14 53.99 219.82
  Q 52.90 220.77 51.86 223.29
  Q 44.42 235.12 40.19 247.75
  Q 31.51 271.98 30.87 295.51
  Q 30.35 314.42 33.43 332.46
  C 39.87 370.30 61.99 405.00 93.88 427.07
  Q 121.11 445.91 153.89 445.93
  C 185.53 445.95 214.28 429.50 234.54 405.96
  A 1.08 1.07 -47.6 0 0 234.48 404.49
  C 229.12 399.29 215.51 385.55 225.54 378.36
  C 233.18 372.88 239.33 379.74 244.99 386.07
  Q 245.31 386.42 245.75 386.58
  A 1.00 1.00 0.0 0 0 246.99 386.04
  Q 249.05 381.43 251.39 376.60
  Q 253.48 372.28 257.70 371.72
  Q 265.26 370.73 269.20 377.18
  C 272.74 382.97 266.39 395.43 263.32 400.60
  A 0.61 0.60 -65.2 0 0 263.64 401.48
  Q 292.98 411.71 322.05 400.86
  A 0.53 0.53 0.0 0 0 322.34 400.15
  C 319.67 394.16 315.83 387.83 314.53 381.30
  C 313.40 375.59 316.62 370.26 322.55 369.23
  C 332.13 367.57 335.33 376.80 338.29 383.81
  A 0.60 0.60 0.0 0 0 339.30 383.96
  C 341.85 380.88 344.25 377.74 346.32 374.29
  Q 348.39 370.82 350.89 368.37
  C 354.88 364.44 361.03 365.83 364.64 369.64
  C 368.02 373.20 368.17 378.28 365.95 382.51
  Q 359.70 394.48 349.44 403.16
  A 0.75 0.74 -38.7 0 0 349.32 404.18
  C 358.25 416.01 371.46 426.11 384.02 433.45
  C 404.59 445.47 430.91 449.04 454.04 442.63
  Q 473.69 437.19 488.60 426.91
  Q 521.15 404.47 537.90 368.91
  Q 547.74 348.02 550.62 328.55
  Q 555.18 297.77 547.35 265.20
  Q 541.42 239.65 526.95 217.85
  L 525.54 216.06
  C 512.75 197.83 495.31 182.14 474.47 174.08
  Q 471.82 173.06 462.26 170.08
  Q 460.74 157.89 458.71 149.25
  Q 452.64 123.46 436.77 100.98
  Q 425.72 85.28 411.47 72.87
  Q 402.30 64.36 388.03 55.98
  Q 367.33 43.82 352.29 39.02
  Q 308.95 25.16 265.62 30.83
  Q 238.98 34.32 217.70 42.44
  Q 191.49 52.44 168.45 71.50
  Z
  M 271.39 450.40
  Q 268.24 454.22 263.15 454.55
  C 260.00 454.76 256.54 453.56 254.00 451.74
  Q 251.24 449.77 242.56 442.58
  L 235.44 436.26
  A 0.82 0.81 50.8 0 0 234.52 436.16
  Q 232.38 437.36 230.59 439.11
  C 228.08 441.57 225.25 443.55 222.46 445.67
  A 1.05 1.04 -43.5 0 0 222.41 447.29
  C 225.99 450.37 229.17 453.82 232.85 456.93
  Q 238.65 461.82 249.89 471.61
  Q 257.31 478.06 269.15 486.98
  Q 269.82 489.14 269.70 492.44
  Q 269.62 494.90 269.61 497.12
  Q 269.49 527.79 269.63 557.32
  Q 269.66 564.23 268.91 568.26
  Q 268.41 570.92 265.65 572.65
  C 255.38 579.08 246.04 583.61 238.92 594.39
  Q 234.23 596.62 231.03 600.65
  A 0.66 0.65 19.5 0 0 231.54 601.71
  L 246.68 601.91
  L 261.26 601.70
  L 284.83 601.56
  L 307.10 601.38
  L 327.99 601.80
  L 336.06 601.84
  L 351.81 601.56
  A 0.44 0.44 0.0 0 0 352.12 600.82
  L 345.26 593.40
  Q 337.85 584.45 333.23 581.52
  Q 322.23 574.54 319.48 572.29
  Q 315.63 569.14 315.57 564.66
  Q 315.26 539.09 315.67 487.25
  Q 323.73 480.99 328.11 477.10
  Q 338.51 467.86 350.54 457.78
  Q 356.24 453.01 361.54 446.69
  A 1.38 1.38 0.0 0 0 361.36 444.73
  L 351.49 436.64
  A 1.18 1.18 0.0 0 0 349.98 436.65
  L 344.05 441.71
  Q 339.16 445.48 334.23 449.37
  Q 328.79 453.65 325.59 454.37
  Q 318.82 455.90 313.45 449.77
  L 313.42 427.76
  A 0.88 0.87 84.3 0 0 312.38 426.90
  C 298.82 429.53 285.51 430.20 271.97 426.21
  A 0.68 0.68 0.0 0 0 271.10 426.87
  L 271.39 450.40
  Z"
/>
<path fill="#4c9c4d" d="
  M 255.01 7.66
  Q 252.21 8.80 249.72 8.64
  L 255.01 7.66
  Z"
/>
<path fill="#4c9c4d" d="
  M 248.27 8.80
  Q 242.70 10.29 237.11 11.60
  Q 229.89 13.29 225.99 14.50
  Q 185.28 27.09 152.59 54.27
  Q 125.49 76.81 108.51 110.54
  Q 98.60 130.25 94.79 152.21
  A 3.03 3.02 85.8 0 1 92.76 154.57
  Q 89.63 155.59 87.01 157.00
  Q 76.91 162.42 67.29 169.14
  Q 78.71 159.61 92.46 153.93
  Q 93.68 153.42 93.95 152.21
  Q 94.94 147.81 96.09 142.88
  C 101.71 118.83 113.74 96.48 129.30 77.42
  Q 144.91 58.31 162.57 45.57
  Q 172.89 38.12 187.65 30.01
  Q 216.11 14.36 248.27 8.80
  Z"
/>
<path fill="#feffe1" d="
  M 411.47 72.87
  Q 410.53 76.16 407.13 78.19
  C 401.28 81.67 394.93 75.99 390.63 72.48
  Q 386.88 69.43 382.03 66.44
  Q 369.49 58.73 357.49 53.95
  Q 347.00 49.77 333.30 46.25
  C 313.29 41.10 293.01 40.17 272.02 42.17
  C 266.77 42.67 261.55 43.04 256.39 44.20
  Q 233.22 49.39 218.03 55.85
  Q 205.35 61.25 197.27 66.76
  Q 190.83 71.16 183.96 76.43
  Q 177.72 81.22 172.28 76.43
  Q 170.21 74.61 168.45 71.50
  Q 191.49 52.44 217.70 42.44
  Q 238.98 34.32 265.62 30.83
  Q 308.95 25.16 352.29 39.02
  Q 367.33 43.82 388.03 55.98
  Q 402.30 64.36 411.47 72.87
  Z"
/>
<path fill="#bde753" d="
  M 411.47 72.87
  Q 425.72 85.28 436.77 100.98
  L 436.89 102.82
  Q 436.92 103.30 437.15 103.74
  Q 437.76 104.89 437.01 105.98
  C 433.09 111.69 429.27 117.21 424.38 122.16
  Q 410.44 136.29 392.84 144.08
  Q 375.27 151.87 356.54 155.40
  Q 320.13 162.26 287.71 158.22
  Q 275.04 156.63 256.60 152.08
  C 251.09 150.71 245.92 148.57 240.62 146.75
  C 232.68 144.02 225.10 140.46 217.46 136.90
  Q 213.76 135.18 209.32 132.52
  Q 205.43 130.19 201.27 127.89
  Q 198.07 120.69 189.84 119.30
  Q 188.65 119.39 187.62 119.03
  Q 187.23 118.89 186.97 118.56
  C 186.14 117.47 184.97 117.16 184.00 116.29
  Q 177.29 110.24 170.85 103.62
  C 165.25 97.86 159.49 90.07 157.21 82.26
  L 168.45 71.50
  Q 170.21 74.61 172.28 76.43
  Q 177.72 81.22 183.96 76.43
  Q 190.83 71.16 197.27 66.76
  Q 205.35 61.25 218.03 55.85
  Q 233.22 49.39 256.39 44.20
  C 261.55 43.04 266.77 42.67 272.02 42.17
  C 293.01 40.17 313.29 41.10 333.30 46.25
  Q 347.00 49.77 357.49 53.95
  Q 369.49 58.73 382.03 66.44
  Q 386.88 69.43 390.63 72.48
  C 394.93 75.99 401.28 81.67 407.13 78.19
  Q 410.53 76.16 411.47 72.87
  Z
  M 338.84 81.42
  A 11.24 11.24 0.0 0 0 327.60 70.18
  A 11.24 11.24 0.0 0 0 316.36 81.42
  A 11.24 11.24 0.0 0 0 327.60 92.66
  A 11.24 11.24 0.0 0 0 338.84 81.42
  Z
  M 388.7970 104.7048
  A 16.52 16.16 8.3 0 0 374.7828 86.3293
  A 16.52 16.16 8.3 0 0 356.1030 99.9352
  A 16.52 16.16 8.3 0 0 370.1172 118.3107
  A 16.52 16.16 8.3 0 0 388.7970 104.7048
  Z
  M 272.9527 110.1503
  A 14.61 14.16 5.5 0 0 259.7672 94.6552
  A 14.61 14.16 5.5 0 0 243.8673 107.3497
  A 14.61 14.16 5.5 0 0 257.0528 122.8448
  A 14.61 14.16 5.5 0 0 272.9527 110.1503
  Z
  M 329.8075 128.6393
  A 6.66 6.12 104.1 0 0 337.3656 123.6709
  A 6.66 6.12 104.1 0 0 333.0525 115.7207
  A 6.66 6.12 104.1 0 0 325.4944 120.6891
  A 6.66 6.12 104.1 0 0 329.8075 128.6393
  Z
  M 294.00 143.81
  A 6.03 6.03 0.0 0 0 287.97 137.78
  A 6.03 6.03 0.0 0 0 281.94 143.81
  A 6.03 6.03 0.0 0 0 287.97 149.84
  A 6.03 6.03 0.0 0 0 294.00 143.81
  Z"
/>
<circle fill="#feffe1" cx="327.60" cy="81.42" r="11.24"/>
<path fill="#98d845" d="
  M 157.21 82.26
  C 159.49 90.07 165.25 97.86 170.85 103.62
  Q 177.29 110.24 184.00 116.29
  C 184.97 117.16 186.14 117.47 186.97 118.56
  Q 187.23 118.89 187.62 119.03
  Q 188.65 119.39 189.84 119.30
  Q 183.09 120.00 180.38 124.86
  C 177.47 130.08 179.14 136.58 183.67 140.39
  Q 188.42 144.39 195.01 142.45
  C 202.01 140.38 202.50 134.34 201.27 127.89
  Q 205.43 130.19 209.32 132.52
  Q 213.76 135.18 217.46 136.90
  C 225.10 140.46 232.68 144.02 240.62 146.75
  C 245.92 148.57 251.09 150.71 256.60 152.08
  Q 275.04 156.63 287.71 158.22
  Q 320.13 162.26 356.54 155.40
  Q 375.27 151.87 392.84 144.08
  Q 410.44 136.29 424.38 122.16
  C 429.27 117.21 433.09 111.69 437.01 105.98
  Q 437.76 104.89 437.15 103.74
  Q 436.92 103.30 436.89 102.82
  L 436.77 100.98
  Q 452.64 123.46 458.71 149.25
  Q 460.74 157.89 462.26 170.08
  L 458.82 171.79
  Q 458.42 173.68 458.38 175.42
  Q 458.34 177.22 459.13 178.80
  Q 460.16 180.85 459.89 183.33
  Q 459.09 190.76 457.44 198.29
  C 456.44 202.84 454.82 207.28 453.88 211.96
  Q 453.24 215.15 451.58 217.84
  Q 451.33 218.25 451.62 218.62
  Q 455.92 224.13 453.29 230.10
  C 451.93 233.19 447.60 235.50 444.46 236.67
  A 0.72 0.71 74.1 0 0 444.01 237.49
  Q 444.44 239.41 443.71 241.12
  Q 441.26 246.90 441.06 253.28
  C 441.00 255.36 442.01 257.35 442.80 259.25
  A 2.13 2.13 0.0 0 0 445.74 260.32
  C 454.02 256.05 461.89 262.64 470.33 262.50
  Q 473.96 266.31 478.94 264.90
  Q 482.29 263.95 483.41 260.54
  Q 488.10 253.62 494.93 252.13
  Q 496.69 251.74 497.94 251.18
  C 500.49 250.03 502.98 249.49 505.12 247.79
  C 510.03 243.90 515.24 239.62 517.22 234.69
  Q 519.89 228.05 523.02 221.17
  C 523.41 220.31 523.49 219.34 523.84 218.43
  Q 524.02 217.95 524.53 217.93
  L 526.95 217.85
  Q 541.42 239.65 547.35 265.20
  Q 545.98 268.61 545.41 272.36
  Q 544.47 278.62 544.24 279.64
  Q 542.23 288.32 539.94 296.81
  C 538.93 300.59 537.23 304.25 535.91 307.90
  Q 532.18 318.22 524.25 329.42
  C 520.77 334.33 516.89 339.49 512.75 344.00
  Q 499.91 357.95 483.88 368.41
  Q 475.48 373.90 465.64 377.51
  Q 444.55 385.25 422.81 381.99
  C 414.70 380.77 405.84 377.51 398.52 373.85
  Q 388.35 368.76 377.06 362.62
  Q 352.53 349.27 326.76 346.37
  Q 298.14 343.15 266.04 348.47
  Q 238.48 353.03 211.16 364.95
  Q 201.64 369.10 193.77 372.63
  C 190.08 374.29 186.21 375.60 182.47 377.11
  Q 177.97 378.92 173.66 380.05
  Q 138.89 389.21 106.22 371.65
  C 92.02 364.02 79.93 353.54 69.23 341.42
  Q 64.73 336.32 60.41 329.86
  Q 42.57 303.18 37.58 271.88
  C 37.00 268.24 37.19 264.90 37.41 261.26
  Q 37.44 260.78 37.71 260.31
  Q 38.07 259.67 38.10 259.37
  Q 38.76 253.70 40.19 247.75
  Q 44.42 235.12 51.86 223.29
  Q 52.80 224.37 53.86 228.39
  Q 54.41 230.47 57.13 235.69
  C 61.09 243.25 66.16 248.14 74.08 252.24
  C 78.94 254.76 85.31 254.71 90.65 254.83
  Q 94.57 254.92 97.59 256.39
  Q 104.41 259.68 110.99 264.96
  Q 111.83 265.63 112.29 264.66
  Q 113.08 263.00 113.97 261.45
  Q 114.93 259.78 115.05 257.84
  Q 115.14 256.25 115.77 254.69
  Q 116.07 253.94 116.49 253.31
  Q 116.91 252.70 116.89 251.95
  Q 116.88 251.45 117.05 250.99
  Q 117.58 249.56 117.72 248.02
  Q 117.77 247.52 117.49 247.10
  Q 115.73 244.42 116.64 243.70
  C 124.84 241.67 130.82 232.39 123.18 225.75
  L 123.58 224.26
  A 1.26 1.24 -11.5 0 1 124.03 223.59
  Q 125.16 222.74 124.91 221.35
  A 1.65 1.58 53.7 0 1 125.03 220.42
  Q 126.00 218.33 126.24 216.13
  Q 126.72 215.53 126.43 214.88
  Q 126.26 214.50 126.67 214.46
  Q 127.40 214.40 127.00 213.93
  Q 131.07 217.29 135.12 215.15
  C 139.24 212.96 141.57 209.66 140.02 205.04
  Q 139.14 202.39 136.15 200.66
  Q 130.64 197.50 125.25 202.61
  Q 123.91 198.31 123.08 197.43
  Q 121.82 196.09 120.91 194.42
  C 120.20 193.12 120.49 191.91 120.49 190.50
  C 120.49 187.75 118.92 185.92 119.13 182.93
  Q 119.27 180.92 120.18 179.20
  Q 122.09 175.58 120.58 172.52
  Q 119.66 170.66 116.75 170.57
  Q 115.87 170.05 115.82 170.39
  Q 116.18 169.60 116.37 167.87
  Q 116.68 165.12 118.29 154.75
  Q 120.80 138.52 129.60 120.85
  Q 139.02 101.91 153.72 85.72
  Q 155.88 83.35 157.21 82.26
  Z
  M 401.5389 171.6954
  A 7.63 7.33 -19.8 0 0 391.8771 167.3833
  A 7.63 7.33 -19.8 0 0 387.1811 176.8646
  A 7.63 7.33 -19.8 0 0 396.8429 181.1767
  A 7.63 7.33 -19.8 0 0 401.5389 171.6954
  Z
  M 300.0889 235.7990
  A 9.13 8.83 -21.6 0 0 288.3495 230.9501
  A 9.13 8.83 -21.6 0 0 283.1111 242.5210
  A 9.13 8.83 -21.6 0 0 294.8505 247.3699
  A 9.13 8.83 -21.6 0 0 300.0889 235.7990
  Z
  M 150.20 298.80
  A 8.13 8.13 0.0 0 0 142.07 290.67
  A 8.13 8.13 0.0 0 0 133.94 298.80
  A 8.13 8.13 0.0 0 0 142.07 306.93
  A 8.13 8.13 0.0 0 0 150.20 298.80
  Z
  M 526.0991 306.4436
  A 6.58 5.81 129.0 0 0 534.7552 304.9864
  A 6.58 5.81 129.0 0 0 534.3809 296.2164
  A 6.58 5.81 129.0 0 0 525.7248 297.6736
  A 6.58 5.81 129.0 0 0 526.0991 306.4436
  Z
  M 101.8229 309.1811
  A 8.04 7.72 -33.0 0 0 90.8754 307.0855
  A 8.04 7.72 -33.0 0 0 88.3371 317.9389
  A 8.04 7.72 -33.0 0 0 99.2846 320.0345
  A 8.04 7.72 -33.0 0 0 101.8229 309.1811
  Z
  M 317.1231 309.9538
  A 8.64 8.39 -33.4 0 0 305.2915 307.7056
  A 8.64 8.39 -33.4 0 0 302.6969 319.4662
  A 8.64 8.39 -33.4 0 0 314.5285 321.7144
  A 8.64 8.39 -33.4 0 0 317.1231 309.9538
  Z
  M 485.9994 323.3175
  A 7.73 7.49 11.7 0 0 479.9489 314.4156
  A 7.73 7.49 11.7 0 0 470.8606 320.1825
  A 7.73 7.49 11.7 0 0 476.9111 329.0844
  A 7.73 7.49 11.7 0 0 485.9994 323.3175
  Z
  M 241.6546 326.3131
  A 8.57 8.23 21.3 0 0 236.6596 315.5322
  A 8.57 8.23 21.3 0 0 225.6854 320.0869
  A 8.57 8.23 21.3 0 0 230.6804 330.8678
  A 8.57 8.23 21.3 0 0 241.6546 326.3131
  Z
  M 416.37 341.60
  A 7.83 7.83 0.0 0 0 408.54 333.77
  A 7.83 7.83 0.0 0 0 400.71 341.60
  A 7.83 7.83 0.0 0 0 408.54 349.43
  A 7.83 7.83 0.0 0 0 416.37 341.60
  Z
  M 185.03 342.08
  A 7.69 7.69 0.0 0 0 177.34 334.39
  A 7.69 7.69 0.0 0 0 169.65 342.08
  A 7.69 7.69 0.0 0 0 177.34 349.77
  A 7.69 7.69 0.0 0 0 185.03 342.08
  Z
  M 131.54 360.56
  A 10.85 10.85 0.0 0 0 120.69 349.71
  A 10.85 10.85 0.0 0 0 109.84 360.56
  A 10.85 10.85 0.0 0 0 120.69 371.41
  A 10.85 10.85 0.0 0 0 131.54 360.56
  Z
  M 472.91 360.74
  A 10.99 10.99 0.0 0 0 461.92 349.75
  A 10.99 10.99 0.0 0 0 450.93 360.74
  A 10.99 10.99 0.0 0 0 461.92 371.73
  A 10.99 10.99 0.0 0 0 472.91 360.74
  Z"
/>
<ellipse fill="#feffe1" cx="0.00" cy="0.00" transform="translate(372.45,102.32) rotate(8.3)" rx="16.52" ry="16.16"/>
<ellipse fill="#feffe1" cx="0.00" cy="0.00" transform="translate(258.41,108.75) rotate(5.5)" rx="14.61" ry="14.16"/>
<path fill="#4c9c4d" d="
  M 462.21 95.57
  Q 471.29 109.36 476.58 123.46
  Q 480.99 135.23 484.11 149.77
  C 484.29 150.59 484.89 151.17 484.99 151.98
  Q 485.04 152.48 485.50 152.71
  Q 490.23 155.01 494.95 157.34
  Q 512.97 166.22 527.08 180.47
  Q 524.50 178.55 519.64 174.35
  Q 505.89 162.44 489.31 154.91
  Q 487.60 154.13 485.82 153.74
  A 2.15 2.15 0.0 0 1 484.14 151.57
  Q 484.20 149.57 483.29 147.75
  A 1.84 1.82 32.9 0 1 483.09 146.84
  Q 483.10 146.26 482.88 145.38
  Q 475.96 118.45 462.21 95.57
  Z"
/>
<ellipse fill="#98d845" cx="0.00" cy="0.00" transform="translate(331.43,122.18) rotate(104.1)" rx="6.66" ry="6.12"/>
<path fill="#4c9c4d" d="
  M 189.84 119.30
  Q 198.07 120.69 201.27 127.89
  C 202.50 134.34 202.01 140.38 195.01 142.45
  Q 188.42 144.39 183.67 140.39
  C 179.14 136.58 177.47 130.08 180.38 124.86
  Q 183.09 120.00 189.84 119.30
  Z"
/>
<circle fill="#98d845" cx="287.97" cy="143.81" r="6.03"/>
<ellipse fill="#4c9c4d" cx="0.00" cy="0.00" transform="translate(394.36,174.28) rotate(-19.8)" rx="7.63" ry="7.33"/>
<path fill="#feffe1" d="
  M 462.26 170.08
  Q 471.82 173.06 474.47 174.08
  C 495.31 182.14 512.75 197.83 525.54 216.06
  Q 523.79 218.01 519.82 215.42
  Q 512.98 210.95 497.53 199.26
  Q 484.63 189.49 462.57 179.91
  Q 461.07 179.26 459.78 178.13
  Q 459.39 177.78 459.43 177.27
  Q 459.63 174.63 458.82 171.79
  L 462.26 170.08
  Z"
/>
<path fill="#feffe1" d="
  M 115.82 170.39
  Q 115.87 170.05 116.75 170.57
  Q 118.06 173.82 118.41 177.25
  Q 118.66 179.70 116.27 180.73
  Q 94.31 190.21 75.44 205.60
  Q 69.35 210.56 63.17 214.67
  Q 59.13 217.36 53.99 219.82
  C 68.60 196.14 88.97 178.13 115.82 170.39
  Z"
/>
<path fill="#bde753" d="
  M 116.75 170.57
  Q 119.66 170.66 120.58 172.52
  Q 122.09 175.58 120.18 179.20
  Q 119.27 180.92 119.13 182.93
  C 118.92 185.92 120.49 187.75 120.49 190.50
  C 120.49 191.91 120.20 193.12 120.91 194.42
  Q 121.82 196.09 123.08 197.43
  Q 123.91 198.31 125.25 202.61
  Q 121.55 209.89 127.00 213.93
  Q 127.40 214.40 126.67 214.46
  Q 126.26 214.50 126.43 214.88
  Q 126.72 215.53 126.24 216.13
  Q 126.00 218.33 125.03 220.42
  A 1.65 1.58 53.7 0 0 124.91 221.35
  Q 125.16 222.74 124.03 223.59
  A 1.26 1.24 -11.5 0 0 123.58 224.26
  L 123.18 225.75
  C 118.79 222.10 111.54 222.19 107.91 226.85
  Q 106.08 229.21 106.02 232.80
  Q 105.88 241.89 116.64 243.70
  Q 115.73 244.42 117.49 247.10
  Q 117.77 247.52 117.72 248.02
  Q 117.58 249.56 117.05 250.99
  Q 116.88 251.45 116.89 251.95
  Q 116.91 252.70 116.49 253.31
  Q 116.07 253.94 115.77 254.69
  Q 115.14 256.25 115.05 257.84
  Q 114.93 259.78 113.97 261.45
  Q 113.08 263.00 112.29 264.66
  Q 111.83 265.63 110.99 264.96
  Q 104.41 259.68 97.59 256.39
  Q 94.57 254.92 90.65 254.83
  C 85.31 254.71 78.94 254.76 74.08 252.24
  C 66.16 248.14 61.09 243.25 57.13 235.69
  Q 54.41 230.47 53.86 228.39
  Q 52.80 224.37 51.86 223.29
  Q 52.90 220.77 53.99 219.82
  Q 59.13 217.36 63.17 214.67
  Q 69.35 210.56 75.44 205.60
  Q 94.31 190.21 116.27 180.73
  Q 118.66 179.70 118.41 177.25
  Q 118.06 173.82 116.75 170.57
  Z"
/>
<path fill="#bde753" d="
  M 458.82 171.79
  Q 459.63 174.63 459.43 177.27
  Q 459.39 177.78 459.78 178.13
  Q 461.07 179.26 462.57 179.91
  Q 484.63 189.49 497.53 199.26
  Q 512.98 210.95 519.82 215.42
  Q 523.79 218.01 525.54 216.06
  L 526.95 217.85
  L 524.53 217.93
  Q 524.02 217.95 523.84 218.43
  C 523.49 219.34 523.41 220.31 523.02 221.17
  Q 519.89 228.05 517.22 234.69
  C 515.24 239.62 510.03 243.90 505.12 247.79
  C 502.98 249.49 500.49 250.03 497.94 251.18
  Q 496.69 251.74 494.93 252.13
  Q 488.10 253.62 483.41 260.54
  Q 484.17 253.70 479.23 251.36
  C 471.62 247.77 466.11 255.48 470.33 262.50
  C 461.89 262.64 454.02 256.05 445.74 260.32
  A 2.13 2.13 0.0 0 1 442.80 259.25
  C 442.01 257.35 441.00 255.36 441.06 253.28
  Q 441.26 246.90 443.71 241.12
  Q 444.44 239.41 444.01 237.49
  A 0.72 0.71 74.1 0 1 444.46 236.67
  C 447.60 235.50 451.93 233.19 453.29 230.10
  Q 455.92 224.13 451.62 218.62
  Q 451.33 218.25 451.58 217.84
  Q 453.24 215.15 453.88 211.96
  C 454.82 207.28 456.44 202.84 457.44 198.29
  Q 459.09 190.76 459.89 183.33
  Q 460.16 180.85 459.13 178.80
  Q 458.34 177.22 458.38 175.42
  Q 458.42 173.68 458.82 171.79
  Z
  M 499.43 232.60
  A 8.62 8.62 0.0 0 0 490.81 223.98
  A 8.62 8.62 0.0 0 0 482.19 232.60
  A 8.62 8.62 0.0 0 0 490.81 241.22
  A 8.62 8.62 0.0 0 0 499.43 232.60
  Z"
/>
<path fill="#4c9c4d" d="
  M 532.20 185.71
  Q 543.41 197.25 552.98 213.25
  Q 561.93 228.21 566.61 242.26
  Q 561.37 229.54 554.88 217.54
  Q 547.35 203.65 541.40 196.84
  Q 536.66 191.41 532.20 185.71
  Z"
/>
<path fill="#4c9c4d" d="
  M 45.34 190.47
  Q 43.92 193.04 40.13 197.64
  Q 33.97 205.13 25.10 222.06
  Q 16.39 238.67 10.95 259.50
  Q 8.64 268.34 7.49 277.49
  Q 7.33 278.79 6.83 279.24
  C 7.43 274.56 7.97 269.79 8.98 265.29
  C 15.17 237.70 26.94 212.11 45.34 190.47
  Z"
/>
<path fill="#feffe1" d="
  M 127.00 213.93
  Q 121.55 209.89 125.25 202.61
  Q 130.64 197.50 136.15 200.66
  Q 139.14 202.39 140.02 205.04
  C 141.57 209.66 139.24 212.96 135.12 215.15
  Q 131.07 217.29 127.00 213.93
  Z"
/>
<path fill="#feffe1" d="
  M 123.18 225.75
  C 130.82 232.39 124.84 241.67 116.64 243.70
  Q 105.88 241.89 106.02 232.80
  Q 106.08 229.21 107.91 226.85
  C 111.54 222.19 118.79 222.10 123.18 225.75
  Z"
/>
<circle fill="#feffe1" cx="490.81" cy="232.60" r="8.62"/>
<ellipse fill="#4c9c4d" cx="0.00" cy="0.00" transform="translate(291.60,239.16) rotate(-21.6)" rx="9.13" ry="8.83"/>
<path fill="#4c9c4d" d="
  M 40.19 247.75
  Q 38.76 253.70 38.10 259.37
  Q 38.07 259.67 37.71 260.31
  Q 37.44 260.78 37.41 261.26
  C 37.19 264.90 37.00 268.24 37.58 271.88
  Q 42.57 303.18 60.41 329.86
  Q 64.73 336.32 69.23 341.42
  C 79.93 353.54 92.02 364.02 106.22 371.65
  Q 138.89 389.21 173.66 380.05
  Q 177.97 378.92 182.47 377.11
  C 186.21 375.60 190.08 374.29 193.77 372.63
  Q 201.64 369.10 211.16 364.95
  Q 238.48 353.03 266.04 348.47
  Q 298.14 343.15 326.76 346.37
  Q 352.53 349.27 377.06 362.62
  Q 388.35 368.76 398.52 373.85
  C 405.84 377.51 414.70 380.77 422.81 381.99
  Q 444.55 385.25 465.64 377.51
  Q 475.48 373.90 483.88 368.41
  Q 499.91 357.95 512.75 344.00
  C 516.89 339.49 520.77 334.33 524.25 329.42
  Q 532.18 318.22 535.91 307.90
  C 537.23 304.25 538.93 300.59 539.94 296.81
  Q 542.23 288.32 544.24 279.64
  Q 544.47 278.62 545.41 272.36
  Q 545.98 268.61 547.35 265.20
  Q 555.18 297.77 550.62 328.55
  Q 547.74 348.02 537.90 368.91
  Q 521.15 404.47 488.60 426.91
  Q 473.69 437.19 454.04 442.63
  C 430.91 449.04 404.59 445.47 384.02 433.45
  C 371.46 426.11 358.25 416.01 349.32 404.18
  A 0.75 0.74 -38.7 0 1 349.44 403.16
  Q 359.70 394.48 365.95 382.51
  C 368.17 378.28 368.02 373.20 364.64 369.64
  C 361.03 365.83 354.88 364.44 350.89 368.37
  Q 348.39 370.82 346.32 374.29
  C 344.25 377.74 341.85 380.88 339.30 383.96
  A 0.60 0.60 0.0 0 1 338.29 383.81
  C 335.33 376.80 332.13 367.57 322.55 369.23
  C 316.62 370.26 313.40 375.59 314.53 381.30
  C 315.83 387.83 319.67 394.16 322.34 400.15
  A 0.53 0.53 0.0 0 1 322.05 400.86
  Q 292.98 411.71 263.64 401.48
  A 0.61 0.60 -65.2 0 1 263.32 400.60
  C 266.39 395.43 272.74 382.97 269.20 377.18
  Q 265.26 370.73 257.70 371.72
  Q 253.48 372.28 251.39 376.60
  Q 249.05 381.43 246.99 386.04
  A 1.00 1.00 0.0 0 1 245.75 386.58
  Q 245.31 386.42 244.99 386.07
  C 239.33 379.74 233.18 372.88 225.54 378.36
  C 215.51 385.55 229.12 399.29 234.48 404.49
  A 1.08 1.07 -47.6 0 1 234.54 405.96
  C 214.28 429.50 185.53 445.95 153.89 445.93
  Q 121.11 445.91 93.88 427.07
  C 61.99 405.00 39.87 370.30 33.43 332.46
  Q 30.35 314.42 30.87 295.51
  Q 31.51 271.98 40.19 247.75
  Z"
/>
<path fill="#feffe1" d="
  M 483.41 260.54
  Q 482.29 263.95 478.94 264.90
  Q 473.96 266.31 470.33 262.50
  C 466.11 255.48 471.62 247.77 479.23 251.36
  Q 484.17 253.70 483.41 260.54
  Z"
/>
<path fill="#4c9c4d" d="
  M 6.74 282.00
  Q 6.73 285.21 6.34 288.36
  Q 5.85 292.42 5.81 294.69
  Q 5.68 304.66 5.77 308.99
  Q 5.86 313.53 6.28 318.05
  Q 11.16 370.99 43.27 413.46
  Q 41.77 411.83 40.56 410.18
  Q 16.36 377.35 8.45 338.02
  Q 7.24 332.00 6.53 324.43
  Q 5.91 317.81 5.46 310.74
  Q 5.41 309.99 5.36 309.27
  Q 4.78 301.51 5.37 295.66
  Q 5.61 293.31 5.83 288.82
  Q 6.00 285.39 6.74 282.00
  Z"
/>
<circle fill="#feffe1" cx="142.07" cy="298.80" r="8.13"/>
<ellipse fill="#4c9c4d" cx="0.00" cy="0.00" transform="translate(530.24,301.33) rotate(129.0)" rx="6.58" ry="5.81"/>
<path fill="#4c9c4d" d="
  M 577.54 296.18
  Q 578.81 309.90 576.30 323.52
  L 577.54 296.18
  Z"
/>
<ellipse fill="#4c9c4d" cx="0.00" cy="0.00" transform="translate(95.08,313.56) rotate(-33.0)" rx="8.04" ry="7.72"/>
<ellipse fill="#4c9c4d" cx="0.00" cy="0.00" transform="translate(309.91,314.71) rotate(-33.4)" rx="8.64" ry="8.39"/>
<ellipse fill="#feffe1" cx="0.00" cy="0.00" transform="translate(478.43,321.75) rotate(11.7)" rx="7.73" ry="7.49"/>
<ellipse fill="#4c9c4d" cx="0.00" cy="0.00" transform="translate(233.67,323.20) rotate(21.3)" rx="8.57" ry="8.23"/>
<path fill="#4c9c4d" d="
  M 576.12 325.95
  L 575.46 330.11
  Q 574.84 328.02 576.12 325.95
  Z"
/>
<circle fill="#4c9c4d" cx="408.54" cy="341.60" r="7.83"/>
<circle fill="#4c9c4d" cx="177.34" cy="342.08" r="7.69"/>
<circle fill="#4c9c4d" cx="120.69" cy="360.56" r="10.85"/>
<circle fill="#4c9c4d" cx="461.92" cy="360.74" r="10.99"/>
<path fill="#4c9c4d" d="
  M 570.97 350.10
  Q 562.82 380.45 544.55 406.03
  Q 552.11 394.00 554.87 388.87
  Q 563.22 373.35 566.62 362.85
  Q 568.68 356.45 570.97 350.10
  Z"
/>
<path fill="#81323d" d="
  M 313.45 449.77
  C 306.17 443.68 299.27 439.43 289.24 440.29
  Q 282.37 440.88 278.06 444.56
  Q 274.91 447.25 271.39 450.40
  L 271.10 426.87
  A 0.68 0.68 0.0 0 1 271.97 426.21
  C 285.51 430.20 298.82 429.53 312.38 426.90
  A 0.88 0.87 84.3 0 1 313.42 427.76
  L 313.45 449.77
  Z"
/>
<path fill="#81323d" d="
  M 242.56 442.58
  L 236.69 448.19
  A 1.49 1.49 0.0 0 0 236.74 450.39
  C 243.78 456.52 250.76 462.77 258.18 468.34
  Q 263.06 472.00 267.38 476.03
  C 270.08 478.55 269.50 483.88 269.15 486.98
  Q 257.31 478.06 249.89 471.61
  Q 238.65 461.82 232.85 456.93
  C 229.17 453.82 225.99 450.37 222.41 447.29
  A 1.05 1.04 -43.5 0 1 222.46 445.67
  C 225.25 443.55 228.08 441.57 230.59 439.11
  Q 232.38 437.36 234.52 436.16
  A 0.82 0.81 50.8 0 1 235.44 436.26
  L 242.56 442.58
  Z"
/>
<path fill="#81323d" d="
  M 315.67 487.25
  Q 315.92 484.40 316.02 481.05
  C 316.08 478.61 316.63 476.94 318.50 475.50
  C 325.02 470.47 331.29 465.18 337.78 460.17
  Q 341.82 457.04 346.44 452.48
  Q 347.93 451.01 349.78 449.91
  A 1.09 1.09 0.0 0 0 350.03 448.24
  L 344.05 441.71
  L 349.98 436.65
  A 1.18 1.18 0.0 0 1 351.49 436.64
  L 361.36 444.73
  A 1.38 1.38 0.0 0 1 361.54 446.69
  Q 356.24 453.01 350.54 457.78
  Q 338.51 467.86 328.11 477.10
  Q 323.73 480.99 315.67 487.25
  Z"
/>
<path fill="#b76a4b" d="
  M 313.45 449.77
  Q 318.82 455.90 325.59 454.37
  Q 328.79 453.65 334.23 449.37
  Q 339.16 445.48 344.05 441.71
  L 350.03 448.24
  A 1.09 1.09 0.0 0 1 349.78 449.91
  Q 347.93 451.01 346.44 452.48
  Q 341.82 457.04 337.78 460.17
  C 331.29 465.18 325.02 470.47 318.50 475.50
  C 316.63 476.94 316.08 478.61 316.02 481.05
  Q 315.92 484.40 315.67 487.25
  Q 315.26 539.09 315.57 564.66
  Q 315.63 569.14 319.48 572.29
  Q 322.23 574.54 333.23 581.52
  Q 337.85 584.45 345.26 593.40
  Q 343.12 600.48 336.06 601.84
  L 327.99 601.80
  Q 325.89 601.39 325.11 600.63
  Q 323.28 598.85 321.31 597.16
  Q 312.94 590.00 307.10 601.38
  L 284.83 601.56
  Q 283.44 600.39 279.00 595.75
  Q 276.83 593.48 273.29 593.22
  Q 272.22 589.34 267.11 587.41
  Q 262.54 585.69 258.49 585.17
  Q 251.97 584.33 247.53 588.89
  Q 242.62 593.95 241.07 597.41
  Q 239.97 596.40 238.92 594.39
  C 246.04 583.61 255.38 579.08 265.65 572.65
  Q 268.41 570.92 268.91 568.26
  Q 269.66 564.23 269.63 557.32
  Q 269.49 527.79 269.61 497.12
  Q 269.62 494.90 269.70 492.44
  Q 269.82 489.14 269.15 486.98
  C 269.50 483.88 270.08 478.55 267.38 476.03
  Q 263.06 472.00 258.18 468.34
  C 250.76 462.77 243.78 456.52 236.74 450.39
  A 1.49 1.49 0.0 0 1 236.69 448.19
  L 242.56 442.58
  Q 251.24 449.77 254.00 451.74
  C 256.54 453.56 260.00 454.76 263.15 454.55
  Q 268.24 454.22 271.39 450.40
  Q 274.91 447.25 278.06 444.56
  Q 282.37 440.88 289.24 440.29
  C 299.27 439.43 306.17 443.68 313.45 449.77
  Z
  M 297.5405 452.7211
  A 1.58 1.58 0.0 0 0 295.9856 451.1165
  L 287.5466 450.9839
  A 1.58 1.58 0.0 0 0 285.9420 452.5389
  L 285.9395 452.6989
  A 1.58 1.58 0.0 0 0 287.4944 454.3035
  L 295.9334 454.4361
  A 1.58 1.58 0.0 0 0 297.5380 452.8811
  L 297.5405 452.7211
  Z
  M 306.40 539.63
  Q 306.32 524.29 306.14 508.80
  C 306.00 497.64 306.59 485.85 305.84 474.88
  C 305.60 471.34 300.56 468.96 297.64 468.30
  Q 290.04 466.59 282.23 469.03
  C 279.33 469.94 279.37 473.20 279.38 475.84
  Q 279.56 521.00 279.64 564.54
  Q 279.64 567.96 280.01 573.22
  A 2.11 2.11 0.0 0 0 282.32 575.17
  Q 293.52 574.11 304.90 574.76
  A 1.04 1.04 0.0 0 0 306.00 573.72
  Q 306.02 561.11 306.01 549.12
  C 306.00 546.60 306.42 542.82 306.40 539.63
  Z
  M 307.32 584.46
  L 306.17 579.00
  Q 305.86 577.54 304.41 577.18
  Q 298.92 575.79 293.81 576.26
  Q 287.41 576.85 282.43 581.64
  Q 281.05 582.96 280.89 584.81
  A 0.88 0.88 0.0 0 0 281.95 585.74
  Q 294.46 583.03 306.16 585.61
  Q 307.63 585.93 307.32 584.46
  Z"
/>
<path fill="#4c9c4d" d="
  M 511.72 440.74
  Q 494.35 454.89 473.24 462.49
  Q 462.01 466.53 454.25 468.23
  Q 449.81 469.20 440.29 470.24
  Q 440.33 470.14 440.35 470.06
  Q 440.40 469.89 440.52 470.00
  Q 440.57 470.04 440.62 470.07
  Q 440.76 470.13 440.89 470.09
  Q 442.97 469.43 445.23 469.24
  C 449.22 468.91 453.26 467.70 457.11 466.86
  Q 461.08 466.00 464.35 464.97
  Q 489.90 456.93 511.72 440.74
  Z"
/>
<path fill="#4c9c4d" d="
  M 224.15 479.58
  Q 214.43 471.74 209.38 465.61
  Q 206.75 462.42 204.12 459.57
  Q 203.77 459.19 203.31 459.42
  Q 183.88 469.04 162.57 470.70
  Q 150.30 471.66 136.36 470.08
  Q 121.34 468.38 105.75 461.70
  Q 88.44 454.29 73.54 442.88
  Q 92.70 456.68 114.26 464.23
  Q 125.65 468.22 136.71 469.52
  C 147.31 470.77 161.14 470.94 172.35 469.03
  Q 188.37 466.30 202.82 458.80
  A 1.44 1.43 -32.8 0 1 204.60 459.18
  Q 212.98 469.79 223.91 478.83
  Q 224.41 479.24 224.15 479.58
  Z"
/>
<rect fill="#81323d" x="-5.80" y="-1.66" transform="translate(291.74,452.71) rotate(0.9)" width="11.60" height="3.32" rx="1.58"/>
<path fill="#4c9c4d" d="
  M 438.50 470.18
  Q 435.73 470.89 433.00 470.88
  Q 423.07 470.86 415.72 470.07
  Q 402.26 468.61 389.78 463.11
  Q 385.84 461.37 382.41 460.08
  Q 381.40 459.71 380.16 460.30
  Q 380.35 458.41 382.27 459.30
  Q 396.62 465.94 407.27 468.23
  Q 410.52 468.93 415.90 469.59
  C 423.29 470.50 431.01 470.09 438.50 470.18
  Z"
/>
<path fill="#4c9c4d" d="
  M 378.69 462.18
  Q 373.78 467.91 365.73 475.48
  Q 354.35 486.18 342.48 493.27
  Q 340.69 494.33 339.30 497.07
  Q 338.60 495.40 340.00 494.49
  Q 353.94 485.44 360.66 479.59
  Q 367.07 474.01 372.95 467.79
  Q 374.34 466.32 375.61 464.82
  Q 376.98 463.21 378.69 462.18
  Z"
/>
<path fill="#e19b58" d="
  M 306.40 539.63
  C 306.42 542.82 306.00 546.60 306.01 549.12
  Q 306.02 561.11 306.00 573.72
  A 1.04 1.04 0.0 0 1 304.90 574.76
  Q 293.52 574.11 282.32 575.17
  A 2.11 2.11 0.0 0 1 280.01 573.22
  Q 279.64 567.96 279.64 564.54
  Q 279.56 521.00 279.38 475.84
  C 279.37 473.20 279.33 469.94 282.23 469.03
  Q 290.04 466.59 297.64 468.30
  C 300.56 468.96 305.60 471.34 305.84 474.88
  C 306.59 485.85 306.00 497.64 306.14 508.80
  Q 306.32 524.29 306.40 539.63
  Z
  M 298.0730 503.1230
  A 5.96 3.13 -7.2 0 0 291.7677 500.7647
  A 5.96 3.13 -7.2 0 0 286.2470 504.6170
  A 5.96 3.13 -7.2 0 0 292.5523 506.9753
  A 5.96 3.13 -7.2 0 0 298.0730 503.1230
  Z
  M 301.2059 542.4576
  A 1.31 1.31 0.0 0 0 299.8665 541.1776
  L 295.2077 541.2833
  A 1.31 1.31 0.0 0 0 293.9278 542.6227
  L 293.9541 543.7824
  A 1.31 1.31 0.0 0 0 295.2935 545.0624
  L 299.9523 544.9567
  A 1.31 1.31 0.0 0 0 301.2322 543.6173
  L 301.2059 542.4576
  Z"
/>
<path fill="#4c9c4d" d="
  M 206.64 600.98
  Q 214.24 580.64 232.02 571.06
  Q 235.39 569.24 239.96 568.15
  C 241.92 567.68 243.04 566.52 245.25 567.09
  A 0.60 0.60 0.0 0 0 246.00 566.51
  Q 246.00 531.61 246.00 498.41
  Q 246.00 495.95 243.93 494.56
  Q 234.36 488.13 225.51 480.60
  Q 235.22 487.80 244.93 494.81
  C 246.77 496.15 246.68 497.15 246.71 499.25
  Q 247.13 532.22 246.67 565.82
  A 2.07 2.07 0.0 0 1 244.80 567.85
  Q 239.53 568.36 234.92 570.42
  Q 226.04 574.38 218.72 581.86
  Q 213.15 587.56 206.64 600.98
  Z"
/>
<ellipse fill="#b76a4b" cx="0.00" cy="0.00" transform="translate(292.16,503.87) rotate(-7.2)" rx="5.96" ry="3.13"/>
<rect fill="#b76a4b" x="-3.64" y="-1.89" transform="translate(297.58,543.12) rotate(-1.3)" width="7.28" height="3.78" rx="1.31"/>
<path fill="#4c9c4d" d="
  M 339.43 565.93
  Q 340.14 567.14 341.55 567.11
  A 1.63 1.62 61.5 0 1 342.55 567.41
  Q 343.56 568.11 344.75 568.00
  Q 345.26 567.95 345.73 568.17
  C 348.47 569.48 351.41 570.16 354.09 571.73
  Q 367.39 579.57 374.54 593.89
  Q 376.19 597.20 378.47 601.45
  Q 376.52 599.08 373.79 592.97
  Q 371.46 587.75 363.90 579.93
  Q 354.43 570.13 340.13 567.39
  Q 339.76 567.32 339.51 567.04
  Q 338.98 566.45 339.43 565.93
  Z"
/>
<path fill="#e19b58" d="
  M 307.32 584.46
  Q 307.63 585.93 306.16 585.61
  Q 294.46 583.03 281.95 585.74
  A 0.88 0.88 0.0 0 1 280.89 584.81
  Q 281.05 582.96 282.43 581.64
  Q 287.41 576.85 293.81 576.26
  Q 298.92 575.79 304.41 577.18
  Q 305.86 577.54 306.17 579.00
  L 307.32 584.46
  Z"
/>
<path fill="#e19b58" d="
  M 273.29 593.22
  Q 269.85 593.98 268.72 595.43
  Q 265.23 599.91 261.26 601.70
  L 246.68 601.91
  Q 243.65 601.02 241.07 597.41
  Q 242.62 593.95 247.53 588.89
  Q 251.97 584.33 258.49 585.17
  Q 262.54 585.69 267.11 587.41
  Q 272.22 589.34 273.29 593.22
  Z"
/>
<path fill="#81323d" d="
  M 273.29 593.22
  Q 276.83 593.48 279.00 595.75
  Q 283.44 600.39 284.83 601.56
  L 261.26 601.70
  Q 265.23 599.91 268.72 595.43
  Q 269.85 593.98 273.29 593.22
  Z"
/>
<path fill="#81323d" d="
  M 345.26 593.40
  L 352.12 600.82
  A 0.44 0.44 0.0 0 1 351.81 601.56
  L 336.06 601.84
  Q 343.12 600.48 345.26 593.40
  Z"
/>
<path fill="#81323d" d="
  M 238.92 594.39
  Q 239.97 596.40 241.07 597.41
  Q 243.65 601.02 246.68 601.91
  L 231.54 601.71
  A 0.66 0.65 19.5 0 1 231.03 600.65
  Q 234.23 596.62 238.92 594.39
  Z"
/>
<path fill="#81323d" d="
  M 327.99 601.80
  L 307.10 601.38
  Q 312.94 590.00 321.31 597.16
  Q 323.28 598.85 325.11 600.63
  Q 325.89 601.39 327.99 601.80
  Z"
/>
</svg>
