<?xml version="1.0" encoding="UTF-8" standalone="no"?>
<!DOCTYPE svg PUBLIC "-//W3C//DTD SVG 1.1//EN" "http://www.w3.org/Graphics/SVG/1.1/DTD/svg11.dtd">
<svg xmlns="http://www.w3.org/2000/svg" version="1.1" viewBox="0.00 0.00 97.00 178.00">
<g stroke-width="2.00" fill="none" stroke-linecap="butt">
<path stroke="#252736" vector-effect="non-scaling-stroke" d="
  M 43.81 116.42
  Q 44.20 113.72 43.80 112.44"
/>
<path stroke="#3a3d4e" vector-effect="non-scaling-stroke" d="
  M 43.80 112.44
  L 43.79 88.99"
/>
<path stroke="#252736" vector-effect="non-scaling-stroke" d="
  M 43.79 88.99
  L 43.80 86.42"
/>
<path stroke="#3a3d4e" vector-effect="non-scaling-stroke" d="
  M 43.80 86.42
  L 43.89 61.56
  A 1.51 1.50 -70.0 0 0 43.36 60.41
  Q 39.28 56.92 36.00 52.33
  A 0.87 0.85 -50.1 0 1 35.93 51.46
  Q 36.18 50.92 36.69 50.98
  Q 37.85 51.11 38.83 51.98
  Q 41.20 54.06 43.03 56.23
  Q 43.85 57.20 43.85 55.93
  Q 43.86 42.43 43.90 31.52
  Q 43.91 28.56 44.86 25.42
  A 1.17 1.16 -80.6 0 1 46.01 24.59
  Q 46.59 24.61 46.91 25.10
  Q 47.16 25.48 47.15 25.98
  Q 46.96 42.11 47.07 57.76
  Q 47.08 58.78 48.02 58.38
  C 50.44 57.36 53.02 54.31 54.92 52.54
  Q 55.73 51.78 56.73 51.28
  Q 58.28 50.51 58.81 51.14
  Q 59.72 52.21 58.80 53.27
  Q 54.67 58.03 49.19 61.73
  Q 48.72 62.05 48.16 62.11
  Q 47.71 62.16 47.34 62.40
  Q 47.01 62.62 47.01 63.01
  L 47.00 94.27
  A 0.89 0.89 0.0 0 0 47.92 95.16
  Q 48.79 95.13 49.46 94.52
  Q 51.70 92.47 54.16 90.24
  Q 55.09 89.40 55.87 90.37
  Q 55.97 90.49 56.00 90.64
  Q 56.19 91.59 55.52 92.31
  Q 52.11 96.00 48.17 99.32
  A 2.40 2.40 0.0 0 0 47.32 101.13
  L 47.07 128.85
  Q 47.06 129.51 47.72 129.51
  Q 54.73 129.53 62.19 129.30
  Q 68.37 129.11 73.71 126.75
  Q 79.44 124.21 83.69 120.20
  Q 84.76 119.19 85.87 118.50
  Q 86.90 117.86 87.49 116.83
  A 0.93 0.92 40.6 0 0 87.40 115.78
  Q 85.40 113.32 83.05 111.24
  Q 76.92 105.81 70.76 100.48
  C 68.15 98.22 70.42 95.47 72.53 94.11
  Q 77.94 90.62 82.93 85.88
  A 1.67 1.61 49.5 0 0 83.06 83.69
  L 68.44 64.81
  A 2.69 2.68 -47.6 0 1 68.30 61.73
  C 70.51 58.27 74.77 55.17 70.56 50.77
  Q 66.44 46.49 62.37 42.71
  Q 60.01 40.54 60.36 37.34
  Q 60.85 32.80 60.93 27.94
  C 61.06 19.44 56.98 12.65 50.63 6.59
  C 46.96 3.10 44.25 5.05 41.54 8.14
  Q 37.39 12.87 34.96 17.63
  Q 30.62 26.12 26.37 37.04
  C 24.22 42.58 24.46 47.02 26.51 52.49
  C 28.08 56.68 26.83 60.56 23.99 63.89
  Q 16.61 72.54 11.36 80.80
  C 9.41 83.86 11.24 87.06 13.69 89.10
  C 17.26 92.07 21.31 94.58 24.26 98.21
  A 1.91 1.91 0.0 0 1 23.99 100.90
  Q 18.48 105.43 12.81 110.12
  Q 10.50 112.03 8.93 114.76
  C 6.62 118.78 11.20 121.67 13.89 123.56
  Q 22.40 129.53 32.49 129.51
  Q 38.02 129.51 43.37 129.63
  A 0.47 0.47 0.0 0 0 43.85 129.15
  L 43.81 116.42"
/>
<path stroke="#5a5e73" vector-effect="non-scaling-stroke" d="
  M 43.80 86.42
  Q 42.22 84.48 40.68 82.73
  Q 39.12 80.94 37.36 79.41
  Q 34.98 77.36 32.57 74.91
  A 0.52 0.52 0.0 0 0 31.78 74.97
  L 31.55 75.30
  Q 30.98 76.09 31.67 76.79
  L 43.79 88.99"
/>
<path stroke="#5a5e73" vector-effect="non-scaling-stroke" d="
  M 43.80 112.44
  L 34.61 104.22
  Q 33.99 103.67 33.76 104.46
  Q 33.48 105.36 33.83 106.30
  Q 34.22 107.34 35.02 108.11
  L 43.81 116.42"
/>
</g>
<path fill="#040610" d="
  M 44.00 169.25
  L 44.01 131.99
  A 0.97 0.97 0.0 0 0 43.05 131.02
  Q 35.46 130.94 27.97 131.04
  C 23.05 131.11 18.03 128.35 13.61 126.07
  Q 9.17 123.80 6.89 119.63
  C 4.68 115.59 9.26 110.91 11.71 108.02
  Q 13.53 105.87 16.15 104.24
  Q 18.91 102.52 21.58 100.49
  A 1.28 1.28 0.0 0 0 21.56 98.42
  Q 14.94 93.64 9.58 88.20
  Q 6.90 85.48 8.60 82.43
  Q 12.34 75.71 18.40 67.00
  Q 19.95 64.76 21.86 62.89
  C 23.54 61.25 25.73 58.32 25.00 55.78
  C 23.74 51.38 22.80 46.70 23.20 42.14
  Q 23.39 39.95 24.59 36.77
  Q 27.05 30.26 29.73 23.27
  Q 30.60 20.99 31.80 19.16
  C 33.02 17.29 33.46 15.20 34.74 13.34
  Q 36.52 10.74 38.28 8.43
  Q 41.33 4.44 45.85 3.05
  Q 46.98 2.71 48.13 3.08
  C 49.25 3.45 49.98 3.63 50.96 4.37
  Q 57.86 9.61 61.15 17.53
  Q 61.92 19.37 62.01 21.04
  C 62.12 22.80 63.19 23.81 63.04 25.65
  Q 62.48 32.49 63.07 39.33
  Q 63.11 39.81 63.47 40.14
  C 66.43 42.94 70.53 46.33 72.59 49.94
  Q 76.49 56.77 70.70 60.79
  A 2.02 1.97 40.7 0 0 71.00 64.20
  C 71.99 64.70 71.99 65.84 72.62 66.67
  C 75.12 69.90 77.43 73.41 80.14 76.46
  Q 83.23 79.97 85.69 84.28
  A 1.60 1.58 50.9 0 1 85.51 86.10
  Q 80.44 91.84 73.63 95.74
  Q 73.16 96.01 73.01 96.52
  Q 72.85 97.04 72.45 97.41
  Q 71.65 98.13 72.40 98.90
  Q 75.31 101.89 78.26 104.19
  C 81.69 106.85 85.45 110.34 87.98 113.83
  Q 90.99 118.00 86.56 120.94
  C 82.87 123.39 79.01 126.67 75.04 128.39
  Q 69.62 130.73 63.16 130.91
  Q 55.58 131.12 47.57 130.96
  Q 47.00 130.95 47.00 131.52
  L 47.00 168.75
  A 1.25 1.25 0.0 0 0 48.25 170.00
  L 65.75 170.00
  A 0.26 0.26 0.0 0 1 66.01 170.26
  L 65.99 172.76
  Q 65.99 173.00 65.74 173.00
  L 24.33 173.00
  Q 22.91 173.00 22.98 171.58
  L 23.00 170.98
  A 1.03 1.02 1.2 0 1 24.02 170.01
  L 43.25 169.99
  Q 44.00 169.99 44.00 169.25
  Z
  M 43.81 116.42
  Q 44.20 113.72 43.80 112.44
  L 43.79 88.99
  L 43.80 86.42
  L 43.89 61.56
  A 1.51 1.50 -70.0 0 0 43.36 60.41
  Q 39.28 56.92 36.00 52.33
  A 0.87 0.85 -50.1 0 1 35.93 51.46
  Q 36.18 50.92 36.69 50.98
  Q 37.85 51.11 38.83 51.98
  Q 41.20 54.06 43.03 56.23
  Q 43.85 57.20 43.85 55.93
  Q 43.86 42.43 43.90 31.52
  Q 43.91 28.56 44.86 25.42
  A 1.17 1.16 -80.6 0 1 46.01 24.59
  Q 46.59 24.61 46.91 25.10
  Q 47.16 25.48 47.15 25.98
  Q 46.96 42.11 47.07 57.76
  Q 47.08 58.78 48.02 58.38
  C 50.44 57.36 53.02 54.31 54.92 52.54
  Q 55.73 51.78 56.73 51.28
  Q 58.28 50.51 58.81 51.14
  Q 59.72 52.21 58.80 53.27
  Q 54.67 58.03 49.19 61.73
  Q 48.72 62.05 48.16 62.11
  Q 47.71 62.16 47.34 62.40
  Q 47.01 62.62 47.01 63.01
  L 47.00 94.27
  A 0.89 0.89 0.0 0 0 47.92 95.16
  Q 48.79 95.13 49.46 94.52
  Q 51.70 92.47 54.16 90.24
  Q 55.09 89.40 55.87 90.37
  Q 55.97 90.49 56.00 90.64
  Q 56.19 91.59 55.52 92.31
  Q 52.11 96.00 48.17 99.32
  A 2.40 2.40 0.0 0 0 47.32 101.13
  L 47.07 128.85
  Q 47.06 129.51 47.72 129.51
  Q 54.73 129.53 62.19 129.30
  Q 68.37 129.11 73.71 126.75
  Q 79.44 124.21 83.69 120.20
  Q 84.76 119.19 85.87 118.50
  Q 86.90 117.86 87.49 116.83
  A 0.93 0.92 40.6 0 0 87.40 115.78
  Q 85.40 113.32 83.05 111.24
  Q 76.92 105.81 70.76 100.48
  C 68.15 98.22 70.42 95.47 72.53 94.11
  Q 77.94 90.62 82.93 85.88
  A 1.67 1.61 49.5 0 0 83.06 83.69
  L 68.44 64.81
  A 2.69 2.68 -47.6 0 1 68.30 61.73
  C 70.51 58.27 74.77 55.17 70.56 50.77
  Q 66.44 46.49 62.37 42.71
  Q 60.01 40.54 60.36 37.34
  Q 60.85 32.80 60.93 27.94
  C 61.06 19.44 56.98 12.65 50.63 6.59
  C 46.96 3.10 44.25 5.05 41.54 8.14
  Q 37.39 12.87 34.96 17.63
  Q 30.62 26.12 26.37 37.04
  C 24.22 42.58 24.46 47.02 26.51 52.49
  C 28.08 56.68 26.83 60.56 23.99 63.89
  Q 16.61 72.54 11.36 80.80
  C 9.41 83.86 11.24 87.06 13.69 89.10
  C 17.26 92.07 21.31 94.58 24.26 98.21
  A 1.91 1.91 0.0 0 1 23.99 100.90
  Q 18.48 105.43 12.81 110.12
  Q 10.50 112.03 8.93 114.76
  C 6.62 118.78 11.20 121.67 13.89 123.56
  Q 22.40 129.53 32.49 129.51
  Q 38.02 129.51 43.37 129.63
  A 0.47 0.47 0.0 0 0 43.85 129.15
  L 43.81 116.42
  Z"
/>
<path fill="#6f748b" d="
  M 43.80 86.42
  Q 42.22 84.48 40.68 82.73
  Q 39.12 80.94 37.36 79.41
  Q 34.98 77.36 32.57 74.91
  A 0.52 0.52 0.0 0 0 31.78 74.97
  L 31.55 75.30
  Q 30.98 76.09 31.67 76.79
  L 43.79 88.99
  L 43.80 112.44
  L 34.61 104.22
  Q 33.99 103.67 33.76 104.46
  Q 33.48 105.36 33.83 106.30
  Q 34.22 107.34 35.02 108.11
  L 43.81 116.42
  L 43.85 129.15
  A 0.47 0.47 0.0 0 1 43.37 129.63
  Q 38.02 129.51 32.49 129.51
  Q 22.40 129.53 13.89 123.56
  C 11.20 121.67 6.62 118.78 8.93 114.76
  Q 10.50 112.03 12.81 110.12
  Q 18.48 105.43 23.99 100.90
  A 1.91 1.91 0.0 0 0 24.26 98.21
  C 21.31 94.58 17.26 92.07 13.69 89.10
  C 11.24 87.06 9.41 83.86 11.36 80.80
  Q 16.61 72.54 23.99 63.89
  C 26.83 60.56 28.08 56.68 26.51 52.49
  C 24.46 47.02 24.22 42.58 26.37 37.04
  Q 30.62 26.12 34.96 17.63
  Q 37.39 12.87 41.54 8.14
  C 44.25 5.05 46.96 3.10 50.63 6.59
  C 56.98 12.65 61.06 19.44 60.93 27.94
  Q 60.85 32.80 60.36 37.34
  Q 60.01 40.54 62.37 42.71
  Q 66.44 46.49 70.56 50.77
  C 74.77 55.17 70.51 58.27 68.30 61.73
  A 2.69 2.68 -47.6 0 0 68.44 64.81
  L 83.06 83.69
  A 1.67 1.61 49.5 0 1 82.93 85.88
  Q 77.94 90.62 72.53 94.11
  C 70.42 95.47 68.15 98.22 70.76 100.48
  Q 76.92 105.81 83.05 111.24
  Q 85.40 113.32 87.40 115.78
  A 0.93 0.92 40.6 0 1 87.49 116.83
  Q 86.90 117.86 85.87 118.50
  Q 84.76 119.19 83.69 120.20
  Q 79.44 124.21 73.71 126.75
  Q 68.37 129.11 62.19 129.30
  Q 54.73 129.53 47.72 129.51
  Q 47.06 129.51 47.07 128.85
  L 47.32 101.13
  A 2.40 2.40 0.0 0 1 48.17 99.32
  Q 52.11 96.00 55.52 92.31
  Q 56.19 91.59 56.00 90.64
  Q 55.97 90.49 55.87 90.37
  Q 55.09 89.40 54.16 90.24
  Q 51.70 92.47 49.46 94.52
  Q 48.79 95.13 47.92 95.16
  A 0.89 0.89 0.0 0 1 47.00 94.27
  L 47.01 63.01
  Q 47.01 62.62 47.34 62.40
  Q 47.71 62.16 48.16 62.11
  Q 48.72 62.05 49.19 61.73
  Q 54.67 58.03 58.80 53.27
  Q 59.72 52.21 58.81 51.14
  Q 58.28 50.51 56.73 51.28
  Q 55.73 51.78 54.92 52.54
  C 53.02 54.31 50.44 57.36 48.02 58.38
  Q 47.08 58.78 47.07 57.76
  Q 46.96 42.11 47.15 25.98
  Q 47.16 25.48 46.91 25.10
  Q 46.59 24.61 46.01 24.59
  A 1.17 1.16 -80.6 0 0 44.86 25.42
  Q 43.91 28.56 43.90 31.52
  Q 43.86 42.43 43.85 55.93
  Q 43.85 57.20 43.03 56.23
  Q 41.20 54.06 38.83 51.98
  Q 37.85 51.11 36.69 50.98
  Q 36.18 50.92 35.93 51.46
  A 0.87 0.85 -50.1 0 0 36.00 52.33
  Q 39.28 56.92 43.36 60.41
  A 1.51 1.50 -70.0 0 1 43.89 61.56
  L 43.80 86.42
  Z"
/>
<path fill="#45475b" d="
  M 43.80 86.42
  L 43.79 88.99
  L 31.67 76.79
  Q 30.98 76.09 31.55 75.30
  L 31.78 74.97
  A 0.52 0.52 0.0 0 1 32.57 74.91
  Q 34.98 77.36 37.36 79.41
  Q 39.12 80.94 40.68 82.73
  Q 42.22 84.48 43.80 86.42
  Z"
/>
<path fill="#45475b" d="
  M 43.80 112.44
  Q 44.20 113.72 43.81 116.42
  L 35.02 108.11
  Q 34.22 107.34 33.83 106.30
  Q 33.48 105.36 33.76 104.46
  Q 33.99 103.67 34.61 104.22
  L 43.80 112.44
  Z"
/>
</svg>
