<?xml version="1.0" encoding="UTF-8" standalone="no"?>
<!DOCTYPE svg PUBLIC "-//W3C//DTD SVG 1.1//EN" "http://www.w3.org/Graphics/SVG/1.1/DTD/svg11.dtd">
<svg xmlns="http://www.w3.org/2000/svg" version="1.1" viewBox="0.00 0.00 161.00 270.00">
<g stroke-width="2.00" fill="none" stroke-linecap="butt">
<path stroke="#878992" vector-effect="non-scaling-stroke" d="
  M 62.19 176.28
  L 39.33 176.57
  A 2.62 2.62 0.0 0 0 37.25 177.65
  L 36.66 178.47
  Q 35.77 179.69 37.27 179.64
  C 51.44 179.19 65.95 179.48 79.77 179.43
  Q 99.66 179.36 118.87 179.53
  Q 119.58 179.54 119.42 178.84
  C 118.67 175.56 116.81 176.71 115.12 174.56
  C 112.59 171.34 107.87 166.64 103.89 170.58
  Q 103.54 170.93 103.27 170.51
  C 101.41 167.65 97.68 165.30 94.03 165.79
  C 86.82 166.76 81.49 170.20 77.02 175.63
  Q 76.52 176.23 75.74 176.23
  L 66.56 176.24
  Q 65.73 176.24 65.70 175.41
  Q 65.25 160.84 65.57 146.18
  A 0.30 0.30 0.0 0 1 65.89 145.89
  Q 72.71 146.29 79.57 145.83
  C 90.53 145.11 99.11 140.55 106.22 132.35
  A 1.58 1.56 68.0 0 0 106.60 131.44
  Q 106.80 128.45 104.95 125.68
  Q 100.34 118.81 95.84 112.42
  C 94.92 111.11 93.63 110.04 92.53 108.87
  A 0.58 0.58 0.0 0 1 92.68 107.97
  Q 98.33 104.88 102.73 100.56
  A 3.00 3.00 0.0 0 0 103.23 96.92
  C 97.97 87.79 91.84 79.04 86.26 70.23
  A 3.13 3.12 40.8 0 1 86.04 67.30
  C 87.97 62.94 89.63 59.02 87.96 54.17
  Q 86.97 51.28 85.83 48.89
  Q 82.71 42.37 78.93 34.59
  C 75.77 28.09 72.65 23.40 65.67 20.70
  Q 63.67 19.93 61.68 20.62
  C 55.80 22.68 52.23 27.01 49.37 32.33
  C 46.36 37.93 43.66 43.84 40.91 49.92
  Q 39.15 53.80 39.02 57.38
  C 38.89 60.92 40.81 65.03 42.00 68.44
  A 2.28 2.28 0.0 0 1 41.71 70.51
  Q 33.76 81.68 26.21 94.07
  C 24.84 96.31 22.84 98.81 25.68 101.13
  Q 29.86 104.55 34.60 107.82
  A 0.79 0.77 -51.2 0 1 34.72 109.00
  Q 28.20 115.89 22.42 125.85
  Q 19.93 130.15 23.33 133.90
  Q 31.04 142.41 41.81 144.96
  C 47.95 146.42 55.25 146.03 61.77 146.06
  A 0.89 0.89 0.0 0 1 62.65 146.94
  L 62.89 175.56
  Q 62.89 176.27 62.19 176.28"
/>
<path stroke="#404458" vector-effect="non-scaling-stroke" d="
  M 57.89 69.11
  Q 55.13 64.28 59.00 68.27
  Q 60.45 69.77 61.94 71.43
  Q 62.71 72.30 62.71 71.13
  C 62.71 70.12 62.28 69.05 62.28 68.05
  Q 62.20 55.53 62.28 43.67
  Q 62.29 42.70 63.26 42.70
  L 63.67 42.70
  Q 64.94 42.70 64.97 43.97
  Q 65.29 55.35 65.30 67.00
  Q 65.30 69.44 66.54 71.12
  A 0.82 0.81 43.6 0 1 66.57 72.05
  Q 65.32 74.04 65.28 76.18
  Q 65.13 85.39 65.14 95.25
  Q 65.14 95.85 65.66 95.54
  C 68.70 93.74 71.37 90.37 73.79 87.90
  A 2.60 2.56 10.5 0 1 74.71 87.28
  Q 78.42 85.77 77.56 88.57
  A 1.50 1.48 -12.6 0 1 77.16 89.19
  Q 71.80 94.15 66.68 98.96
  Q 65.35 100.22 65.27 102.13
  Q 64.95 109.69 65.32 116.47
  A 0.55 0.55 0.0 0 0 66.20 116.88
  Q 70.68 113.63 74.73 109.12
  Q 75.79 107.94 77.38 107.87
  Q 77.89 107.85 78.07 108.72
  A 1.25 1.24 61.2 0 1 77.75 109.83
  Q 73.19 114.66 67.10 119.49
  C 66.00 120.36 65.64 121.53 65.61 122.89
  Q 65.37 132.38 65.26 143.51
  A 0.65 0.65 0.0 0 0 65.92 144.17
  Q 73.36 144.07 80.20 143.61
  C 89.97 142.96 97.44 138.48 103.82 131.70
  A 2.33 2.33 0.0 0 0 104.08 128.84
  Q 99.56 121.80 94.49 114.84
  C 93.14 112.99 91.51 111.36 89.79 109.88
  A 1.86 1.85 46.7 0 1 89.87 106.99
  Q 94.57 103.42 99.84 100.17
  Q 102.00 98.84 100.60 96.72
  L 83.48 70.83
  A 3.12 3.10 -48.8 0 1 83.28 67.75
  Q 84.61 65.04 85.65 62.22
  C 87.20 57.98 85.27 53.32 83.34 49.24
  Q 80.10 42.37 76.55 35.78
  C 73.28 29.73 71.38 25.59 65.95 23.22
  C 64.35 22.53 62.22 22.31 60.73 23.33
  Q 55.00 27.30 51.34 34.05
  Q 47.36 41.37 43.23 51.28
  C 42.06 54.07 40.97 57.15 42.02 60.16
  Q 43.26 63.72 44.44 67.56
  Q 45.27 70.23 43.57 72.48
  Q 34.34 84.75 26.95 97.17
  Q 25.96 98.83 27.59 99.88
  Q 32.52 103.04 36.92 107.07
  A 2.03 2.03 0.0 0 1 37.11 109.86
  Q 31.56 116.59 25.79 124.73
  C 24.25 126.91 22.91 129.71 24.92 132.04
  C 31.36 139.53 40.42 143.18 50.43 143.69
  Q 55.99 143.98 61.54 144.28
  A 0.77 0.77 0.0 0 0 62.36 143.51
  L 62.37 135.53
  A 1.73 1.70 -69.6 0 0 61.79 134.24
  L 47.82 121.92
  A 0.39 0.18 25.1 0 1 47.77 121.86
  Q 46.33 119.86 47.05 119.01
  A 0.80 0.79 37.8 0 1 48.12 118.88
  Q 55.27 124.00 62.12 131.07
  Q 62.54 131.50 62.61 130.90
  Q 63.04 126.78 62.84 122.80
  Q 62.24 110.89 62.30 99.38
  Q 62.30 98.89 61.96 98.54
  L 53.93 90.07
  Q 53.45 89.56 54.14 89.52
  Q 54.47 89.50 54.72 89.73
  Q 55.03 90.01 55.45 90.08
  L 58.85 90.65
  A 2.12 2.12 0.0 0 1 60.62 92.86
  Q 60.52 94.58 61.96 95.50
  A 0.47 0.46 -80.4 0 0 62.66 95.00
  Q 62.26 93.21 62.26 91.42
  Q 62.29 83.39 62.04 75.83
  A 1.92 1.92 0.0 0 0 61.62 74.69
  C 60.83 73.67 59.79 73.21 59.26 71.91
  Q 58.64 70.42 57.89 69.11"
/>
<path stroke="#434d6a" vector-effect="non-scaling-stroke" d="
  M 103.56 174.41
  A 0.51 0.51 0.0 0 1 102.65 174.34
  C 101.21 170.93 97.77 168.87 94.17 168.81
  C 87.59 168.70 83.85 171.41 79.61 175.72
  Q 79.14 176.20 79.82 176.20
  L 112.95 176.11
  Q 113.91 176.11 113.15 175.53
  C 111.69 174.40 110.45 172.59 108.72 171.98
  Q 105.69 170.90 103.56 174.41"
/>
</g>
<path fill="#ffffff" d="
  M 0.00 0.00
  L 161.00 0.00
  L 161.00 270.00
  L 0.00 270.00
  L 0.00 0.00
  Z
  M 62.19 176.28
  L 39.33 176.57
  A 2.62 2.62 0.0 0 0 37.25 177.65
  L 36.66 178.47
  Q 35.77 179.69 37.27 179.64
  C 51.44 179.19 65.95 179.48 79.77 179.43
  Q 99.66 179.36 118.87 179.53
  Q 119.58 179.54 119.42 178.84
  C 118.67 175.56 116.81 176.71 115.12 174.56
  C 112.59 171.34 107.87 166.64 103.89 170.58
  Q 103.54 170.93 103.27 170.51
  C 101.41 167.65 97.68 165.30 94.03 165.79
  C 86.82 166.76 81.49 170.20 77.02 175.63
  Q 76.52 176.23 75.74 176.23
  L 66.56 176.24
  Q 65.73 176.24 65.70 175.41
  Q 65.25 160.84 65.57 146.18
  A 0.30 0.30 0.0 0 1 65.89 145.89
  Q 72.71 146.29 79.57 145.83
  C 90.53 145.11 99.11 140.55 106.22 132.35
  A 1.58 1.56 68.0 0 0 106.60 131.44
  Q 106.80 128.45 104.95 125.68
  Q 100.34 118.81 95.84 112.42
  C 94.92 111.11 93.63 110.04 92.53 108.87
  A 0.58 0.58 0.0 0 1 92.68 107.97
  Q 98.33 104.88 102.73 100.56
  A 3.00 3.00 0.0 0 0 103.23 96.92
  C 97.97 87.79 91.84 79.04 86.26 70.23
  A 3.13 3.12 40.8 0 1 86.04 67.30
  C 87.97 62.94 89.63 59.02 87.96 54.17
  Q 86.97 51.28 85.83 48.89
  Q 82.71 42.37 78.93 34.59
  C 75.77 28.09 72.65 23.40 65.67 20.70
  Q 63.67 19.93 61.68 20.62
  C 55.80 22.68 52.23 27.01 49.37 32.33
  C 46.36 37.93 43.66 43.84 40.91 49.92
  Q 39.15 53.80 39.02 57.38
  C 38.89 60.92 40.81 65.03 42.00 68.44
  A 2.28 2.28 0.0 0 1 41.71 70.51
  Q 33.76 81.68 26.21 94.07
  C 24.84 96.31 22.84 98.81 25.68 101.13
  Q 29.86 104.55 34.60 107.82
  A 0.79 0.77 -51.2 0 1 34.72 109.00
  Q 28.20 115.89 22.42 125.85
  Q 19.93 130.15 23.33 133.90
  Q 31.04 142.41 41.81 144.96
  C 47.95 146.42 55.25 146.03 61.77 146.06
  A 0.89 0.89 0.0 0 1 62.65 146.94
  L 62.89 175.56
  Q 62.89 176.27 62.19 176.28
  Z"
/>
<path fill="#0f1224" d="
  M 62.89 175.56
  L 62.65 146.94
  A 0.89 0.89 0.0 0 0 61.77 146.06
  C 55.25 146.03 47.95 146.42 41.81 144.96
  Q 31.04 142.41 23.33 133.90
  Q 19.93 130.15 22.42 125.85
  Q 28.20 115.89 34.72 109.00
  A 0.79 0.77 -51.2 0 0 34.60 107.82
  Q 29.86 104.55 25.68 101.13
  C 22.84 98.81 24.84 96.31 26.21 94.07
  Q 33.76 81.68 41.71 70.51
  A 2.28 2.28 0.0 0 0 42.00 68.44
  C 40.81 65.03 38.89 60.92 39.02 57.38
  Q 39.15 53.80 40.91 49.92
  C 43.66 43.84 46.36 37.93 49.37 32.33
  C 52.23 27.01 55.80 22.68 61.68 20.62
  Q 63.67 19.93 65.67 20.70
  C 72.65 23.40 75.77 28.09 78.93 34.59
  Q 82.71 42.37 85.83 48.89
  Q 86.97 51.28 87.96 54.17
  C 89.63 59.02 87.97 62.94 86.04 67.30
  A 3.13 3.12 40.8 0 0 86.26 70.23
  C 91.84 79.04 97.97 87.79 103.23 96.92
  A 3.00 3.00 0.0 0 1 102.73 100.56
  Q 98.33 104.88 92.68 107.97
  A 0.58 0.58 0.0 0 0 92.53 108.87
  C 93.63 110.04 94.92 111.11 95.84 112.42
  Q 100.34 118.81 104.95 125.68
  Q 106.80 128.45 106.60 131.44
  A 1.58 1.56 68.0 0 1 106.22 132.35
  C 99.11 140.55 90.53 145.11 79.57 145.83
  Q 72.71 146.29 65.89 145.89
  A 0.30 0.30 0.0 0 0 65.57 146.18
  Q 65.25 160.84 65.70 175.41
  Q 65.73 176.24 66.56 176.24
  L 75.74 176.23
  Q 76.52 176.23 77.02 175.63
  C 81.49 170.20 86.82 166.76 94.03 165.79
  C 97.68 165.30 101.41 167.65 103.27 170.51
  Q 103.54 170.93 103.89 170.58
  C 107.87 166.64 112.59 171.34 115.12 174.56
  C 116.81 176.71 118.67 175.56 119.42 178.84
  Q 119.58 179.54 118.87 179.53
  Q 99.66 179.36 79.77 179.43
  C 65.95 179.48 51.44 179.19 37.27 179.64
  Q 35.77 179.69 36.66 178.47
  L 37.25 177.65
  A 2.62 2.62 0.0 0 1 39.33 176.57
  L 62.19 176.28
  Q 62.89 176.27 62.89 175.56
  Z
  M 57.89 69.11
  Q 55.13 64.28 59.00 68.27
  Q 60.45 69.77 61.94 71.43
  Q 62.71 72.30 62.71 71.13
  C 62.71 70.12 62.28 69.05 62.28 68.05
  Q 62.20 55.53 62.28 43.67
  Q 62.29 42.70 63.26 42.70
  L 63.67 42.70
  Q 64.94 42.70 64.97 43.97
  Q 65.29 55.35 65.30 67.00
  Q 65.30 69.44 66.54 71.12
  A 0.82 0.81 43.6 0 1 66.57 72.05
  Q 65.32 74.04 65.28 76.18
  Q 65.13 85.39 65.14 95.25
  Q 65.14 95.85 65.66 95.54
  C 68.70 93.74 71.37 90.37 73.79 87.90
  A 2.60 2.56 10.5 0 1 74.71 87.28
  Q 78.42 85.77 77.56 88.57
  A 1.50 1.48 -12.6 0 1 77.16 89.19
  Q 71.80 94.15 66.68 98.96
  Q 65.35 100.22 65.27 102.13
  Q 64.95 109.69 65.32 116.47
  A 0.55 0.55 0.0 0 0 66.20 116.88
  Q 70.68 113.63 74.73 109.12
  Q 75.79 107.94 77.38 107.87
  Q 77.89 107.85 78.07 108.72
  A 1.25 1.24 61.2 0 1 77.75 109.83
  Q 73.19 114.66 67.10 119.49
  C 66.00 120.36 65.64 121.53 65.61 122.89
  Q 65.37 132.38 65.26 143.51
  A 0.65 0.65 0.0 0 0 65.92 144.17
  Q 73.36 144.07 80.20 143.61
  C 89.97 142.96 97.44 138.48 103.82 131.70
  A 2.33 2.33 0.0 0 0 104.08 128.84
  Q 99.56 121.80 94.49 114.84
  C 93.14 112.99 91.51 111.36 89.79 109.88
  A 1.86 1.85 46.7 0 1 89.87 106.99
  Q 94.57 103.42 99.84 100.17
  Q 102.00 98.84 100.60 96.72
  L 83.48 70.83
  A 3.12 3.10 -48.8 0 1 83.28 67.75
  Q 84.61 65.04 85.65 62.22
  C 87.20 57.98 85.27 53.32 83.34 49.24
  Q 80.10 42.37 76.55 35.78
  C 73.28 29.73 71.38 25.59 65.95 23.22
  C 64.35 22.53 62.22 22.31 60.73 23.33
  Q 55.00 27.30 51.34 34.05
  Q 47.36 41.37 43.23 51.28
  C 42.06 54.07 40.97 57.15 42.02 60.16
  Q 43.26 63.72 44.44 67.56
  Q 45.27 70.23 43.57 72.48
  Q 34.34 84.75 26.95 97.17
  Q 25.96 98.83 27.59 99.88
  Q 32.52 103.04 36.92 107.07
  A 2.03 2.03 0.0 0 1 37.11 109.86
  Q 31.56 116.59 25.79 124.73
  C 24.25 126.91 22.91 129.71 24.92 132.04
  C 31.36 139.53 40.42 143.18 50.43 143.69
  Q 55.99 143.98 61.54 144.28
  A 0.77 0.77 0.0 0 0 62.36 143.51
  L 62.37 135.53
  A 1.73 1.70 -69.6 0 0 61.79 134.24
  L 47.82 121.92
  A 0.39 0.18 25.1 0 1 47.77 121.86
  Q 46.33 119.86 47.05 119.01
  A 0.80 0.79 37.8 0 1 48.12 118.88
  Q 55.27 124.00 62.12 131.07
  Q 62.54 131.50 62.61 130.90
  Q 63.04 126.78 62.84 122.80
  Q 62.24 110.89 62.30 99.38
  Q 62.30 98.89 61.96 98.54
  L 53.93 90.07
  Q 53.45 89.56 54.14 89.52
  Q 54.47 89.50 54.72 89.73
  Q 55.03 90.01 55.45 90.08
  L 58.85 90.65
  A 2.12 2.12 0.0 0 1 60.62 92.86
  Q 60.52 94.58 61.96 95.50
  A 0.47 0.46 -80.4 0 0 62.66 95.00
  Q 62.26 93.21 62.26 91.42
  Q 62.29 83.39 62.04 75.83
  A 1.92 1.92 0.0 0 0 61.62 74.69
  C 60.83 73.67 59.79 73.21 59.26 71.91
  Q 58.64 70.42 57.89 69.11
  Z
  M 103.56 174.41
  A 0.51 0.51 0.0 0 1 102.65 174.34
  C 101.21 170.93 97.77 168.87 94.17 168.81
  C 87.59 168.70 83.85 171.41 79.61 175.72
  Q 79.14 176.20 79.82 176.20
  L 112.95 176.11
  Q 113.91 176.11 113.15 175.53
  C 111.69 174.40 110.45 172.59 108.72 171.98
  Q 105.69 170.90 103.56 174.41
  Z"
/>
<path fill="#71768c" d="
  M 57.89 69.11
  Q 58.64 70.42 59.26 71.91
  C 59.79 73.21 60.83 73.67 61.62 74.69
  A 1.92 1.92 0.0 0 1 62.04 75.83
  Q 62.29 83.39 62.26 91.42
  Q 62.26 93.21 62.66 95.00
  A 0.47 0.46 -80.4 0 1 61.96 95.50
  Q 60.52 94.58 60.62 92.86
  A 2.12 2.12 0.0 0 0 58.85 90.65
  L 55.45 90.08
  Q 55.03 90.01 54.72 89.73
  Q 54.47 89.50 54.14 89.52
  Q 53.45 89.56 53.93 90.07
  L 61.96 98.54
  Q 62.30 98.89 62.30 99.38
  Q 62.24 110.89 62.84 122.80
  Q 63.04 126.78 62.61 130.90
  Q 62.54 131.50 62.12 131.07
  Q 55.27 124.00 48.12 118.88
  A 0.80 0.79 37.8 0 0 47.05 119.01
  Q 46.33 119.86 47.77 121.86
  A 0.39 0.18 25.1 0 0 47.82 121.92
  L 61.79 134.24
  A 1.73 1.70 -69.6 0 1 62.37 135.53
  L 62.36 143.51
  A 0.77 0.77 0.0 0 1 61.54 144.28
  Q 55.99 143.98 50.43 143.69
  C 40.42 143.18 31.36 139.53 24.92 132.04
  C 22.91 129.71 24.25 126.91 25.79 124.73
  Q 31.56 116.59 37.11 109.86
  A 2.03 2.03 0.0 0 0 36.92 107.07
  Q 32.52 103.04 27.59 99.88
  Q 25.96 98.83 26.95 97.17
  Q 34.34 84.75 43.57 72.48
  Q 45.27 70.23 44.44 67.56
  Q 43.26 63.72 42.02 60.16
  C 40.97 57.15 42.06 54.07 43.23 51.28
  Q 47.36 41.37 51.34 34.05
  Q 55.00 27.30 60.73 23.33
  C 62.22 22.31 64.35 22.53 65.95 23.22
  C 71.38 25.59 73.28 29.73 76.55 35.78
  Q 80.10 42.37 83.34 49.24
  C 85.27 53.32 87.20 57.98 85.65 62.22
  Q 84.61 65.04 83.28 67.75
  A 3.12 3.10 -48.8 0 0 83.48 70.83
  L 100.60 96.72
  Q 102.00 98.84 99.84 100.17
  Q 94.57 103.42 89.87 106.99
  A 1.86 1.85 46.7 0 0 89.79 109.88
  C 91.51 111.36 93.14 112.99 94.49 114.84
  Q 99.56 121.80 104.08 128.84
  A 2.33 2.33 0.0 0 1 103.82 131.70
  C 97.44 138.48 89.97 142.96 80.20 143.61
  Q 73.36 144.07 65.92 144.17
  A 0.65 0.65 0.0 0 1 65.26 143.51
  Q 65.37 132.38 65.61 122.89
  C 65.64 121.53 66.00 120.36 67.10 119.49
  Q 73.19 114.66 77.75 109.83
  A 1.25 1.24 61.2 0 0 78.07 108.72
  Q 77.89 107.85 77.38 107.87
  Q 75.79 107.94 74.73 109.12
  Q 70.68 113.63 66.20 116.88
  A 0.55 0.55 0.0 0 1 65.32 116.47
  Q 64.95 109.69 65.27 102.13
  Q 65.35 100.22 66.68 98.96
  Q 71.80 94.15 77.16 89.19
  A 1.50 1.48 -12.6 0 0 77.56 88.57
  Q 78.42 85.77 74.71 87.28
  A 2.60 2.56 10.5 0 0 73.79 87.90
  C 71.37 90.37 68.70 93.74 65.66 95.54
  Q 65.14 95.85 65.14 95.25
  Q 65.13 85.39 65.28 76.18
  Q 65.32 74.04 66.57 72.05
  A 0.82 0.81 43.6 0 0 66.54 71.12
  Q 65.30 69.44 65.30 67.00
  Q 65.29 55.35 64.97 43.97
  Q 64.94 42.70 63.67 42.70
  L 63.26 42.70
  Q 62.29 42.70 62.28 43.67
  Q 62.20 55.53 62.28 68.05
  C 62.28 69.05 62.71 70.12 62.71 71.13
  Q 62.71 72.30 61.94 71.43
  Q 60.45 69.77 59.00 68.27
  Q 55.13 64.28 57.89 69.11
  Z"
/>
<path fill="#7787af" d="
  M 103.56 174.41
  Q 105.69 170.90 108.72 171.98
  C 110.45 172.59 111.69 174.40 113.15 175.53
  Q 113.91 176.11 112.95 176.11
  L 79.82 176.20
  Q 79.14 176.20 79.61 175.72
  C 83.85 171.41 87.59 168.70 94.17 168.81
  C 97.77 168.87 101.21 170.93 102.65 174.34
  A 0.51 0.51 0.0 0 0 103.56 174.41
  Z"
/>
</svg>
