<?xml version="1.0" encoding="UTF-8" standalone="no"?>
<!DOCTYPE svg PUBLIC "-//W3C//DTD SVG 1.1//EN" "http://www.w3.org/Graphics/SVG/1.1/DTD/svg11.dtd">
<svg xmlns="http://www.w3.org/2000/svg" version="1.1" viewBox="0.00 0.00 97.00 178.00">
<path stroke="#393d4c" stroke-width="2.00" fill="none" stroke-linecap="butt" vector-effect="non-scaling-stroke" d="
  M 26.38 52.21
  C 27.91 56.48 27.09 60.16 24.26 63.50
  Q 17.76 71.19 12.14 79.53
  C 9.27 83.78 10.91 87.06 14.64 89.83
  Q 19.66 93.55 23.85 97.56
  A 2.40 2.40 0.0 0 1 23.72 101.14
  Q 18.30 105.64 12.96 109.95
  C 10.64 111.82 6.26 116.69 9.32 119.72
  Q 16.35 126.68 25.29 128.72
  C 30.48 129.90 37.43 129.64 43.27 129.63
  A 0.69 0.69 0.0 0 0 43.96 128.94
  Q 44.01 93.07 43.98 62.81
  C 43.98 61.72 43.96 60.90 43.10 60.11
  Q 38.94 56.28 36.05 52.54
  A 0.87 0.86 -65.9 0 1 35.88 52.09
  Q 35.76 50.70 37.41 51.06
  A 1.05 1.02 -19.2 0 1 37.84 51.26
  Q 40.57 53.37 43.01 56.26
  Q 43.84 57.23 43.85 55.95
  Q 43.93 45.01 43.86 32.85
  Q 43.84 28.94 44.85 25.41
  A 1.12 1.12 0.0 0 1 46.00 24.60
  Q 46.57 24.64 46.92 25.07
  Q 47.16 25.37 47.15 25.98
  Q 46.94 42.00 47.06 57.97
  A 0.55 0.55 0.0 0 0 47.82 58.47
  C 50.72 57.25 53.78 53.62 56.02 51.53
  Q 57.03 50.58 58.42 50.92
  Q 59.17 51.11 59.01 52.67
  A 1.28 1.26 69.1 0 1 58.69 53.40
  Q 54.39 58.23 48.92 61.89
  A 1.92 1.80 -62.0 0 1 47.99 62.21
  L 47.62 62.24
  Q 47.01 62.28 47.01 62.88
  L 47.00 94.25
  A 0.91 0.91 0.0 0 0 47.97 95.16
  Q 48.82 95.11 49.49 94.50
  Q 51.90 92.28 54.35 90.08
  A 0.90 0.89 33.3 0 1 55.24 89.90
  Q 55.91 90.14 55.99 90.62
  Q 56.16 91.58 55.51 92.30
  Q 52.09 96.09 48.13 99.31
  A 2.16 2.15 -19.2 0 0 47.32 100.97
  L 47.04 128.84
  Q 47.03 129.42 47.60 129.44
  Q 56.35 129.70 64.69 129.10
  Q 70.22 128.70 75.03 126.16
  Q 81.16 122.92 87.27 117.20
  A 1.07 1.06 -40.8 0 0 87.38 115.77
  Q 85.73 113.66 83.63 111.77
  Q 77.58 106.33 71.50 101.19
  Q 67.50 97.82 71.96 94.63
  C 75.75 91.92 80.13 89.05 83.16 85.48
  A 1.30 1.29 -43.6 0 0 83.20 83.85
  L 68.45 64.82
  A 2.73 2.60 43.5 0 1 68.29 61.70
  C 70.68 58.13 74.81 55.05 70.40 50.55
  Q 66.33 46.40 62.15 42.46
  Q 60.32 40.74 60.38 38.32
  Q 60.46 35.04 60.79 31.77
  C 61.85 21.14 58.12 14.10 51.10 7.01
  C 49.26 5.16 46.34 3.72 44.04 5.68
  C 40.33 8.85 37.04 13.59 34.91 17.72
  Q 29.88 27.52 25.98 38.24
  C 24.22 43.07 24.66 47.43 26.38 52.21"
/>
<path fill="#03050c" d="
  M 44.00 169.25
  L 44.01 132.01
  A 0.97 0.96 0.9 0 0 43.06 131.04
  Q 36.16 130.92 28.50 131.05
  C 23.06 131.14 17.68 128.29 12.93 125.69
  Q 9.01 123.54 6.89 119.63
  C 4.73 115.65 8.99 111.29 11.37 108.41
  C 14.19 104.99 18.14 103.14 21.62 100.45
  A 1.26 1.26 0.0 0 0 21.58 98.42
  Q 14.94 93.71 9.47 88.09
  Q 6.95 85.50 8.58 82.51
  Q 12.45 75.38 18.48 66.93
  Q 20.05 64.74 21.86 62.89
  C 23.39 61.33 25.66 58.46 25.05 56.09
  C 23.96 51.82 22.88 47.40 23.14 43.05
  Q 23.35 39.68 24.86 35.90
  Q 27.41 29.57 29.72 23.24
  Q 30.54 21.00 31.83 19.09
  C 33.03 17.31 33.41 15.26 34.65 13.47
  C 37.73 8.99 40.43 4.71 45.85 3.05
  Q 46.98 2.71 48.13 3.08
  C 49.21 3.43 49.97 3.63 50.89 4.32
  Q 57.88 9.64 61.20 17.62
  Q 61.92 19.35 62.01 21.05
  C 62.10 22.81 63.18 23.79 63.04 25.66
  Q 62.50 32.48 63.05 39.31
  A 1.44 1.43 18.3 0 0 63.53 40.26
  Q 68.01 44.23 71.43 48.23
  Q 74.17 51.44 74.09 55.70
  C 74.05 58.11 72.37 59.46 70.69 60.79
  A 2.05 2.00 -50.4 0 0 70.97 64.19
  C 72.02 64.72 71.95 65.84 72.62 66.68
  C 75.19 69.95 77.40 73.39 80.13 76.45
  Q 83.26 79.97 85.70 84.31
  A 1.54 1.54 0.0 0 1 85.51 86.09
  Q 80.44 91.84 73.64 95.74
  Q 73.14 96.03 73.00 96.58
  Q 72.88 97.05 72.50 97.33
  Q 71.60 98.01 72.37 98.83
  Q 75.15 101.79 78.34 104.26
  C 81.65 106.81 84.80 109.87 87.45 113.07
  C 90.65 116.94 88.89 119.75 85.38 121.85
  C 81.92 123.92 78.70 126.95 75.07 128.41
  C 66.44 131.87 56.99 131.14 47.77 130.97
  A 0.76 0.75 -89.3 0 0 47.00 131.73
  L 47.00 168.75
  A 1.25 1.25 0.0 0 0 48.25 170.00
  L 65.75 170.00
  Q 66.01 170.00 66.01 170.26
  L 65.99 172.76
  Q 65.99 173.00 65.74 173.00
  L 24.33 173.00
  Q 22.91 173.00 22.98 171.58
  L 23.00 170.98
  A 1.03 1.02 1.2 0 1 24.02 170.01
  L 43.25 169.99
  Q 44.00 169.99 44.00 169.25
  Z
  M 26.38 52.21
  C 27.91 56.48 27.09 60.16 24.26 63.50
  Q 17.76 71.19 12.14 79.53
  C 9.27 83.78 10.91 87.06 14.64 89.83
  Q 19.66 93.55 23.85 97.56
  A 2.40 2.40 0.0 0 1 23.72 101.14
  Q 18.30 105.64 12.96 109.95
  C 10.64 111.82 6.26 116.69 9.32 119.72
  Q 16.35 126.68 25.29 128.72
  C 30.48 129.90 37.43 129.64 43.27 129.63
  A 0.69 0.69 0.0 0 0 43.96 128.94
  Q 44.01 93.07 43.98 62.81
  C 43.98 61.72 43.96 60.90 43.10 60.11
  Q 38.94 56.28 36.05 52.54
  A 0.87 0.86 -65.9 0 1 35.88 52.09
  Q 35.76 50.70 37.41 51.06
  A 1.05 1.02 -19.2 0 1 37.84 51.26
  Q 40.57 53.37 43.01 56.26
  Q 43.84 57.23 43.85 55.95
  Q 43.93 45.01 43.86 32.85
  Q 43.84 28.94 44.85 25.41
  A 1.12 1.12 0.0 0 1 46.00 24.60
  Q 46.57 24.64 46.92 25.07
  Q 47.16 25.37 47.15 25.98
  Q 46.94 42.00 47.06 57.97
  A 0.55 0.55 0.0 0 0 47.82 58.47
  C 50.72 57.25 53.78 53.62 56.02 51.53
  Q 57.03 50.58 58.42 50.92
  Q 59.17 51.11 59.01 52.67
  A 1.28 1.26 69.1 0 1 58.69 53.40
  Q 54.39 58.23 48.92 61.89
  A 1.92 1.80 -62.0 0 1 47.99 62.21
  L 47.62 62.24
  Q 47.01 62.28 47.01 62.88
  L 47.00 94.25
  A 0.91 0.91 0.0 0 0 47.97 95.16
  Q 48.82 95.11 49.49 94.50
  Q 51.90 92.28 54.35 90.08
  A 0.90 0.89 33.3 0 1 55.24 89.90
  Q 55.91 90.14 55.99 90.62
  Q 56.16 91.58 55.51 92.30
  Q 52.09 96.09 48.13 99.31
  A 2.16 2.15 -19.2 0 0 47.32 100.97
  L 47.04 128.84
  Q 47.03 129.42 47.60 129.44
  Q 56.35 129.70 64.69 129.10
  Q 70.22 128.70 75.03 126.16
  Q 81.16 122.92 87.27 117.20
  A 1.07 1.06 -40.8 0 0 87.38 115.77
  Q 85.73 113.66 83.63 111.77
  Q 77.58 106.33 71.50 101.19
  Q 67.50 97.82 71.96 94.63
  C 75.75 91.92 80.13 89.05 83.16 85.48
  A 1.30 1.29 -43.6 0 0 83.20 83.85
  L 68.45 64.82
  A 2.73 2.60 43.5 0 1 68.29 61.70
  C 70.68 58.13 74.81 55.05 70.40 50.55
  Q 66.33 46.40 62.15 42.46
  Q 60.32 40.74 60.38 38.32
  Q 60.46 35.04 60.79 31.77
  C 61.85 21.14 58.12 14.10 51.10 7.01
  C 49.26 5.16 46.34 3.72 44.04 5.68
  C 40.33 8.85 37.04 13.59 34.91 17.72
  Q 29.88 27.52 25.98 38.24
  C 24.22 43.07 24.66 47.43 26.38 52.21
  Z"
/>
<path fill="#6f748b" d="
  M 26.38 52.21
  C 24.66 47.43 24.22 43.07 25.98 38.24
  Q 29.88 27.52 34.91 17.72
  C 37.04 13.59 40.33 8.85 44.04 5.68
  C 46.34 3.72 49.26 5.16 51.10 7.01
  C 58.12 14.10 61.85 21.14 60.79 31.77
  Q 60.46 35.04 60.38 38.32
  Q 60.32 40.74 62.15 42.46
  Q 66.33 46.40 70.40 50.55
  C 74.81 55.05 70.68 58.13 68.29 61.70
  A 2.73 2.60 43.5 0 0 68.45 64.82
  L 83.20 83.85
  A 1.30 1.29 -43.6 0 1 83.16 85.48
  C 80.13 89.05 75.75 91.92 71.96 94.63
  Q 67.50 97.82 71.50 101.19
  Q 77.58 106.33 83.63 111.77
  Q 85.73 113.66 87.38 115.77
  A 1.07 1.06 -40.8 0 1 87.27 117.20
  Q 81.16 122.92 75.03 126.16
  Q 70.22 128.70 64.69 129.10
  Q 56.35 129.70 47.60 129.44
  Q 47.03 129.42 47.04 128.84
  L 47.32 100.97
  A 2.16 2.15 -19.2 0 1 48.13 99.31
  Q 52.09 96.09 55.51 92.30
  Q 56.16 91.58 55.99 90.62
  Q 55.91 90.14 55.24 89.90
  A 0.90 0.89 33.3 0 0 54.35 90.08
  Q 51.90 92.28 49.49 94.50
  Q 48.82 95.11 47.97 95.16
  A 0.91 0.91 0.0 0 1 47.00 94.25
  L 47.01 62.88
  Q 47.01 62.28 47.62 62.24
  L 47.99 62.21
  A 1.92 1.80 -62.0 0 0 48.92 61.89
  Q 54.39 58.23 58.69 53.40
  A 1.28 1.26 69.1 0 0 59.01 52.67
  Q 59.17 51.11 58.42 50.92
  Q 57.03 50.58 56.02 51.53
  C 53.78 53.62 50.72 57.25 47.82 58.47
  A 0.55 0.55 0.0 0 1 47.06 57.97
  Q 46.94 42.00 47.15 25.98
  Q 47.16 25.37 46.92 25.07
  Q 46.57 24.64 46.00 24.60
  A 1.12 1.12 0.0 0 0 44.85 25.41
  Q 43.84 28.94 43.86 32.85
  Q 43.93 45.01 43.85 55.95
  Q 43.84 57.23 43.01 56.26
  Q 40.57 53.37 37.84 51.26
  A 1.05 1.02 -19.2 0 0 37.41 51.06
  Q 35.76 50.70 35.88 52.09
  A 0.87 0.86 -65.9 0 0 36.05 52.54
  Q 38.94 56.28 43.10 60.11
  C 43.96 60.90 43.98 61.72 43.98 62.81
  Q 44.01 93.07 43.96 128.94
  A 0.69 0.69 0.0 0 1 43.27 129.63
  C 37.43 129.64 30.48 129.90 25.29 128.72
  Q 16.35 126.68 9.32 119.72
  C 6.26 116.69 10.64 111.82 12.96 109.95
  Q 18.30 105.64 23.72 101.14
  A 2.40 2.40 0.0 0 0 23.85 97.56
  Q 19.66 93.55 14.64 89.83
  C 10.91 87.06 9.27 83.78 12.14 79.53
  Q 17.76 71.19 24.26 63.50
  C 27.09 60.16 27.91 56.48 26.38 52.21
  Z"
/>
</svg>
