<?xml version="1.0" encoding="UTF-8" standalone="no"?>
<!DOCTYPE svg PUBLIC "-//W3C//DTD SVG 1.1//EN" "http://www.w3.org/Graphics/SVG/1.1/DTD/svg11.dtd">
<svg xmlns="http://www.w3.org/2000/svg" version="1.1" viewBox="0.00 0.00 147.00 170.00">
<g stroke-width="2.00" fill="none" stroke-linecap="butt">
<path stroke="#5f657a" vector-effect="non-scaling-stroke" d="
  M 113.37 26.11
  Q 111.51 26.36 111.34 24.24
  Q 110.75 16.80 107.40 12.14
  C 100.77 2.90 88.79 0.75 79.80 8.19
  Q 76.72 10.74 74.47 13.07
  Q 70.17 17.52 67.87 24.29
  C 67.10 26.57 67.01 29.19 66.73 31.60
  Q 66.53 33.21 65.37 34.23
  C 62.68 36.59 60.21 38.05 60.70 42.27
  C 60.90 44.02 62.22 45.23 63.27 46.53
  A 1.63 1.63 0.0 0 1 63.63 47.58
  Q 63.54 52.29 59.93 55.69
  Q 56.99 58.45 54.54 61.14
  Q 43.95 72.77 40.86 88.50
  Q 40.40 90.83 40.13 93.11"
/>
<path stroke="#5f657a" vector-effect="non-scaling-stroke" d="
  M 118.71 31.47
  Q 124.16 39.46 124.27 46.74
  Q 124.35 52.16 124.20 57.77
  Q 124.13 60.26 125.89 62.08
  Q 132.31 68.72 135.97 77.66
  Q 141.97 92.30 138.15 106.69
  C 137.38 109.57 135.90 112.16 135.12 115.04
  Q 134.99 115.53 134.59 115.85
  Q 134.00 116.31 133.86 116.99
  Q 133.76 117.50 133.42 117.91
  C 131.77 119.92 130.44 121.84 128.34 123.53
  Q 124.78 126.37 120.92 129.16"
/>
<path stroke="#4e536c" vector-effect="non-scaling-stroke" d="
  M 114.02 130.99
  L 105.76 131.87"
/>
<path stroke="#6b7387" vector-effect="non-scaling-stroke" d="
  M 93.84 132.13
  Q 92.85 131.51 91.69 131.85
  Q 91.19 132.00 91.04 132.50
  Q 90.84 133.14 91.40 133.52"
/>
<path stroke="#5f657a" vector-effect="non-scaling-stroke" d="
  M 91.27 139.45
  L 91.12 143.06"
/>
<path stroke="#6b7387" vector-effect="non-scaling-stroke" d="
  M 91.30 144.27
  L 91.17 148.01"
/>
<path stroke="#6b7387" vector-effect="non-scaling-stroke" d="
  M 91.22 149.16
  Q 90.66 150.77 91.09 152.23
  Q 91.24 152.75 91.65 152.40
  Q 92.63 151.59 93.20 150.17"
/>
<path stroke="#6b7387" vector-effect="non-scaling-stroke" d="
  M 119.26 150.02
  Q 119.18 151.24 120.13 152.29
  Q 120.47 152.66 120.98 152.62
  L 123.55 152.37"
/>
<path stroke="#40475e" vector-effect="non-scaling-stroke" d="
  M 130.06 157.51
  Q 129.45 158.88 131.17 159.35
  Q 133.69 160.04 137.69 159.54
  Q 138.17 159.48 137.74 159.26
  Q 137.32 159.04 136.45 159.09"
/>
<path stroke="#40475e" vector-effect="non-scaling-stroke" d="
  M 139.92 159.06
  Q 135.27 159.82 142.28 159.80"
/>
<path stroke="#4e536c" vector-effect="non-scaling-stroke" d="
  M 142.96 162.09
  C 140.88 161.98 138.86 162.62 137.00 162.54
  Q 116.36 161.65 95.71 162.38"
/>
<path stroke="#5f657a" vector-effect="non-scaling-stroke" d="
  M 95.71 162.38
  L 2.59 162.15"
/>
<path stroke="#4e536c" vector-effect="non-scaling-stroke" d="
  M 3.98 159.03
  Q 5.30 158.96 5.61 158.11
  Q 8.53 150.13 16.68 146.45
  Q 22.88 143.64 28.78 144.25"
/>
<path stroke="#5f657a" vector-effect="non-scaling-stroke" d="
  M 28.78 144.25
  Q 30.65 145.22 32.23 145.03"
/>
<path stroke="#5f657a" vector-effect="non-scaling-stroke" d="
  M 34.15 145.08
  Q 32.73 145.78 35.64 146.31
  Q 36.16 146.40 36.48 145.99
  Q 36.80 145.58 36.47 145.07"
/>
<path stroke="#5f657a" vector-effect="non-scaling-stroke" d="
  M 37.07 144.80
  Q 39.10 143.74 39.63 142.24"
/>
<path stroke="#4e536c" vector-effect="non-scaling-stroke" d="
  M 50.49 139.03
  Q 52.57 140.45 54.52 141.97
  Q 54.78 142.17 55.25 142.05"
/>
<path stroke="#6b7387" vector-effect="non-scaling-stroke" d="
  M 56.84 144.28
  Q 56.60 145.12 56.86 145.56
  Q 57.13 146.01 57.85 145.87
  Q 58.76 145.70 59.06 144.83"
/>
<path stroke="#4e536c" vector-effect="non-scaling-stroke" d="
  M 68.43 141.34
  Q 69.72 142.40 72.22 142.53"
/>
<path stroke="#4e536c" vector-effect="non-scaling-stroke" d="
  M 76.22 147.05
  Q 77.05 148.71 77.88 150.37
  Q 78.42 151.47 79.65 151.61"
/>
<path stroke="#5f657a" vector-effect="non-scaling-stroke" d="
  M 82.62 155.61
  Q 80.14 154.89 77.64 154.58
  Q 76.58 154.45 75.62 153.33
  Q 74.81 152.38 74.86 151.21
  Q 75.05 146.57 70.85 144.63
  Q 64.04 141.47 61.78 148.33
  Q 61.65 148.72 61.25 148.68
  L 55.91 148.09
  Q 55.30 148.02 54.84 148.43
  Q 51.82 151.12 49.75 155.05
  Q 49.72 155.11 49.66 155.13
  L 49.17 155.26
  Q 49.09 155.28 49.11 155.20
  Q 50.08 152.42 51.69 150.09
  C 53.89 146.91 54.13 143.65 49.95 141.77
  C 46.29 140.12 42.01 143.76 39.54 146.09
  A 1.37 1.36 44.6 0 0 39.56 148.10
  Q 40.82 149.24 41.60 150.49
  Q 43.75 153.97 45.93 157.49
  Q 46.51 158.43 45.62 157.77
  C 42.44 155.44 39.97 152.08 36.88 150.04
  C 26.29 143.07 13.18 147.69 7.40 158.41
  A 0.52 0.51 14.7 0 0 7.85 159.17
  Q 18.32 159.39 30.27 159.19
  C 46.96 158.92 63.57 159.48 80.31 159.16
  Q 82.50 159.12 83.63 158.67
  C 85.62 157.86 88.26 155.83 87.94 153.48"
/>
<path stroke="#40475e" vector-effect="non-scaling-stroke" d="
  M 87.94 153.48
  Q 89.04 149.13 88.14 145.61"
/>
<path stroke="#5f657a" vector-effect="non-scaling-stroke" d="
  M 88.11 144.98
  Q 88.44 144.85 88.44 144.75
  Q 88.41 139.85 87.84 135.03"
/>
<path stroke="#6b7387" vector-effect="non-scaling-stroke" d="
  M 87.63 134.02
  Q 88.19 133.37 88.03 132.78
  Q 87.89 132.26 87.35 132.23
  L 82.68 131.95"
/>
<path stroke="#4e536c" vector-effect="non-scaling-stroke" d="
  M 75.97 131.81
  Q 71.43 131.08 67.00 130.82
  Q 66.15 130.77 65.97 131.22"
/>
<path stroke="#5f657a" vector-effect="non-scaling-stroke" d="
  M 64.30 130.65
  Q 62.80 129.82 61.26 129.92"
/>
<path stroke="#4e536c" vector-effect="non-scaling-stroke" d="
  M 42.46 110.87
  Q 42.33 108.36 41.02 106.02"
/>
<path stroke="#4e536c" vector-effect="non-scaling-stroke" d="
  M 40.88 105.70
  Q 41.07 103.32 40.11 101.44"
/>
<path stroke="#979eb5" vector-effect="non-scaling-stroke" d="
  M 28.78 144.10
  Q 28.78 144.18 28.78 144.25"
/>
<path stroke="#979eb5" vector-effect="non-scaling-stroke" d="
  M 95.71 162.38
  Q 95.71 162.55 96.00 162.63"
/>
<path stroke="#8a92a7" vector-effect="non-scaling-stroke" d="
  M 87.62 153.52
  Q 87.74 153.26 87.94 153.48"
/>
<path stroke="#6b7387" vector-effect="non-scaling-stroke" d="
  M 133.55 112.23
  C 139.42 99.31 137.04 83.02 129.80 71.42
  Q 127.07 67.05 122.83 62.43
  Q 121.46 60.93 121.55 58.85
  Q 121.78 53.84 121.74 48.88
  Q 121.66 38.34 114.27 30.56
  Q 111.91 28.06 108.61 26.93
  A 0.38 0.38 0.0 0 1 108.36 26.49
  C 110.07 17.91 104.30 10.53 96.99 7.11"
/>
<path stroke="#5f657a" vector-effect="non-scaling-stroke" d="
  M 96.99 7.11
  C 88.85 4.29 82.63 8.25 77.06 13.83
  Q 70.37 20.52 69.59 29.59
  C 69.44 31.46 70.58 32.95 71.85 34.14
  Q 78.07 40.03 84.66 46.28
  Q 86.26 47.81 87.48 49.69
  Q 88.00 50.49 87.99 49.54
  L 87.72 13.58
  Q 87.70 11.87 89.39 11.60
  Q 89.57 11.58 89.76 11.60
  A 1.41 1.40 -85.9 0 1 90.95 12.98
  Q 91.17 42.94 91.01 74.23
  Q 90.99 76.57 90.81 79.45
  Q 90.75 80.35 91.39 79.72
  L 102.71 68.70
  Q 103.52 67.92 104.20 68.82
  L 104.72 69.51
  Q 105.36 70.35 104.58 71.08
  L 91.81 83.01
  A 1.82 1.79 68.6 0 0 91.25 84.32
  L 91.27 126.99
  Q 91.27 127.48 91.65 127.16
  L 120.87 102.18
  Q 121.70 101.47 122.55 102.16
  Q 123.09 102.58 123.16 103.38
  A 1.26 1.26 0.0 0 1 122.71 104.48
  Q 113.03 112.59 103.54 121.09
  C 100.46 123.84 97.14 126.53 93.59 128.70
  Q 92.88 129.14 93.72 129.16
  Q 104.20 129.39 108.50 129.21
  Q 114.60 128.95 116.64 128.18
  Q 128.42 123.73 133.55 112.23"
/>
<path stroke="#b5bed0" vector-effect="non-scaling-stroke" d="
  M 96.99 7.11
  Q 94.79 7.19 94.39 8.80
  Q 94.26 9.32 94.72 9.59
  Q 98.23 11.60 100.83 14.24
  C 103.80 17.25 104.63 22.38 104.92 26.54
  C 105.01 27.95 105.53 29.43 106.86 30.06
  Q 115.31 34.10 117.12 43.45
  Q 118.36 49.87 118.58 56.74
  Q 118.81 64.11 123.61 69.04
  Q 125.60 71.08 126.77 73.00
  Q 130.57 79.29 133.08 88.18
  C 134.25 92.30 134.20 96.74 134.28 101.03
  Q 134.34 104.34 132.64 109.99
  Q 131.92 112.37 133.55 112.23"
/>
<path stroke="#40475e" vector-effect="non-scaling-stroke" d="
  M 87.84 120.85
  L 88.05 108.70"
/>
<path stroke="#5f657a" vector-effect="non-scaling-stroke" d="
  M 88.05 108.70
  L 87.80 72.31
  A 2.22 2.20 -73.0 0 0 86.85 70.51
  C 84.29 68.75 80.52 65.58 79.41 62.41
  Q 79.25 61.97 79.49 61.54
  Q 79.75 61.06 80.27 61.00
  Q 80.73 60.95 81.05 61.28
  L 86.95 67.41
  Q 87.56 68.04 87.58 67.17
  L 87.87 54.60
  Q 87.89 53.86 87.35 53.33
  Q 80.29 46.44 73.19 39.61
  C 71.57 38.05 70.42 36.37 69.41 34.41
  A 0.57 0.56 -38.1 0 0 68.48 34.30
  Q 66.73 36.29 64.93 38.39
  C 61.41 42.47 65.99 44.22 66.26 48.05
  Q 66.47 51.15 64.33 53.82
  Q 60.87 58.12 56.94 62.17
  C 50.67 68.65 46.61 76.64 44.41 85.53
  Q 38.91 107.81 53.93 122.22
  Q 58.21 126.33 63.83 128.09
  C 66.30 128.86 68.86 128.92 71.46 129.16
  C 76.40 129.62 81.17 129.12 86.16 129.49
  Q 88.90 129.70 86.87 127.84
  Q 76.58 118.44 64.00 108.01
  Q 61.02 105.54 58.61 102.77
  A 1.71 1.69 -44.2 0 1 58.65 100.49
  L 58.87 100.25
  A 1.25 1.25 0.0 0 1 60.63 100.18
  Q 66.06 105.18 71.50 110.01
  Q 73.05 111.39 76.69 114.13
  Q 79.32 116.10 81.63 118.29
  Q 82.98 119.57 84.51 120.84
  Q 86.07 122.13 87.28 123.61
  Q 87.72 124.15 87.88 123.47
  Q 88.19 122.13 87.84 120.85"
/>
<path stroke="#8a92a7" vector-effect="non-scaling-stroke" d="
  M 88.05 108.70
  L 87.89 109.76
  A 0.31 0.31 0.0 0 1 87.36 109.93
  Q 82.41 104.69 76.11 99.47
  A 1.08 1.08 0.0 0 0 74.40 99.95
  Q 74.11 100.79 74.98 101.23
  Q 75.52 101.50 75.58 102.11
  Q 75.84 104.87 78.15 106.79
  Q 79.39 107.82 80.46 108.87
  Q 82.13 110.50 84.25 111.58
  Q 84.79 111.86 85.13 112.36
  Q 85.70 113.19 86.63 113.38
  Q 87.21 113.50 87.26 114.08
  L 87.84 120.85"
/>
<path stroke="#4e536c" vector-effect="non-scaling-stroke" d="
  M 123.01 155.81
  Q 120.73 154.36 118.54 155.88
  A 0.95 0.95 0.0 0 1 117.05 155.09
  C 117.15 148.39 111.52 144.95 105.41 145.07
  Q 102.39 145.13 100.31 147.12
  Q 94.48 152.67 88.21 158.07
  Q 86.75 159.33 88.67 159.30
  Q 99.73 159.14 111.79 159.43
  C 116.60 159.54 121.54 158.95 126.44 159.37
  Q 130.26 159.69 126.96 157.74
  C 125.72 157.00 124.25 156.59 123.01 155.81"
/>
</g>
<path fill="#a8b0c2" d="
  M 113.37 26.11
  Q 111.51 26.36 111.34 24.24
  Q 110.75 16.80 107.40 12.14
  C 100.77 2.90 88.79 0.75 79.80 8.19
  Q 76.72 10.74 74.47 13.07
  Q 70.17 17.52 67.87 24.29
  C 67.10 26.57 67.01 29.19 66.73 31.60
  Q 66.53 33.21 65.37 34.23
  C 62.68 36.59 60.21 38.05 60.70 42.27
  C 60.90 44.02 62.22 45.23 63.27 46.53
  A 1.63 1.63 0.0 0 1 63.63 47.58
  Q 63.54 52.29 59.93 55.69
  Q 56.99 58.45 54.54 61.14
  Q 43.95 72.77 40.86 88.50
  Q 40.40 90.83 40.13 93.11
  Q 40.87 78.53 49.14 66.89
  Q 53.22 61.14 61.14 53.37
  Q 62.12 52.40 63.06 48.32
  Q 63.20 47.75 62.79 47.32
  Q 61.13 45.60 60.29 43.55
  C 58.77 39.86 62.07 35.93 64.75 33.71
  Q 65.95 32.71 65.93 31.22
  C 65.91 29.34 66.69 27.80 67.03 26.00
  Q 69.05 15.37 79.37 7.89
  Q 82.73 5.46 85.81 4.18
  C 95.07 0.35 105.12 5.92 109.65 14.46
  Q 110.59 16.22 110.91 18.05
  C 111.21 19.74 111.99 21.12 111.99 22.73
  C 112.00 24.07 112.60 25.06 113.37 26.11
  Z"
/>
<path fill="#151a31" d="
  M 113.37 26.11
  L 118.71 31.47
  Q 124.16 39.46 124.27 46.74
  Q 124.35 52.16 124.20 57.77
  Q 124.13 60.26 125.89 62.08
  Q 132.31 68.72 135.97 77.66
  Q 141.97 92.30 138.15 106.69
  C 137.38 109.57 135.90 112.16 135.12 115.04
  Q 134.99 115.53 134.59 115.85
  Q 134.00 116.31 133.86 116.99
  Q 133.76 117.50 133.42 117.91
  C 131.77 119.92 130.44 121.84 128.34 123.53
  Q 124.78 126.37 120.92 129.16
  L 115.81 131.45
  Q 115.42 131.63 115.16 131.29
  Q 114.77 130.77 114.02 130.99
  L 105.76 131.87
  L 93.84 132.13
  Q 92.85 131.51 91.69 131.85
  Q 91.19 132.00 91.04 132.50
  Q 90.84 133.14 91.40 133.52
  Q 91.04 135.08 91.33 136.73
  Q 91.42 137.22 91.26 137.69
  Q 90.92 138.67 91.27 139.45
  L 91.12 143.06
  Q 90.81 143.75 91.30 144.27
  L 91.17 148.01
  Q 91.09 148.79 91.22 149.16
  Q 90.66 150.77 91.09 152.23
  Q 91.24 152.75 91.65 152.40
  Q 92.63 151.59 93.20 150.17
  L 103.06 142.71
  Q 103.46 142.40 103.95 142.55
  Q 105.95 143.14 107.89 142.47
  A 1.92 1.90 40.6 0 1 108.85 142.40
  Q 115.63 143.67 119.26 150.02
  Q 119.18 151.24 120.13 152.29
  Q 120.47 152.66 120.98 152.62
  L 123.55 152.37
  Q 124.55 153.27 126.01 153.56
  A 1.49 1.43 -15.2 0 1 126.80 153.99
  L 130.06 157.51
  Q 129.45 158.88 131.17 159.35
  Q 133.69 160.04 137.69 159.54
  Q 138.17 159.48 137.74 159.26
  Q 137.32 159.04 136.45 159.09
  L 139.92 159.06
  Q 135.27 159.82 142.28 159.80
  Q 142.89 160.76 142.96 162.09
  C 140.88 161.98 138.86 162.62 137.00 162.54
  Q 116.36 161.65 95.71 162.38
  L 2.59 162.15
  L 3.98 159.03
  Q 5.30 158.96 5.61 158.11
  Q 8.53 150.13 16.68 146.45
  Q 22.88 143.64 28.78 144.25
  Q 30.65 145.22 32.23 145.03
  L 34.15 145.08
  Q 32.73 145.78 35.64 146.31
  Q 36.16 146.40 36.48 145.99
  Q 36.80 145.58 36.47 145.07
  Q 36.88 144.73 37.07 144.80
  Q 39.10 143.74 39.63 142.24
  Q 41.75 140.89 44.00 139.26
  Q 44.51 138.89 46.25 138.82
  Q 46.92 138.80 47.53 138.99
  Q 48.42 139.26 48.99 138.55
  Q 49.31 138.15 49.79 138.35
  Q 50.17 138.52 50.49 139.03
  Q 52.57 140.45 54.52 141.97
  Q 54.78 142.17 55.25 142.05
  Q 55.67 141.98 56.02 142.17
  Q 56.63 142.51 56.13 143.01
  Q 55.91 143.22 55.99 143.50
  Q 56.09 143.87 56.45 144.01
  Q 56.69 144.10 56.84 144.28
  Q 56.60 145.12 56.86 145.56
  Q 57.13 146.01 57.85 145.87
  Q 58.76 145.70 59.06 144.83
  Q 59.27 144.47 59.87 144.64
  Q 60.33 144.78 60.71 144.48
  Q 64.16 141.69 68.43 141.34
  Q 69.72 142.40 72.22 142.53
  Q 74.23 143.56 76.22 147.05
  Q 77.05 148.71 77.88 150.37
  Q 78.42 151.47 79.65 151.61
  L 82.62 155.61
  Q 80.14 154.89 77.64 154.58
  Q 76.58 154.45 75.62 153.33
  Q 74.81 152.38 74.86 151.21
  Q 75.05 146.57 70.85 144.63
  Q 64.04 141.47 61.78 148.33
  Q 61.65 148.72 61.25 148.68
  L 55.91 148.09
  Q 55.30 148.02 54.84 148.43
  Q 51.82 151.12 49.75 155.05
  Q 49.72 155.11 49.66 155.13
  L 49.17 155.26
  Q 49.09 155.28 49.11 155.20
  Q 50.08 152.42 51.69 150.09
  C 53.89 146.91 54.13 143.65 49.95 141.77
  C 46.29 140.12 42.01 143.76 39.54 146.09
  A 1.37 1.36 44.6 0 0 39.56 148.10
  Q 40.82 149.24 41.60 150.49
  Q 43.75 153.97 45.93 157.49
  Q 46.51 158.43 45.62 157.77
  C 42.44 155.44 39.97 152.08 36.88 150.04
  C 26.29 143.07 13.18 147.69 7.40 158.41
  A 0.52 0.51 14.7 0 0 7.85 159.17
  Q 18.32 159.39 30.27 159.19
  C 46.96 158.92 63.57 159.48 80.31 159.16
  Q 82.50 159.12 83.63 158.67
  C 85.62 157.86 88.26 155.83 87.94 153.48
  Q 89.04 149.13 88.14 145.61
  Q 88.06 145.29 88.11 144.98
  Q 88.44 144.85 88.44 144.75
  Q 88.41 139.85 87.84 135.03
  Q 87.56 134.52 87.63 134.02
  Q 88.19 133.37 88.03 132.78
  Q 87.89 132.26 87.35 132.23
  L 82.68 131.95
  L 75.97 131.81
  Q 71.43 131.08 67.00 130.82
  Q 66.15 130.77 65.97 131.22
  L 64.30 130.65
  Q 62.80 129.82 61.26 129.92
  Q 56.55 127.05 51.73 124.22
  C 51.05 123.82 51.01 123.38 50.42 122.91
  Q 49.99 122.55 49.86 121.98
  Q 49.80 121.70 50.05 121.55
  A 0.31 0.29 57.7 0 0 50.14 121.11
  C 48.72 119.13 46.69 118.56 45.36 116.71
  Q 45.02 116.24 45.00 115.67
  Q 44.98 115.13 44.48 114.96
  A 0.75 0.75 0.0 0 1 43.99 114.12
  Q 44.15 113.24 43.37 112.96
  Q 42.84 112.76 42.89 112.20
  Q 42.94 111.43 42.46 110.87
  Q 42.33 108.36 41.02 106.02
  Q 40.95 105.86 40.88 105.70
  Q 41.07 103.32 40.11 101.44
  L 40.13 93.11
  Q 40.40 90.83 40.86 88.50
  Q 43.95 72.77 54.54 61.14
  Q 56.99 58.45 59.93 55.69
  Q 63.54 52.29 63.63 47.58
  A 1.63 1.63 0.0 0 0 63.27 46.53
  C 62.22 45.23 60.90 44.02 60.70 42.27
  C 60.21 38.05 62.68 36.59 65.37 34.23
  Q 66.53 33.21 66.73 31.60
  C 67.01 29.19 67.10 26.57 67.87 24.29
  Q 70.17 17.52 74.47 13.07
  Q 76.72 10.74 79.80 8.19
  C 88.79 0.75 100.77 2.90 107.40 12.14
  Q 110.75 16.80 111.34 24.24
  Q 111.51 26.36 113.37 26.11
  Z
  M 133.55 112.23
  C 139.42 99.31 137.04 83.02 129.80 71.42
  Q 127.07 67.05 122.83 62.43
  Q 121.46 60.93 121.55 58.85
  Q 121.78 53.84 121.74 48.88
  Q 121.66 38.34 114.27 30.56
  Q 111.91 28.06 108.61 26.93
  A 0.38 0.38 0.0 0 1 108.36 26.49
  C 110.07 17.91 104.30 10.53 96.99 7.11
  C 88.85 4.29 82.63 8.25 77.06 13.83
  Q 70.37 20.52 69.59 29.59
  C 69.44 31.46 70.58 32.95 71.85 34.14
  Q 78.07 40.03 84.66 46.28
  Q 86.26 47.81 87.48 49.69
  Q 88.00 50.49 87.99 49.54
  L 87.72 13.58
  Q 87.70 11.87 89.39 11.60
  Q 89.57 11.58 89.76 11.60
  A 1.41 1.40 -85.9 0 1 90.95 12.98
  Q 91.17 42.94 91.01 74.23
  Q 90.99 76.57 90.81 79.45
  Q 90.75 80.35 91.39 79.72
  L 102.71 68.70
  Q 103.52 67.92 104.20 68.82
  L 104.72 69.51
  Q 105.36 70.35 104.58 71.08
  L 91.81 83.01
  A 1.82 1.79 68.6 0 0 91.25 84.32
  L 91.27 126.99
  Q 91.27 127.48 91.65 127.16
  L 120.87 102.18
  Q 121.70 101.47 122.55 102.16
  Q 123.09 102.58 123.16 103.38
  A 1.26 1.26 0.0 0 1 122.71 104.48
  Q 113.03 112.59 103.54 121.09
  C 100.46 123.84 97.14 126.53 93.59 128.70
  Q 92.88 129.14 93.72 129.16
  Q 104.20 129.39 108.50 129.21
  Q 114.60 128.95 116.64 128.18
  Q 128.42 123.73 133.55 112.23
  Z
  M 87.84 120.85
  L 88.05 108.70
  L 87.80 72.31
  A 2.22 2.20 -73.0 0 0 86.85 70.51
  C 84.29 68.75 80.52 65.58 79.41 62.41
  Q 79.25 61.97 79.49 61.54
  Q 79.75 61.06 80.27 61.00
  Q 80.73 60.95 81.05 61.28
  L 86.95 67.41
  Q 87.56 68.04 87.58 67.17
  L 87.87 54.60
  Q 87.89 53.86 87.35 53.33
  Q 80.29 46.44 73.19 39.61
  C 71.57 38.05 70.42 36.37 69.41 34.41
  A 0.57 0.56 -38.1 0 0 68.48 34.30
  Q 66.73 36.29 64.93 38.39
  C 61.41 42.47 65.99 44.22 66.26 48.05
  Q 66.47 51.15 64.33 53.82
  Q 60.87 58.12 56.94 62.17
  C 50.67 68.65 46.61 76.64 44.41 85.53
  Q 38.91 107.81 53.93 122.22
  Q 58.21 126.33 63.83 128.09
  C 66.30 128.86 68.86 128.92 71.46 129.16
  C 76.40 129.62 81.17 129.12 86.16 129.49
  Q 88.90 129.70 86.87 127.84
  Q 76.58 118.44 64.00 108.01
  Q 61.02 105.54 58.61 102.77
  A 1.71 1.69 -44.2 0 1 58.65 100.49
  L 58.87 100.25
  A 1.25 1.25 0.0 0 1 60.63 100.18
  Q 66.06 105.18 71.50 110.01
  Q 73.05 111.39 76.69 114.13
  Q 79.32 116.10 81.63 118.29
  Q 82.98 119.57 84.51 120.84
  Q 86.07 122.13 87.28 123.61
  Q 87.72 124.15 87.88 123.47
  Q 88.19 122.13 87.84 120.85
  Z
  M 123.01 155.81
  Q 120.73 154.36 118.54 155.88
  A 0.95 0.95 0.0 0 1 117.05 155.09
  C 117.15 148.39 111.52 144.95 105.41 145.07
  Q 102.39 145.13 100.31 147.12
  Q 94.48 152.67 88.21 158.07
  Q 86.75 159.33 88.67 159.30
  Q 99.73 159.14 111.79 159.43
  C 116.60 159.54 121.54 158.95 126.44 159.37
  Q 130.26 159.69 126.96 157.74
  C 125.72 157.00 124.25 156.59 123.01 155.81
  Z"
/>
<path fill="#a8b0c2" d="
  M 96.99 7.11
  Q 94.79 7.19 94.39 8.80
  Q 94.26 9.32 94.72 9.59
  Q 98.23 11.60 100.83 14.24
  C 103.80 17.25 104.63 22.38 104.92 26.54
  C 105.01 27.95 105.53 29.43 106.86 30.06
  Q 115.31 34.10 117.12 43.45
  Q 118.36 49.87 118.58 56.74
  Q 118.81 64.11 123.61 69.04
  Q 125.60 71.08 126.77 73.00
  Q 130.57 79.29 133.08 88.18
  C 134.25 92.30 134.20 96.74 134.28 101.03
  Q 134.34 104.34 132.64 109.99
  Q 131.92 112.37 133.55 112.23
  Q 128.42 123.73 116.64 128.18
  Q 114.60 128.95 108.50 129.21
  Q 104.20 129.39 93.72 129.16
  Q 92.88 129.14 93.59 128.70
  C 97.14 126.53 100.46 123.84 103.54 121.09
  Q 113.03 112.59 122.71 104.48
  A 1.26 1.26 0.0 0 0 123.16 103.38
  Q 123.09 102.58 122.55 102.16
  Q 121.70 101.47 120.87 102.18
  L 91.65 127.16
  Q 91.27 127.48 91.27 126.99
  L 91.25 84.32
  A 1.82 1.79 68.6 0 1 91.81 83.01
  L 104.58 71.08
  Q 105.36 70.35 104.72 69.51
  L 104.20 68.82
  Q 103.52 67.92 102.71 68.70
  L 91.39 79.72
  Q 90.75 80.35 90.81 79.45
  Q 90.99 76.57 91.01 74.23
  Q 91.17 42.94 90.95 12.98
  A 1.41 1.40 -85.9 0 0 89.76 11.60
  Q 89.57 11.58 89.39 11.60
  Q 87.70 11.87 87.72 13.58
  L 87.99 49.54
  Q 88.00 50.49 87.48 49.69
  Q 86.26 47.81 84.66 46.28
  Q 78.07 40.03 71.85 34.14
  C 70.58 32.95 69.44 31.46 69.59 29.59
  Q 70.37 20.52 77.06 13.83
  C 82.63 8.25 88.85 4.29 96.99 7.11
  Z"
/>
<path fill="#c1cbdd" d="
  M 96.99 7.11
  C 104.30 10.53 110.07 17.91 108.36 26.49
  A 0.38 0.38 0.0 0 0 108.61 26.93
  Q 111.91 28.06 114.27 30.56
  Q 121.66 38.34 121.74 48.88
  Q 121.78 53.84 121.55 58.85
  Q 121.46 60.93 122.83 62.43
  Q 127.07 67.05 129.80 71.42
  C 137.04 83.02 139.42 99.31 133.55 112.23
  Q 131.92 112.37 132.64 109.99
  Q 134.34 104.34 134.28 101.03
  C 134.20 96.74 134.25 92.30 133.08 88.18
  Q 130.57 79.29 126.77 73.00
  Q 125.60 71.08 123.61 69.04
  Q 118.81 64.11 118.58 56.74
  Q 118.36 49.87 117.12 43.45
  Q 115.31 34.10 106.86 30.06
  C 105.53 29.43 105.01 27.95 104.92 26.54
  C 104.63 22.38 103.80 17.25 100.83 14.24
  Q 98.23 11.60 94.72 9.59
  Q 94.26 9.32 94.39 8.80
  Q 94.79 7.19 96.99 7.11
  Z"
/>
<path fill="#a8b0c2" d="
  M 118.71 31.47
  C 121.94 34.35 123.27 37.61 124.32 41.69
  C 125.62 46.72 125.02 52.60 125.00 57.85
  C 125.00 59.06 125.67 60.70 126.48 61.58
  Q 130.89 66.37 134.24 72.01
  Q 138.96 79.97 139.74 88.11
  Q 140.17 92.68 140.07 98.64
  Q 140.01 102.37 139.23 105.52
  Q 138.38 108.92 136.87 112.30
  Q 136.69 112.71 136.35 112.98
  Q 135.97 113.27 135.84 113.73
  Q 135.47 115.03 134.67 116.26
  C 133.29 118.37 132.17 120.64 130.38 122.37
  Q 128.72 123.98 126.78 125.71
  Q 124.26 127.95 120.92 129.16
  Q 124.78 126.37 128.34 123.53
  C 130.44 121.84 131.77 119.92 133.42 117.91
  Q 133.76 117.50 133.86 116.99
  Q 134.00 116.31 134.59 115.85
  Q 134.99 115.53 135.12 115.04
  C 135.90 112.16 137.38 109.57 138.15 106.69
  Q 141.97 92.30 135.97 77.66
  Q 132.31 68.72 125.89 62.08
  Q 124.13 60.26 124.20 57.77
  Q 124.35 52.16 124.27 46.74
  Q 124.16 39.46 118.71 31.47
  Z"
/>
<path fill="#a8b0c2" d="
  M 88.05 108.70
  L 87.89 109.76
  A 0.31 0.31 0.0 0 1 87.36 109.93
  Q 82.41 104.69 76.11 99.47
  A 1.08 1.08 0.0 0 0 74.40 99.95
  Q 74.11 100.79 74.98 101.23
  Q 75.52 101.50 75.58 102.11
  Q 75.84 104.87 78.15 106.79
  Q 79.39 107.82 80.46 108.87
  Q 82.13 110.50 84.25 111.58
  Q 84.79 111.86 85.13 112.36
  Q 85.70 113.19 86.63 113.38
  Q 87.21 113.50 87.26 114.08
  L 87.84 120.85
  Q 88.19 122.13 87.88 123.47
  Q 87.72 124.15 87.28 123.61
  Q 86.07 122.13 84.51 120.84
  Q 82.98 119.57 81.63 118.29
  Q 79.32 116.10 76.69 114.13
  Q 73.05 111.39 71.50 110.01
  Q 66.06 105.18 60.63 100.18
  A 1.25 1.25 0.0 0 0 58.87 100.25
  L 58.65 100.49
  A 1.71 1.69 -44.2 0 0 58.61 102.77
  Q 61.02 105.54 64.00 108.01
  Q 76.58 118.44 86.87 127.84
  Q 88.90 129.70 86.16 129.49
  C 81.17 129.12 76.40 129.62 71.46 129.16
  C 68.86 128.92 66.30 128.86 63.83 128.09
  Q 58.21 126.33 53.93 122.22
  Q 38.91 107.81 44.41 85.53
  C 46.61 76.64 50.67 68.65 56.94 62.17
  Q 60.87 58.12 64.33 53.82
  Q 66.47 51.15 66.26 48.05
  C 65.99 44.22 61.41 42.47 64.93 38.39
  Q 66.73 36.29 68.48 34.30
  A 0.57 0.56 -38.1 0 1 69.41 34.41
  C 70.42 36.37 71.57 38.05 73.19 39.61
  Q 80.29 46.44 87.35 53.33
  Q 87.89 53.86 87.87 54.60
  L 87.58 67.17
  Q 87.56 68.04 86.95 67.41
  L 81.05 61.28
  Q 80.73 60.95 80.27 61.00
  Q 79.75 61.06 79.49 61.54
  Q 79.25 61.97 79.41 62.41
  C 80.52 65.58 84.29 68.75 86.85 70.51
  A 2.22 2.20 -73.0 0 1 87.80 72.31
  L 88.05 108.70
  Z"
/>
<path fill="#6b738b" d="
  M 88.05 108.70
  L 87.84 120.85
  L 87.26 114.08
  Q 87.21 113.50 86.63 113.38
  Q 85.70 113.19 85.13 112.36
  Q 84.79 111.86 84.25 111.58
  Q 82.13 110.50 80.46 108.87
  Q 79.39 107.82 78.15 106.79
  Q 75.84 104.87 75.58 102.11
  Q 75.52 101.50 74.98 101.23
  Q 74.11 100.79 74.40 99.95
  A 1.08 1.08 0.0 0 1 76.11 99.47
  Q 82.41 104.69 87.36 109.93
  A 0.31 0.31 0.0 0 0 87.89 109.76
  L 88.05 108.70
  Z"
/>
<path fill="#868ca7" d="
  M 40.11 101.44
  Q 41.07 103.32 40.88 105.70
  Q 39.63 103.94 40.11 101.44
  Z"
/>
<path fill="#868ca7" d="
  M 41.02 106.02
  Q 42.33 108.36 42.46 110.87
  Q 40.76 108.27 41.02 106.02
  Z"
/>
<path fill="#a8b0c2" d="
  M 64.30 130.65
  Q 62.66 131.13 61.26 129.92
  Q 62.80 129.82 64.30 130.65
  Z"
/>
<path fill="#868ca7" d="
  M 75.97 131.81
  Q 71.24 132.31 66.73 131.75
  Q 66.46 131.72 66.30 131.59
  Q 66.12 131.44 65.97 131.22
  Q 66.15 130.77 67.00 130.82
  Q 71.43 131.08 75.97 131.81
  Z"
/>
<path fill="#868ca7" d="
  M 114.02 130.99
  Q 114.10 131.43 113.97 131.69
  Q 113.86 131.93 113.43 131.95
  Q 109.63 132.13 105.76 131.87
  L 114.02 130.99
  Z"
/>
<path fill="#c1cbdd" d="
  M 93.84 132.13
  Q 92.13 132.44 91.40 133.52
  Q 90.84 133.14 91.04 132.50
  Q 91.19 132.00 91.69 131.85
  Q 92.85 131.51 93.84 132.13
  Z"
/>
<path fill="#c1cbdd" d="
  M 82.68 131.95
  L 87.35 132.23
  Q 87.89 132.26 88.03 132.78
  Q 88.19 133.37 87.63 134.02
  Q 87.45 133.32 87.09 132.98
  Q 86.71 132.62 86.22 132.79
  Q 83.45 133.75 82.68 131.95
  Z"
/>
<path fill="#a8b0c2" d="
  M 87.84 135.03
  Q 88.41 139.85 88.44 144.75
  Q 88.44 144.85 88.11 144.98
  C 87.82 143.81 87.33 143.06 87.48 141.81
  Q 87.87 138.46 87.84 135.03
  Z"
/>
<path fill="#868ca7" d="
  M 50.49 139.03
  Q 53.29 138.75 55.25 142.05
  Q 54.78 142.17 54.52 141.97
  Q 52.57 140.45 50.49 139.03
  Z"
/>
<path fill="#a8b0c2" d="
  M 91.27 139.45
  Q 92.09 141.46 91.12 143.06
  L 91.27 139.45
  Z"
/>
<path fill="#868ca7" d="
  M 72.22 142.53
  Q 69.72 142.40 68.43 141.34
  Q 69.19 140.60 70.37 141.63
  Q 70.73 141.94 71.21 141.95
  Q 71.88 141.97 72.22 142.53
  Z"
/>
<path fill="#a8b0c2" d="
  M 82.62 155.61
  Q 83.28 155.05 84.60 155.58
  Q 85.07 155.77 85.53 155.55
  Q 86.79 154.96 87.62 153.52
  Q 87.74 153.26 87.94 153.48
  C 88.26 155.83 85.62 157.86 83.63 158.67
  Q 82.50 159.12 80.31 159.16
  C 63.57 159.48 46.96 158.92 30.27 159.19
  Q 18.32 159.39 7.85 159.17
  A 0.52 0.51 14.7 0 1 7.40 158.41
  C 13.18 147.69 26.29 143.07 36.88 150.04
  C 39.97 152.08 42.44 155.44 45.62 157.77
  Q 46.51 158.43 45.93 157.49
  Q 43.75 153.97 41.60 150.49
  Q 40.82 149.24 39.56 148.10
  A 1.37 1.36 44.6 0 1 39.54 146.09
  C 42.01 143.76 46.29 140.12 49.95 141.77
  C 54.13 143.65 53.89 146.91 51.69 150.09
  Q 50.08 152.42 49.11 155.20
  Q 49.09 155.28 49.17 155.26
  L 49.66 155.13
  Q 49.72 155.11 49.75 155.05
  Q 51.82 151.12 54.84 148.43
  Q 55.30 148.02 55.91 148.09
  L 61.25 148.68
  Q 61.65 148.72 61.78 148.33
  Q 64.04 141.47 70.85 144.63
  Q 75.05 146.57 74.86 151.21
  Q 74.81 152.38 75.62 153.33
  Q 76.58 154.45 77.64 154.58
  Q 80.14 154.89 82.62 155.61
  Z"
/>
<path fill="#a8b0c2" d="
  M 39.63 142.24
  Q 39.10 143.74 37.07 144.80
  Q 36.77 144.13 36.75 143.62
  Q 36.73 143.09 37.25 143.09
  Q 38.56 143.09 39.63 142.24
  Z"
/>
<path fill="#a8b0c2" d="
  M 36.47 145.07
  Q 36.80 145.58 36.48 145.99
  Q 36.16 146.40 35.64 146.31
  Q 32.73 145.78 34.15 145.08
  Q 34.83 144.75 35.55 143.99
  Q 35.89 143.63 36.07 144.09
  L 36.47 145.07
  Z"
/>
<path fill="#868ca7" d="
  M 28.78 144.10
  Q 28.78 144.18 28.78 144.25
  Q 22.88 143.64 16.68 146.45
  Q 8.53 150.13 5.61 158.11
  Q 5.30 158.96 3.98 159.03
  Q 5.58 156.49 6.98 153.82
  Q 8.66 150.62 10.51 149.06
  C 15.87 144.53 21.68 143.67 28.78 144.10
  Z"
/>
<path fill="#a8b0c2" d="
  M 28.78 144.10
  Q 31.51 143.54 32.23 145.03
  Q 30.65 145.22 28.78 144.25
  Q 28.78 144.18 28.78 144.10
  Z"
/>
<path fill="#c1cbdd" d="
  M 56.84 144.28
  Q 57.79 145.04 59.06 144.83
  Q 58.76 145.70 57.85 145.87
  Q 57.13 146.01 56.86 145.56
  Q 56.60 145.12 56.84 144.28
  Z"
/>
<path fill="#c1cbdd" d="
  M 91.30 144.27
  Q 91.61 145.59 91.88 146.88
  Q 92.01 147.52 91.17 148.01
  L 91.30 144.27
  Z"
/>
<path fill="#868ca7" d="
  M 123.01 155.81
  C 124.25 156.59 125.72 157.00 126.96 157.74
  Q 130.26 159.69 126.44 159.37
  C 121.54 158.95 116.60 159.54 111.79 159.43
  Q 99.73 159.14 88.67 159.30
  Q 86.75 159.33 88.21 158.07
  Q 94.48 152.67 100.31 147.12
  Q 102.39 145.13 105.41 145.07
  C 111.52 144.95 117.15 148.39 117.05 155.09
  A 0.95 0.95 0.0 0 0 118.54 155.88
  Q 120.73 154.36 123.01 155.81
  Z"
/>
<path fill="#6b738b" d="
  M 88.14 145.61
  Q 89.04 149.13 87.94 153.48
  Q 87.74 153.26 87.62 153.52
  Q 87.81 151.52 87.95 149.47
  C 88.04 148.14 87.19 146.94 88.14 145.61
  Z"
/>
<path fill="#868ca7" d="
  M 76.22 147.05
  L 79.65 151.61
  Q 78.42 151.47 77.88 150.37
  Q 77.05 148.71 76.22 147.05
  Z"
/>
<path fill="#c1cbdd" d="
  M 91.22 149.16
  Q 92.32 151.30 93.20 150.17
  Q 92.63 151.59 91.65 152.40
  Q 91.24 152.75 91.09 152.23
  Q 90.66 150.77 91.22 149.16
  Z"
/>
<path fill="#c1cbdd" d="
  M 119.26 150.02
  L 120.26 150.01
  Q 120.77 150.00 120.77 150.52
  L 120.75 151.52
  Q 120.75 152.07 121.28 152.19
  Q 121.52 152.24 121.73 152.09
  Q 122.14 151.81 122.20 151.30
  Q 122.21 151.25 122.24 151.21
  Q 122.45 150.89 122.59 151.24
  Q 122.90 152.00 123.55 152.37
  L 120.98 152.62
  Q 120.47 152.66 120.13 152.29
  Q 119.18 151.24 119.26 150.02
  Z"
/>
<path fill="#6b738b" d="
  M 130.06 157.51
  C 132.18 159.69 133.72 158.93 136.45 159.09
  Q 137.32 159.04 137.74 159.26
  Q 138.17 159.48 137.69 159.54
  Q 133.69 160.04 131.17 159.35
  Q 129.45 158.88 130.06 157.51
  Z"
/>
<path fill="#6b738b" d="
  M 139.92 159.06
  Q 142.55 158.71 142.28 159.80
  Q 135.27 159.82 139.92 159.06
  Z"
/>
<path fill="#a8b0c2" d="
  M 95.71 162.38
  Q 95.71 162.55 96.00 162.63
  Q 87.75 162.95 79.50 162.99
  C 78.11 163.00 76.92 162.58 75.56 162.91
  Q 72.12 163.75 68.25 163.58
  Q 53.69 162.95 40.69 163.22
  Q 35.92 163.32 31.16 163.27
  Q 20.51 163.15 11.21 163.34
  Q 7.00 163.42 2.23 163.30
  Q 2.02 163.30 2.59 162.15
  L 95.71 162.38
  Z"
/>
<path fill="#868ca7" d="
  M 142.96 162.09
  Q 142.92 163.02 141.75 162.94
  Q 133.76 162.39 125.75 162.78
  Q 116.26 163.24 96.00 162.63
  Q 95.71 162.55 95.71 162.38
  Q 116.36 161.65 137.00 162.54
  C 138.86 162.62 140.88 161.98 142.96 162.09
  Z"
/>
</svg>
