<?xml version="1.0" encoding="UTF-8" standalone="no"?>
<!DOCTYPE svg PUBLIC "-//W3C//DTD SVG 1.1//EN" "http://www.w3.org/Graphics/SVG/1.1/DTD/svg11.dtd">
<svg xmlns="http://www.w3.org/2000/svg" version="1.1" viewBox="0.00 0.00 618.00 773.00">
<g stroke-width="2.00" fill="none" stroke-linecap="butt">
<path stroke="#c9c5ae" vector-effect="non-scaling-stroke" d="
  M 400.26 564.05
  Q 399.73 563.71 399.84 564.08"
/>
<path stroke="#644540" vector-effect="non-scaling-stroke" d="
  M 399.84 564.08
  C 406.91 554.55 411.09 545.89 416.99 534.14
  C 418.11 531.90 417.82 528.93 421.67 530.34
  Q 422.93 530.80 424.25 530.96
  C 431.00 531.79 438.50 532.87 444.95 533.08
  C 467.01 533.81 489.10 528.57 509.69 519.74
  C 520.12 515.27 530.84 508.86 540.32 502.39
  Q 560.38 488.69 576.04 468.12
  Q 586.10 454.90 591.96 444.00
  Q 595.14 438.08 597.92 432.57
  C 601.40 425.67 604.23 417.99 606.58 410.64
  Q 612.98 390.63 614.05 368.83
  C 614.28 364.22 614.06 359.62 614.00 354.99
  Q 613.93 349.63 613.29 344.19
  Q 612.70 339.21 612.08 334.30
  Q 611.44 329.17 610.35 324.36
  C 603.32 293.48 589.10 265.22 567.01 242.19
  C 566.15 241.30 565.93 239.83 566.39 238.69
  Q 572.28 224.02 570.31 207.28
  Q 569.27 198.50 565.29 190.04
  C 556.98 172.38 542.87 159.52 524.06 153.21
  C 522.67 152.75 520.35 153.02 519.94 151.13
  Q 516.09 133.41 506.54 115.47
  Q 491.29 86.82 466.26 64.04
  Q 452.33 51.36 439.23 42.73
  Q 431.17 37.42 423.06 32.69
  Q 414.65 27.78 400.24 21.63
  Q 371.47 9.36 344.84 5.73
  Q 335.60 4.47 326.56 3.51
  C 324.70 3.31 322.93 3.58 321.08 3.18
  Q 319.17 2.76 317.17 2.83
  Q 307.59 3.19 297.57 2.72
  Q 297.05 2.69 296.56 2.88
  Q 295.82 3.16 295.03 3.21
  Q 282.59 3.99 267.52 6.63
  C 266.12 6.87 264.90 6.83 263.53 7.26
  Q 262.25 7.65 260.85 7.95
  Q 212.89 17.94 172.13 46.59
  Q 163.74 52.49 156.72 58.66
  Q 139.62 73.68 125.25 92.56
  Q 107.36 116.06 98.88 142.90
  C 98.03 145.58 97.73 148.36 96.76 150.99
  A 2.72 2.72 0.0 0 1 94.89 152.69
  Q 74.42 158.02 61.02 174.25
  Q 46.82 191.45 45.91 213.31
  Q 45.34 226.84 49.80 238.75
  C 50.31 240.10 49.72 241.75 48.71 242.75
  Q 36.52 254.83 28.66 268.41
  Q 21.86 280.16 14.83 295.07"
/>
<path stroke="#987f6f" vector-effect="non-scaling-stroke" d="
  M 399.84 564.08
  Q 387.80 579.01 371.94 590.00"
/>
<path stroke="#8a553d" vector-effect="non-scaling-stroke" d="
  M 371.94 590.00
  L 357.62 599.30
  A 2.12 2.12 0.0 0 0 356.84 601.95
  C 357.29 602.94 357.00 603.96 357.01 605.01
  Q 357.09 630.24 357.84 655.47"
/>
<path stroke="#644540" vector-effect="non-scaling-stroke" d="
  M 185.11 760.98
  Q 186.31 734.81 206.45 720.20
  Q 218.62 711.36 234.70 709.92
  Q 234.91 709.90 235.08 709.75
  Q 235.18 709.65 235.32 709.59
  Q 235.53 709.50 235.76 709.50
  Q 244.10 709.49 251.99 710.81
  Q 252.98 710.98 253.48 710.68
  Q 254.27 710.21 254.12 709.08"
/>
<path stroke="#644540" vector-effect="non-scaling-stroke" d="
  M 254.11 707.30
  L 254.38 707.11
  Q 254.66 706.91 254.71 706.56
  Q 256.25 693.66 257.65 680.75
  Q 258.45 673.37 259.12 648.68"
/>
<path stroke="#644540" vector-effect="non-scaling-stroke" d="
  M 258.97 638.00
  Q 259.62 620.23 259.72 602.52
  C 259.73 601.12 259.94 600.00 258.51 599.17
  Q 224.00 579.13 204.26 545.08
  C 201.76 540.78 199.67 536.02 197.79 531.38
  A 1.98 1.98 0.0 0 0 195.54 530.18
  Q 164.10 536.93 132.98 528.80
  Q 115.64 524.26 100.48 517.11
  Q 82.20 508.49 66.16 495.26
  C 63.06 492.70 60.41 489.85 57.28 487.28
  Q 53.91 484.50 50.95 481.24
  Q 35.84 464.58 28.33 452.40
  Q 11.17 424.59 4.24 388.98"
/>
<path stroke="#5a693b" vector-effect="non-scaling-stroke" d="
  M 153.90 100.97
  Q 139.86 116.84 129.92 137.20
  Q 122.46 152.50 121.34 167.33"
/>
<path stroke="#47543a" vector-effect="non-scaling-stroke" d="
  M 121.34 167.33
  Q 120.27 173.65 117.41 177.72
  A 2.36 2.36 0.0 0 1 115.10 178.69
  L 110.14 177.88"
/>
<path stroke="#5a693b" vector-effect="non-scaling-stroke" d="
  M 110.14 177.88
  Q 99.52 177.01 90.43 182.94
  Q 76.95 191.75 73.89 205.80
  C 70.72 220.35 75.40 235.57 84.04 247.47
  A 1.51 1.50 -36.8 0 1 83.73 249.56
  Q 78.88 253.26 73.71 257.58
  C 70.84 259.97 68.33 262.72 65.73 265.40"
/>
<path stroke="#3e4738" vector-effect="non-scaling-stroke" d="
  M 65.73 265.40
  Q 36.42 298.08 31.57 342.00"
/>
<path stroke="#353332" vector-effect="non-scaling-stroke" d="
  M 31.57 342.00
  Q 28.80 364.64 32.87 387.27
  C 40.28 428.38 66.71 463.90 101.91 485.75
  Q 138.90 508.71 181.12 504.39
  Q 202.33 502.22 221.35 494.04
  Q 235.81 487.82 244.81 476.71
  A 2.09 2.09 0.0 0 1 247.29 476.12
  Q 255.75 479.93 264.17 482.88
  Q 300.13 495.46 338.26 486.82
  Q 354.58 483.13 368.36 476.45
  Q 369.50 475.90 370.80 476.04
  Q 371.34 476.10 371.69 476.50
  C 376.97 482.52 382.22 487.39 389.48 491.05
  Q 414.17 503.48 443.36 504.90
  C 469.87 506.20 496.14 498.03 518.39 483.47
  Q 532.27 474.39 546.01 460.00
  C 560.79 444.53 572.44 426.00 579.10 405.79
  Q 589.11 375.42 584.97 343.38"
/>
<path stroke="#3e4738" vector-effect="non-scaling-stroke" d="
  M 584.97 343.38
  Q 580.91 306.70 560.05 277.22
  Q 557.13 273.09 553.82 269.57"
/>
<path stroke="#4e5d3a" vector-effect="non-scaling-stroke" d="
  M 553.82 269.57
  Q 548.23 262.50 541.46 256.78
  Q 537.15 253.14 532.67 249.30
  A 1.49 1.47 -51.9 0 1 532.44 247.31
  C 540.42 236.22 545.58 222.63 543.18 208.75"
/>
<path stroke="#5a693b" vector-effect="non-scaling-stroke" d="
  M 543.18 208.75
  Q 541.88 199.26 534.38 190.35
  Q 527.36 182.03 517.52 178.90
  Q 511.80 177.08 506.00 178.36"
/>
<path stroke="#47543a" vector-effect="non-scaling-stroke" d="
  M 506.00 178.36
  L 501.86 179.42
  A 1.66 1.65 63.1 0 1 500.17 178.86
  Q 497.44 175.51 495.48 170.46"
/>
<path stroke="#5a693b" vector-effect="non-scaling-stroke" d="
  M 495.48 170.46
  Q 495.02 160.20 492.71 152.52
  Q 487.74 136.02 476.82 119.43
  Q 469.55 108.39 461.06 98.87"
/>
<path stroke="#987f6f" vector-effect="non-scaling-stroke" d="
  M 461.06 98.87
  Q 448.73 84.73 437.07 75.19
  Q 404.26 48.35 362.42 36.64
  C 319.53 24.64 273.50 27.94 232.26 44.27
  C 201.67 56.39 175.36 75.92 153.90 100.97"
/>
<path stroke="#bee8a9" vector-effect="non-scaling-stroke" d="
  M 461.06 98.87
  Q 459.94 99.34 458.21 98.05
  Q 456.44 96.74 455.87 96.41
  Q 444.39 89.92 432.59 84.13"
/>
<path stroke="#d3fdb3" vector-effect="non-scaling-stroke" d="
  M 432.59 84.13
  C 425.58 81.62 420.72 78.83 414.14 74.32
  Q 407.60 69.84 403.00 67.44
  C 383.43 57.20 362.45 51.00 340.66 48.02
  Q 313.86 44.35 284.96 46.95
  C 272.78 48.05 259.84 50.90 248.51 53.97
  Q 230.09 58.96 211.84 68.90
  C 206.67 71.71 201.57 76.15 196.45 78.95
  Q 193.04 80.83 184.52 84.35"
/>
<path stroke="#bee8a9" vector-effect="non-scaling-stroke" d="
  M 184.52 84.35
  Q 172.03 90.21 161.79 96.03
  Q 159.13 97.54 155.13 101.12
  Q 154.20 101.95 153.90 100.97"
/>
<path stroke="#95e77f" vector-effect="non-scaling-stroke" d="
  M 432.59 84.13
  Q 431.99 84.11 431.71 84.31
  A 0.64 0.64 0.0 0 0 431.53 85.13
  Q 431.96 85.92 432.07 86.85
  Q 433.54 100.15 427.95 112.38
  C 413.93 143.08 382.06 157.66 349.87 164.12
  Q 307.50 172.63 266.56 164.03
  C 234.67 157.34 201.28 141.71 188.08 110.73
  Q 183.05 98.93 184.52 84.35"
/>
<path stroke="#6dbd74" vector-effect="non-scaling-stroke" d="
  M 495.48 170.46
  Q 493.35 175.71 492.19 181.27
  Q 491.28 185.58 490.21 188.60
  Q 488.97 192.09 486.88 195.55
  C 477.71 210.74 464.70 224.16 450.40 234.14
  Q 424.98 251.90 393.73 260.39
  Q 386.16 262.45 377.55 264.19
  C 361.39 267.46 362.99 289.70 379.96 288.73
  Q 384.86 288.45 391.76 286.61
  Q 402.27 283.80 410.65 281.17
  C 418.82 278.60 426.49 275.14 434.08 271.46
  Q 457.01 260.35 474.79 244.12
  C 483.08 236.55 491.02 226.89 496.52 216.63
  Q 499.76 210.58 500.74 207.76
  Q 505.64 193.60 506.00 178.36"
/>
<path stroke="#74c674" vector-effect="non-scaling-stroke" d="
  M 543.18 208.75
  Q 542.16 211.09 541.82 213.79
  Q 541.39 217.19 540.63 218.76
  Q 539.13 221.88 537.05 224.34
  Q 536.48 225.01 536.14 225.79
  C 535.63 226.93 534.43 227.72 533.67 228.80
  C 531.04 232.50 528.24 235.60 526.08 239.86
  Q 524.12 243.72 522.46 247.46
  C 518.02 257.48 511.44 265.80 504.56 274.20
  C 499.44 280.44 493.53 286.20 487.73 291.96"
/>
<path stroke="#6dbd74" vector-effect="non-scaling-stroke" d="
  M 487.73 291.96
  Q 461.52 316.79 428.88 332.13
  Q 425.50 333.72 414.71 338.09"
/>
<path stroke="#6ab873" vector-effect="non-scaling-stroke" d="
  M 414.71 338.09
  Q 382.81 350.98 352.51 354.82
  Q 325.89 358.18 301.00 357.71
  Q 265.86 357.03 230.76 347.80
  Q 201.43 340.09 172.98 324.25"
/>
<path stroke="#6dbd74" vector-effect="non-scaling-stroke" d="
  M 172.98 324.25
  Q 134.05 301.98 106.08 266.83"
/>
<path stroke="#64b072" vector-effect="non-scaling-stroke" d="
  M 106.08 266.83
  Q 105.41 260.51 99.75 256.80
  Q 98.30 255.84 96.61 256.23
  C 89.35 257.90 86.05 265.19 89.29 271.85
  C 91.16 275.67 95.84 276.25 99.77 275.80"
/>
<path stroke="#6dbd74" vector-effect="non-scaling-stroke" d="
  M 99.77 275.80
  Q 103.62 275.45 104.76 279.51
  Q 106.93 287.32 100.93 291.28"
/>
<path stroke="#5b9c6c" vector-effect="non-scaling-stroke" d="
  M 100.93 291.28
  Q 100.28 287.58 98.08 285.93
  Q 93.19 282.25 88.40 284.57
  Q 83.43 286.98 82.75 291.92
  Q 81.64 299.93 82.09 309.49
  Q 82.29 313.58 84.85 316.31"
/>
<path stroke="#6dbd74" vector-effect="non-scaling-stroke" d="
  M 84.85 316.31
  Q 83.24 318.26 80.71 319.00
  Q 80.24 319.14 79.89 319.50
  Q 78.54 320.94 77.14 321.04"
/>
<path stroke="#64b072" vector-effect="non-scaling-stroke" d="
  M 77.14 321.04
  Q 68.67 306.89 66.03 294.01
  Q 64.87 288.34 64.49 278.23
  Q 64.39 275.61 65.04 271.83
  Q 65.58 268.65 65.73 265.40"
/>
<path stroke="#6dbd74" vector-effect="non-scaling-stroke" d="
  M 110.14 177.88
  Q 109.75 181.02 110.16 183.74
  C 111.24 190.89 112.37 198.18 114.66 204.85
  C 120.05 220.60 131.04 234.54 144.26 246.48
  Q 155.75 256.86 171.45 265.72
  Q 182.12 271.74 189.81 275.09
  Q 205.56 281.95 225.60 287.06
  C 231.37 288.53 237.19 289.45 242.58 287.35
  C 251.25 283.96 252.26 272.91 245.32 267.29
  Q 241.93 264.55 235.73 263.18
  Q 229.13 261.72 221.66 259.79
  C 200.55 254.34 180.77 244.49 163.15 231.33
  Q 148.88 220.67 137.84 206.68
  Q 131.68 198.86 128.09 191.69
  Q 122.85 181.22 121.34 167.33"
/>
<path stroke="#57a372" vector-effect="non-scaling-stroke" d="
  M 172.98 324.25
  Q 171.89 324.41 170.81 324.66
  Q 170.39 324.75 170.73 324.49
  Q 170.90 324.35 170.62 324.16
  Q 170.09 323.79 169.98 324.43
  L 169.56 327.00
  Q 169.48 327.49 169.00 327.38
  Q 168.82 327.34 168.66 327.30
  Q 167.98 327.10 168.08 327.80
  Q 168.20 328.69 168.59 329.44
  A 1.73 1.73 0.0 0 1 167.56 331.89
  Q 166.18 332.31 166.14 333.68
  Q 166.10 334.66 165.75 335.49
  Q 165.62 335.78 165.88 335.97
  Q 166.01 336.07 166.16 336.12
  Q 166.96 336.42 166.27 336.92
  Q 164.15 338.44 165.23 340.98
  Q 165.63 341.92 165.79 343.03
  Q 165.92 343.97 165.84 344.90
  Q 165.81 345.27 166.08 345.53
  Q 166.41 345.86 166.52 346.33
  Q 167.22 349.25 168.09 352.37
  Q 168.41 353.50 168.38 354.60
  Q 168.34 355.79 168.41 357.00
  Q 168.51 358.70 168.31 360.49
  Q 168.10 362.47 168.09 364.38
  Q 168.09 364.88 168.33 365.33
  Q 168.99 366.56 168.82 367.78
  Q 168.71 368.54 168.76 369.30
  C 168.84 370.43 168.88 371.52 168.59 372.64
  Q 168.29 373.80 169.23 374.49
  Q 169.59 374.74 169.15 374.76
  Q 168.89 374.77 168.68 375.04
  Q 168.44 375.35 168.36 375.74
  Q 167.41 380.36 168.94 384.71
  Q 169.30 385.72 168.90 386.74
  Q 168.73 387.16 168.81 387.62
  Q 169.71 392.83 170.85 397.74
  C 171.13 398.95 171.02 399.90 170.96 401.09
  Q 170.93 401.57 170.54 401.84
  Q 169.81 402.35 168.68 402.09"
/>
<path stroke="#48876b" vector-effect="non-scaling-stroke" d="
  M 84.85 316.31
  Q 91.75 321.06 97.85 315.46
  C 98.94 314.46 99.69 312.56 99.75 311.25
  Q 100.27 300.33 100.93 291.28"
/>
<path stroke="#58a371" vector-effect="non-scaling-stroke" d="
  M 553.82 269.57
  Q 553.76 270.07 552.35 270.21
  Q 551.76 270.27 551.79 270.86
  Q 552.46 281.49 551.91 287.74
  Q 550.84 299.88 544.83 311.30
  Q 540.79 318.99 537.15 325.72
  Q 537.02 325.95 536.95 326.77"
/>
<path stroke="#4f906b" vector-effect="non-scaling-stroke" d="
  M 536.95 326.77
  L 535.40 329.40"
/>
<path stroke="#61b173" vector-effect="non-scaling-stroke" d="
  M 535.40 329.40
  Q 529.44 325.06 525.64 318.53"
/>
<path stroke="#4f906b" vector-effect="non-scaling-stroke" d="
  M 525.64 318.53
  Q 528.75 316.13 529.10 312.84
  C 529.85 305.81 521.11 301.63 516.02 306.62
  Q 514.09 308.52 513.46 311.38"
/>
<path stroke="#61b173" vector-effect="non-scaling-stroke" d="
  M 513.46 311.38
  Q 509.10 311.08 505.48 308.91
  Q 501.22 306.36 498.11 301.63
  Q 496.63 299.36 495.56 297.93
  Q 494.23 296.17 492.87 294.39
  Q 491.55 292.66 489.89 291.19
  Q 489.51 290.86 489.17 291.22
  Q 488.33 292.10 487.73 291.96"
/>
<path stroke="#519b71" vector-effect="non-scaling-stroke" d="
  M 106.08 266.83
  L 99.77 275.80"
/>
<path stroke="#48876b" vector-effect="non-scaling-stroke" d="
  M 513.46 311.38
  Q 513.65 316.32 517.37 318.63
  Q 521.11 320.94 525.64 318.53"
/>
<path stroke="#48876b" vector-effect="non-scaling-stroke" d="
  M 535.40 329.40
  L 534.05 331.80"
/>
<path stroke="#57a372" vector-effect="non-scaling-stroke" d="
  M 434.29 408.88
  Q 432.83 408.68 432.17 408.55
  Q 430.57 408.23 432.06 407.56
  Q 432.76 407.25 432.76 406.28
  C 432.78 404.34 433.83 402.18 435.07 400.80
  Q 436.28 399.46 437.08 397.80
  Q 438.80 394.24 441.24 390.90
  Q 441.56 390.46 441.60 389.92
  Q 441.65 388.93 442.21 388.18
  Q 442.51 387.77 442.58 387.28
  Q 442.92 385.02 443.60 382.80
  Q 443.99 381.53 444.04 380.12
  Q 444.09 378.91 444.32 377.75
  Q 444.63 376.12 444.32 373.98
  Q 443.92 371.23 443.50 368.73
  Q 443.33 367.77 442.94 366.93
  Q 442.54 366.05 442.80 365.12
  A 1.42 1.42 0.0 0 0 442.43 363.72
  Q 441.99 363.28 441.99 362.70
  Q 441.99 360.05 441.47 357.71
  A 0.60 0.60 0.0 0 0 441.14 357.31
  Q 440.66 357.09 440.70 356.53
  Q 440.74 355.97 439.90 354.16
  Q 439.69 353.70 439.21 353.55
  Q 437.90 353.16 437.65 351.78
  Q 437.55 351.26 437.10 350.99
  L 433.44 348.81
  Q 432.99 348.54 432.47 348.64
  Q 431.60 348.81 431.03 348.10
  Q 430.66 347.64 430.39 348.17
  Q 430.11 348.72 429.51 348.74
  Q 428.97 348.76 428.76 348.26
  L 426.87 343.88
  A 1.18 1.17 0.8 0 0 426.26 343.26
  Q 425.75 343.05 425.74 342.56
  Q 425.73 342.21 425.60 341.85
  Q 424.72 339.33 422.76 337.85
  Q 422.28 337.48 422.12 336.94
  Q 421.79 335.85 420.93 336.60
  Q 420.11 337.31 419.12 337.32
  Q 418.52 337.33 418.14 337.79
  Q 417.73 338.30 416.98 338.25
  Q 416.02 338.18 414.71 338.09"
/>
<path stroke="#45826a" vector-effect="non-scaling-stroke" d="
  M 375.28 429.61
  Q 305.03 446.31 235.22 428.19"
/>
<path stroke="#519b71" vector-effect="non-scaling-stroke" d="
  M 77.14 321.04
  Q 77.90 322.96 79.18 325.00
  Q 87.55 338.38 98.41 349.84
  C 118.75 371.30 142.61 388.27 168.68 402.09"
/>
<path stroke="#4e9670" vector-effect="non-scaling-stroke" d="
  M 168.68 402.09
  Q 190.26 413.51 213.50 421.18
  Q 224.33 424.75 235.22 428.19"
/>
<path stroke="#3f7a68" vector-effect="non-scaling-stroke" d="
  M 235.22 428.19
  Q 234.84 428.17 234.58 428.26
  Q 234.00 428.44 234.37 428.92
  Q 234.76 429.45 235.28 429.83
  A 1.45 1.45 0.0 0 1 235.03 432.31
  C 224.58 437.14 213.67 438.41 201.77 439.12
  C 171.46 440.92 140.61 435.81 113.21 422.33"
/>
<path stroke="#3c6f60" vector-effect="non-scaling-stroke" d="
  M 113.21 422.33
  L 103.20 416.27"
/>
<path stroke="#3f7a68" vector-effect="non-scaling-stroke" d="
  M 103.20 416.27
  Q 92.91 411.55 81.91 403.59
  C 66.11 392.15 50.91 378.83 41.67 362.31
  Q 37.23 354.38 31.57 342.00"
/>
<path stroke="#3f7a68" vector-effect="non-scaling-stroke" d="
  M 584.97 343.38
  Q 582.47 346.42 581.15 350.39
  Q 579.71 354.71 578.81 356.36
  Q 568.44 375.33 552.24 389.74
  Q 538.85 401.66 523.61 411.00
  C 520.31 413.02 515.81 415.27 512.01 417.60"
/>
<path stroke="#3c6f60" vector-effect="non-scaling-stroke" d="
  M 512.01 417.60
  Q 509.93 418.13 508.60 418.86
  Q 497.33 425.01 485.34 430.45"
/>
<path stroke="#3f7a68" vector-effect="non-scaling-stroke" d="
  M 485.34 430.45
  Q 484.34 430.25 483.01 430.68
  Q 446.75 442.36 408.74 438.76
  Q 398.40 437.78 388.47 434.79
  Q 383.26 433.23 378.74 430.27
  C 377.52 429.48 376.65 429.54 375.28 429.61"
/>
<path stroke="#4e9670" vector-effect="non-scaling-stroke" d="
  M 375.28 429.61
  Q 382.08 427.56 388.93 425.57
  Q 412.19 418.83 434.29 408.88"
/>
<path stroke="#519b71" vector-effect="non-scaling-stroke" d="
  M 434.29 408.88
  Q 464.57 394.84 490.66 374.23
  Q 498.56 367.99 505.16 361.60
  C 513.54 353.48 521.30 345.68 528.24 337.16
  Q 529.24 335.93 531.13 334.50
  Q 532.67 333.33 534.05 331.80"
/>
<path stroke="#3f7a68" vector-effect="non-scaling-stroke" d="
  M 534.05 331.80
  Q 530.21 337.81 529.83 340.34
  C 528.73 347.54 536.31 354.23 543.19 350.85
  Q 546.05 349.45 547.63 346.86
  C 552.56 338.79 557.99 331.28 561.48 322.60
  C 564.17 315.91 558.81 308.74 551.46 310.26
  Q 548.01 310.97 546.16 313.71
  Q 542.77 318.73 539.16 325.14
  Q 538.78 325.83 536.95 326.77"
/>
<path stroke="#335c5a" vector-effect="non-scaling-stroke" d="
  M 103.20 416.27
  Q 101.18 417.20 98.56 419.07
  C 89.85 425.31 98.45 435.01 104.32 438.56
  C 108.83 441.30 115.68 440.32 117.75 434.76
  C 119.45 430.21 115.48 425.80 113.21 422.33"
/>
<path stroke="#335c5a" vector-effect="non-scaling-stroke" d="
  M 485.34 430.45
  Q 484.13 433.09 482.45 435.89
  Q 480.95 438.41 481.72 440.51
  Q 485.31 450.27 494.99 445.78
  Q 502.95 442.08 511.10 436.96
  Q 516.06 433.84 517.49 430.98
  Q 519.96 426.02 516.73 420.98
  C 516.01 419.86 514.98 419.07 514.19 418.01
  Q 513.88 417.61 513.38 417.61
  L 512.01 417.60"
/>
<path stroke="#644540" vector-effect="non-scaling-stroke" d="
  M 357.11 545.79
  L 364.20 539.59"
/>
<path stroke="#622223" vector-effect="non-scaling-stroke" d="
  M 366.30 537.50
  Q 373.07 531.05 376.89 522.25"
/>
<path stroke="#622223" vector-effect="non-scaling-stroke" d="
  M 378.32 518.69
  Q 379.76 516.23 377.80 517.16"
/>
<path stroke="#622223" vector-effect="non-scaling-stroke" d="
  M 358.11 506.89
  Q 356.36 504.92 356.11 506.96"
/>
<path stroke="#773a31" vector-effect="non-scaling-stroke" d="
  M 283.47 564.36
  L 283.26 574.38"
/>
<path stroke="#8a553d" vector-effect="non-scaling-stroke" d="
  M 283.26 574.38
  Q 274.07 570.90 266.26 567.24
  Q 258.55 563.63 250.75 558.89"
/>
<path stroke="#622223" vector-effect="non-scaling-stroke" d="
  M 250.75 558.89
  Q 248.97 557.08 244.65 553.35
  Q 230.27 540.98 221.36 523.50
  Q 221.22 523.22 220.94 523.34
  L 213.50 526.43
  Q 213.28 526.52 213.37 526.74
  Q 221.93 547.42 238.66 564.80
  Q 241.71 567.97 244.29 568.98
  Q 244.71 569.14 244.95 569.53
  Q 246.67 572.29 248.56 573.70
  Q 264.59 585.60 283.30 593.01"
/>
<path stroke="#622223" vector-effect="non-scaling-stroke" d="
  M 283.30 593.01
  L 283.47 605.93"
/>
<path stroke="#773a31" vector-effect="non-scaling-stroke" d="
  M 283.47 605.93
  L 283.15 631.24"
/>
<path stroke="#622223" vector-effect="non-scaling-stroke" d="
  M 283.15 631.24
  L 282.98 644.59"
/>
<path stroke="#773a31" vector-effect="non-scaling-stroke" d="
  M 282.98 644.59
  L 282.41 673.19"
/>
<path stroke="#622223" vector-effect="non-scaling-stroke" d="
  M 282.41 673.19
  L 282.15 678.89"
/>
<path stroke="#773a31" vector-effect="non-scaling-stroke" d="
  M 282.15 678.89
  Q 281.44 685.65 281.18 692.75
  Q 280.85 701.76 277.24 718.64"
/>
<path stroke="#8a553d" vector-effect="non-scaling-stroke" d="
  M 277.24 718.64
  L 272.21 726.72"
/>
<path stroke="#773a31" vector-effect="non-scaling-stroke" d="
  M 272.21 726.72
  Q 268.47 731.66 262.96 736.75
  Q 262.30 737.36 261.71 738.37
  Q 261.17 739.30 260.48 740.06"
/>
<path stroke="#987f6f" vector-effect="non-scaling-stroke" d="
  M 260.48 740.06
  C 248.11 732.46 231.61 731.90 219.78 741.27
  Q 211.97 747.45 210.28 758.07"
/>
<path stroke="#622223" vector-effect="non-scaling-stroke" d="
  M 210.28 758.07
  Q 209.48 759.36 209.62 762.43
  A 0.53 0.52 -1.1 0 0 210.15 762.93
  L 343.81 762.74"
/>
<path stroke="#6f302e" vector-effect="non-scaling-stroke" d="
  M 343.81 762.74
  L 359.94 762.96"
/>
<path stroke="#622223" vector-effect="non-scaling-stroke" d="
  M 359.94 762.96
  L 405.48 762.92
  A 1.38 1.37 -89.1 0 0 406.85 761.58
  Q 407.00 757.33 405.22 752.97"
/>
<path stroke="#987f6f" vector-effect="non-scaling-stroke" d="
  M 405.22 752.97
  C 396.12 733.91 374.45 729.68 356.57 738.97"
/>
<path stroke="#6f302e" vector-effect="non-scaling-stroke" d="
  M 356.57 738.97
  L 349.87 732.87"
/>
<path stroke="#8a553d" vector-effect="non-scaling-stroke" d="
  M 349.87 732.87
  L 341.64 722.41"
/>
<path stroke="#773a31" vector-effect="non-scaling-stroke" d="
  M 341.64 722.41
  C 337.88 715.97 337.45 710.45 336.55 702.03"
/>
<path stroke="#622223" vector-effect="non-scaling-stroke" d="
  M 336.55 702.03
  L 335.61 695.21"
/>
<path stroke="#773a31" vector-effect="non-scaling-stroke" d="
  M 335.61 695.21
  L 333.73 653.61"
/>
<path stroke="#622223" vector-effect="non-scaling-stroke" d="
  M 333.73 653.61
  L 333.64 635.65"
/>
<path stroke="#773a31" vector-effect="non-scaling-stroke" d="
  M 333.64 635.65
  L 333.42 615.29"
/>
<path stroke="#622223" vector-effect="non-scaling-stroke" d="
  M 333.42 615.29
  L 333.31 606.73"
/>
<path stroke="#773a31" vector-effect="non-scaling-stroke" d="
  M 333.31 606.73
  L 333.47 591.63"
/>
<path stroke="#622223" vector-effect="non-scaling-stroke" d="
  M 333.47 591.63
  Q 348.03 586.39 361.08 577.86
  Q 365.41 575.03 369.38 571.54
  A 0.97 0.97 0.0 0 0 369.31 570.03
  Q 365.73 567.47 364.33 563.06
  Q 364.16 562.52 363.73 562.15
  Q 363.07 561.59 363.04 560.68
  A 0.51 0.51 0.0 0 0 362.45 560.20
  L 361.64 560.32"
/>
<path stroke="#773a31" vector-effect="non-scaling-stroke" d="
  M 361.64 560.32
  Q 348.60 568.14 334.02 572.42"
/>
<path stroke="#622223" vector-effect="non-scaling-stroke" d="
  M 334.02 572.42
  Q 333.08 572.38 333.14 570.75
  Q 333.20 569.08 333.22 562.99"
/>
<path stroke="#773a31" vector-effect="non-scaling-stroke" d="
  M 333.22 562.99
  Q 332.83 561.14 333.16 559.31"
/>
<path stroke="#622223" vector-effect="non-scaling-stroke" d="
  M 333.16 559.31
  L 333.03 514.80
  A 0.64 0.63 -6.6 0 0 332.25 514.19
  Q 326.57 515.51 321.26 516.40
  Q 309.96 518.31 297.95 517.09
  C 293.30 516.61 288.61 515.57 284.02 514.45
  Q 283.32 514.28 283.32 515.00
  L 283.47 564.36"
/>
<path stroke="#a65c53" vector-effect="non-scaling-stroke" d="
  M 333.16 559.31
  Q 331.80 556.41 324.78 556.94
  A 1.64 1.62 -4.2 0 1 323.02 555.43
  L 322.48 547.95
  A 1.03 1.03 0.0 0 0 320.96 547.11
  C 312.47 551.66 304.01 550.66 295.07 547.52
  A 0.79 0.79 0.0 0 0 294.02 548.24
  Q 293.92 552.86 294.67 556.84
  Q 295.21 559.69 293.29 562.46
  Q 292.95 562.96 292.34 563.05
  L 283.47 564.36"
/>
<path stroke="#a65c53" vector-effect="non-scaling-stroke" d="
  M 333.22 562.99
  Q 330.36 566.12 322.91 567.00"
/>
<path stroke="#ce8e6d" vector-effect="non-scaling-stroke" d="
  M 322.91 567.00
  Q 323.39 561.20 323.11 559.50
  Q 322.74 557.32 322.11 555.27
  Q 321.89 554.54 321.13 554.55
  L 309.08 554.63
  A 3.52 3.50 -62.2 0 0 307.09 555.25
  Q 302.12 558.62 296.85 561.93
  C 295.74 562.62 294.71 562.77 293.64 563.34
  Q 293.14 563.60 293.16 564.15
  L 294.17 596.23"
/>
<path stroke="#b3695e" vector-effect="non-scaling-stroke" d="
  M 294.17 596.23
  Q 293.87 596.55 293.49 596.22"
/>
<path stroke="#a65c53" vector-effect="non-scaling-stroke" d="
  M 293.49 596.22
  Q 290.11 595.70 286.62 595.20
  Q 284.43 594.89 283.30 593.01"
/>
<path stroke="#ce8e6d" vector-effect="non-scaling-stroke" d="
  M 283.75 578.59
  Q 284.76 578.75 285.40 577.68
  Q 285.68 577.22 285.33 576.81
  L 283.26 574.38"
/>
<path stroke="#b9775e" vector-effect="non-scaling-stroke" d="
  M 322.91 567.00
  Q 322.58 568.03 321.58 568.63
  Q 315.72 572.15 310.91 576.24
  Q 310.43 576.66 311.04 576.48
  Q 312.56 576.06 314.15 575.37
  Q 316.34 574.41 323.01 573.38"
/>
<path stroke="#ce8e6d" vector-effect="non-scaling-stroke" d="
  M 323.01 573.38
  Q 323.45 574.25 323.33 575.24
  Q 323.13 577.01 323.13 577.05
  Q 323.18 598.30 322.91 607.16
  Q 322.89 607.90 322.34 608.41"
/>
<path stroke="#b9775e" vector-effect="non-scaling-stroke" d="
  M 322.34 608.41
  L 315.32 611.66
  A 0.60 0.60 0.0 0 0 315.63 612.80
  Q 319.16 612.44 322.64 613.26"
/>
<path stroke="#ce8e6d" vector-effect="non-scaling-stroke" d="
  M 322.64 613.26
  L 322.99 634.30
  A 0.88 0.88 0.0 0 1 322.08 635.20
  Q 319.17 635.09 316.66 634.84
  Q 306.36 633.81 295.56 632.42
  A 1.55 1.55 0.0 0 1 294.20 630.89
  L 293.87 601.90"
/>
<path stroke="#c68469" vector-effect="non-scaling-stroke" d="
  M 293.87 601.90
  L 305.96 596.89
  Q 306.54 596.65 305.91 596.66
  Q 300.91 596.72 296.01 597.07
  Q 294.94 597.15 294.17 596.23"
/>
<path stroke="#9e524f" vector-effect="non-scaling-stroke" d="
  M 293.49 596.22
  L 294.01 596.76
  Q 294.33 597.09 294.41 597.53
  Q 294.92 600.17 293.77 602.64"
/>
<path stroke="#a65c53" vector-effect="non-scaling-stroke" d="
  M 293.77 602.64
  Q 289.15 605.45 283.47 605.93"
/>
<path stroke="#b3695e" vector-effect="non-scaling-stroke" d="
  M 293.87 601.90
  Q 293.82 602.27 293.77 602.64"
/>
<path stroke="#b9775e" vector-effect="non-scaling-stroke" d="
  M 250.75 558.89
  Q 251.19 563.51 255.65 566.32
  Q 268.88 574.66 283.75 578.59"
/>
<path stroke="#a65c53" vector-effect="non-scaling-stroke" d="
  M 283.75 578.59
  L 283.30 593.01"
/>
<path stroke="#a65c53" vector-effect="non-scaling-stroke" d="
  M 322.64 613.26
  L 332.32 613.71
  Q 332.84 613.74 333.09 614.19
  Q 333.34 614.64 333.42 615.29"
/>
<path stroke="#a65c53" vector-effect="non-scaling-stroke" d="
  M 333.64 635.65
  L 324.32 635.65
  Q 322.86 635.64 322.90 637.11
  Q 323.10 644.53 322.11 651.02
  A 0.58 0.57 9.7 0 0 322.58 651.67
  L 333.73 653.61"
/>
<path stroke="#a65c53" vector-effect="non-scaling-stroke" d="
  M 335.61 695.21
  L 323.12 695.13"
/>
<path stroke="#ce8e6d" vector-effect="non-scaling-stroke" d="
  M 323.12 695.13
  L 322.98 655.03
  Q 322.97 653.68 321.63 653.79
  Q 317.92 654.10 313.36 653.68
  Q 313.25 653.67 313.22 653.56
  L 313.16 653.29
  A 0.37 0.37 0.0 0 1 313.50 652.83
  Q 315.96 652.71 317.99 652.35
  Q 320.46 651.92 318.10 651.09
  Q 315.12 650.03 311.65 649.44
  C 306.09 648.51 300.68 647.39 295.03 646.79
  Q 293.87 646.67 293.83 647.83
  Q 293.36 659.63 294.34 671.99"
/>
<path stroke="#a65c53" vector-effect="non-scaling-stroke" d="
  M 294.34 671.99
  Q 289.20 671.61 282.41 673.19"
/>
<path stroke="#a65c53" vector-effect="non-scaling-stroke" d="
  M 282.98 644.59
  Q 288.26 645.97 293.59 645.89
  A 0.49 0.49 0.0 0 0 294.07 645.40
  L 293.99 633.18
  A 1.78 1.77 -89.7 0 0 292.25 631.41
  L 283.15 631.24"
/>
<path stroke="#a65c53" vector-effect="non-scaling-stroke" d="
  M 333.31 606.73
  Q 326.96 606.28 322.34 608.41"
/>
<path stroke="#a65c53" vector-effect="non-scaling-stroke" d="
  M 323.01 573.38
  Q 327.31 572.03 332.39 572.00
  Q 332.83 572.00 333.13 572.32
  Q 333.27 572.47 333.32 572.68
  Q 333.43 573.18 333.86 572.89
  Q 334.08 572.73 334.02 572.42"
/>
<path stroke="#a65c53" vector-effect="non-scaling-stroke" d="
  M 293.94 675.21
  C 293.33 675.55 293.08 676.02 292.43 676.30
  Q 287.64 678.35 282.15 678.89"
/>
<path stroke="#a65c53" vector-effect="non-scaling-stroke" d="
  M 336.55 702.03
  Q 330.17 700.58 323.05 700.77"
/>
<path stroke="#b9775e" vector-effect="non-scaling-stroke" d="
  M 323.12 695.13
  Q 317.17 696.87 311.71 699.18
  Q 309.84 699.96 308.37 701.40
  Q 308.01 701.76 308.52 701.70
  Q 313.25 701.20 317.99 700.57
  Q 320.65 700.22 323.05 700.77"
/>
<path stroke="#ce8e6d" vector-effect="non-scaling-stroke" d="
  M 323.05 700.77
  L 323.80 710.09
  A 3.66 3.65 9.1 0 0 326.03 713.16
  C 329.90 714.80 333.53 716.09 337.04 718.82
  Q 339.27 720.55 341.64 722.41"
/>
<path stroke="#c68469" vector-effect="non-scaling-stroke" d="
  M 349.87 732.87
  Q 349.96 734.04 347.45 733.58
  Q 346.27 733.36 345.20 733.51
  Q 339.42 734.29 335.00 736.25
  Q 333.27 737.02 331.59 737.13
  Q 331.22 737.16 330.90 737.33
  Q 328.39 738.63 325.20 738.90
  A 0.40 0.40 0.0 0 0 324.90 739.53
  L 325.25 740.05"
/>
<path stroke="#efd4aa" vector-effect="non-scaling-stroke" d="
  M 325.25 740.05
  Q 316.41 738.04 307.54 737.74"
/>
<path stroke="#ce8e6d" vector-effect="non-scaling-stroke" d="
  M 307.54 737.74
  L 308.72 737.72
  A 0.92 0.92 0.0 0 0 309.09 735.97
  Q 307.07 735.03 305.31 733.96
  Q 303.54 732.88 301.64 732.07
  Q 293.88 728.76 286.17 726.28
  Q 283.95 725.57 281.08 725.85
  Q 276.88 726.26 272.21 726.72"
/>
<path stroke="#ce8e6d" vector-effect="non-scaling-stroke" d="
  M 277.24 718.64
  Q 281.66 717.13 285.88 715.37
  C 289.54 713.85 292.12 711.36 295.05 708.79
  Q 297.11 706.97 303.79 705.98
  A 0.29 0.29 0.0 0 0 303.99 705.53
  L 303.84 705.31
  A 1.21 1.20 72.6 0 0 302.85 704.79
  L 293.74 704.72
  A 0.71 0.71 0.0 0 1 293.03 703.99
  L 293.52 676.30
  Q 293.52 675.95 293.69 675.64
  L 293.94 675.21"
/>
<path stroke="#b9775e" vector-effect="non-scaling-stroke" d="
  M 293.94 675.21
  Q 294.68 674.25 295.17 674.12
  Q 299.46 673.06 303.74 671.55
  Q 305.06 671.08 303.66 671.06
  Q 300.11 671.01 294.34 671.99"
/>
<path stroke="#a65c53" vector-effect="non-scaling-stroke" d="
  M 333.47 591.63
  L 332.92 574.09
  A 0.77 0.77 0.0 0 1 334.15 573.44
  Q 334.82 573.93 335.60 573.73
  C 345.11 571.26 354.08 569.00 361.68 562.59
  Q 362.40 561.98 362.40 561.08
  Q 362.41 560.72 362.06 560.63
  Q 361.81 560.58 361.64 560.32"
/>
<path stroke="#c6a190" vector-effect="non-scaling-stroke" d="
  M 349.96 750.38
  L 359.62 758.30"
/>
<path stroke="#d4af9b" vector-effect="non-scaling-stroke" d="
  M 359.62 758.30
  Q 359.85 758.57 359.83 758.87
  A 0.44 0.44 0.0 0 1 359.20 759.24
  Q 351.03 755.13 343.20 751.61
  C 325.22 743.53 303.77 740.34 284.78 745.93
  Q 275.39 748.69 266.81 753.59"
/>
<path stroke="#c6a190" vector-effect="non-scaling-stroke" d="
  M 266.81 753.59
  L 258.28 758.05"
/>
<path stroke="#d4af9b" vector-effect="non-scaling-stroke" d="
  M 258.28 758.05
  Q 257.84 757.96 257.84 757.63
  Q 257.84 757.43 258.06 757.18
  C 261.15 753.62 264.48 751.62 269.01 748.88"
/>
<path stroke="#dcb99f" vector-effect="non-scaling-stroke" d="
  M 307.54 737.74
  C 293.48 738.13 281.27 742.26 269.01 748.88"
/>
<path stroke="#b3695e" vector-effect="non-scaling-stroke" d="
  M 269.01 748.88
  Q 268.91 748.26 268.63 747.82
  Q 268.36 747.39 267.86 747.41
  Q 267.07 747.45 266.94 747.01"
/>
<path stroke="#dcb99f" vector-effect="non-scaling-stroke" d="
  M 266.94 747.01
  L 267.63 746.93
  A 0.51 0.51 0.0 0 0 267.81 745.97
  Q 263.45 743.65 260.48 740.06"
/>
<path stroke="#d4af9b" vector-effect="non-scaling-stroke" d="
  M 356.57 738.97
  Q 352.13 741.94 347.40 745.35
  Q 346.75 745.82 346.70 746.55
  A 0.88 0.88 0.0 0 0 347.98 747.40
  Q 352.94 744.90 357.15 743.73
  Q 368.05 740.69 379.64 742.53
  Q 386.70 743.65 391.65 745.36
  Q 397.52 747.38 402.62 751.11"
/>
<path stroke="#9e524f" vector-effect="non-scaling-stroke" d="
  M 402.62 751.11
  Q 387.53 751.95 373.55 751.81
  C 370.31 751.78 366.77 751.21 363.37 751.00
  Q 361.82 750.91 357.74 750.09
  Q 353.82 749.30 349.96 750.38"
/>
<path stroke="#d4af9b" vector-effect="non-scaling-stroke" d="
  M 349.96 750.38
  Q 348.45 749.75 346.75 748.64
  Q 344.81 747.37 343.61 746.81
  Q 334.64 742.62 325.25 740.05"
/>
<path stroke="#9e524f" vector-effect="non-scaling-stroke" d="
  M 359.62 758.30
  Q 361.50 759.31 362.65 761.10
  Q 363.01 761.65 362.44 761.98
  Q 362.03 762.23 361.53 762.13
  Q 361.00 762.03 360.60 762.38
  L 359.94 762.96"
/>
<path stroke="#9e524f" vector-effect="non-scaling-stroke" d="
  M 343.81 762.74
  L 324.00 762.37
  A 1.15 1.13 64.7 0 1 323.32 762.12
  Q 322.98 761.85 322.53 761.83
  Q 317.97 761.63 313.57 760.42
  Q 308.18 758.93 303.96 758.26
  Q 292.22 756.40 283.62 755.33
  Q 280.40 754.92 276.00 755.27
  Q 273.69 755.45 266.81 753.59"
/>
<path stroke="#9e524f" vector-effect="non-scaling-stroke" d="
  M 258.28 758.05
  Q 257.41 759.13 257.39 757.10
  Q 257.38 756.56 256.87 756.42
  Q 243.64 752.70 229.77 749.76
  C 227.40 749.26 224.92 749.23 222.47 748.82
  C 220.48 748.48 218.60 748.79 216.56 748.96"
/>
<path stroke="#d4af9b" vector-effect="non-scaling-stroke" d="
  M 266.94 747.01
  Q 263.95 746.16 260.94 745.16
  Q 241.60 738.75 222.63 746.15
  Q 218.73 747.68 216.56 748.96"
/>
<path stroke="#c6a190" vector-effect="non-scaling-stroke" d="
  M 216.56 748.96
  Q 212.89 751.55 210.28 758.07"
/>
<path stroke="#c6a190" vector-effect="non-scaling-stroke" d="
  M 405.22 752.97
  Q 405.15 753.53 405.03 753.77
  Q 404.88 754.08 404.51 753.66
  Q 403.08 752.01 402.62 751.11"
/>
<path stroke="#622223" vector-effect="non-scaling-stroke" d="
  M 364.53 559.47
  C 367.09 562.25 369.30 565.30 371.50 568.44
  A 1.11 1.11 0.0 0 0 373.14 568.64
  Q 384.31 558.81 391.28 548.65
  Q 396.62 540.85 403.53 527.07
  Q 403.63 526.86 403.41 526.76
  L 395.03 523.24
  A 0.26 0.26 0.0 0 0 394.69 523.38
  C 388.54 537.20 377.03 549.47 364.66 558.23
  Q 363.88 558.78 364.53 559.47"
/>
<path stroke="#d3fdb3" vector-effect="non-scaling-stroke" d="
  M 410.2514 109.7188
  A 18.19 14.73 4.6 0 0 393.3013 93.5774
  A 18.19 14.73 4.6 0 0 373.9886 106.8012
  A 18.19 14.73 4.6 0 0 390.9387 122.9426
  A 18.19 14.73 4.6 0 0 410.2514 109.7188"
/>
<path stroke="#d3fdb3" vector-effect="non-scaling-stroke" d="
  M 242.8217 106.8076
  A 18.11 14.67 -4.6 0 0 223.5935 93.6373
  A 18.11 14.67 -4.6 0 0 206.7183 109.7124
  A 18.11 14.67 -4.6 0 0 225.9465 122.8827
  A 18.11 14.67 -4.6 0 0 242.8217 106.8076"
/>
<path stroke="#bee8a9" vector-effect="non-scaling-stroke" d="
  M 459.1832 125.5451
  A 7.05 6.77 25.5 0 0 455.7346 116.3995
  A 7.05 6.77 25.5 0 0 446.4568 119.4749
  A 7.05 6.77 25.5 0 0 449.9054 128.6205
  A 7.05 6.77 25.5 0 0 459.1832 125.5451"
/>
<path stroke="#bee8a9" vector-effect="non-scaling-stroke" d="
  M 168.98 122.94
  A 6.84 6.84 0.0 0 0 162.14 116.10
  A 6.84 6.84 0.0 0 0 155.30 122.94
  A 6.84 6.84 0.0 0 0 162.14 129.78
  A 6.84 6.84 0.0 0 0 168.98 122.94"
/>
<path stroke="#bee8a9" vector-effect="non-scaling-stroke" d="
  M 193.47 150.86
  A 11.08 11.08 0.0 0 0 182.39 139.78
  A 11.08 11.08 0.0 0 0 171.31 150.86
  A 11.08 11.08 0.0 0 0 182.39 161.94
  A 11.08 11.08 0.0 0 0 193.47 150.86"
/>
<path stroke="#6ab873" vector-effect="non-scaling-stroke" d="
  M 389.4069 227.7083
  A 7.82 7.82 0.0 0 0 380.1636 221.6365
  L 364.3785 224.9055
  A 7.82 7.82 0.0 0 0 358.3068 234.1488
  L 358.4731 234.9517
  A 7.82 7.82 0.0 0 0 367.7164 241.0235
  L 383.5015 237.7545
  A 7.82 7.82 0.0 0 0 389.5732 228.5112
  L 389.4069 227.7083"
/>
<path stroke="#6ab873" vector-effect="non-scaling-stroke" d="
  M 260.1323 235.5449
  A 8.33 8.10 -43.7 0 0 248.5139 235.4440
  A 8.33 8.10 -43.7 0 0 248.0877 247.0551
  A 8.33 8.10 -43.7 0 0 259.7061 247.1560
  A 8.33 8.10 -43.7 0 0 260.1323 235.5449"
/>
<path stroke="#45826a" vector-effect="non-scaling-stroke" d="
  M 332.07 391.29
  Q 317.53 393.94 300.45 393.30
  C 291.65 392.98 282.53 391.34 273.91 390.11
  C 267.20 389.16 262.86 395.30 263.88 401.61
  C 264.76 407.00 270.27 409.90 275.26 410.57
  C 285.26 411.91 293.79 413.48 299.28 413.86
  Q 317.07 415.11 338.56 410.98
  C 344.69 409.80 350.21 407.06 350.07 399.93
  Q 349.96 394.26 344.37 390.83
  C 341.77 389.23 335.05 390.75 332.07 391.29"
/>
<path stroke="#efd4aa" vector-effect="non-scaling-stroke" d="
  M 371.99 590.51
  L 371.94 590.00"
/>
</g>
<path fill="#958b7f" fill-opacity="0.996" d="
  M 400.26 564.05
  Q 399.73 563.71 399.84 564.08
  C 406.91 554.55 411.09 545.89 416.99 534.14
  C 418.11 531.90 417.82 528.93 421.67 530.34
  Q 422.93 530.80 424.25 530.96
  C 431.00 531.79 438.50 532.87 444.95 533.08
  C 467.01 533.81 489.10 528.57 509.69 519.74
  C 520.12 515.27 530.84 508.86 540.32 502.39
  Q 560.38 488.69 576.04 468.12
  Q 586.10 454.90 591.96 444.00
  Q 595.14 438.08 597.92 432.57
  C 601.40 425.67 604.23 417.99 606.58 410.64
  Q 612.98 390.63 614.05 368.83
  C 614.28 364.22 614.06 359.62 614.00 354.99
  Q 613.93 349.63 613.29 344.19
  Q 612.70 339.21 612.08 334.30
  Q 611.44 329.17 610.35 324.36
  C 603.32 293.48 589.10 265.22 567.01 242.19
  C 566.15 241.30 565.93 239.83 566.39 238.69
  Q 572.28 224.02 570.31 207.28
  Q 569.27 198.50 565.29 190.04
  C 556.98 172.38 542.87 159.52 524.06 153.21
  C 522.67 152.75 520.35 153.02 519.94 151.13
  Q 516.09 133.41 506.54 115.47
  Q 491.29 86.82 466.26 64.04
  Q 452.33 51.36 439.23 42.73
  Q 431.17 37.42 423.06 32.69
  Q 414.65 27.78 400.24 21.63
  Q 371.47 9.36 344.84 5.73
  Q 335.60 4.47 326.56 3.51
  C 324.70 3.31 322.93 3.58 321.08 3.18
  Q 319.17 2.76 317.17 2.83
  Q 307.59 3.19 297.57 2.72
  Q 297.05 2.69 296.56 2.88
  Q 295.82 3.16 295.03 3.21
  Q 282.59 3.99 267.52 6.63
  C 266.12 6.87 264.90 6.83 263.53 7.26
  Q 262.25 7.65 260.85 7.95
  Q 212.89 17.94 172.13 46.59
  Q 163.74 52.49 156.72 58.66
  Q 139.62 73.68 125.25 92.56
  Q 107.36 116.06 98.88 142.90
  C 98.03 145.58 97.73 148.36 96.76 150.99
  A 2.72 2.72 0.0 0 1 94.89 152.69
  Q 74.42 158.02 61.02 174.25
  Q 46.82 191.45 45.91 213.31
  Q 45.34 226.84 49.80 238.75
  C 50.31 240.10 49.72 241.75 48.71 242.75
  Q 36.52 254.83 28.66 268.41
  Q 21.86 280.16 14.83 295.07
  Q 26.37 264.12 48.72 241.52
  Q 49.67 240.57 49.22 239.30
  Q 45.12 227.67 44.92 216.60
  C 44.86 213.17 45.72 209.83 45.91 206.39
  Q 46.01 204.49 46.49 202.66
  C 47.32 199.51 47.96 196.34 49.13 193.30
  C 53.50 181.95 60.13 173.34 69.10 165.40
  Q 79.33 156.34 93.65 152.00
  Q 95.17 151.54 96.02 150.05
  Q 96.71 148.85 96.92 147.47
  Q 97.12 146.15 97.57 144.78
  C 99.16 139.90 100.72 134.81 102.72 130.18
  Q 113.95 104.10 131.32 83.82
  Q 143.27 69.88 149.50 64.26
  Q 152.59 61.49 155.77 58.54
  C 165.00 50.01 175.70 42.63 187.12 35.88
  Q 216.75 18.36 246.72 10.65
  Q 264.62 6.04 285.44 3.61
  Q 285.94 3.55 286.31 3.20
  Q 286.47 3.06 286.66 2.99
  Q 286.77 2.94 286.90 2.95
  Q 290.83 3.16 294.34 2.71
  Q 299.64 2.03 301.70 2.00
  Q 310.50 1.92 319.29 2.08
  C 320.77 2.11 321.68 3.08 323.10 3.00
  Q 327.48 2.73 331.89 3.30
  Q 344.80 5.00 356.14 7.03
  Q 372.40 9.94 389.80 16.58
  Q 442.87 36.83 481.03 77.57
  Q 482.68 79.33 484.22 81.34
  C 485.52 83.03 487.04 84.50 488.35 86.19
  Q 500.61 101.95 509.23 118.97
  Q 515.58 131.51 519.68 146.64
  C 520.20 148.58 519.45 150.30 521.10 151.75
  Q 521.50 152.11 522.03 152.00
  C 523.34 151.73 523.98 152.61 525.10 152.94
  Q 527.86 153.75 530.48 154.90
  Q 545.01 161.26 555.89 174.20
  Q 569.04 189.83 570.66 207.67
  C 571.25 214.21 571.56 222.03 569.97 228.58
  Q 568.69 233.86 567.08 239.30
  C 566.75 240.41 567.06 241.34 567.84 242.15
  Q 583.79 258.82 594.28 278.93
  Q 597.20 284.54 600.29 291.30
  C 606.27 304.35 610.44 318.98 612.43 332.55
  C 613.07 336.93 613.89 341.34 614.01 345.69
  Q 614.10 349.12 614.52 352.30
  C 615.25 357.73 615.26 363.70 614.86 369.10
  Q 613.33 389.99 608.52 406.09
  Q 606.73 412.11 603.60 420.84
  Q 601.10 427.81 597.56 434.30
  C 594.50 439.94 591.81 445.57 588.41 451.09
  Q 575.82 471.55 559.44 487.62
  Q 551.13 495.77 542.28 501.79
  Q 528.79 510.95 524.93 512.92
  C 520.51 515.16 515.99 517.97 511.72 519.89
  Q 508.49 521.34 505.35 522.65
  C 504.41 523.04 503.39 522.98 502.48 523.32
  Q 482.33 531.02 460.81 533.27
  Q 453.69 534.01 446.76 533.78
  Q 439.93 533.55 432.71 532.65
  Q 428.90 532.18 425.38 531.96
  Q 424.91 531.93 424.49 531.69
  Q 422.46 530.56 419.64 531.04
  Q 419.10 531.13 418.80 531.59
  C 417.49 533.63 417.13 535.96 415.95 538.04
  Q 412.70 543.73 409.49 549.97
  Q 406.39 556.00 400.88 563.62
  Q 400.77 563.77 400.26 564.05
  Z"
/>
<path fill="#330001" d="
  M 399.84 564.08
  Q 387.80 579.01 371.94 590.00
  L 357.62 599.30
  A 2.12 2.12 0.0 0 0 356.84 601.95
  C 357.29 602.94 357.00 603.96 357.01 605.01
  Q 357.09 630.24 357.84 655.47
  L 358.42 677.58
  Q 358.44 678.23 358.70 678.82
  Q 359.19 679.93 358.97 681.20
  Q 358.87 681.80 359.34 682.19
  Q 359.47 682.30 359.52 682.46
  Q 359.62 682.73 359.45 682.97
  Q 358.69 683.98 359.33 685.09
  Q 359.56 685.49 359.43 685.93
  C 359.06 687.16 359.87 688.10 359.95 689.34
  Q 360.29 694.96 361.33 700.70
  C 361.41 701.13 361.36 701.45 361.19 701.87
  Q 361.03 702.27 361.26 702.63
  Q 362.48 704.60 362.07 707.11
  A 0.50 0.39 49.3 0 0 362.08 707.32
  L 362.65 709.84
  Q 362.75 710.29 363.17 710.46
  Q 364.76 711.11 365.91 710.31
  Q 366.31 710.04 366.78 710.00
  Q 374.87 709.33 384.26 709.92
  Q 389.03 710.22 392.81 712.01
  Q 394.74 712.93 396.77 713.67
  Q 398.86 714.43 401.02 715.20
  Q 401.25 715.28 401.26 715.52
  Q 401.27 715.68 401.38 715.77
  Q 401.49 715.85 401.63 715.86
  Q 404.40 715.97 406.23 717.65
  Q 406.60 717.99 407.07 717.85
  Q 407.49 717.71 407.76 718.05
  Q 409.38 720.06 411.50 721.66
  Q 411.84 721.91 412.10 722.25
  Q 412.43 722.67 412.93 722.40
  A 0.82 0.80 50.3 0 1 413.82 722.49
  Q 420.92 728.32 425.20 736.01
  Q 427.50 740.14 428.31 744.63
  Q 428.39 745.12 428.79 745.42
  L 429.21 745.76
  Q 429.22 745.76 429.23 745.77
  Q 430.66 751.32 430.81 755.95
  Q 430.92 759.39 431.89 762.57
  Q 432.61 764.93 431.72 773.00
  L 184.99 773.00
  L 185.11 760.98
  Q 186.31 734.81 206.45 720.20
  Q 218.62 711.36 234.70 709.92
  Q 234.91 709.90 235.08 709.75
  Q 235.18 709.65 235.32 709.59
  Q 235.53 709.50 235.76 709.50
  Q 244.10 709.49 251.99 710.81
  Q 252.98 710.98 253.48 710.68
  Q 254.27 710.21 254.12 709.08
  Q 253.89 707.84 254.11 707.30
  L 254.38 707.11
  Q 254.66 706.91 254.71 706.56
  Q 256.25 693.66 257.65 680.75
  Q 258.45 673.37 259.12 648.68
  L 258.97 638.00
  Q 259.62 620.23 259.72 602.52
  C 259.73 601.12 259.94 600.00 258.51 599.17
  Q 224.00 579.13 204.26 545.08
  C 201.76 540.78 199.67 536.02 197.79 531.38
  A 1.98 1.98 0.0 0 0 195.54 530.18
  Q 164.10 536.93 132.98 528.80
  Q 115.64 524.26 100.48 517.11
  Q 82.20 508.49 66.16 495.26
  C 63.06 492.70 60.41 489.85 57.28 487.28
  Q 53.91 484.50 50.95 481.24
  Q 35.84 464.58 28.33 452.40
  Q 11.17 424.59 4.24 388.98
  Q 3.08 382.03 2.49 374.74
  Q -0.84 333.14 14.83 295.07
  Q 21.86 280.16 28.66 268.41
  Q 36.52 254.83 48.71 242.75
  C 49.72 241.75 50.31 240.10 49.80 238.75
  Q 45.34 226.84 45.91 213.31
  Q 46.82 191.45 61.02 174.25
  Q 74.42 158.02 94.89 152.69
  A 2.72 2.72 0.0 0 0 96.76 150.99
  C 97.73 148.36 98.03 145.58 98.88 142.90
  Q 107.36 116.06 125.25 92.56
  Q 139.62 73.68 156.72 58.66
  Q 163.74 52.49 172.13 46.59
  Q 212.89 17.94 260.85 7.95
  Q 262.25 7.65 263.53 7.26
  C 264.90 6.83 266.12 6.87 267.52 6.63
  Q 282.59 3.99 295.03 3.21
  Q 295.82 3.16 296.56 2.88
  Q 297.05 2.69 297.57 2.72
  Q 307.59 3.19 317.17 2.83
  Q 319.17 2.76 321.08 3.18
  C 322.93 3.58 324.70 3.31 326.56 3.51
  Q 335.60 4.47 344.84 5.73
  Q 371.47 9.36 400.24 21.63
  Q 414.65 27.78 423.06 32.69
  Q 431.17 37.42 439.23 42.73
  Q 452.33 51.36 466.26 64.04
  Q 491.29 86.82 506.54 115.47
  Q 516.09 133.41 519.94 151.13
  C 520.35 153.02 522.67 152.75 524.06 153.21
  C 542.87 159.52 556.98 172.38 565.29 190.04
  Q 569.27 198.50 570.31 207.28
  Q 572.28 224.02 566.39 238.69
  C 565.93 239.83 566.15 241.30 567.01 242.19
  C 589.10 265.22 603.32 293.48 610.35 324.36
  Q 611.44 329.17 612.08 334.30
  Q 612.70 339.21 613.29 344.19
  Q 613.93 349.63 614.00 354.99
  C 614.06 359.62 614.28 364.22 614.05 368.83
  Q 612.98 390.63 606.58 410.64
  C 604.23 417.99 601.40 425.67 597.92 432.57
  Q 595.14 438.08 591.96 444.00
  Q 586.10 454.90 576.04 468.12
  Q 560.38 488.69 540.32 502.39
  C 530.84 508.86 520.12 515.27 509.69 519.74
  C 489.10 528.57 467.01 533.81 444.95 533.08
  C 438.50 532.87 431.00 531.79 424.25 530.96
  Q 422.93 530.80 421.67 530.34
  C 417.82 528.93 418.11 531.90 416.99 534.14
  C 411.09 545.89 406.91 554.55 399.84 564.08
  Z
  M 153.90 100.97
  Q 139.86 116.84 129.92 137.20
  Q 122.46 152.50 121.34 167.33
  Q 120.27 173.65 117.41 177.72
  A 2.36 2.36 0.0 0 1 115.10 178.69
  L 110.14 177.88
  Q 99.52 177.01 90.43 182.94
  Q 76.95 191.75 73.89 205.80
  C 70.72 220.35 75.40 235.57 84.04 247.47
  A 1.51 1.50 -36.8 0 1 83.73 249.56
  Q 78.88 253.26 73.71 257.58
  C 70.84 259.97 68.33 262.72 65.73 265.40
  Q 36.42 298.08 31.57 342.00
  Q 28.80 364.64 32.87 387.27
  C 40.28 428.38 66.71 463.90 101.91 485.75
  Q 138.90 508.71 181.12 504.39
  Q 202.33 502.22 221.35 494.04
  Q 235.81 487.82 244.81 476.71
  A 2.09 2.09 0.0 0 1 247.29 476.12
  Q 255.75 479.93 264.17 482.88
  Q 300.13 495.46 338.26 486.82
  Q 354.58 483.13 368.36 476.45
  Q 369.50 475.90 370.80 476.04
  Q 371.34 476.10 371.69 476.50
  C 376.97 482.52 382.22 487.39 389.48 491.05
  Q 414.17 503.48 443.36 504.90
  C 469.87 506.20 496.14 498.03 518.39 483.47
  Q 532.27 474.39 546.01 460.00
  C 560.79 444.53 572.44 426.00 579.10 405.79
  Q 589.11 375.42 584.97 343.38
  Q 580.91 306.70 560.05 277.22
  Q 557.13 273.09 553.82 269.57
  Q 548.23 262.50 541.46 256.78
  Q 537.15 253.14 532.67 249.30
  A 1.49 1.47 -51.9 0 1 532.44 247.31
  C 540.42 236.22 545.58 222.63 543.18 208.75
  Q 541.88 199.26 534.38 190.35
  Q 527.36 182.03 517.52 178.90
  Q 511.80 177.08 506.00 178.36
  L 501.86 179.42
  A 1.66 1.65 63.1 0 1 500.17 178.86
  Q 497.44 175.51 495.48 170.46
  Q 495.02 160.20 492.71 152.52
  Q 487.74 136.02 476.82 119.43
  Q 469.55 108.39 461.06 98.87
  Q 448.73 84.73 437.07 75.19
  Q 404.26 48.35 362.42 36.64
  C 319.53 24.64 273.50 27.94 232.26 44.27
  C 201.67 56.39 175.36 75.92 153.90 100.97
  Z
  M 356.11 506.96
  Q 356.01 526.41 356.08 545.75
  Q 356.08 546.15 357.11 545.79
  L 364.20 539.59
  Q 365.08 538.17 366.30 537.50
  Q 373.07 531.05 376.89 522.25
  L 378.32 518.69
  Q 379.76 516.23 377.80 517.16
  L 358.11 506.89
  Q 356.36 504.92 356.11 506.96
  Z
  M 255.70 508.69
  Q 246.93 513.03 238.38 517.30
  A 1.08 1.08 0.0 0 0 237.88 518.72
  Q 244.82 533.64 256.95 544.40
  Q 257.55 544.93 258.27 545.11
  Q 258.88 545.27 259.32 545.76
  Q 260.00 546.54 260.00 545.50
  L 260.00 507.75
  A 0.93 0.92 72.4 0 0 258.54 506.99
  Q 257.19 507.94 255.70 508.69
  Z
  M 283.47 564.36
  L 283.26 574.38
  Q 274.07 570.90 266.26 567.24
  Q 258.55 563.63 250.75 558.89
  Q 248.97 557.08 244.65 553.35
  Q 230.27 540.98 221.36 523.50
  Q 221.22 523.22 220.94 523.34
  L 213.50 526.43
  Q 213.28 526.52 213.37 526.74
  Q 221.93 547.42 238.66 564.80
  Q 241.71 567.97 244.29 568.98
  Q 244.71 569.14 244.95 569.53
  Q 246.67 572.29 248.56 573.70
  Q 264.59 585.60 283.30 593.01
  L 283.47 605.93
  L 283.15 631.24
  L 282.98 644.59
  L 282.41 673.19
  L 282.15 678.89
  Q 281.44 685.65 281.18 692.75
  Q 280.85 701.76 277.24 718.64
  L 272.21 726.72
  Q 268.47 731.66 262.96 736.75
  Q 262.30 737.36 261.71 738.37
  Q 261.17 739.30 260.48 740.06
  C 248.11 732.46 231.61 731.90 219.78 741.27
  Q 211.97 747.45 210.28 758.07
  Q 209.48 759.36 209.62 762.43
  A 0.53 0.52 -1.1 0 0 210.15 762.93
  L 343.81 762.74
  L 359.94 762.96
  L 405.48 762.92
  A 1.38 1.37 -89.1 0 0 406.85 761.58
  Q 407.00 757.33 405.22 752.97
  C 396.12 733.91 374.45 729.68 356.57 738.97
  L 349.87 732.87
  L 341.64 722.41
  C 337.88 715.97 337.45 710.45 336.55 702.03
  L 335.61 695.21
  L 333.73 653.61
  L 333.64 635.65
  L 333.42 615.29
  L 333.31 606.73
  L 333.47 591.63
  Q 348.03 586.39 361.08 577.86
  Q 365.41 575.03 369.38 571.54
  A 0.97 0.97 0.0 0 0 369.31 570.03
  Q 365.73 567.47 364.33 563.06
  Q 364.16 562.52 363.73 562.15
  Q 363.07 561.59 363.04 560.68
  A 0.51 0.51 0.0 0 0 362.45 560.20
  L 361.64 560.32
  Q 348.60 568.14 334.02 572.42
  Q 333.08 572.38 333.14 570.75
  Q 333.20 569.08 333.22 562.99
  Q 332.83 561.14 333.16 559.31
  L 333.03 514.80
  A 0.64 0.63 -6.6 0 0 332.25 514.19
  Q 326.57 515.51 321.26 516.40
  Q 309.96 518.31 297.95 517.09
  C 293.30 516.61 288.61 515.57 284.02 514.45
  Q 283.32 514.28 283.32 515.00
  L 283.47 564.36
  Z
  M 364.53 559.47
  C 367.09 562.25 369.30 565.30 371.50 568.44
  A 1.11 1.11 0.0 0 0 373.14 568.64
  Q 384.31 558.81 391.28 548.65
  Q 396.62 540.85 403.53 527.07
  Q 403.63 526.86 403.41 526.76
  L 395.03 523.24
  A 0.26 0.26 0.0 0 0 394.69 523.38
  C 388.54 537.20 377.03 549.47 364.66 558.23
  Q 363.88 558.78 364.53 559.47
  Z"
/>
<path fill="#fcfedc" d="
  M 461.06 98.87
  Q 459.94 99.34 458.21 98.05
  Q 456.44 96.74 455.87 96.41
  Q 444.39 89.92 432.59 84.13
  C 425.58 81.62 420.72 78.83 414.14 74.32
  Q 407.60 69.84 403.00 67.44
  C 383.43 57.20 362.45 51.00 340.66 48.02
  Q 313.86 44.35 284.96 46.95
  C 272.78 48.05 259.84 50.90 248.51 53.97
  Q 230.09 58.96 211.84 68.90
  C 206.67 71.71 201.57 76.15 196.45 78.95
  Q 193.04 80.83 184.52 84.35
  Q 172.03 90.21 161.79 96.03
  Q 159.13 97.54 155.13 101.12
  Q 154.20 101.95 153.90 100.97
  C 175.36 75.92 201.67 56.39 232.26 44.27
  C 273.50 27.94 319.53 24.64 362.42 36.64
  Q 404.26 48.35 437.07 75.19
  Q 448.73 84.73 461.06 98.87
  Z"
/>
<path fill="#aafb89" d="
  M 432.59 84.13
  Q 431.99 84.11 431.71 84.31
  A 0.64 0.64 0.0 0 0 431.53 85.13
  Q 431.96 85.92 432.07 86.85
  Q 433.54 100.15 427.95 112.38
  C 413.93 143.08 382.06 157.66 349.87 164.12
  Q 307.50 172.63 266.56 164.03
  C 234.67 157.34 201.28 141.71 188.08 110.73
  Q 183.05 98.93 184.52 84.35
  Q 193.04 80.83 196.45 78.95
  C 201.57 76.15 206.67 71.71 211.84 68.90
  Q 230.09 58.96 248.51 53.97
  C 259.84 50.90 272.78 48.05 284.96 46.95
  Q 313.86 44.35 340.66 48.02
  C 362.45 51.00 383.43 57.20 403.00 67.44
  Q 407.60 69.84 414.14 74.32
  C 420.72 78.83 425.58 81.62 432.59 84.13
  Z
  M 410.2514 109.7188
  A 18.19 14.73 4.6 0 0 393.3013 93.5774
  A 18.19 14.73 4.6 0 0 373.9886 106.8012
  A 18.19 14.73 4.6 0 0 390.9387 122.9426
  A 18.19 14.73 4.6 0 0 410.2514 109.7188
  Z
  M 242.8217 106.8076
  A 18.11 14.67 -4.6 0 0 223.5935 93.6373
  A 18.11 14.67 -4.6 0 0 206.7183 109.7124
  A 18.11 14.67 -4.6 0 0 225.9465 122.8827
  A 18.11 14.67 -4.6 0 0 242.8217 106.8076
  Z"
/>
<path fill="#80d275" d="
  M 432.59 84.13
  Q 444.39 89.92 455.87 96.41
  Q 456.44 96.74 458.21 98.05
  Q 459.94 99.34 461.06 98.87
  Q 469.55 108.39 476.82 119.43
  Q 487.74 136.02 492.71 152.52
  Q 495.02 160.20 495.48 170.46
  Q 493.35 175.71 492.19 181.27
  Q 491.28 185.58 490.21 188.60
  Q 488.97 192.09 486.88 195.55
  C 477.71 210.74 464.70 224.16 450.40 234.14
  Q 424.98 251.90 393.73 260.39
  Q 386.16 262.45 377.55 264.19
  C 361.39 267.46 362.99 289.70 379.96 288.73
  Q 384.86 288.45 391.76 286.61
  Q 402.27 283.80 410.65 281.17
  C 418.82 278.60 426.49 275.14 434.08 271.46
  Q 457.01 260.35 474.79 244.12
  C 483.08 236.55 491.02 226.89 496.52 216.63
  Q 499.76 210.58 500.74 207.76
  Q 505.64 193.60 506.00 178.36
  Q 511.80 177.08 517.52 178.90
  Q 527.36 182.03 534.38 190.35
  Q 541.88 199.26 543.18 208.75
  Q 542.16 211.09 541.82 213.79
  Q 541.39 217.19 540.63 218.76
  Q 539.13 221.88 537.05 224.34
  Q 536.48 225.01 536.14 225.79
  C 535.63 226.93 534.43 227.72 533.67 228.80
  C 531.04 232.50 528.24 235.60 526.08 239.86
  Q 524.12 243.72 522.46 247.46
  C 518.02 257.48 511.44 265.80 504.56 274.20
  C 499.44 280.44 493.53 286.20 487.73 291.96
  Q 461.52 316.79 428.88 332.13
  Q 425.50 333.72 414.71 338.09
  Q 382.81 350.98 352.51 354.82
  Q 325.89 358.18 301.00 357.71
  Q 265.86 357.03 230.76 347.80
  Q 201.43 340.09 172.98 324.25
  Q 134.05 301.98 106.08 266.83
  Q 105.41 260.51 99.75 256.80
  Q 98.30 255.84 96.61 256.23
  C 89.35 257.90 86.05 265.19 89.29 271.85
  C 91.16 275.67 95.84 276.25 99.77 275.80
  Q 103.62 275.45 104.76 279.51
  Q 106.93 287.32 100.93 291.28
  Q 100.28 287.58 98.08 285.93
  Q 93.19 282.25 88.40 284.57
  Q 83.43 286.98 82.75 291.92
  Q 81.64 299.93 82.09 309.49
  Q 82.29 313.58 84.85 316.31
  Q 83.24 318.26 80.71 319.00
  Q 80.24 319.14 79.89 319.50
  Q 78.54 320.94 77.14 321.04
  Q 68.67 306.89 66.03 294.01
  Q 64.87 288.34 64.49 278.23
  Q 64.39 275.61 65.04 271.83
  Q 65.58 268.65 65.73 265.40
  C 68.33 262.72 70.84 259.97 73.71 257.58
  Q 78.88 253.26 83.73 249.56
  A 1.51 1.50 -36.8 0 0 84.04 247.47
  C 75.40 235.57 70.72 220.35 73.89 205.80
  Q 76.95 191.75 90.43 182.94
  Q 99.52 177.01 110.14 177.88
  Q 109.75 181.02 110.16 183.74
  C 111.24 190.89 112.37 198.18 114.66 204.85
  C 120.05 220.60 131.04 234.54 144.26 246.48
  Q 155.75 256.86 171.45 265.72
  Q 182.12 271.74 189.81 275.09
  Q 205.56 281.95 225.60 287.06
  C 231.37 288.53 237.19 289.45 242.58 287.35
  C 251.25 283.96 252.26 272.91 245.32 267.29
  Q 241.93 264.55 235.73 263.18
  Q 229.13 261.72 221.66 259.79
  C 200.55 254.34 180.77 244.49 163.15 231.33
  Q 148.88 220.67 137.84 206.68
  Q 131.68 198.86 128.09 191.69
  Q 122.85 181.22 121.34 167.33
  Q 122.46 152.50 129.92 137.20
  Q 139.86 116.84 153.90 100.97
  Q 154.20 101.95 155.13 101.12
  Q 159.13 97.54 161.79 96.03
  Q 172.03 90.21 184.52 84.35
  Q 183.05 98.93 188.08 110.73
  C 201.28 141.71 234.67 157.34 266.56 164.03
  Q 307.50 172.63 349.87 164.12
  C 382.06 157.66 413.93 143.08 427.95 112.38
  Q 433.54 100.15 432.07 86.85
  Q 431.96 85.92 431.53 85.13
  A 0.64 0.64 0.0 0 1 431.71 84.31
  Q 431.99 84.11 432.59 84.13
  Z
  M 459.1832 125.5451
  A 7.05 6.77 25.5 0 0 455.7346 116.3995
  A 7.05 6.77 25.5 0 0 446.4568 119.4749
  A 7.05 6.77 25.5 0 0 449.9054 128.6205
  A 7.05 6.77 25.5 0 0 459.1832 125.5451
  Z
  M 168.98 122.94
  A 6.84 6.84 0.0 0 0 162.14 116.10
  A 6.84 6.84 0.0 0 0 155.30 122.94
  A 6.84 6.84 0.0 0 0 162.14 129.78
  A 6.84 6.84 0.0 0 0 168.98 122.94
  Z
  M 193.47 150.86
  A 11.08 11.08 0.0 0 0 182.39 139.78
  A 11.08 11.08 0.0 0 0 171.31 150.86
  A 11.08 11.08 0.0 0 0 182.39 161.94
  A 11.08 11.08 0.0 0 0 193.47 150.86
  Z
  M 389.4069 227.7083
  A 7.82 7.82 0.0 0 0 380.1636 221.6365
  L 364.3785 224.9055
  A 7.82 7.82 0.0 0 0 358.3068 234.1488
  L 358.4731 234.9517
  A 7.82 7.82 0.0 0 0 367.7164 241.0235
  L 383.5015 237.7545
  A 7.82 7.82 0.0 0 0 389.5732 228.5112
  L 389.4069 227.7083
  Z
  M 260.1323 235.5449
  A 8.33 8.10 -43.7 0 0 248.5139 235.4440
  A 8.33 8.10 -43.7 0 0 248.0877 247.0551
  A 8.33 8.10 -43.7 0 0 259.7061 247.1560
  A 8.33 8.10 -43.7 0 0 260.1323 235.5449
  Z"
/>
<ellipse fill="#fcfedc" cx="0.00" cy="0.00" transform="translate(392.12,108.26) rotate(4.6)" rx="18.19" ry="14.73"/>
<ellipse fill="#fcfedc" cx="0.00" cy="0.00" transform="translate(224.77,108.26) rotate(-4.6)" rx="18.11" ry="14.67"/>
<ellipse fill="#fcfedc" cx="0.00" cy="0.00" transform="translate(452.82,122.51) rotate(25.5)" rx="7.05" ry="6.77"/>
<circle fill="#fcfedc" cx="162.14" cy="122.94" r="6.84"/>
<circle fill="#fcfedc" cx="182.39" cy="150.86" r="11.08"/>
<path fill="#5aa873" d="
  M 121.34 167.33
  Q 122.85 181.22 128.09 191.69
  Q 131.68 198.86 137.84 206.68
  Q 148.88 220.67 163.15 231.33
  C 180.77 244.49 200.55 254.34 221.66 259.79
  Q 229.13 261.72 235.73 263.18
  Q 241.93 264.55 245.32 267.29
  C 252.26 272.91 251.25 283.96 242.58 287.35
  C 237.19 289.45 231.37 288.53 225.60 287.06
  Q 205.56 281.95 189.81 275.09
  Q 182.12 271.74 171.45 265.72
  Q 155.75 256.86 144.26 246.48
  C 131.04 234.54 120.05 220.60 114.66 204.85
  C 112.37 198.18 111.24 190.89 110.16 183.74
  Q 109.75 181.02 110.14 177.88
  L 115.10 178.69
  A 2.36 2.36 0.0 0 0 117.41 177.72
  Q 120.27 173.65 121.34 167.33
  Z"
/>
<path fill="#5aa873" d="
  M 495.48 170.46
  Q 497.44 175.51 500.17 178.86
  A 1.66 1.65 63.1 0 0 501.86 179.42
  L 506.00 178.36
  Q 505.64 193.60 500.74 207.76
  Q 499.76 210.58 496.52 216.63
  C 491.02 226.89 483.08 236.55 474.79 244.12
  Q 457.01 260.35 434.08 271.46
  C 426.49 275.14 418.82 278.60 410.65 281.17
  Q 402.27 283.80 391.76 286.61
  Q 384.86 288.45 379.96 288.73
  C 362.99 289.70 361.39 267.46 377.55 264.19
  Q 386.16 262.45 393.73 260.39
  Q 424.98 251.90 450.40 234.14
  C 464.70 224.16 477.71 210.74 486.88 195.55
  Q 488.97 192.09 490.21 188.60
  Q 491.28 185.58 492.19 181.27
  Q 493.35 175.71 495.48 170.46
  Z"
/>
<path fill="#68b973" d="
  M 543.18 208.75
  C 545.58 222.63 540.42 236.22 532.44 247.31
  A 1.49 1.47 -51.9 0 0 532.67 249.30
  Q 537.15 253.14 541.46 256.78
  Q 548.23 262.50 553.82 269.57
  Q 553.76 270.07 552.35 270.21
  Q 551.76 270.27 551.79 270.86
  Q 552.46 281.49 551.91 287.74
  Q 550.84 299.88 544.83 311.30
  Q 540.79 318.99 537.15 325.72
  Q 537.02 325.95 536.95 326.77
  L 535.40 329.40
  Q 529.44 325.06 525.64 318.53
  Q 528.75 316.13 529.10 312.84
  C 529.85 305.81 521.11 301.63 516.02 306.62
  Q 514.09 308.52 513.46 311.38
  Q 509.10 311.08 505.48 308.91
  Q 501.22 306.36 498.11 301.63
  Q 496.63 299.36 495.56 297.93
  Q 494.23 296.17 492.87 294.39
  Q 491.55 292.66 489.89 291.19
  Q 489.51 290.86 489.17 291.22
  Q 488.33 292.10 487.73 291.96
  C 493.53 286.20 499.44 280.44 504.56 274.20
  C 511.44 265.80 518.02 257.48 522.46 247.46
  Q 524.12 243.72 526.08 239.86
  C 528.24 235.60 531.04 232.50 533.67 228.80
  C 534.43 227.72 535.63 226.93 536.14 225.79
  Q 536.48 225.01 537.05 224.34
  Q 539.13 221.88 540.63 218.76
  Q 541.39 217.19 541.82 213.79
  Q 542.16 211.09 543.18 208.75
  Z"
/>
<rect fill="#539e71" x="-15.88" y="-8.23" transform="translate(373.94,231.33) rotate(-11.7)" width="31.76" height="16.46" rx="7.82"/>
<ellipse fill="#539e71" cx="0.00" cy="0.00" transform="translate(254.11,241.30) rotate(-43.7)" rx="8.33" ry="8.10"/>
<path fill="#488d6e" d="
  M 106.08 266.83
  L 99.77 275.80
  C 95.84 276.25 91.16 275.67 89.29 271.85
  C 86.05 265.19 89.35 257.90 96.61 256.23
  Q 98.30 255.84 99.75 256.80
  Q 105.41 260.51 106.08 266.83
  Z"
/>
<path fill="#488d6e" d="
  M 65.73 265.40
  Q 65.58 268.65 65.04 271.83
  Q 64.39 275.61 64.49 278.23
  Q 64.87 288.34 66.03 294.01
  Q 68.67 306.89 77.14 321.04
  Q 77.90 322.96 79.18 325.00
  Q 87.55 338.38 98.41 349.84
  C 118.75 371.30 142.61 388.27 168.68 402.09
  Q 190.26 413.51 213.50 421.18
  Q 224.33 424.75 235.22 428.19
  Q 234.84 428.17 234.58 428.26
  Q 234.00 428.44 234.37 428.92
  Q 234.76 429.45 235.28 429.83
  A 1.45 1.45 0.0 0 1 235.03 432.31
  C 224.58 437.14 213.67 438.41 201.77 439.12
  C 171.46 440.92 140.61 435.81 113.21 422.33
  L 103.20 416.27
  Q 92.91 411.55 81.91 403.59
  C 66.11 392.15 50.91 378.83 41.67 362.31
  Q 37.23 354.38 31.57 342.00
  Q 36.42 298.08 65.73 265.40
  Z"
/>
<path fill="#5aa873" d="
  M 106.08 266.83
  Q 134.05 301.98 172.98 324.25
  Q 171.89 324.41 170.81 324.66
  Q 170.39 324.75 170.73 324.49
  Q 170.90 324.35 170.62 324.16
  Q 170.09 323.79 169.98 324.43
  L 169.56 327.00
  Q 169.48 327.49 169.00 327.38
  Q 168.82 327.34 168.66 327.30
  Q 167.98 327.10 168.08 327.80
  Q 168.20 328.69 168.59 329.44
  A 1.73 1.73 0.0 0 1 167.56 331.89
  Q 166.18 332.31 166.14 333.68
  Q 166.10 334.66 165.75 335.49
  Q 165.62 335.78 165.88 335.97
  Q 166.01 336.07 166.16 336.12
  Q 166.96 336.42 166.27 336.92
  Q 164.15 338.44 165.23 340.98
  Q 165.63 341.92 165.79 343.03
  Q 165.92 343.97 165.84 344.90
  Q 165.81 345.27 166.08 345.53
  Q 166.41 345.86 166.52 346.33
  Q 167.22 349.25 168.09 352.37
  Q 168.41 353.50 168.38 354.60
  Q 168.34 355.79 168.41 357.00
  Q 168.51 358.70 168.31 360.49
  Q 168.10 362.47 168.09 364.38
  Q 168.09 364.88 168.33 365.33
  Q 168.99 366.56 168.82 367.78
  Q 168.71 368.54 168.76 369.30
  C 168.84 370.43 168.88 371.52 168.59 372.64
  Q 168.29 373.80 169.23 374.49
  Q 169.59 374.74 169.15 374.76
  Q 168.89 374.77 168.68 375.04
  Q 168.44 375.35 168.36 375.74
  Q 167.41 380.36 168.94 384.71
  Q 169.30 385.72 168.90 386.74
  Q 168.73 387.16 168.81 387.62
  Q 169.71 392.83 170.85 397.74
  C 171.13 398.95 171.02 399.90 170.96 401.09
  Q 170.93 401.57 170.54 401.84
  Q 169.81 402.35 168.68 402.09
  C 142.61 388.27 118.75 371.30 98.41 349.84
  Q 87.55 338.38 79.18 325.00
  Q 77.90 322.96 77.14 321.04
  Q 78.54 320.94 79.89 319.50
  Q 80.24 319.14 80.71 319.00
  Q 83.24 318.26 84.85 316.31
  Q 91.75 321.06 97.85 315.46
  C 98.94 314.46 99.69 312.56 99.75 311.25
  Q 100.27 300.33 100.93 291.28
  Q 106.93 287.32 104.76 279.51
  Q 103.62 275.45 99.77 275.80
  L 106.08 266.83
  Z"
/>
<path fill="#488d6e" d="
  M 553.82 269.57
  Q 557.13 273.09 560.05 277.22
  Q 580.91 306.70 584.97 343.38
  Q 582.47 346.42 581.15 350.39
  Q 579.71 354.71 578.81 356.36
  Q 568.44 375.33 552.24 389.74
  Q 538.85 401.66 523.61 411.00
  C 520.31 413.02 515.81 415.27 512.01 417.60
  Q 509.93 418.13 508.60 418.86
  Q 497.33 425.01 485.34 430.45
  Q 484.34 430.25 483.01 430.68
  Q 446.75 442.36 408.74 438.76
  Q 398.40 437.78 388.47 434.79
  Q 383.26 433.23 378.74 430.27
  C 377.52 429.48 376.65 429.54 375.28 429.61
  Q 382.08 427.56 388.93 425.57
  Q 412.19 418.83 434.29 408.88
  Q 464.57 394.84 490.66 374.23
  Q 498.56 367.99 505.16 361.60
  C 513.54 353.48 521.30 345.68 528.24 337.16
  Q 529.24 335.93 531.13 334.50
  Q 532.67 333.33 534.05 331.80
  Q 530.21 337.81 529.83 340.34
  C 528.73 347.54 536.31 354.23 543.19 350.85
  Q 546.05 349.45 547.63 346.86
  C 552.56 338.79 557.99 331.28 561.48 322.60
  C 564.17 315.91 558.81 308.74 551.46 310.26
  Q 548.01 310.97 546.16 313.71
  Q 542.77 318.73 539.16 325.14
  Q 538.78 325.83 536.95 326.77
  Q 537.02 325.95 537.15 325.72
  Q 540.79 318.99 544.83 311.30
  Q 550.84 299.88 551.91 287.74
  Q 552.46 281.49 551.79 270.86
  Q 551.76 270.27 552.35 270.21
  Q 553.76 270.07 553.82 269.57
  Z"
/>
<path fill="#366662" d="
  M 100.93 291.28
  Q 100.27 300.33 99.75 311.25
  C 99.69 312.56 98.94 314.46 97.85 315.46
  Q 91.75 321.06 84.85 316.31
  Q 82.29 313.58 82.09 309.49
  Q 81.64 299.93 82.75 291.92
  Q 83.43 286.98 88.40 284.57
  Q 93.19 282.25 98.08 285.93
  Q 100.28 287.58 100.93 291.28
  Z"
/>
<path fill="#5aa873" d="
  M 513.46 311.38
  Q 513.65 316.32 517.37 318.63
  Q 521.11 320.94 525.64 318.53
  Q 529.44 325.06 535.40 329.40
  L 534.05 331.80
  Q 532.67 333.33 531.13 334.50
  Q 529.24 335.93 528.24 337.16
  C 521.30 345.68 513.54 353.48 505.16 361.60
  Q 498.56 367.99 490.66 374.23
  Q 464.57 394.84 434.29 408.88
  Q 432.83 408.68 432.17 408.55
  Q 430.57 408.23 432.06 407.56
  Q 432.76 407.25 432.76 406.28
  C 432.78 404.34 433.83 402.18 435.07 400.80
  Q 436.28 399.46 437.08 397.80
  Q 438.80 394.24 441.24 390.90
  Q 441.56 390.46 441.60 389.92
  Q 441.65 388.93 442.21 388.18
  Q 442.51 387.77 442.58 387.28
  Q 442.92 385.02 443.60 382.80
  Q 443.99 381.53 444.04 380.12
  Q 444.09 378.91 444.32 377.75
  Q 444.63 376.12 444.32 373.98
  Q 443.92 371.23 443.50 368.73
  Q 443.33 367.77 442.94 366.93
  Q 442.54 366.05 442.80 365.12
  A 1.42 1.42 0.0 0 0 442.43 363.72
  Q 441.99 363.28 441.99 362.70
  Q 441.99 360.05 441.47 357.71
  A 0.60 0.60 0.0 0 0 441.14 357.31
  Q 440.66 357.09 440.70 356.53
  Q 440.74 355.97 439.90 354.16
  Q 439.69 353.70 439.21 353.55
  Q 437.90 353.16 437.65 351.78
  Q 437.55 351.26 437.10 350.99
  L 433.44 348.81
  Q 432.99 348.54 432.47 348.64
  Q 431.60 348.81 431.03 348.10
  Q 430.66 347.64 430.39 348.17
  Q 430.11 348.72 429.51 348.74
  Q 428.97 348.76 428.76 348.26
  L 426.87 343.88
  A 1.18 1.17 0.8 0 0 426.26 343.26
  Q 425.75 343.05 425.74 342.56
  Q 425.73 342.21 425.60 341.85
  Q 424.72 339.33 422.76 337.85
  Q 422.28 337.48 422.12 336.94
  Q 421.79 335.85 420.93 336.60
  Q 420.11 337.31 419.12 337.32
  Q 418.52 337.33 418.14 337.79
  Q 417.73 338.30 416.98 338.25
  Q 416.02 338.18 414.71 338.09
  Q 425.50 333.72 428.88 332.13
  Q 461.52 316.79 487.73 291.96
  Q 488.33 292.10 489.17 291.22
  Q 489.51 290.86 489.89 291.19
  Q 491.55 292.66 492.87 294.39
  Q 494.23 296.17 495.56 297.93
  Q 496.63 299.36 498.11 301.63
  Q 501.22 306.36 505.48 308.91
  Q 509.10 311.08 513.46 311.38
  Z"
/>
<path fill="#366662" d="
  M 525.64 318.53
  Q 521.11 320.94 517.37 318.63
  Q 513.65 316.32 513.46 311.38
  Q 514.09 308.52 516.02 306.62
  C 521.11 301.63 529.85 305.81 529.10 312.84
  Q 528.75 316.13 525.64 318.53
  Z"
/>
<path fill="#366662" d="
  M 534.05 331.80
  L 535.40 329.40
  L 536.95 326.77
  Q 538.78 325.83 539.16 325.14
  Q 542.77 318.73 546.16 313.71
  Q 548.01 310.97 551.46 310.26
  C 558.81 308.74 564.17 315.91 561.48 322.60
  C 557.99 331.28 552.56 338.79 547.63 346.86
  Q 546.05 349.45 543.19 350.85
  C 536.31 354.23 528.73 347.54 529.83 340.34
  Q 530.21 337.81 534.05 331.80
  Z"
/>
<path fill="#539e71" d="
  M 172.98 324.25
  Q 201.43 340.09 230.76 347.80
  Q 265.86 357.03 301.00 357.71
  Q 325.89 358.18 352.51 354.82
  Q 382.81 350.98 414.71 338.09
  Q 416.02 338.18 416.98 338.25
  Q 417.73 338.30 418.14 337.79
  Q 418.52 337.33 419.12 337.32
  Q 420.11 337.31 420.93 336.60
  Q 421.79 335.85 422.12 336.94
  Q 422.28 337.48 422.76 337.85
  Q 424.72 339.33 425.60 341.85
  Q 425.73 342.21 425.74 342.56
  Q 425.75 343.05 426.26 343.26
  A 1.18 1.17 0.8 0 1 426.87 343.88
  L 428.76 348.26
  Q 428.97 348.76 429.51 348.74
  Q 430.11 348.72 430.39 348.17
  Q 430.66 347.64 431.03 348.10
  Q 431.60 348.81 432.47 348.64
  Q 432.99 348.54 433.44 348.81
  L 437.10 350.99
  Q 437.55 351.26 437.65 351.78
  Q 437.90 353.16 439.21 353.55
  Q 439.69 353.70 439.90 354.16
  Q 440.74 355.97 440.70 356.53
  Q 440.66 357.09 441.14 357.31
  A 0.60 0.60 0.0 0 1 441.47 357.71
  Q 441.99 360.05 441.99 362.70
  Q 441.99 363.28 442.43 363.72
  A 1.42 1.42 0.0 0 1 442.80 365.12
  Q 442.54 366.05 442.94 366.93
  Q 443.33 367.77 443.50 368.73
  Q 443.92 371.23 444.32 373.98
  Q 444.63 376.12 444.32 377.75
  Q 444.09 378.91 444.04 380.12
  Q 443.99 381.53 443.60 382.80
  Q 442.92 385.02 442.58 387.28
  Q 442.51 387.77 442.21 388.18
  Q 441.65 388.93 441.60 389.92
  Q 441.56 390.46 441.24 390.90
  Q 438.80 394.24 437.08 397.80
  Q 436.28 399.46 435.07 400.80
  C 433.83 402.18 432.78 404.34 432.76 406.28
  Q 432.76 407.25 432.06 407.56
  Q 430.57 408.23 432.17 408.55
  Q 432.83 408.68 434.29 408.88
  Q 412.19 418.83 388.93 425.57
  Q 382.08 427.56 375.28 429.61
  Q 305.03 446.31 235.22 428.19
  Q 224.33 424.75 213.50 421.18
  Q 190.26 413.51 168.68 402.09
  Q 169.81 402.35 170.54 401.84
  Q 170.93 401.57 170.96 401.09
  C 171.02 399.90 171.13 398.95 170.85 397.74
  Q 169.71 392.83 168.81 387.62
  Q 168.73 387.16 168.90 386.74
  Q 169.30 385.72 168.94 384.71
  Q 167.41 380.36 168.36 375.74
  Q 168.44 375.35 168.68 375.04
  Q 168.89 374.77 169.15 374.76
  Q 169.59 374.74 169.23 374.49
  Q 168.29 373.80 168.59 372.64
  C 168.88 371.52 168.84 370.43 168.76 369.30
  Q 168.71 368.54 168.82 367.78
  Q 168.99 366.56 168.33 365.33
  Q 168.09 364.88 168.09 364.38
  Q 168.10 362.47 168.31 360.49
  Q 168.51 358.70 168.41 357.00
  Q 168.34 355.79 168.38 354.60
  Q 168.41 353.50 168.09 352.37
  Q 167.22 349.25 166.52 346.33
  Q 166.41 345.86 166.08 345.53
  Q 165.81 345.27 165.84 344.90
  Q 165.92 343.97 165.79 343.03
  Q 165.63 341.92 165.23 340.98
  Q 164.15 338.44 166.27 336.92
  Q 166.96 336.42 166.16 336.12
  Q 166.01 336.07 165.88 335.97
  Q 165.62 335.78 165.75 335.49
  Q 166.10 334.66 166.14 333.68
  Q 166.18 332.31 167.56 331.89
  A 1.73 1.73 0.0 0 0 168.59 329.44
  Q 168.20 328.69 168.08 327.80
  Q 167.98 327.10 168.66 327.30
  Q 168.82 327.34 169.00 327.38
  Q 169.48 327.49 169.56 327.00
  L 169.98 324.43
  Q 170.09 323.79 170.62 324.16
  Q 170.90 324.35 170.73 324.49
  Q 170.39 324.75 170.81 324.66
  Q 171.89 324.41 172.98 324.25
  Z
  M 332.07 391.29
  Q 317.53 393.94 300.45 393.30
  C 291.65 392.98 282.53 391.34 273.91 390.11
  C 267.20 389.16 262.86 395.30 263.88 401.61
  C 264.76 407.00 270.27 409.90 275.26 410.57
  C 285.26 411.91 293.79 413.48 299.28 413.86
  Q 317.07 415.11 338.56 410.98
  C 344.69 409.80 350.21 407.06 350.07 399.93
  Q 349.96 394.26 344.37 390.83
  C 341.77 389.23 335.05 390.75 332.07 391.29
  Z"
/>
<path fill="#366662" d="
  M 31.57 342.00
  Q 37.23 354.38 41.67 362.31
  C 50.91 378.83 66.11 392.15 81.91 403.59
  Q 92.91 411.55 103.20 416.27
  Q 101.18 417.20 98.56 419.07
  C 89.85 425.31 98.45 435.01 104.32 438.56
  C 108.83 441.30 115.68 440.32 117.75 434.76
  C 119.45 430.21 115.48 425.80 113.21 422.33
  C 140.61 435.81 171.46 440.92 201.77 439.12
  C 213.67 438.41 224.58 437.14 235.03 432.31
  A 1.45 1.45 0.0 0 0 235.28 429.83
  Q 234.76 429.45 234.37 428.92
  Q 234.00 428.44 234.58 428.26
  Q 234.84 428.17 235.22 428.19
  Q 305.03 446.31 375.28 429.61
  C 376.65 429.54 377.52 429.48 378.74 430.27
  Q 383.26 433.23 388.47 434.79
  Q 398.40 437.78 408.74 438.76
  Q 446.75 442.36 483.01 430.68
  Q 484.34 430.25 485.34 430.45
  Q 484.13 433.09 482.45 435.89
  Q 480.95 438.41 481.72 440.51
  Q 485.31 450.27 494.99 445.78
  Q 502.95 442.08 511.10 436.96
  Q 516.06 433.84 517.49 430.98
  Q 519.96 426.02 516.73 420.98
  C 516.01 419.86 514.98 419.07 514.19 418.01
  Q 513.88 417.61 513.38 417.61
  L 512.01 417.60
  C 515.81 415.27 520.31 413.02 523.61 411.00
  Q 538.85 401.66 552.24 389.74
  Q 568.44 375.33 578.81 356.36
  Q 579.71 354.71 581.15 350.39
  Q 582.47 346.42 584.97 343.38
  Q 589.11 375.42 579.10 405.79
  C 572.44 426.00 560.79 444.53 546.01 460.00
  Q 532.27 474.39 518.39 483.47
  C 496.14 498.03 469.87 506.20 443.36 504.90
  Q 414.17 503.48 389.48 491.05
  C 382.22 487.39 376.97 482.52 371.69 476.50
  Q 371.34 476.10 370.80 476.04
  Q 369.50 475.90 368.36 476.45
  Q 354.58 483.13 338.26 486.82
  Q 300.13 495.46 264.17 482.88
  Q 255.75 479.93 247.29 476.12
  A 2.09 2.09 0.0 0 0 244.81 476.71
  Q 235.81 487.82 221.35 494.04
  Q 202.33 502.22 181.12 504.39
  Q 138.90 508.71 101.91 485.75
  C 66.71 463.90 40.28 428.38 32.87 387.27
  Q 28.80 364.64 31.57 342.00
  Z"
/>
<path fill="#958b7f" fill-opacity="0.996" d="
  M 4.24 388.98
  Q 11.17 424.59 28.33 452.40
  Q 35.84 464.58 50.95 481.24
  Q 53.91 484.50 57.28 487.28
  C 60.41 489.85 63.06 492.70 66.16 495.26
  Q 82.20 508.49 100.48 517.11
  Q 115.64 524.26 132.98 528.80
  Q 164.10 536.93 195.54 530.18
  A 1.98 1.98 0.0 0 1 197.79 531.38
  C 199.67 536.02 201.76 540.78 204.26 545.08
  Q 224.00 579.13 258.51 599.17
  C 259.94 600.00 259.73 601.12 259.72 602.52
  Q 259.62 620.23 258.97 638.00
  L 258.95 600.82
  Q 258.95 600.31 258.50 600.06
  Q 241.87 590.55 229.62 578.16
  Q 228.86 577.39 227.92 576.86
  C 227.01 576.35 226.58 575.32 225.87 574.54
  C 222.44 570.84 218.92 567.43 215.77 563.39
  Q 206.39 551.35 200.20 539.11
  Q 199.92 538.56 199.97 537.93
  Q 200.01 537.53 199.69 537.29
  Q 198.93 536.70 199.01 535.74
  Q 199.06 535.03 198.36 534.92
  Q 198.30 534.91 198.26 534.88
  Q 197.98 534.67 198.05 534.33
  Q 198.23 533.38 197.44 532.90
  Q 197.05 532.65 197.02 532.20
  Q 196.99 531.71 196.74 531.30
  A 0.69 0.67 -11.8 0 0 196.24 530.98
  Q 193.84 530.68 192.25 531.76
  A 1.66 1.66 0.0 0 1 191.11 532.03
  Q 188.33 531.64 186.11 532.76
  Q 185.50 533.07 184.82 533.00
  C 181.16 532.63 178.17 534.09 174.57 534.04
  Q 169.00 533.95 163.54 534.04
  Q 158.63 534.11 152.87 533.35
  Q 135.50 531.06 120.77 525.94
  C 115.59 524.14 110.07 522.49 105.05 520.13
  C 88.38 512.32 73.52 503.02 60.22 490.66
  C 57.28 487.93 52.83 484.71 49.82 480.95
  C 46.70 477.06 43.18 473.79 40.17 469.90
  Q 36.42 465.07 32.70 460.17
  C 31.14 458.12 29.92 455.92 28.47 453.80
  Q 23.43 446.43 19.01 436.96
  Q 18.39 435.63 17.78 434.25
  Q 10.61 417.75 6.15 399.30
  Q 4.56 392.72 4.24 388.98
  Z"
/>
<path fill="#366662" d="
  M 332.07 391.29
  C 335.05 390.75 341.77 389.23 344.37 390.83
  Q 349.96 394.26 350.07 399.93
  C 350.21 407.06 344.69 409.80 338.56 410.98
  Q 317.07 415.11 299.28 413.86
  C 293.79 413.48 285.26 411.91 275.26 410.57
  C 270.27 409.90 264.76 407.00 263.88 401.61
  C 262.86 395.30 267.20 389.16 273.91 390.11
  C 282.53 391.34 291.65 392.98 300.45 393.30
  Q 317.53 393.94 332.07 391.29
  Z"
/>
<path fill="#305152" d="
  M 103.20 416.27
  L 113.21 422.33
  C 115.48 425.80 119.45 430.21 117.75 434.76
  C 115.68 440.32 108.83 441.30 104.32 438.56
  C 98.45 435.01 89.85 425.31 98.56 419.07
  Q 101.18 417.20 103.20 416.27
  Z"
/>
<path fill="#305152" d="
  M 512.01 417.60
  L 513.38 417.61
  Q 513.88 417.61 514.19 418.01
  C 514.98 419.07 516.01 419.86 516.73 420.98
  Q 519.96 426.02 517.49 430.98
  Q 516.06 433.84 511.10 436.96
  Q 502.95 442.08 494.99 445.78
  Q 485.31 450.27 481.72 440.51
  Q 480.95 438.41 482.45 435.89
  Q 484.13 433.09 485.34 430.45
  Q 497.33 425.01 508.60 418.86
  Q 509.93 418.13 512.01 417.60
  Z"
/>
<path fill="#904444" d="
  M 358.11 506.89
  L 356.11 506.96
  Q 356.36 504.92 358.11 506.89
  Z"
/>
<path fill="#904444" d="
  M 333.16 559.31
  Q 331.80 556.41 324.78 556.94
  A 1.64 1.62 -4.2 0 1 323.02 555.43
  L 322.48 547.95
  A 1.03 1.03 0.0 0 0 320.96 547.11
  C 312.47 551.66 304.01 550.66 295.07 547.52
  A 0.79 0.79 0.0 0 0 294.02 548.24
  Q 293.92 552.86 294.67 556.84
  Q 295.21 559.69 293.29 562.46
  Q 292.95 562.96 292.34 563.05
  L 283.47 564.36
  L 283.32 515.00
  Q 283.32 514.28 284.02 514.45
  C 288.61 515.57 293.30 516.61 297.95 517.09
  Q 309.96 518.31 321.26 516.40
  Q 326.57 515.51 332.25 514.19
  A 0.64 0.63 -6.6 0 1 333.03 514.80
  L 333.16 559.31
  Z"
/>
<path fill="#904444" d="
  M 378.32 518.69
  Q 378.24 517.71 377.80 517.16
  Q 379.76 516.23 378.32 518.69
  Z"
/>
<path fill="#904444" d="
  M 376.89 522.25
  Q 373.07 531.05 366.30 537.50
  L 376.89 522.25
  Z"
/>
<path fill="#904444" d="
  M 371.50 568.44
  C 369.30 565.30 367.09 562.25 364.53 559.47
  Q 363.88 558.78 364.66 558.23
  C 377.03 549.47 388.54 537.20 394.69 523.38
  A 0.26 0.26 0.0 0 1 395.03 523.24
  L 403.41 526.76
  Q 403.63 526.86 403.53 527.07
  Q 396.62 540.85 391.28 548.65
  Q 384.31 558.81 373.14 568.64
  A 1.11 1.11 0.0 0 1 371.50 568.44
  Z"
/>
<path fill="#904444" d="
  M 250.75 558.89
  Q 251.19 563.51 255.65 566.32
  Q 268.88 574.66 283.75 578.59
  L 283.30 593.01
  Q 264.59 585.60 248.56 573.70
  Q 246.67 572.29 244.95 569.53
  Q 244.71 569.14 244.29 568.98
  Q 241.71 567.97 238.66 564.80
  Q 221.93 547.42 213.37 526.74
  Q 213.28 526.52 213.50 526.43
  L 220.94 523.34
  Q 221.22 523.22 221.36 523.50
  Q 230.27 540.98 244.65 553.35
  Q 248.97 557.08 250.75 558.89
  Z"
/>
<path fill="#958b7f" fill-opacity="0.996" d="
  M 364.20 539.59
  L 357.11 545.79
  Q 360.01 541.97 364.20 539.59
  Z"
/>
<path fill="#bb7361" d="
  M 333.16 559.31
  Q 332.83 561.14 333.22 562.99
  Q 330.36 566.12 322.91 567.00
  Q 323.39 561.20 323.11 559.50
  Q 322.74 557.32 322.11 555.27
  Q 321.89 554.54 321.13 554.55
  L 309.08 554.63
  A 3.52 3.50 -62.2 0 0 307.09 555.25
  Q 302.12 558.62 296.85 561.93
  C 295.74 562.62 294.71 562.77 293.64 563.34
  Q 293.14 563.60 293.16 564.15
  L 294.17 596.23
  Q 293.87 596.55 293.49 596.22
  Q 290.11 595.70 286.62 595.20
  Q 284.43 594.89 283.30 593.01
  L 283.75 578.59
  Q 284.76 578.75 285.40 577.68
  Q 285.68 577.22 285.33 576.81
  L 283.26 574.38
  L 283.47 564.36
  L 292.34 563.05
  Q 292.95 562.96 293.29 562.46
  Q 295.21 559.69 294.67 556.84
  Q 293.92 552.86 294.02 548.24
  A 0.79 0.79 0.0 0 1 295.07 547.52
  C 304.01 550.66 312.47 551.66 320.96 547.11
  A 1.03 1.03 0.0 0 1 322.48 547.95
  L 323.02 555.43
  A 1.64 1.62 -4.2 0 0 324.78 556.94
  Q 331.80 556.41 333.16 559.31
  Z"
/>
<path fill="#e1a978" d="
  M 322.91 567.00
  Q 322.58 568.03 321.58 568.63
  Q 315.72 572.15 310.91 576.24
  Q 310.43 576.66 311.04 576.48
  Q 312.56 576.06 314.15 575.37
  Q 316.34 574.41 323.01 573.38
  Q 323.45 574.25 323.33 575.24
  Q 323.13 577.01 323.13 577.05
  Q 323.18 598.30 322.91 607.16
  Q 322.89 607.90 322.34 608.41
  L 315.32 611.66
  A 0.60 0.60 0.0 0 0 315.63 612.80
  Q 319.16 612.44 322.64 613.26
  L 322.99 634.30
  A 0.88 0.88 0.0 0 1 322.08 635.20
  Q 319.17 635.09 316.66 634.84
  Q 306.36 633.81 295.56 632.42
  A 1.55 1.55 0.0 0 1 294.20 630.89
  L 293.87 601.90
  L 305.96 596.89
  Q 306.54 596.65 305.91 596.66
  Q 300.91 596.72 296.01 597.07
  Q 294.94 597.15 294.17 596.23
  L 293.16 564.15
  Q 293.14 563.60 293.64 563.34
  C 294.71 562.77 295.74 562.62 296.85 561.93
  Q 302.12 558.62 307.09 555.25
  A 3.52 3.50 -62.2 0 1 309.08 554.63
  L 321.13 554.55
  Q 321.89 554.54 322.11 555.27
  Q 322.74 557.32 323.11 559.50
  Q 323.39 561.20 322.91 567.00
  Z"
/>
<path fill="#e1a978" d="
  M 250.75 558.89
  Q 258.55 563.63 266.26 567.24
  Q 274.07 570.90 283.26 574.38
  L 285.33 576.81
  Q 285.68 577.22 285.40 577.68
  Q 284.76 578.75 283.75 578.59
  Q 268.88 574.66 255.65 566.32
  Q 251.19 563.51 250.75 558.89
  Z"
/>
<path fill="#904444" d="
  M 333.47 591.63
  L 332.92 574.09
  A 0.77 0.77 0.0 0 1 334.15 573.44
  Q 334.82 573.93 335.60 573.73
  C 345.11 571.26 354.08 569.00 361.68 562.59
  Q 362.40 561.98 362.40 561.08
  Q 362.41 560.72 362.06 560.63
  Q 361.81 560.58 361.64 560.32
  L 362.45 560.20
  A 0.51 0.51 0.0 0 1 363.04 560.68
  Q 363.07 561.59 363.73 562.15
  Q 364.16 562.52 364.33 563.06
  Q 365.73 567.47 369.31 570.03
  A 0.97 0.97 0.0 0 1 369.38 571.54
  Q 365.41 575.03 361.08 577.86
  Q 348.03 586.39 333.47 591.63
  Z"
/>
<path fill="#bb7361" d="
  M 361.64 560.32
  Q 361.81 560.58 362.06 560.63
  Q 362.41 560.72 362.40 561.08
  Q 362.40 561.98 361.68 562.59
  C 354.08 569.00 345.11 571.26 335.60 573.73
  Q 334.82 573.93 334.15 573.44
  A 0.77 0.77 0.0 0 0 332.92 574.09
  L 333.47 591.63
  L 333.31 606.73
  Q 326.96 606.28 322.34 608.41
  Q 322.89 607.90 322.91 607.16
  Q 323.18 598.30 323.13 577.05
  Q 323.13 577.01 323.33 575.24
  Q 323.45 574.25 323.01 573.38
  Q 327.31 572.03 332.39 572.00
  Q 332.83 572.00 333.13 572.32
  Q 333.27 572.47 333.32 572.68
  Q 333.43 573.18 333.86 572.89
  Q 334.08 572.73 334.02 572.42
  Q 348.60 568.14 361.64 560.32
  Z"
/>
<path fill="#904444" d="
  M 333.22 562.99
  Q 333.20 569.08 333.14 570.75
  Q 333.08 572.38 334.02 572.42
  Q 334.08 572.73 333.86 572.89
  Q 333.43 573.18 333.32 572.68
  Q 333.27 572.47 333.13 572.32
  Q 332.83 572.00 332.39 572.00
  Q 327.31 572.03 323.01 573.38
  Q 316.34 574.41 314.15 575.37
  Q 312.56 576.06 311.04 576.48
  Q 310.43 576.66 310.91 576.24
  Q 315.72 572.15 321.58 568.63
  Q 322.58 568.03 322.91 567.00
  Q 330.36 566.12 333.22 562.99
  Z"
/>
<path fill="#fcfedc" d="
  M 399.84 564.08
  Q 399.73 563.71 400.26 564.05
  C 399.49 565.09 399.04 566.31 398.15 567.20
  C 395.59 569.77 392.13 572.62 390.28 575.74
  C 389.37 577.28 387.52 577.76 386.25 579.07
  Q 380.00 585.51 371.99 590.51
  L 371.94 590.00
  Q 387.80 579.01 399.84 564.08
  Z"
/>
<path fill="#e1a978" d="
  M 371.94 590.00
  L 371.99 590.51
  Q 366.25 594.84 360.02 598.67
  Q 357.88 599.99 357.39 601.23
  Q 356.71 602.97 357.75 604.89
  Q 357.99 605.33 357.98 605.84
  L 357.84 655.47
  Q 357.09 630.24 357.01 605.01
  C 357.00 603.96 357.29 602.94 356.84 601.95
  A 2.12 2.12 0.0 0 1 357.62 599.30
  L 371.94 590.00
  Z"
/>
<path fill="#904444" d="
  M 283.30 593.01
  Q 284.43 594.89 286.62 595.20
  Q 290.11 595.70 293.49 596.22
  L 294.01 596.76
  Q 294.33 597.09 294.41 597.53
  Q 294.92 600.17 293.77 602.64
  Q 289.15 605.45 283.47 605.93
  L 283.30 593.01
  Z"
/>
<path fill="#ab5f5a" d="
  M 293.49 596.22
  Q 293.87 596.55 294.17 596.23
  Q 294.94 597.15 296.01 597.07
  Q 300.91 596.72 305.91 596.66
  Q 306.54 596.65 305.96 596.89
  L 293.87 601.90
  Q 293.82 602.27 293.77 602.64
  Q 294.92 600.17 294.41 597.53
  Q 294.33 597.09 294.01 596.76
  L 293.49 596.22
  Z"
/>
<path fill="#bb7361" d="
  M 293.77 602.64
  Q 293.82 602.27 293.87 601.90
  L 294.20 630.89
  A 1.55 1.55 0.0 0 0 295.56 632.42
  Q 306.36 633.81 316.66 634.84
  Q 319.17 635.09 322.08 635.20
  A 0.88 0.88 0.0 0 0 322.99 634.30
  L 322.64 613.26
  L 332.32 613.71
  Q 332.84 613.74 333.09 614.19
  Q 333.34 614.64 333.42 615.29
  L 333.64 635.65
  L 324.32 635.65
  Q 322.86 635.64 322.90 637.11
  Q 323.10 644.53 322.11 651.02
  A 0.58 0.57 9.7 0 0 322.58 651.67
  L 333.73 653.61
  L 335.61 695.21
  L 323.12 695.13
  L 322.98 655.03
  Q 322.97 653.68 321.63 653.79
  Q 317.92 654.10 313.36 653.68
  Q 313.25 653.67 313.22 653.56
  L 313.16 653.29
  A 0.37 0.37 0.0 0 1 313.50 652.83
  Q 315.96 652.71 317.99 652.35
  Q 320.46 651.92 318.10 651.09
  Q 315.12 650.03 311.65 649.44
  C 306.09 648.51 300.68 647.39 295.03 646.79
  Q 293.87 646.67 293.83 647.83
  Q 293.36 659.63 294.34 671.99
  Q 289.20 671.61 282.41 673.19
  L 282.98 644.59
  Q 288.26 645.97 293.59 645.89
  A 0.49 0.49 0.0 0 0 294.07 645.40
  L 293.99 633.18
  A 1.78 1.77 -89.7 0 0 292.25 631.41
  L 283.15 631.24
  L 283.47 605.93
  Q 289.15 605.45 293.77 602.64
  Z"
/>
<path fill="#904444" d="
  M 333.31 606.73
  L 333.42 615.29
  Q 333.34 614.64 333.09 614.19
  Q 332.84 613.74 332.32 613.71
  L 322.64 613.26
  Q 319.16 612.44 315.63 612.80
  A 0.60 0.60 0.0 0 1 315.32 611.66
  L 322.34 608.41
  Q 326.96 606.28 333.31 606.73
  Z"
/>
<path fill="#904444" d="
  M 283.15 631.24
  L 292.25 631.41
  A 1.78 1.77 -89.7 0 1 293.99 633.18
  L 294.07 645.40
  A 0.49 0.49 0.0 0 1 293.59 645.89
  Q 288.26 645.97 282.98 644.59
  L 283.15 631.24
  Z"
/>
<path fill="#904444" d="
  M 333.64 635.65
  L 333.73 653.61
  L 322.58 651.67
  A 0.58 0.57 9.7 0 1 322.11 651.02
  Q 323.10 644.53 322.90 637.11
  Q 322.86 635.64 324.32 635.65
  L 333.64 635.65
  Z"
/>
<path fill="#e1a978" d="
  M 323.12 695.13
  Q 317.17 696.87 311.71 699.18
  Q 309.84 699.96 308.37 701.40
  Q 308.01 701.76 308.52 701.70
  Q 313.25 701.20 317.99 700.57
  Q 320.65 700.22 323.05 700.77
  L 323.80 710.09
  A 3.66 3.65 9.1 0 0 326.03 713.16
  C 329.90 714.80 333.53 716.09 337.04 718.82
  Q 339.27 720.55 341.64 722.41
  L 349.87 732.87
  Q 349.96 734.04 347.45 733.58
  Q 346.27 733.36 345.20 733.51
  Q 339.42 734.29 335.00 736.25
  Q 333.27 737.02 331.59 737.13
  Q 331.22 737.16 330.90 737.33
  Q 328.39 738.63 325.20 738.90
  A 0.40 0.40 0.0 0 0 324.90 739.53
  L 325.25 740.05
  Q 316.41 738.04 307.54 737.74
  L 308.72 737.72
  A 0.92 0.92 0.0 0 0 309.09 735.97
  Q 307.07 735.03 305.31 733.96
  Q 303.54 732.88 301.64 732.07
  Q 293.88 728.76 286.17 726.28
  Q 283.95 725.57 281.08 725.85
  Q 276.88 726.26 272.21 726.72
  L 277.24 718.64
  Q 281.66 717.13 285.88 715.37
  C 289.54 713.85 292.12 711.36 295.05 708.79
  Q 297.11 706.97 303.79 705.98
  A 0.29 0.29 0.0 0 0 303.99 705.53
  L 303.84 705.31
  A 1.21 1.20 72.6 0 0 302.85 704.79
  L 293.74 704.72
  A 0.71 0.71 0.0 0 1 293.03 703.99
  L 293.52 676.30
  Q 293.52 675.95 293.69 675.64
  L 293.94 675.21
  Q 294.68 674.25 295.17 674.12
  Q 299.46 673.06 303.74 671.55
  Q 305.06 671.08 303.66 671.06
  Q 300.11 671.01 294.34 671.99
  Q 293.36 659.63 293.83 647.83
  Q 293.87 646.67 295.03 646.79
  C 300.68 647.39 306.09 648.51 311.65 649.44
  Q 315.12 650.03 318.10 651.09
  Q 320.46 651.92 317.99 652.35
  Q 315.96 652.71 313.50 652.83
  A 0.37 0.37 0.0 0 0 313.16 653.29
  L 313.22 653.56
  Q 313.25 653.67 313.36 653.68
  Q 317.92 654.10 321.63 653.79
  Q 322.97 653.68 322.98 655.03
  L 323.12 695.13
  Z"
/>
<path fill="#958b7f" fill-opacity="0.996" d="
  M 259.12 648.68
  Q 258.45 673.37 257.65 680.75
  Q 256.25 693.66 254.71 706.56
  Q 254.66 706.91 254.38 707.11
  L 254.11 707.30
  C 253.59 704.71 254.76 702.63 254.93 700.89
  C 255.08 699.29 254.92 697.77 255.33 696.13
  C 256.38 691.87 255.65 687.49 256.45 683.12
  Q 257.01 680.04 256.97 676.82
  C 256.94 673.86 257.87 671.13 257.93 668.21
  Q 258.08 660.27 257.98 652.23
  Q 257.96 651.26 258.32 650.36
  Q 258.65 649.52 259.12 648.68
  Z"
/>
<path fill="#904444" d="
  M 293.94 675.21
  C 293.33 675.55 293.08 676.02 292.43 676.30
  Q 287.64 678.35 282.15 678.89
  L 282.41 673.19
  Q 289.20 671.61 294.34 671.99
  Q 300.11 671.01 303.66 671.06
  Q 305.06 671.08 303.74 671.55
  Q 299.46 673.06 295.17 674.12
  Q 294.68 674.25 293.94 675.21
  Z"
/>
<path fill="#bb7361" d="
  M 293.94 675.21
  L 293.69 675.64
  Q 293.52 675.95 293.52 676.30
  L 293.03 703.99
  A 0.71 0.71 0.0 0 0 293.74 704.72
  L 302.85 704.79
  A 1.21 1.20 72.6 0 1 303.84 705.31
  L 303.99 705.53
  A 0.29 0.29 0.0 0 1 303.79 705.98
  Q 297.11 706.97 295.05 708.79
  C 292.12 711.36 289.54 713.85 285.88 715.37
  Q 281.66 717.13 277.24 718.64
  Q 280.85 701.76 281.18 692.75
  Q 281.44 685.65 282.15 678.89
  Q 287.64 678.35 292.43 676.30
  C 293.08 676.02 293.33 675.55 293.94 675.21
  Z"
/>
<path fill="#904444" d="
  M 335.61 695.21
  L 336.55 702.03
  Q 330.17 700.58 323.05 700.77
  Q 320.65 700.22 317.99 700.57
  Q 313.25 701.20 308.52 701.70
  Q 308.01 701.76 308.37 701.40
  Q 309.84 699.96 311.71 699.18
  Q 317.17 696.87 323.12 695.13
  L 335.61 695.21
  Z"
/>
<path fill="#bb7361" d="
  M 323.05 700.77
  Q 330.17 700.58 336.55 702.03
  C 337.45 710.45 337.88 715.97 341.64 722.41
  Q 339.27 720.55 337.04 718.82
  C 333.53 716.09 329.90 714.80 326.03 713.16
  A 3.66 3.65 9.1 0 1 323.80 710.09
  L 323.05 700.77
  Z"
/>
<path fill="#958b7f" fill-opacity="0.996" d="
  M 254.12 709.08
  Q 254.27 710.21 253.48 710.68
  Q 252.98 710.98 251.99 710.81
  Q 244.10 709.49 235.76 709.50
  Q 235.53 709.50 235.32 709.59
  Q 235.18 709.65 235.08 709.75
  Q 234.91 709.90 234.70 709.92
  Q 218.62 711.36 206.45 720.20
  Q 186.31 734.81 185.11 760.98
  Q 184.60 754.46 186.06 749.24
  Q 194.32 719.60 223.95 711.09
  Q 226.32 710.41 233.50 709.39
  C 236.70 708.94 239.53 709.01 242.70 709.00
  Q 244.17 708.99 246.26 709.59
  Q 250.59 710.82 254.12 709.08
  Z"
/>
<path fill="#bb7361" d="
  M 307.54 737.74
  C 293.48 738.13 281.27 742.26 269.01 748.88
  Q 268.91 748.26 268.63 747.82
  Q 268.36 747.39 267.86 747.41
  Q 267.07 747.45 266.94 747.01
  L 267.63 746.93
  A 0.51 0.51 0.0 0 0 267.81 745.97
  Q 263.45 743.65 260.48 740.06
  Q 261.17 739.30 261.71 738.37
  Q 262.30 737.36 262.96 736.75
  Q 268.47 731.66 272.21 726.72
  Q 276.88 726.26 281.08 725.85
  Q 283.95 725.57 286.17 726.28
  Q 293.88 728.76 301.64 732.07
  Q 303.54 732.88 305.31 733.96
  Q 307.07 735.03 309.09 735.97
  A 0.92 0.92 0.0 0 1 308.72 737.72
  L 307.54 737.74
  Z"
/>
<path fill="#ab5f5a" d="
  M 349.87 732.87
  L 356.57 738.97
  Q 352.13 741.94 347.40 745.35
  Q 346.75 745.82 346.70 746.55
  A 0.88 0.88 0.0 0 0 347.98 747.40
  Q 352.94 744.90 357.15 743.73
  Q 368.05 740.69 379.64 742.53
  Q 386.70 743.65 391.65 745.36
  Q 397.52 747.38 402.62 751.11
  Q 387.53 751.95 373.55 751.81
  C 370.31 751.78 366.77 751.21 363.37 751.00
  Q 361.82 750.91 357.74 750.09
  Q 353.82 749.30 349.96 750.38
  Q 348.45 749.75 346.75 748.64
  Q 344.81 747.37 343.61 746.81
  Q 334.64 742.62 325.25 740.05
  L 324.90 739.53
  A 0.40 0.40 0.0 0 1 325.20 738.90
  Q 328.39 738.63 330.90 737.33
  Q 331.22 737.16 331.59 737.13
  Q 333.27 737.02 335.00 736.25
  Q 339.42 734.29 345.20 733.51
  Q 346.27 733.36 347.45 733.58
  Q 349.96 734.04 349.87 732.87
  Z"
/>
<path fill="#fcfedc" d="
  M 260.48 740.06
  Q 263.45 743.65 267.81 745.97
  A 0.51 0.51 0.0 0 1 267.63 746.93
  L 266.94 747.01
  Q 263.95 746.16 260.94 745.16
  Q 241.60 738.75 222.63 746.15
  Q 218.73 747.68 216.56 748.96
  Q 212.89 751.55 210.28 758.07
  Q 211.97 747.45 219.78 741.27
  C 231.61 731.90 248.11 732.46 260.48 740.06
  Z"
/>
<path fill="#fcfedc" d="
  M 405.22 752.97
  Q 405.15 753.53 405.03 753.77
  Q 404.88 754.08 404.51 753.66
  Q 403.08 752.01 402.62 751.11
  Q 397.52 747.38 391.65 745.36
  Q 386.70 743.65 379.64 742.53
  Q 368.05 740.69 357.15 743.73
  Q 352.94 744.90 347.98 747.40
  A 0.88 0.88 0.0 0 1 346.70 746.55
  Q 346.75 745.82 347.40 745.35
  Q 352.13 741.94 356.57 738.97
  C 374.45 729.68 396.12 733.91 405.22 752.97
  Z"
/>
<path fill="#fcfedc" d="
  M 307.54 737.74
  Q 316.41 738.04 325.25 740.05
  Q 334.64 742.62 343.61 746.81
  Q 344.81 747.37 346.75 748.64
  Q 348.45 749.75 349.96 750.38
  L 359.62 758.30
  Q 359.85 758.57 359.83 758.87
  A 0.44 0.44 0.0 0 1 359.20 759.24
  Q 351.03 755.13 343.20 751.61
  C 325.22 743.53 303.77 740.34 284.78 745.93
  Q 275.39 748.69 266.81 753.59
  L 258.28 758.05
  Q 257.84 757.96 257.84 757.63
  Q 257.84 757.43 258.06 757.18
  C 261.15 753.62 264.48 751.62 269.01 748.88
  C 281.27 742.26 293.48 738.13 307.54 737.74
  Z"
/>
<path fill="#ab5f5a" d="
  M 266.94 747.01
  Q 267.07 747.45 267.86 747.41
  Q 268.36 747.39 268.63 747.82
  Q 268.91 748.26 269.01 748.88
  C 264.48 751.62 261.15 753.62 258.06 757.18
  Q 257.84 757.43 257.84 757.63
  Q 257.84 757.96 258.28 758.05
  Q 257.41 759.13 257.39 757.10
  Q 257.38 756.56 256.87 756.42
  Q 243.64 752.70 229.77 749.76
  C 227.40 749.26 224.92 749.23 222.47 748.82
  C 220.48 748.48 218.60 748.79 216.56 748.96
  Q 218.73 747.68 222.63 746.15
  Q 241.60 738.75 260.94 745.16
  Q 263.95 746.16 266.94 747.01
  Z"
/>
<path fill="#ab5f5a" d="
  M 359.62 758.30
  Q 361.50 759.31 362.65 761.10
  Q 363.01 761.65 362.44 761.98
  Q 362.03 762.23 361.53 762.13
  Q 361.00 762.03 360.60 762.38
  L 359.94 762.96
  L 343.81 762.74
  L 324.00 762.37
  A 1.15 1.13 64.7 0 1 323.32 762.12
  Q 322.98 761.85 322.53 761.83
  Q 317.97 761.63 313.57 760.42
  Q 308.18 758.93 303.96 758.26
  Q 292.22 756.40 283.62 755.33
  Q 280.40 754.92 276.00 755.27
  Q 273.69 755.45 266.81 753.59
  Q 275.39 748.69 284.78 745.93
  C 303.77 740.34 325.22 743.53 343.20 751.61
  Q 351.03 755.13 359.20 759.24
  A 0.44 0.44 0.0 0 0 359.83 758.87
  Q 359.85 758.57 359.62 758.30
  Z"
/>
<path fill="#904444" d="
  M 258.28 758.05
  L 266.81 753.59
  Q 273.69 755.45 276.00 755.27
  Q 280.40 754.92 283.62 755.33
  Q 292.22 756.40 303.96 758.26
  Q 308.18 758.93 313.57 760.42
  Q 317.97 761.63 322.53 761.83
  Q 322.98 761.85 323.32 762.12
  A 1.15 1.13 64.7 0 0 324.00 762.37
  L 343.81 762.74
  L 210.15 762.93
  A 0.53 0.52 -1.1 0 1 209.62 762.43
  Q 209.48 759.36 210.28 758.07
  Q 212.89 751.55 216.56 748.96
  C 218.60 748.79 220.48 748.48 222.47 748.82
  C 224.92 749.23 227.40 749.26 229.77 749.76
  Q 243.64 752.70 256.87 756.42
  Q 257.38 756.56 257.39 757.10
  Q 257.41 759.13 258.28 758.05
  Z"
/>
<path fill="#904444" d="
  M 402.62 751.11
  Q 403.08 752.01 404.51 753.66
  Q 404.88 754.08 405.03 753.77
  Q 405.15 753.53 405.22 752.97
  Q 407.00 757.33 406.85 761.58
  A 1.38 1.37 -89.1 0 1 405.48 762.92
  L 359.94 762.96
  L 360.60 762.38
  Q 361.00 762.03 361.53 762.13
  Q 362.03 762.23 362.44 761.98
  Q 363.01 761.65 362.65 761.10
  Q 361.50 759.31 359.62 758.30
  L 349.96 750.38
  Q 353.82 749.30 357.74 750.09
  Q 361.82 750.91 363.37 751.00
  C 366.77 751.21 370.31 751.78 373.55 751.81
  Q 387.53 751.95 402.62 751.11
  Z"
/>
</svg>
