<?xml version="1.0" encoding="UTF-8" standalone="no"?>
<!DOCTYPE svg PUBLIC "-//W3C//DTD SVG 1.1//EN" "http://www.w3.org/Graphics/SVG/1.1/DTD/svg11.dtd">
<svg xmlns="http://www.w3.org/2000/svg" version="1.1" viewBox="0.00 0.00 74.00 45.00">
<g stroke-width="2.00" fill="none" stroke-linecap="butt">
<path stroke="#535b71" vector-effect="non-scaling-stroke" d="
  M 26.68 22.41
  A 0.83 0.83 0.0 0 1 25.33 23.21
  C 23.24 21.41 21.23 18.76 18.11 19.65
  Q 11.76 21.45 9.74 28.01
  Q 9.52 28.73 8.94 29.16
  Q 8.53 29.48 8.58 29.99
  L 8.97 33.44
  A 0.70 0.70 0.0 0 0 9.68 34.06
  Q 23.91 33.82 36.39 33.98
  Q 38.53 34.01 40.63 33.73
  Q 41.15 33.66 41.32 33.18
  Q 43.12 28.24 45.28 25.27
  C 47.71 21.93 51.00 20.50 54.77 18.84
  Q 55.30 18.61 55.05 18.09
  C 53.55 14.89 50.18 11.45 46.40 12.19
  C 43.52 12.76 41.12 15.47 39.63 18.08
  Q 39.34 18.60 38.75 18.54
  Q 38.13 18.48 38.22 17.86
  Q 38.62 14.85 36.72 12.15
  Q 35.11 9.85 32.83 9.78
  Q 27.50 9.61 26.09 13.94
  Q 25.33 16.27 25.83 19.62
  C 25.97 20.62 26.48 21.47 26.68 22.41"
/>
<path stroke="#535b71" vector-effect="non-scaling-stroke" d="
  M 64.24 33.35
  C 65.81 28.41 64.02 23.49 58.99 21.61
  C 54.82 20.04 54.62 22.01 51.46 23.62
  C 47.87 25.45 44.95 29.89 43.29 33.61
  A 0.28 0.28 0.0 0 0 43.55 34.01
  L 63.43 33.94
  Q 64.05 33.94 64.24 33.35"
/>
</g>
<path fill="#141b2f" d="
  M 22.99 16.22
  C 22.13 12.94 25.36 10.69 27.17 8.36
  Q 27.49 7.96 28.00 7.95
  Q 32.14 7.88 35.55 8.16
  Q 37.48 8.31 38.24 10.01
  Q 38.50 10.61 39.12 10.91
  Q 39.44 11.07 39.78 11.01
  Q 40.52 10.87 40.30 11.59
  Q 40.18 11.98 40.36 12.41
  A 0.82 0.82 0.0 0 0 41.71 12.65
  Q 42.94 11.37 44.02 10.65
  C 45.64 9.56 48.43 10.02 50.33 9.99
  Q 50.99 9.98 51.20 10.60
  Q 51.45 11.31 52.13 11.04
  Q 52.55 10.87 52.71 11.29
  Q 53.07 12.23 54.06 12.01
  Q 54.60 11.89 54.76 12.41
  Q 55.48 14.74 57.16 17.26
  Q 57.66 18.00 58.58 18.35
  Q 59.94 18.86 61.22 19.16
  Q 61.67 19.26 61.83 19.69
  Q 62.33 21.06 63.52 22.00
  Q 63.95 22.34 64.04 22.88
  Q 64.24 24.00 65.41 24.14
  Q 66.03 24.21 66.18 24.80
  C 66.52 26.13 67.04 27.03 67.01 28.49
  Q 66.97 30.75 67.02 32.91
  A 1.07 1.06 -88.2 0 0 67.99 33.95
  L 70.49 34.17
  Q 71.21 34.23 71.22 34.95
  Q 71.23 35.80 70.82 36.47
  Q 70.51 36.99 69.90 36.99
  Q 35.69 37.02 2.49 36.99
  A 0.48 0.47 -0.0 0 1 2.01 36.52
  L 2.00 34.50
  Q 1.99 34.00 2.50 34.00
  L 6.52 34.00
  Q 7.05 34.00 7.04 33.48
  L 6.94 28.72
  Q 6.93 28.21 7.44 28.11
  Q 7.73 28.06 7.91 27.74
  Q 8.20 27.21 7.78 26.77
  Q 7.51 26.47 7.59 25.99
  A 0.77 0.73 70.0 0 1 7.75 25.62
  Q 9.71 23.25 11.27 20.64
  Q 11.60 20.09 12.18 19.87
  Q 12.47 19.76 12.75 19.88
  Q 13.39 20.14 13.84 19.63
  C 15.01 18.31 16.59 16.86 18.45 16.91
  Q 20.50 16.97 22.33 17.04
  Q 23.21 17.07 22.99 16.22
  Z
  M 26.68 22.41
  A 0.83 0.83 0.0 0 1 25.33 23.21
  C 23.24 21.41 21.23 18.76 18.11 19.65
  Q 11.76 21.45 9.74 28.01
  Q 9.52 28.73 8.94 29.16
  Q 8.53 29.48 8.58 29.99
  L 8.97 33.44
  A 0.70 0.70 0.0 0 0 9.68 34.06
  Q 23.91 33.82 36.39 33.98
  Q 38.53 34.01 40.63 33.73
  Q 41.15 33.66 41.32 33.18
  Q 43.12 28.24 45.28 25.27
  C 47.71 21.93 51.00 20.50 54.77 18.84
  Q 55.30 18.61 55.05 18.09
  C 53.55 14.89 50.18 11.45 46.40 12.19
  C 43.52 12.76 41.12 15.47 39.63 18.08
  Q 39.34 18.60 38.75 18.54
  Q 38.13 18.48 38.22 17.86
  Q 38.62 14.85 36.72 12.15
  Q 35.11 9.85 32.83 9.78
  Q 27.50 9.61 26.09 13.94
  Q 25.33 16.27 25.83 19.62
  C 25.97 20.62 26.48 21.47 26.68 22.41
  Z
  M 64.24 33.35
  C 65.81 28.41 64.02 23.49 58.99 21.61
  C 54.82 20.04 54.62 22.01 51.46 23.62
  C 47.87 25.45 44.95 29.89 43.29 33.61
  A 0.28 0.28 0.0 0 0 43.55 34.01
  L 63.43 33.94
  Q 64.05 33.94 64.24 33.35
  Z"
/>
<path fill="#929bb2" d="
  M 26.68 22.41
  C 26.48 21.47 25.97 20.62 25.83 19.62
  Q 25.33 16.27 26.09 13.94
  Q 27.50 9.61 32.83 9.78
  Q 35.11 9.85 36.72 12.15
  Q 38.62 14.85 38.22 17.86
  Q 38.13 18.48 38.75 18.54
  Q 39.34 18.60 39.63 18.08
  C 41.12 15.47 43.52 12.76 46.40 12.19
  C 50.18 11.45 53.55 14.89 55.05 18.09
  Q 55.30 18.61 54.77 18.84
  C 51.00 20.50 47.71 21.93 45.28 25.27
  Q 43.12 28.24 41.32 33.18
  Q 41.15 33.66 40.63 33.73
  Q 38.53 34.01 36.39 33.98
  Q 23.91 33.82 9.68 34.06
  A 0.70 0.70 0.0 0 1 8.97 33.44
  L 8.58 29.99
  Q 8.53 29.48 8.94 29.16
  Q 9.52 28.73 9.74 28.01
  Q 11.76 21.45 18.11 19.65
  C 21.23 18.76 23.24 21.41 25.33 23.21
  A 0.83 0.83 0.0 0 0 26.68 22.41
  Z"
/>
<path fill="#929bb2" d="
  M 58.99 21.61
  C 64.02 23.49 65.81 28.41 64.24 33.35
  Q 64.05 33.94 63.43 33.94
  L 43.55 34.01
  A 0.28 0.28 0.0 0 1 43.29 33.61
  C 44.95 29.89 47.87 25.45 51.46 23.62
  C 54.62 22.01 54.82 20.04 58.99 21.61
  Z"
/>
</svg>
