<?xml version="1.0" encoding="UTF-8" standalone="no"?>
<!DOCTYPE svg PUBLIC "-//W3C//DTD SVG 1.1//EN" "http://www.w3.org/Graphics/SVG/1.1/DTD/svg11.dtd">
<svg xmlns="http://www.w3.org/2000/svg" version="1.1" viewBox="0.00 0.00 182.00 126.00">
<g stroke-width="2.00" fill="none" stroke-linecap="butt">
<path stroke="#514249" vector-effect="non-scaling-stroke" d="
  M 107.76 4.39
  Q 97.17 2.21 92.50 2.51
  Q 88.05 2.80 83.50 2.69"
/>
<path stroke="#514249" vector-effect="non-scaling-stroke" d="
  M 108.44 4.59
  Q 108.59 4.63 108.62 4.76
  Q 108.65 4.92 108.81 4.97
  Q 116.29 7.53 119.83 10.16
  Q 122.57 12.20 125.53 13.93"
/>
<path stroke="#514249" vector-effect="non-scaling-stroke" d="
  M 129.48 17.74
  Q 135.56 24.36 139.31 32.17
  Q 140.10 33.82 141.19 37.11
  Q 142.02 39.60 143.02 42.09"
/>
<path stroke="#514249" vector-effect="non-scaling-stroke" d="
  M 143.51 44.22
  Q 143.37 44.19 143.25 44.21
  Q 143.09 44.23 143.10 44.39
  L 143.60 52.52
  A 2.44 2.43 89.7 0 0 145.90 54.81
  Q 147.85 54.91 149.75 55.50
  Q 163.24 59.69 171.29 70.89
  Q 172.52 72.61 174.41 76.28
  Q 175.84 79.04 177.42 81.73"
/>
<path stroke="#514249" vector-effect="non-scaling-stroke" d="
  M 3.08 91.73
  Q 3.31 91.78 3.37 92.02
  Q 3.53 92.74 3.44 92.03
  Q 3.41 91.83 3.49 91.65
  Q 3.57 91.48 3.57 91.30
  Q 3.99 80.74 10.17 71.38
  Q 12.09 68.47 14.00 65.49"
/>
<path stroke="#514249" vector-effect="non-scaling-stroke" d="
  M 14.00 65.49
  Q 21.12 58.36 30.22 54.53
  Q 32.31 53.65 37.08 52.64
  Q 38.22 52.40 38.19 51.15"
/>
<path stroke="#514249" vector-effect="non-scaling-stroke" d="
  M 38.08 47.92
  Q 40.34 32.70 50.07 20.55"
/>
<path stroke="#514249" vector-effect="non-scaling-stroke" d="
  M 55.57 15.06
  Q 66.68 5.99 80.27 3.53
  Q 80.97 3.40 81.63 2.84"
/>
<path stroke="#657332" vector-effect="non-scaling-stroke" d="
  M 61.05 49.43
  L 60.77 57.48"
/>
<path stroke="#475a38" vector-effect="non-scaling-stroke" d="
  M 60.77 57.48
  L 60.74 76.91"
/>
<path stroke="#9c8682" vector-effect="non-scaling-stroke" d="
  M 60.74 76.91
  Q 57.85 75.55 55.44 74.60
  Q 41.01 68.92 30.67 79.93
  Q 26.72 84.13 26.02 90.86"
/>
<path stroke="#657332" vector-effect="non-scaling-stroke" d="
  M 26.02 90.86
  Q 25.53 97.00 27.06 103.10
  Q 27.19 103.59 27.69 103.59
  L 52.21 103.70"
/>
<path stroke="#475a38" vector-effect="non-scaling-stroke" d="
  M 52.21 103.70
  L 145.98 103.58"
/>
<path stroke="#657332" vector-effect="non-scaling-stroke" d="
  M 145.98 103.58
  L 155.81 103.20
  Q 156.32 103.18 156.33 102.67
  L 156.39 91.55"
/>
<path stroke="#9c8682" vector-effect="non-scaling-stroke" d="
  M 156.39 91.55
  C 152.29 75.49 135.08 71.84 122.15 80.54"
/>
<path stroke="#475a38" vector-effect="non-scaling-stroke" d="
  M 122.15 80.54
  L 121.30 64.07"
/>
<path stroke="#7a7b39" vector-effect="non-scaling-stroke" d="
  M 121.30 64.07
  L 120.89 49.78"
/>
<path stroke="#9c8682" vector-effect="non-scaling-stroke" d="
  M 120.89 49.78
  C 117.55 28.99 95.09 19.74 76.81 28.07
  Q 63.16 34.29 61.05 49.43"
/>
<path stroke="#daf296" vector-effect="non-scaling-stroke" d="
  M 120.89 49.78
  Q 118.40 48.47 116.48 46.53
  Q 113.52 43.52 112.56 42.85
  Q 90.45 27.21 67.61 43.63
  Q 66.95 44.11 66.61 45.09"
/>
<path stroke="#c5ea8f" vector-effect="non-scaling-stroke" d="
  M 66.61 45.09
  Q 64.22 48.16 61.05 49.43"
/>
<path stroke="#70be45" vector-effect="non-scaling-stroke" d="
  M 115.79 72.10
  Q 112.27 78.73 105.69 82.84
  Q 101.82 85.26 97.35 85.32
  A 1.19 1.18 86.6 0 1 96.15 84.25
  L 96.01 82.79
  Q 95.95 82.25 95.41 82.25
  C 94.10 82.24 93.19 82.92 91.86 83.00
  Q 86.84 83.32 84.51 82.65
  Q 71.93 79.02 66.20 67.32
  Q 63.76 62.34 60.77 57.48"
/>
<path stroke="#85c64b" vector-effect="non-scaling-stroke" d="
  M 121.30 64.07
  L 115.79 72.10"
/>
<path stroke="#a2df46" vector-effect="non-scaling-stroke" d="
  M 115.79 72.10
  Q 111.80 71.05 107.73 68.12
  Q 106.76 67.43 106.90 66.25
  Q 107.25 63.24 107.46 60.19
  C 108.10 51.31 99.05 47.33 91.48 47.97
  Q 85.25 48.50 78.87 49.17
  Q 74.18 49.66 69.14 45.51
  Q 69.03 45.42 68.90 45.36
  Q 68.62 45.23 68.69 44.99
  Q 68.91 44.21 68.19 44.60
  Q 67.45 45.01 66.61 45.09"
/>
<path stroke="#a7d195" vector-effect="non-scaling-stroke" d="
  M 122.15 80.54
  L 119.52 83.17"
/>
<path stroke="#70be45" vector-effect="non-scaling-stroke" d="
  M 119.52 83.17
  Q 116.92 83.97 115.56 86.35
  A 1.97 1.95 -52.4 0 0 115.86 88.71
  Q 124.18 97.10 134.66 101.33
  Q 136.96 102.26 140.25 102.69
  Q 143.11 103.07 145.98 103.58"
/>
<path stroke="#70be45" vector-effect="non-scaling-stroke" d="
  M 52.21 103.70
  L 49.48 103.53
  Q 48.28 103.45 49.46 103.17
  C 50.11 103.01 50.89 102.51 51.26 101.93
  Q 51.53 101.50 51.99 101.30
  Q 55.95 99.59 57.98 97.98
  Q 64.92 92.46 71.98 87.06
  A 0.86 0.85 -39.3 0 0 72.11 85.81
  Q 69.67 82.98 66.41 81.78"
/>
<path stroke="#a7d195" vector-effect="non-scaling-stroke" d="
  M 66.41 81.78
  L 60.74 76.91"
/>
<path stroke="#c5ea8f" vector-effect="non-scaling-stroke" d="
  M 66.41 81.78
  Q 66.41 82.39 66.26 82.48
  Q 62.99 84.34 59.55 86.78
  Q 57.81 88.01 55.84 87.30
  C 53.35 86.39 51.14 84.83 48.66 84.03
  Q 37.81 80.58 29.01 87.75
  Q 28.35 88.29 27.76 89.44
  Q 27.00 90.95 26.02 90.86"
/>
<path stroke="#c5ea8f" vector-effect="non-scaling-stroke" d="
  M 156.39 91.55
  Q 156.15 94.10 154.38 91.12
  Q 153.84 90.23 153.08 89.64
  C 147.45 85.34 140.76 82.68 134.07 86.16
  Q 132.05 87.22 130.28 88.39
  A 1.37 1.34 -55.7 0 1 129.29 88.59
  Q 126.83 88.14 125.00 86.75
  Q 123.75 85.80 122.29 84.99
  Q 120.78 84.17 119.52 83.17"
/>
<path stroke="#70be45" vector-effect="non-scaling-stroke" d="
  M 96.4233 55.7878
  A 12.31 10.71 -33.6 0 0 80.2432 53.6794
  A 12.31 10.71 -33.6 0 0 75.9167 69.4122
  A 12.31 10.71 -33.6 0 0 92.0968 71.5206
  A 12.31 10.71 -33.6 0 0 96.4233 55.7878"
/>
</g>
<path fill="#66756d" d="
  M 107.76 4.39
  Q 97.17 2.21 92.50 2.51
  Q 88.05 2.80 83.50 2.69
  Q 96.14 0.63 107.76 4.39
  Z"
/>
<path fill="#3c0f25" d="
  M 83.50 2.69
  Q 88.05 2.80 92.50 2.51
  Q 97.17 2.21 107.76 4.39
  Q 107.95 4.32 108.44 4.59
  Q 108.59 4.63 108.62 4.76
  Q 108.65 4.92 108.81 4.97
  Q 116.29 7.53 119.83 10.16
  Q 122.57 12.20 125.53 13.93
  L 129.48 17.74
  Q 135.56 24.36 139.31 32.17
  Q 140.10 33.82 141.19 37.11
  Q 142.02 39.60 143.02 42.09
  L 143.51 44.22
  Q 143.37 44.19 143.25 44.21
  Q 143.09 44.23 143.10 44.39
  L 143.60 52.52
  A 2.44 2.43 89.7 0 0 145.90 54.81
  Q 147.85 54.91 149.75 55.50
  Q 163.24 59.69 171.29 70.89
  Q 172.52 72.61 174.41 76.28
  Q 175.84 79.04 177.42 81.73
  Q 179.04 87.08 179.04 93.75
  Q 179.03 108.22 178.98 122.56
  A 0.45 0.45 0.0 0 1 178.53 123.00
  L 3.29 123.00
  A 0.26 0.26 0.0 0 1 3.03 122.74
  L 3.08 91.73
  Q 3.31 91.78 3.37 92.02
  Q 3.53 92.74 3.44 92.03
  Q 3.41 91.83 3.49 91.65
  Q 3.57 91.48 3.57 91.30
  Q 3.99 80.74 10.17 71.38
  Q 12.09 68.47 14.00 65.49
  Q 21.12 58.36 30.22 54.53
  Q 32.31 53.65 37.08 52.64
  Q 38.22 52.40 38.19 51.15
  Q 37.79 49.14 38.08 47.92
  Q 40.34 32.70 50.07 20.55
  Q 52.32 17.25 55.57 15.06
  Q 66.68 5.99 80.27 3.53
  Q 80.97 3.40 81.63 2.84
  Q 82.54 2.57 83.50 2.69
  Z
  M 61.05 49.43
  L 60.77 57.48
  L 60.74 76.91
  Q 57.85 75.55 55.44 74.60
  Q 41.01 68.92 30.67 79.93
  Q 26.72 84.13 26.02 90.86
  Q 25.53 97.00 27.06 103.10
  Q 27.19 103.59 27.69 103.59
  L 52.21 103.70
  L 145.98 103.58
  L 155.81 103.20
  Q 156.32 103.18 156.33 102.67
  L 156.39 91.55
  C 152.29 75.49 135.08 71.84 122.15 80.54
  L 121.30 64.07
  L 120.89 49.78
  C 117.55 28.99 95.09 19.74 76.81 28.07
  Q 63.16 34.29 61.05 49.43
  Z"
/>
<path fill="#66756d" d="
  M 81.63 2.84
  Q 80.97 3.40 80.27 3.53
  Q 66.68 5.99 55.57 15.06
  Q 66.29 4.70 81.63 2.84
  Z"
/>
<path fill="#66756d" d="
  M 108.44 4.59
  Q 118.23 7.15 125.53 13.93
  Q 122.57 12.20 119.83 10.16
  Q 116.29 7.53 108.81 4.97
  Q 108.65 4.92 108.62 4.76
  Q 108.59 4.63 108.44 4.59
  Z"
/>
<path fill="#66756d" d="
  M 129.48 17.74
  Q 134.89 22.80 138.62 29.40
  Q 141.96 35.33 143.02 42.09
  Q 142.02 39.60 141.19 37.11
  Q 140.10 33.82 139.31 32.17
  Q 135.56 24.36 129.48 17.74
  Z"
/>
<path fill="#66756d" d="
  M 50.07 20.55
  Q 40.34 32.70 38.08 47.92
  Q 38.19 40.55 41.91 32.45
  Q 45.19 25.30 50.07 20.55
  Z"
/>
<path fill="#fcfddf" d="
  M 120.89 49.78
  Q 118.40 48.47 116.48 46.53
  Q 113.52 43.52 112.56 42.85
  Q 90.45 27.21 67.61 43.63
  Q 66.95 44.11 66.61 45.09
  Q 64.22 48.16 61.05 49.43
  Q 63.16 34.29 76.81 28.07
  C 95.09 19.74 117.55 28.99 120.89 49.78
  Z"
/>
<path fill="#b7e74c" d="
  M 120.89 49.78
  L 121.30 64.07
  L 115.79 72.10
  Q 111.80 71.05 107.73 68.12
  Q 106.76 67.43 106.90 66.25
  Q 107.25 63.24 107.46 60.19
  C 108.10 51.31 99.05 47.33 91.48 47.97
  Q 85.25 48.50 78.87 49.17
  Q 74.18 49.66 69.14 45.51
  Q 69.03 45.42 68.90 45.36
  Q 68.62 45.23 68.69 44.99
  Q 68.91 44.21 68.19 44.60
  Q 67.45 45.01 66.61 45.09
  Q 66.95 44.11 67.61 43.63
  Q 90.45 27.21 112.56 42.85
  Q 113.52 43.52 116.48 46.53
  Q 118.40 48.47 120.89 49.78
  Z"
/>
<path fill="#8dd73f" d="
  M 115.79 72.10
  Q 112.27 78.73 105.69 82.84
  Q 101.82 85.26 97.35 85.32
  A 1.19 1.18 86.6 0 1 96.15 84.25
  L 96.01 82.79
  Q 95.95 82.25 95.41 82.25
  C 94.10 82.24 93.19 82.92 91.86 83.00
  Q 86.84 83.32 84.51 82.65
  Q 71.93 79.02 66.20 67.32
  Q 63.76 62.34 60.77 57.48
  L 61.05 49.43
  Q 64.22 48.16 66.61 45.09
  Q 67.45 45.01 68.19 44.60
  Q 68.91 44.21 68.69 44.99
  Q 68.62 45.23 68.90 45.36
  Q 69.03 45.42 69.14 45.51
  Q 74.18 49.66 78.87 49.17
  Q 85.25 48.50 91.48 47.97
  C 99.05 47.33 108.10 51.31 107.46 60.19
  Q 107.25 63.24 106.90 66.25
  Q 106.76 67.43 107.73 68.12
  Q 111.80 71.05 115.79 72.10
  Z
  M 96.4233 55.7878
  A 12.31 10.71 -33.6 0 0 80.2432 53.6794
  A 12.31 10.71 -33.6 0 0 75.9167 69.4122
  A 12.31 10.71 -33.6 0 0 92.0968 71.5206
  A 12.31 10.71 -33.6 0 0 96.4233 55.7878
  Z"
/>
<path fill="#66756d" d="
  M 143.51 44.22
  Q 144.38 48.22 143.89 52.31
  A 1.41 1.41 0.0 0 0 145.13 53.88
  Q 147.64 54.18 150.43 55.16
  Q 170.22 62.16 177.42 81.73
  Q 175.84 79.04 174.41 76.28
  Q 172.52 72.61 171.29 70.89
  Q 163.24 59.69 149.75 55.50
  Q 147.85 54.91 145.90 54.81
  A 2.44 2.43 89.7 0 1 143.60 52.52
  L 143.10 44.39
  Q 143.09 44.23 143.25 44.21
  Q 143.37 44.19 143.51 44.22
  Z"
/>
<path fill="#66756d" d="
  M 38.19 51.15
  Q 38.22 52.40 37.08 52.64
  Q 32.31 53.65 30.22 54.53
  Q 21.12 58.36 14.00 65.49
  Q 23.38 54.71 38.19 51.15
  Z"
/>
<ellipse fill="#52a44a" cx="0.00" cy="0.00" transform="translate(86.17,62.60) rotate(-33.6)" rx="12.31" ry="10.71"/>
<path fill="#52a44a" d="
  M 60.77 57.48
  Q 63.76 62.34 66.20 67.32
  Q 71.93 79.02 84.51 82.65
  Q 86.84 83.32 91.86 83.00
  C 93.19 82.92 94.10 82.24 95.41 82.25
  Q 95.95 82.25 96.01 82.79
  L 96.15 84.25
  A 1.19 1.18 86.6 0 0 97.35 85.32
  Q 101.82 85.26 105.69 82.84
  Q 112.27 78.73 115.79 72.10
  L 121.30 64.07
  L 122.15 80.54
  L 119.52 83.17
  Q 116.92 83.97 115.56 86.35
  A 1.97 1.95 -52.4 0 0 115.86 88.71
  Q 124.18 97.10 134.66 101.33
  Q 136.96 102.26 140.25 102.69
  Q 143.11 103.07 145.98 103.58
  L 52.21 103.70
  L 49.48 103.53
  Q 48.28 103.45 49.46 103.17
  C 50.11 103.01 50.89 102.51 51.26 101.93
  Q 51.53 101.50 51.99 101.30
  Q 55.95 99.59 57.98 97.98
  Q 64.92 92.46 71.98 87.06
  A 0.86 0.85 -39.3 0 0 72.11 85.81
  Q 69.67 82.98 66.41 81.78
  L 60.74 76.91
  L 60.77 57.48
  Z"
/>
<path fill="#66756d" d="
  M 14.00 65.49
  Q 12.09 68.47 10.17 71.38
  Q 3.99 80.74 3.57 91.30
  Q 3.57 91.48 3.49 91.65
  Q 3.41 91.83 3.44 92.03
  Q 3.53 92.74 3.37 92.02
  Q 3.31 91.78 3.08 91.73
  Q 3.77 76.50 14.00 65.49
  Z"
/>
<path fill="#fcfddf" d="
  M 60.74 76.91
  L 66.41 81.78
  Q 66.41 82.39 66.26 82.48
  Q 62.99 84.34 59.55 86.78
  Q 57.81 88.01 55.84 87.30
  C 53.35 86.39 51.14 84.83 48.66 84.03
  Q 37.81 80.58 29.01 87.75
  Q 28.35 88.29 27.76 89.44
  Q 27.00 90.95 26.02 90.86
  Q 26.72 84.13 30.67 79.93
  Q 41.01 68.92 55.44 74.60
  Q 57.85 75.55 60.74 76.91
  Z"
/>
<path fill="#fcfddf" d="
  M 156.39 91.55
  Q 156.15 94.10 154.38 91.12
  Q 153.84 90.23 153.08 89.64
  C 147.45 85.34 140.76 82.68 134.07 86.16
  Q 132.05 87.22 130.28 88.39
  A 1.37 1.34 -55.7 0 1 129.29 88.59
  Q 126.83 88.14 125.00 86.75
  Q 123.75 85.80 122.29 84.99
  Q 120.78 84.17 119.52 83.17
  L 122.15 80.54
  C 135.08 71.84 152.29 75.49 156.39 91.55
  Z"
/>
<path fill="#8dd73f" d="
  M 52.21 103.70
  L 27.69 103.59
  Q 27.19 103.59 27.06 103.10
  Q 25.53 97.00 26.02 90.86
  Q 27.00 90.95 27.76 89.44
  Q 28.35 88.29 29.01 87.75
  Q 37.81 80.58 48.66 84.03
  C 51.14 84.83 53.35 86.39 55.84 87.30
  Q 57.81 88.01 59.55 86.78
  Q 62.99 84.34 66.26 82.48
  Q 66.41 82.39 66.41 81.78
  Q 69.67 82.98 72.11 85.81
  A 0.86 0.85 -39.3 0 1 71.98 87.06
  Q 64.92 92.46 57.98 97.98
  Q 55.95 99.59 51.99 101.30
  Q 51.53 101.50 51.26 101.93
  C 50.89 102.51 50.11 103.01 49.46 103.17
  Q 48.28 103.45 49.48 103.53
  L 52.21 103.70
  Z"
/>
<path fill="#8dd73f" d="
  M 119.52 83.17
  Q 120.78 84.17 122.29 84.99
  Q 123.75 85.80 125.00 86.75
  Q 126.83 88.14 129.29 88.59
  A 1.37 1.34 -55.7 0 0 130.28 88.39
  Q 132.05 87.22 134.07 86.16
  C 140.76 82.68 147.45 85.34 153.08 89.64
  Q 153.84 90.23 154.38 91.12
  Q 156.15 94.10 156.39 91.55
  L 156.33 102.67
  Q 156.32 103.18 155.81 103.20
  L 145.98 103.58
  Q 143.11 103.07 140.25 102.69
  Q 136.96 102.26 134.66 101.33
  Q 124.18 97.10 115.86 88.71
  A 1.97 1.95 -52.4 0 1 115.56 86.35
  Q 116.92 83.97 119.52 83.17
  Z"
/>
</svg>
