<?xml version="1.0" encoding="UTF-8" standalone="no"?>
<!DOCTYPE svg PUBLIC "-//W3C//DTD SVG 1.1//EN" "http://www.w3.org/Graphics/SVG/1.1/DTD/svg11.dtd">
<svg xmlns="http://www.w3.org/2000/svg" version="1.1" viewBox="0.00 0.00 92.00 75.00">
<g stroke-width="2.00" fill="none" stroke-linecap="butt">
<path stroke="#59693c" vector-effect="non-scaling-stroke" d="
  M 19.81 30.86
  Q 20.33 34.04 21.16 36.80
  Q 25.62 51.66 31.10 66.23
  Q 31.33 66.84 31.98 66.82
  L 41.00 66.56
  Q 41.53 66.54 41.51 66.01
  Q 40.94 52.99 37.32 40.50
  Q 36.83 38.80 34.61 34.27"
/>
<path stroke="#897d64" vector-effect="non-scaling-stroke" d="
  M 34.61 34.27
  C 32.21 29.16 27.27 21.52 21.49 19.85
  Q 19.12 19.16 18.86 21.42
  Q 18.32 26.22 19.81 30.86"
/>
<path stroke="#afe69e" vector-effect="non-scaling-stroke" d="
  M 34.61 34.27
  L 35.09 37.05
  A 1.55 1.54 -15.2 0 1 34.10 38.76
  Q 30.18 40.22 27.01 38.09
  Q 26.27 37.60 23.61 34.34
  Q 21.91 32.26 19.81 30.86"
/>
<path stroke="#616f4b" vector-effect="non-scaling-stroke" d="
  M 67.40 63.67
  C 70.32 60.00 73.04 56.06 73.43 51.37
  A 2.32 2.31 -78.5 0 0 71.85 48.98
  C 66.75 47.30 60.10 53.77 57.76 57.84
  Q 56.01 60.88 54.23 65.46
  Q 53.82 66.53 54.96 66.65
  Q 58.50 67.02 63.13 66.93
  Q 65.65 66.88 66.52 65.08
  Q 66.88 64.33 67.40 63.67"
/>
</g>
<path fill="#320002" d="
  M 87.77 75.00
  L 12.87 75.00
  Q 12.87 70.60 13.03 66.21
  C 13.10 64.37 12.35 63.06 11.49 61.57
  Q 11.29 61.24 11.47 60.90
  Q 12.04 59.79 11.67 58.60
  Q 11.61 58.41 11.44 58.30
  Q 10.76 57.89 10.94 58.66
  Q 11.04 59.07 10.87 59.46
  Q 10.77 59.69 10.58 59.53
  Q 10.46 59.42 10.36 59.31
  C 10.00 58.87 10.60 57.71 9.62 56.76
  Q 9.25 56.40 9.38 55.91
  Q 9.55 55.19 8.90 54.82
  Q 8.41 54.54 8.73 54.07
  Q 8.96 53.72 8.57 53.45
  Q 8.13 53.15 8.06 52.61
  Q 7.78 50.56 6.58 48.70
  Q 6.28 48.25 6.35 47.72
  Q 6.41 47.25 6.29 46.77
  Q 6.18 46.31 5.86 45.98
  Q 5.58 45.70 5.82 45.40
  Q 6.11 45.03 5.85 44.64
  Q 4.53 42.67 4.18 39.93
  Q 3.95 38.13 3.43 36.55
  C 2.77 34.58 2.91 32.78 2.24 30.83
  Q 2.08 30.35 2.29 29.94
  Q 2.33 29.87 2.41 29.83
  Q 2.83 29.60 2.42 29.35
  Q 2.26 29.26 2.11 29.15
  A 0.78 0.76 22.0 0 1 1.83 28.52
  C 1.91 27.18 2.16 25.89 2.09 24.54
  Q 1.84 19.36 2.01 13.68
  Q 2.02 13.18 2.48 12.96
  Q 3.06 12.69 2.96 12.05
  Q 2.86 11.33 3.37 10.80
  L 4.11 10.04
  Q 4.53 9.60 4.44 9.00
  Q 4.29 8.07 5.46 7.42
  Q 5.82 7.22 6.08 7.55
  Q 6.47 8.07 6.80 7.51
  Q 6.95 7.27 6.89 6.98
  A 0.73 0.73 0.0 0 1 7.28 6.17
  Q 9.21 5.24 10.75 3.70
  Q 12.60 1.85 15.38 1.28
  C 18.12 0.73 21.33 0.14 23.87 1.62
  A 0.81 0.80 56.1 0 0 24.36 1.72
  Q 24.70 1.68 24.93 1.48
  Q 25.08 1.35 25.27 1.41
  Q 28.41 2.46 30.18 4.41
  Q 30.53 4.80 31.04 4.66
  Q 31.69 4.48 31.75 5.16
  Q 31.83 5.91 32.54 5.69
  Q 33.68 5.34 34.55 6.17
  Q 38.36 9.84 42.35 13.62
  Q 42.80 14.04 43.01 14.62
  Q 43.74 16.62 45.37 17.35
  Q 45.62 17.46 45.59 17.74
  Q 45.41 19.30 46.97 20.01
  Q 47.49 20.24 47.70 20.76
  L 49.19 24.29
  Q 49.41 24.81 49.90 25.09
  Q 50.29 25.30 50.38 25.76
  Q 50.73 27.47 51.55 28.84
  Q 51.79 29.24 51.89 29.70
  L 52.44 32.11
  A 1.12 1.07 -77.3 0 0 52.81 32.73
  Q 53.33 33.17 53.26 33.87
  A 1.45 1.42 31.0 0 0 53.52 34.86
  Q 55.22 37.21 56.14 35.03
  A 0.79 0.78 17.6 0 1 57.04 34.57
  L 58.15 34.84
  Q 58.75 34.99 58.79 34.37
  Q 58.80 34.22 58.68 34.10
  Q 58.19 33.62 58.87 33.52
  Q 60.03 33.34 61.03 32.77
  A 1.56 1.56 0.0 0 1 62.13 32.61
  Q 63.34 32.90 64.09 31.92
  Q 64.54 31.33 65.17 31.72
  Q 66.15 32.33 66.85 31.48
  Q 67.19 31.06 67.73 31.02
  Q 72.58 30.61 77.34 31.35
  Q 77.81 31.42 78.17 31.75
  C 78.52 32.06 78.77 32.30 79.25 32.41
  Q 82.38 33.15 85.06 35.07
  Q 85.48 35.37 85.64 35.86
  Q 85.98 36.83 86.92 37.17
  A 1.39 1.37 1.0 0 1 87.76 38.03
  Q 88.16 39.23 89.17 40.00
  Q 89.68 40.39 89.71 41.04
  Q 89.79 42.58 90.71 43.86
  Q 90.98 44.24 90.98 44.70
  L 90.99 54.30
  A 1.49 1.49 0.0 0 1 90.73 55.14
  C 89.86 56.42 90.19 57.47 89.76 58.79
  Q 88.79 61.76 87.53 64.58
  Q 87.34 64.99 87.45 65.43
  Q 87.51 65.69 87.66 65.91
  Q 87.94 66.32 87.93 66.82
  L 87.77 75.00
  Z
  M 19.81 30.86
  Q 20.33 34.04 21.16 36.80
  Q 25.62 51.66 31.10 66.23
  Q 31.33 66.84 31.98 66.82
  L 41.00 66.56
  Q 41.53 66.54 41.51 66.01
  Q 40.94 52.99 37.32 40.50
  Q 36.83 38.80 34.61 34.27
  C 32.21 29.16 27.27 21.52 21.49 19.85
  Q 19.12 19.16 18.86 21.42
  Q 18.32 26.22 19.81 30.86
  Z
  M 67.40 63.67
  C 70.32 60.00 73.04 56.06 73.43 51.37
  A 2.32 2.31 -78.5 0 0 71.85 48.98
  C 66.75 47.30 60.10 53.77 57.76 57.84
  Q 56.01 60.88 54.23 65.46
  Q 53.82 66.53 54.96 66.65
  Q 58.50 67.02 63.13 66.93
  Q 65.65 66.88 66.52 65.08
  Q 66.88 64.33 67.40 63.67
  Z"
/>
<path fill="#dffac5" d="
  M 34.61 34.27
  L 35.09 37.05
  A 1.55 1.54 -15.2 0 1 34.10 38.76
  Q 30.18 40.22 27.01 38.09
  Q 26.27 37.60 23.61 34.34
  Q 21.91 32.26 19.81 30.86
  Q 18.32 26.22 18.86 21.42
  Q 19.12 19.16 21.49 19.85
  C 27.27 21.52 32.21 29.16 34.61 34.27
  Z"
/>
<path fill="#7fd176" d="
  M 19.81 30.86
  Q 21.91 32.26 23.61 34.34
  Q 26.27 37.60 27.01 38.09
  Q 30.18 40.22 34.10 38.76
  A 1.55 1.54 -15.2 0 0 35.09 37.05
  L 34.61 34.27
  Q 36.83 38.80 37.32 40.50
  Q 40.94 52.99 41.51 66.01
  Q 41.53 66.54 41.00 66.56
  L 31.98 66.82
  Q 31.33 66.84 31.10 66.23
  Q 25.62 51.66 21.16 36.80
  Q 20.33 34.04 19.81 30.86
  Z"
/>
<path fill="#8fde93" d="
  M 66.52 65.08
  Q 65.65 66.88 63.13 66.93
  Q 58.50 67.02 54.96 66.65
  Q 53.82 66.53 54.23 65.46
  Q 56.01 60.88 57.76 57.84
  C 60.10 53.77 66.75 47.30 71.85 48.98
  A 2.32 2.31 -78.5 0 1 73.43 51.37
  C 73.04 56.06 70.32 60.00 67.40 63.67
  Q 66.88 64.33 66.52 65.08
  Z"
/>
</svg>
