<?xml version="1.0" encoding="UTF-8" standalone="no"?>
<!DOCTYPE svg PUBLIC "-//W3C//DTD SVG 1.1//EN" "http://www.w3.org/Graphics/SVG/1.1/DTD/svg11.dtd">
<svg xmlns="http://www.w3.org/2000/svg" version="1.1" viewBox="0.00 0.00 128.00 72.00">
<g stroke-width="2.00" fill="none" stroke-linecap="butt">
<path stroke="#907f68" vector-effect="non-scaling-stroke" d="
  M 63.34 29.27
  Q 59.60 24.53 54.56 21.76"
/>
<path stroke="#556939" vector-effect="non-scaling-stroke" d="
  M 54.56 21.76
  Q 50.23 18.59 45.00 19.82
  C 37.69 21.53 45.68 40.42 47.74 44.74
  Q 51.91 53.46 55.17 61.91
  A 0.93 0.92 79.3 0 0 56.03 62.50
  L 71.48 62.53
  A 0.57 0.57 0.0 0 0 72.05 61.94
  Q 71.78 52.68 70.08 43.75
  Q 68.63 36.14 63.34 29.27"
/>
<path stroke="#b4e89f" vector-effect="non-scaling-stroke" d="
  M 54.56 21.76
  L 49.25 20.69
  A 1.02 1.00 -59.9 0 0 48.35 20.94
  C 46.19 22.93 45.67 25.90 47.26 28.46
  Q 50.92 34.30 56.46 38.04
  C 58.25 39.24 60.03 38.89 62.01 38.84
  A 1.39 1.39 0.0 0 0 63.37 37.45
  L 63.37 32.76
  Q 63.37 32.31 63.67 31.96
  Q 64.30 31.25 63.61 30.37
  Q 63.27 29.93 63.34 29.27"
/>
<path stroke="#60704c" vector-effect="non-scaling-stroke" d="
  M 96.43 62.90
  A 1.38 1.38 0.0 0 0 97.44 62.46
  C 101.59 57.94 107.75 50.58 107.26 44.45
  A 0.58 0.57 88.9 0 0 106.71 43.92
  Q 102.68 43.75 98.90 46.20
  Q 90.05 51.93 85.81 62.17
  Q 85.53 62.83 86.25 62.84
  L 96.43 62.90"
/>
<path stroke="#5a6844" vector-effect="non-scaling-stroke" d="
  M 39.17 61.50
  C 35.07 54.83 28.92 45.76 19.84 46.05
  A 1.22 1.21 79.7 0 0 18.73 47.66
  Q 20.80 53.75 25.21 58.63
  Q 26.58 60.16 27.44 61.70
  Q 28.03 62.77 29.25 62.76
  L 38.51 62.68
  Q 39.89 62.67 39.17 61.50"
/>
</g>
<path fill="#310002" d="
  M 128.00 62.04
  L 128.00 71.00
  L 5.16 71.01
  Q 4.00 71.01 4.00 69.85
  L 4.00 62.75
  Q 4.00 61.72 5.00 61.95
  Q 5.94 62.17 6.60 61.49
  Q 7.08 61.00 6.64 60.48
  Q 6.48 60.29 6.29 60.33
  Q 5.46 60.47 5.46 59.64
  Q 5.46 58.91 4.80 58.60
  Q 4.34 58.37 4.62 57.94
  Q 5.96 55.93 4.35 54.07
  Q 4.05 53.72 3.98 53.26
  Q 3.71 51.47 1.97 50.34
  Q 1.40 49.96 2.07 49.87
  Q 2.20 49.86 2.34 49.89
  Q 2.45 49.91 2.43 49.80
  Q 1.70 46.35 1.36 41.89
  Q 1.18 39.54 2.60 37.11
  C 4.21 34.37 7.14 29.79 10.38 29.69
  Q 10.41 29.69 10.45 29.69
  Q 11.83 29.50 11.82 28.85
  Q 11.81 28.32 12.33 28.42
  Q 14.99 28.92 17.65 28.24
  Q 17.70 28.23 17.67 28.18
  Q 17.60 28.06 17.61 27.94
  Q 17.61 27.82 17.73 27.78
  Q 18.23 27.62 18.70 27.79
  Q 18.78 27.82 18.79 27.91
  Q 18.79 28.01 18.69 28.06
  Q 18.53 28.13 18.71 28.12
  Q 18.81 28.12 18.92 28.14
  Q 19.29 28.21 19.00 27.97
  Q 18.96 27.93 18.96 27.87
  Q 18.99 27.64 19.19 27.77
  Q 21.13 29.06 23.75 28.77
  Q 24.84 28.65 25.26 28.01
  Q 25.69 27.34 25.39 26.46
  Q 25.21 25.94 25.23 25.38
  Q 25.43 21.07 25.42 16.26
  Q 25.42 15.51 25.76 14.79
  Q 26.21 13.86 26.17 12.78
  Q 26.16 12.24 26.69 12.20
  Q 28.05 12.09 28.00 10.71
  Q 27.98 10.23 28.31 9.87
  C 29.00 9.15 30.63 8.57 30.66 7.43
  Q 30.68 6.88 31.22 6.77
  Q 32.05 6.59 32.58 5.87
  A 2.10 2.06 6.3 0 1 33.42 5.21
  Q 35.07 4.47 36.74 3.87
  Q 37.20 3.70 37.46 3.36
  Q 37.55 3.25 37.58 3.10
  Q 37.64 2.66 38.06 2.78
  C 39.58 3.23 40.60 2.11 42.05 1.89
  C 45.48 1.36 52.60 0.71 55.39 2.63
  Q 56.11 3.12 57.08 3.28
  Q 57.99 3.42 58.80 3.90
  Q 60.75 5.04 62.81 5.83
  C 64.40 6.44 65.17 7.53 66.66 8.11
  Q 67.20 8.32 67.53 8.78
  Q 68.87 10.61 70.88 11.29
  Q 71.43 11.48 71.50 12.05
  L 71.54 12.32
  Q 71.58 12.66 71.84 12.88
  L 77.33 17.67
  Q 77.76 18.04 77.85 18.61
  Q 78.11 20.10 79.40 21.06
  Q 79.86 21.40 80.05 21.94
  Q 80.69 23.76 81.60 25.22
  C 83.45 28.18 84.39 30.73 85.28 33.99
  Q 85.38 34.36 85.69 34.63
  A 0.47 0.47 0.0 0 0 86.47 34.32
  Q 86.53 33.55 87.14 33.14
  Q 88.11 32.51 91.17 31.17
  Q 91.64 30.97 91.91 30.53
  L 92.14 30.13
  A 0.43 0.42 -66.2 0 1 92.61 29.94
  Q 94.15 30.36 94.89 29.27
  A 0.81 0.80 -68.8 0 1 95.65 28.93
  Q 96.44 29.03 97.16 28.59
  C 98.53 27.76 99.87 26.92 101.54 27.07
  Q 103.52 27.24 105.34 26.38
  Q 105.76 26.18 106.22 26.25
  L 108.16 26.55
  Q 108.66 26.63 109.10 26.39
  Q 109.96 25.92 110.99 25.77
  Q 111.49 25.70 111.71 26.17
  Q 112.15 27.12 113.12 26.50
  A 1.06 1.05 51.1 0 1 114.45 26.65
  L 115.24 27.45
  A 1.09 1.07 73.6 0 0 115.76 27.74
  Q 118.77 28.40 120.63 30.55
  Q 122.67 32.90 124.19 35.56
  Q 125.40 37.67 125.28 40.02
  C 125.13 43.32 125.77 46.49 125.08 49.75
  Q 124.50 52.49 123.34 54.60
  Q 121.75 57.48 120.16 60.41
  Q 119.32 61.96 121.08 61.98
  L 128.00 62.04
  Z
  M 63.34 29.27
  Q 59.60 24.53 54.56 21.76
  Q 50.23 18.59 45.00 19.82
  C 37.69 21.53 45.68 40.42 47.74 44.74
  Q 51.91 53.46 55.17 61.91
  A 0.93 0.92 79.3 0 0 56.03 62.50
  L 71.48 62.53
  A 0.57 0.57 0.0 0 0 72.05 61.94
  Q 71.78 52.68 70.08 43.75
  Q 68.63 36.14 63.34 29.27
  Z
  M 96.43 62.90
  A 1.38 1.38 0.0 0 0 97.44 62.46
  C 101.59 57.94 107.75 50.58 107.26 44.45
  A 0.58 0.57 88.9 0 0 106.71 43.92
  Q 102.68 43.75 98.90 46.20
  Q 90.05 51.93 85.81 62.17
  Q 85.53 62.83 86.25 62.84
  L 96.43 62.90
  Z
  M 39.17 61.50
  C 35.07 54.83 28.92 45.76 19.84 46.05
  A 1.22 1.21 79.7 0 0 18.73 47.66
  Q 20.80 53.75 25.21 58.63
  Q 26.58 60.16 27.44 61.70
  Q 28.03 62.77 29.25 62.76
  L 38.51 62.68
  Q 39.89 62.67 39.17 61.50
  Z"
/>
<path fill="#79d270" d="
  M 54.56 21.76
  L 49.25 20.69
  A 1.02 1.00 -59.9 0 0 48.35 20.94
  C 46.19 22.93 45.67 25.90 47.26 28.46
  Q 50.92 34.30 56.46 38.04
  C 58.25 39.24 60.03 38.89 62.01 38.84
  A 1.39 1.39 0.0 0 0 63.37 37.45
  L 63.37 32.76
  Q 63.37 32.31 63.67 31.96
  Q 64.30 31.25 63.61 30.37
  Q 63.27 29.93 63.34 29.27
  Q 68.63 36.14 70.08 43.75
  Q 71.78 52.68 72.05 61.94
  A 0.57 0.57 0.0 0 1 71.48 62.53
  L 56.03 62.50
  A 0.93 0.92 79.3 0 1 55.17 61.91
  Q 51.91 53.46 47.74 44.74
  C 45.68 40.42 37.69 21.53 45.00 19.82
  Q 50.23 18.59 54.56 21.76
  Z"
/>
<path fill="#effdcd" d="
  M 54.56 21.76
  Q 59.60 24.53 63.34 29.27
  Q 63.27 29.93 63.61 30.37
  Q 64.30 31.25 63.67 31.96
  Q 63.37 32.31 63.37 32.76
  L 63.37 37.45
  A 1.39 1.39 0.0 0 1 62.01 38.84
  C 60.03 38.89 58.25 39.24 56.46 38.04
  Q 50.92 34.30 47.26 28.46
  C 45.67 25.90 46.19 22.93 48.35 20.94
  A 1.02 1.00 -59.9 0 1 49.25 20.69
  L 54.56 21.76
  Z"
/>
<path fill="#8fdf96" d="
  M 96.43 62.90
  L 86.25 62.84
  Q 85.53 62.83 85.81 62.17
  Q 90.05 51.93 98.90 46.20
  Q 102.68 43.75 106.71 43.92
  A 0.58 0.57 88.9 0 1 107.26 44.45
  C 107.75 50.58 101.59 57.94 97.44 62.46
  A 1.38 1.38 0.0 0 1 96.43 62.90
  Z"
/>
<path fill="#82cf85" d="
  M 19.84 46.05
  C 28.92 45.76 35.07 54.83 39.17 61.50
  Q 39.89 62.67 38.51 62.68
  L 29.25 62.76
  Q 28.03 62.77 27.44 61.70
  Q 26.58 60.16 25.21 58.63
  Q 20.80 53.75 18.73 47.66
  A 1.22 1.21 79.7 0 1 19.84 46.05
  Z"
/>
</svg>
