<?xml version="1.0" encoding="UTF-8" standalone="no"?>
<!DOCTYPE svg PUBLIC "-//W3C//DTD SVG 1.1//EN" "http://www.w3.org/Graphics/SVG/1.1/DTD/svg11.dtd">
<svg xmlns="http://www.w3.org/2000/svg" version="1.1" viewBox="0.00 0.00 1024.00 1024.00">
<g stroke-width="2.00" fill="none" stroke-linecap="butt">
<path stroke="#fdfbf2" vector-effect="non-scaling-stroke" d="
  M 416.89 410.15
  Q 413.48 413.06 410.28 416.73
  Q 405.07 422.68 400.12 428.96
  Q 397.77 431.94 395.70 435.51
  Q 391.77 442.29 388.07 449.08
  Q 386.34 452.25 384.94 455.62
  Q 383.53 459.02 382.18 462.38
  Q 380.82 465.77 379.78 469.18
  Q 378.80 472.43 377.55 475.99
  Q 375.65 481.39 373.96 492.23
  Q 373.94 492.37 373.82 492.46
  Q 373.70 492.53 373.61 492.63
  Q 373.50 492.73 373.48 492.88
  Q 372.69 499.57 372.89 505.78
  C 372.99 509.03 372.23 512.14 372.39 515.36
  Q 373.27 533.05 377.79 550.41
  Q 378.66 553.77 380.02 557.17
  Q 381.24 560.23 382.57 563.43
  Q 383.40 565.44 386.44 572.21
  Q 389.32 578.66 393.78 585.79
  Q 397.27 591.38 401.30 596.73
  Q 405.74 602.63 409.52 606.80
  Q 425.72 624.69 451.02 637.98
  Q 455.61 640.39 460.84 642.44
  Q 466.39 644.62 471.13 645.81
  Q 476.78 647.22 480.13 648.59
  Q 481.09 648.98 481.97 649.05
  Q 483.04 649.14 484.09 649.42
  Q 493.02 651.80 496.72 651.88
  Q 503.18 652.01 509.09 652.65
  Q 511.38 652.89 513.40 652.88
  C 517.03 652.86 520.68 652.91 524.23 652.56
  Q 529.76 652.02 535.13 651.38
  Q 539.64 650.84 543.33 649.99
  Q 547.67 648.99 551.36 647.82
  Q 553.29 647.21 555.11 646.77
  Q 557.27 646.25 558.78 645.59
  Q 560.94 644.65 562.95 643.81
  Q 565.03 642.95 567.02 641.96
  Q 574.17 638.39 581.74 634.80
  Q 584.68 633.40 587.19 631.69
  Q 589.86 629.87 592.61 628.17
  Q 596.43 625.80 600.29 622.48
  Q 603.01 620.14 605.74 617.99
  Q 608.30 615.98 610.72 613.44
  Q 614.66 609.31 618.73 605.13
  Q 619.51 604.33 620.24 603.49
  Q 623.69 599.49 626.21 595.62
  C 627.52 593.61 629.25 592.07 630.47 589.98
  C 632.45 586.58 634.83 583.46 636.53 579.86
  Q 638.67 575.35 641.07 571.46
  C 643.30 567.84 644.83 564.09 646.09 560.24
  Q 647.50 555.94 649.01 550.96
  Q 650.41 546.36 651.30 541.21
  Q 653.80 526.71 654.05 516.51
  Q 654.39 502.40 652.67 491.49
  Q 651.31 482.85 647.91 469.71
  Q 647.05 466.38 645.79 463.40
  Q 644.63 460.64 643.64 457.87
  Q 642.16 453.73 640.01 449.92
  Q 635.65 442.21 631.55 434.83
  Q 630.50 432.94 629.09 431.41
  C 626.68 428.76 625.01 425.57 622.54 423.10
  C 619.55 420.10 617.10 416.63 614.04 413.77
  Q 588.42 389.84 558.40 379.10
  Q 546.75 374.94 527.80 371.78
  Q 523.39 371.05 518.27 371.08
  Q 513.30 371.11 508.37 371.16
  Q 499.28 371.25 489.26 373.18
  Q 477.57 375.43 463.51 380.80
  Q 455.09 384.02 447.37 388.37
  Q 439.84 392.62 431.74 398.10
  Q 427.44 401.00 423.63 404.33
  Q 420.35 407.20 416.89 410.15"
/>
<path stroke="#8c8b8f" vector-effect="non-scaling-stroke" d="
  M 635.08 565.34
  C 653.22 526.15 649.57 479.16 626.90 442.63
  Q 622.09 434.89 615.03 426.78
  Q 587.46 395.13 546.97 383.39
  Q 536.19 380.27 526.45 379.40
  C 482.75 375.50 441.59 393.06 412.50 425.27
  Q 406.73 431.66 401.07 440.53
  Q 381.63 471.00 380.66 507.03
  C 379.54 548.19 396.71 586.63 428.12 612.98
  Q 449.20 630.67 474.28 638.70
  C 510.40 650.27 549.26 645.44 581.69 625.39
  C 592.55 618.67 603.11 610.76 611.39 601.43
  Q 625.98 585.00 635.08 565.34"
/>
<path stroke="#8e909c" vector-effect="non-scaling-stroke" d="
  M 528.27 409.08
  L 529.99 408.62
  Q 531.60 408.19 530.11 407.45
  L 528.41 406.60
  Q 527.88 406.34 527.85 405.75
  Q 527.81 404.74 527.17 403.95
  A 0.47 0.47 0.0 0 0 526.35 404.11
  Q 526.04 405.10 526.07 406.15
  Q 526.10 406.86 525.45 407.17
  L 524.40 407.67
  Q 523.70 408.01 524.27 408.54
  Q 524.76 408.99 525.38 409.20
  A 1.23 1.21 87.2 0 1 526.15 409.91
  L 526.85 411.67
  Q 527.54 413.38 527.93 411.58
  Q 528.11 410.74 527.83 409.92
  Q 527.60 409.27 528.27 409.08"
/>
<path stroke="#8e909c" vector-effect="non-scaling-stroke" d="
  M 449.07 418.80
  Q 449.17 420.39 448.06 421.38
  A 1.22 1.21 57.4 0 1 446.14 420.95
  L 445.66 419.83
  A 1.31 1.31 0.0 0 0 443.24 419.88
  Q 442.77 421.10 443.93 422.47
  A 0.72 0.69 64.5 0 0 444.57 422.71
  L 445.25 422.59
  A 0.70 0.69 7.0 0 1 446.01 423.56
  Q 445.34 425.07 444.17 426.01
  Q 443.86 426.26 443.86 426.65
  Q 443.86 427.59 444.60 428.02
  Q 445.23 428.38 445.64 427.77
  Q 446.39 426.65 447.41 426.99
  Q 448.06 427.21 448.05 427.89
  Q 448.01 429.89 449.76 430.37
  A 1.44 1.44 0.0 0 0 450.97 430.18
  Q 451.87 429.59 452.38 428.63
  Q 452.64 428.14 453.18 427.99
  Q 455.57 427.36 455.53 424.54
  Q 455.52 423.93 455.13 423.45
  Q 454.40 422.57 454.25 421.37
  Q 454.17 420.72 453.68 420.27
  Q 451.44 418.22 448.30 417.91
  Q 447.90 417.87 448.22 418.12
  Q 448.43 418.29 448.70 418.36
  A 0.50 0.48 -86.1 0 1 449.07 418.80"
/>
<path stroke="#6b7085" vector-effect="non-scaling-stroke" d="
  M 578.2197 431.8057
  A 6.80 6.62 77.0 0 0 583.1403 423.6908
  A 6.80 6.62 77.0 0 0 575.1603 418.5543
  A 6.80 6.62 77.0 0 0 570.2397 426.6692
  A 6.80 6.62 77.0 0 0 578.2197 431.8057"
/>
<path stroke="#474d64" vector-effect="non-scaling-stroke" d="
  M 540.62 433.14
  Q 533.15 429.27 525.79 425.76
  Q 512.49 419.41 498.76 423.60
  C 492.21 425.60 486.14 427.49 479.48 425.92
  Q 478.73 425.75 478.87 426.50
  Q 482.52 446.39 499.61 453.45
  C 507.74 456.81 517.60 457.19 526.18 454.70
  Q 543.84 449.57 557.30 437.48
  Q 558.20 436.68 558.60 435.57
  Q 558.85 434.91 558.15 435.00
  C 552.08 435.70 546.15 436.00 540.62 433.14"
/>
<path stroke="#6b7085" vector-effect="non-scaling-stroke" d="
  M 442.9036 425.4209
  A 1.06 0.39 110.8 0 0 443.6446 424.5685
  A 1.06 0.39 110.8 0 0 443.6564 423.4391
  A 1.06 0.39 110.8 0 0 442.9154 424.2915
  A 1.06 0.39 110.8 0 0 442.9036 425.4209"
/>
<path stroke="#8e909c" vector-effect="non-scaling-stroke" d="
  M 591.6959 432.8448
  A 2.18 1.39 54.5 0 0 591.5616 430.2628
  A 2.18 1.39 54.5 0 0 589.1641 429.2952
  A 2.18 1.39 54.5 0 0 589.2984 431.8772
  A 2.18 1.39 54.5 0 0 591.6959 432.8448"
/>
<path stroke="#474d64" vector-effect="non-scaling-stroke" d="
  M 472.71 475.92
  C 473.08 472.55 472.77 469.75 476.25 467.85
  C 479.18 466.25 481.11 464.35 481.90 460.98
  Q 483.11 455.76 483.15 450.75
  C 483.18 447.07 480.61 444.02 478.73 441.05
  A 0.45 0.45 0.0 0 0 477.98 441.03
  Q 475.47 444.45 472.66 447.64
  C 468.61 452.23 468.04 457.40 467.91 463.47
  Q 467.76 470.90 468.03 476.97
  Q 468.10 478.40 469.47 478.02
  L 471.35 477.51
  Q 472.57 477.18 472.71 475.92"
/>
<path stroke="#474d64" vector-effect="non-scaling-stroke" d="
  M 559.75 462.64
  C 559.94 457.02 557.68 452.33 554.75 447.57
  A 1.21 1.21 0.0 0 0 553.11 447.16
  L 545.01 451.85
  A 2.60 2.59 -20.4 0 0 543.76 454.56
  C 544.90 460.76 545.87 465.21 552.11 468.10
  C 554.98 469.43 555.29 473.13 554.79 475.89
  Q 554.58 477.11 555.79 477.32
  L 558.28 477.75
  Q 559.09 477.89 559.13 477.08
  Q 559.53 469.28 559.75 462.64"
/>
<path stroke="#8c8b8f" vector-effect="non-scaling-stroke" d="
  M 481.38 517.30
  Q 484.93 526.06 491.60 532.36
  C 499.92 540.21 512.71 544.01 523.73 539.69
  Q 537.06 534.46 543.77 521.45
  Q 550.14 509.12 550.57 496.73
  Q 550.94 486.03 550.68 474.19
  Q 550.65 472.59 549.45 471.53
  C 546.75 469.12 543.72 466.89 542.29 463.46
  Q 540.42 458.95 540.46 454.28
  A 0.31 0.31 0.0 0 0 539.98 454.01
  C 534.16 457.70 526.23 459.94 519.68 460.68
  Q 502.76 462.59 488.95 452.64
  C 488.28 452.15 487.71 451.43 487.21 450.77
  Q 486.65 450.05 486.68 450.96
  C 486.92 458.47 485.67 465.09 479.84 470.49
  Q 478.52 471.71 477.29 472.85
  Q 476.78 473.33 476.76 474.03
  Q 476.42 486.83 476.86 498.12
  Q 477.20 506.97 481.38 517.30"
/>
<path stroke="#6b7085" vector-effect="non-scaling-stroke" d="
  M 609.6700 478.4535
  A 12.55 12.10 58.7 0 0 613.4890 461.4438
  A 12.55 12.10 58.7 0 0 596.6300 457.0065
  A 12.55 12.10 58.7 0 0 592.8110 474.0162
  A 12.55 12.10 58.7 0 0 609.6700 478.4535"
/>
<path stroke="#6b7085" vector-effect="non-scaling-stroke" d="
  M 444.5538 456.3504
  A 0.73 0.73 0.0 0 0 443.8263 455.6178
  L 410.7065 455.5022
  A 0.73 0.73 0.0 0 0 409.9740 456.2297
  L 409.9662 458.4496
  A 0.73 0.73 0.0 0 0 410.6937 459.1822
  L 443.8135 459.2978
  A 0.73 0.73 0.0 0 0 444.5460 458.5703
  L 444.5538 456.3504"
/>
<path stroke="#8e909c" vector-effect="non-scaling-stroke" d="
  M 409.30 473.81
  A 0.94 0.94 0.0 0 0 409.63 474.41
  L 410.79 475.36
  A 0.94 0.94 0.0 0 0 412.31 474.80
  L 412.75 472.32
  A 0.94 0.94 0.0 0 0 411.83 471.22
  L 410.03 471.20
  A 0.94 0.94 0.0 0 0 409.09 472.27
  L 409.30 473.81"
/>
<path stroke="#8e909c" vector-effect="non-scaling-stroke" d="
  M 444.38 471.44
  L 442.60 471.24
  A 0.68 0.68 0.0 0 0 441.84 471.84
  L 441.70 473.08
  A 1.55 1.31 -83.4 0 0 442.82 474.77
  L 443.36 474.83
  A 1.55 1.31 -83.4 0 0 444.84 473.44
  L 444.98 472.20
  A 0.68 0.68 0.0 0 0 444.38 471.44"
/>
<path stroke="#6b7085" vector-effect="non-scaling-stroke" d="
  M 434.6556 472.6361
  A 0.88 0.88 0.0 0 0 433.7710 471.7607
  L 418.7512 471.8393
  A 0.88 0.88 0.0 0 0 417.8758 472.7239
  L 417.8844 474.3639
  A 0.88 0.88 0.0 0 0 418.7690 475.2393
  L 433.7888 475.1607
  A 0.88 0.88 0.0 0 0 434.6642 474.2761
  L 434.6556 472.6361"
/>
<path stroke="#6b7085" vector-effect="non-scaling-stroke" d="
  M 620.6921 485.3034
  A 3.65 1.33 71.6 0 0 620.8020 481.4202
  A 3.65 1.33 71.6 0 0 618.3879 478.3766
  A 3.65 1.33 71.6 0 0 618.2780 482.2598
  A 3.65 1.33 71.6 0 0 620.6921 485.3034"
/>
<path stroke="#6b7085" vector-effect="non-scaling-stroke" d="
  M 409.2127 481.9858
  A 0.98 0.98 0.0 0 0 408.4660 480.8182
  L 408.3879 480.8010
  A 0.98 0.98 0.0 0 0 407.2203 481.5477
  L 405.8073 487.9742
  A 0.98 0.98 0.0 0 0 406.5540 489.1418
  L 406.6321 489.1590
  A 0.98 0.98 0.0 0 0 407.7997 488.4123
  L 409.2127 481.9858"
/>
<path stroke="#8c8b8f" vector-effect="non-scaling-stroke" d="
  M 554.50 481.52
  L 553.90 501.71
  A 0.08 0.08 0.0 0 0 553.98 501.80
  L 554.00 501.80
  A 10.13 8.84 -88.3 0 0 563.14 491.93
  L 563.14 491.83
  A 10.13 8.84 -88.3 0 0 554.60 481.44
  L 554.58 481.44
  A 0.08 0.08 0.0 0 0 554.50 481.52"
/>
<path stroke="#8c8b8f" vector-effect="non-scaling-stroke" d="
  M 473.22 501.80
  L 473.22 481.56
  A 0.16 0.16 0.0 0 0 473.06 481.40
  L 473.04 481.40
  A 10.19 9.02 -90.0 0 0 464.02 491.59
  L 464.02 491.77
  A 10.19 9.02 90.0 0 0 473.04 501.96
  L 473.06 501.96
  A 0.16 0.16 0.0 0 0 473.22 501.80"
/>
<path stroke="#6b7085" vector-effect="non-scaling-stroke" d="
  M 433.8137 512.1804
  A 9.34 8.70 87.4 0 0 442.0810 502.4553
  A 9.34 8.70 87.4 0 0 432.9663 493.5196
  A 9.34 8.70 87.4 0 0 424.6990 503.2447
  A 9.34 8.70 87.4 0 0 433.8137 512.1804"
/>
<path stroke="#8e909c" vector-effect="non-scaling-stroke" d="
  M 586.39 510.45
  C 584.81 511.52 582.73 511.07 581.66 512.86
  C 579.86 515.84 576.57 516.74 578.03 520.93
  C 579.64 525.59 583.97 522.77 585.35 520.11
  Q 587.69 515.58 591.93 512.85
  Q 598.92 508.34 607.34 502.81
  Q 608.76 501.87 607.64 500.59
  L 606.12 498.86
  Q 605.04 497.64 603.71 498.57
  Q 595.35 504.40 586.39 510.45"
/>
<path stroke="#6b7085" vector-effect="non-scaling-stroke" d="
  M 623.8931 499.4828
  A 0.80 0.80 0.0 0 0 623.0550 498.7228
  L 622.5356 498.7482
  A 0.80 0.80 0.0 0 0 621.7756 499.5863
  L 622.1469 507.1772
  A 0.80 0.80 0.0 0 0 622.9850 507.9372
  L 623.5044 507.9118
  A 0.80 0.80 0.0 0 0 624.2644 507.0737
  L 623.8931 499.4828"
/>
<path stroke="#8e909c" vector-effect="non-scaling-stroke" d="
  M 407.49 507.55
  L 407.37 501.57
  A 0.25 0.25 0.0 0 0 407.12 501.32
  L 406.79 501.33
  A 2.54 1.62 88.9 0 0 405.22 503.90
  L 405.24 505.30
  A 2.54 1.62 88.9 0 0 406.91 507.81
  L 407.24 507.80
  A 0.25 0.25 0.0 0 0 407.49 507.55"
/>
<path stroke="#6b7085" vector-effect="non-scaling-stroke" d="
  M 623.39 520.74
  A 0.73 0.73 0.0 0 0 622.08 520.18
  L 620.84 521.99
  A 0.73 0.73 0.0 0 0 620.72 522.30
  L 619.99 527.20
  A 0.73 0.73 0.0 0 0 621.11 527.92
  L 621.77 527.50
  A 0.73 0.73 0.0 0 0 622.09 527.03
  L 623.39 520.74"
/>
<path stroke="#8e909c" vector-effect="non-scaling-stroke" d="
  M 408.0321 535.0540
  A 2.39 2.32 103.5 0 0 410.8459 533.2716
  A 2.39 2.32 103.5 0 0 409.1479 530.4060
  A 2.39 2.32 103.5 0 0 406.3341 532.1884
  A 2.39 2.32 103.5 0 0 408.0321 535.0540"
/>
<path stroke="#6b7085" vector-effect="non-scaling-stroke" d="
  M 416.17 532.92
  Q 416.49 534.42 418.02 534.50
  C 422.06 534.71 427.49 535.25 431.20 533.69
  C 433.01 532.93 434.71 533.43 436.55 533.55
  Q 437.78 533.63 437.70 532.40
  Q 437.69 532.16 437.68 532.09
  Q 437.59 530.66 436.37 530.67
  L 417.21 530.84
  Q 415.74 530.86 416.04 532.29
  L 416.17 532.92"
/>
<path stroke="#8e909c" vector-effect="non-scaling-stroke" d="
  M 606.76 544.84
  L 606.06 547.12
  A 1.56 1.56 0.0 0 0 607.17 549.09
  Q 609.34 549.63 611.06 548.86
  A 0.94 0.94 0.0 0 0 611.63 548.01
  L 611.67 544.58
  A 0.89 0.89 0.0 0 1 612.89 543.77
  Q 613.74 544.11 614.39 544.74
  A 0.92 0.92 0.0 0 0 615.90 544.39
  Q 616.86 541.66 615.72 539.23
  A 0.72 0.71 -17.4 0 0 614.94 538.83
  L 612.25 539.28
  A 0.90 0.89 0.4 0 1 611.22 538.24
  L 611.79 535.05
  A 0.74 0.73 4.7 0 0 611.04 534.18
  L 607.24 534.28
  Q 606.52 534.30 606.59 535.01
  L 606.87 538.10
  Q 607.00 539.45 605.65 539.56
  L 602.03 539.86
  A 0.59 0.58 86.9 0 0 601.50 540.46
  L 601.57 543.95
  Q 601.59 544.98 602.54 544.60
  Q 604.26 543.92 605.95 543.81
  Q 607.10 543.73 606.76 544.84"
/>
<path stroke="#8c8b8f" vector-effect="non-scaling-stroke" d="
  M 491.05 550.27
  Q 490.45 555.64 489.59 559.84
  C 489.31 561.21 488.62 562.28 487.77 563.34
  Q 487.14 564.13 487.98 564.71
  Q 501.34 573.85 513.11 582.89
  Q 513.60 583.26 514.09 582.90
  L 539.25 564.50
  Q 539.72 564.16 539.42 563.76
  Q 537.20 560.75 536.60 556.36"
/>
<path stroke="#6b7085" vector-effect="non-scaling-stroke" d="
  M 536.60 556.36
  L 535.64 540.74
  Q 535.61 540.17 535.16 540.53
  Q 527.62 546.64 518.69 549.12
  C 509.62 551.65 498.66 545.97 491.62 540.27
  Q 491.15 539.89 491.14 540.49
  L 491.05 550.27"
/>
<path stroke="#dbdbdb" vector-effect="non-scaling-stroke" d="
  M 536.60 556.36
  Q 535.15 557.30 534.08 559.92
  Q 533.86 560.45 533.35 560.72
  Q 531.97 561.46 530.69 562.37
  C 529.67 563.10 528.61 563.17 527.70 564.11
  Q 527.32 564.49 526.80 564.64
  Q 522.23 565.98 517.91 566.84
  Q 516.67 567.09 515.52 566.71
  Q 514.48 566.37 513.43 566.38
  C 512.27 566.38 511.33 566.52 510.23 566.11
  Q 506.04 564.55 501.59 562.71
  Q 499.92 562.02 498.65 560.68
  Q 497.38 559.33 496.23 557.93
  Q 496.10 557.76 494.02 555.71
  Q 492.22 553.94 491.05 550.27"
/>
<path stroke="#6b7085" vector-effect="non-scaling-stroke" d="
  M 440.25 546.54
  L 438.35 546.64
  A 0.71 0.71 0.0 0 0 437.68 547.39
  L 437.74 548.39
  A 1.95 1.47 86.9 0 0 439.31 550.26
  L 439.69 550.24
  A 1.95 1.47 86.9 0 0 441.05 548.21
  L 441.00 547.21
  A 0.71 0.71 0.0 0 0 440.25 546.54"
/>
<path stroke="#474d64" vector-effect="non-scaling-stroke" d="
  M 474.94 557.70
  A 2.44 2.42 -52.4 0 1 477.58 557.35
  Q 480.91 558.94 484.38 560.95
  A 1.03 1.03 0.0 0 0 485.92 560.24
  Q 487.16 553.26 487.20 547.48
  Q 487.21 546.56 486.28 546.54
  Q 475.06 546.32 464.48 546.57
  C 458.84 546.70 453.06 548.85 450.62 554.19
  C 448.32 559.23 451.53 562.70 455.47 565.12
  Q 467.10 572.23 479.46 579.83
  C 489.12 585.77 499.95 591.82 510.22 598.22
  Q 511.13 598.79 514.03 599.91
  Q 514.53 600.10 515.04 599.92
  Q 517.48 599.09 519.51 597.46
  A 1.09 1.09 0.0 0 0 519.67 595.91
  C 514.29 589.38 508.45 583.57 501.41 578.53
  Q 488.10 568.98 475.14 559.79
  A 1.40 1.40 0.0 0 1 474.70 558.01
  Q 474.79 557.83 474.94 557.70"
/>
<path stroke="#474d64" vector-effect="non-scaling-stroke" d="
  M 552.78 558.45
  A 0.93 0.93 0.0 0 1 552.40 559.29
  L 516.67 585.23
  A 1.28 1.27 50.6 0 0 516.49 587.13
  L 523.45 594.67
  Q 523.76 595.00 524.15 594.78
  C 530.11 591.39 535.78 587.43 541.67 583.90
  C 552.05 577.68 561.86 571.69 571.53 565.39
  C 575.99 562.49 578.60 558.92 575.76 553.72
  C 572.50 547.76 566.32 546.40 560.04 546.51
  Q 550.25 546.69 540.43 546.70
  Q 539.72 546.70 539.72 547.40
  Q 539.69 552.25 540.11 557.15
  Q 540.37 560.07 542.83 561.51
  Q 543.48 561.89 544.07 561.42
  Q 546.42 559.60 548.74 558.18
  Q 550.20 557.29 552.00 557.46
  Q 552.70 557.53 552.78 558.45"
/>
<path stroke="#8e909c" vector-effect="non-scaling-stroke" d="
  M 410.26 546.83
  L 407.22 546.75
  A 0.88 0.88 0.0 0 0 406.31 547.61
  L 406.29 548.53
  A 2.48 2.10 -88.5 0 0 408.32 551.06
  L 408.92 551.08
  A 2.48 2.10 -88.5 0 0 411.09 548.65
  L 411.11 547.73
  A 0.88 0.88 0.0 0 0 410.26 546.83"
/>
<path stroke="#6b7085" vector-effect="non-scaling-stroke" d="
  M 429.53 550.73
  A 1.22 1.22 0.0 0 0 430.73 549.70
  L 430.99 548.05
  A 1.22 1.22 0.0 0 0 429.76 546.65
  L 417.51 546.87
  A 1.22 1.22 0.0 0 0 416.32 548.25
  L 416.50 549.66
  A 1.22 1.22 0.0 0 0 417.71 550.73
  L 429.53 550.73"
/>
<path stroke="#474d64" vector-effect="non-scaling-stroke" d="
  M 454.53 569.31
  Q 452.06 567.90 449.81 565.19
  A 0.24 0.24 0.0 0 0 449.38 565.33
  L 448.97 573.51
  A 0.79 0.79 0.0 0 0 450.20 574.20
  Q 452.40 572.69 454.39 570.81
  Q 454.71 570.51 454.84 570.09
  Q 455.00 569.58 454.53 569.31"
/>
<path stroke="#474d64" vector-effect="non-scaling-stroke" d="
  M 576.56 566.60
  C 575.53 567.86 573.93 568.50 572.59 569.40
  A 0.80 0.80 0.0 0 0 572.56 570.70
  L 577.12 574.14
  Q 578.51 575.18 578.25 573.47
  L 577.25 566.79
  Q 577.12 565.92 576.56 566.60"
/>
<path stroke="#6b7085" vector-effect="non-scaling-stroke" d="
  M 450.25 624.49
  Q 454.36 626.58 458.14 629.16
  A 0.32 0.32 0.0 0 0 458.64 628.91
  Q 459.16 601.88 458.98 575.24
  Q 458.98 573.82 458.73 572.33
  A 0.37 0.36 67.4 0 0 458.16 572.09
  Q 453.15 575.67 448.47 579.42
  C 447.49 580.20 446.44 580.65 445.40 581.30
  A 1.67 1.66 -16.1 0 0 444.62 582.71
  Q 444.53 597.42 444.58 614.96
  Q 444.59 617.41 444.81 620.05
  Q 444.85 620.62 445.27 621.01
  Q 447.44 623.07 450.25 624.49"
/>
<path stroke="#6b7085" vector-effect="non-scaling-stroke" d="
  M 581.99 581.75
  A 0.75 0.75 0.0 0 0 581.66 581.13
  L 568.92 572.44
  A 0.75 0.75 0.0 0 0 567.75 573.06
  L 568.10 628.27
  A 0.75 0.75 0.0 0 0 569.23 628.92
  L 581.57 621.73
  A 0.75 0.75 0.0 0 0 581.94 621.08
  L 581.99 581.75"
/>
<path stroke="#474d64" vector-effect="non-scaling-stroke" d="
  M 464.16 631.25
  C 470.28 634.20 477.24 637.12 483.81 638.39
  Q 484.63 638.55 484.62 637.71
  L 484.38 588.80
  A 1.62 1.60 16.2 0 0 483.64 587.47
  L 463.81 574.97
  Q 462.87 574.38 462.87 575.48
  L 462.66 628.86
  A 2.67 2.65 13.0 0 0 464.16 631.25"
/>
<path stroke="#474d64" vector-effect="non-scaling-stroke" d="
  M 563.97 575.91
  A 0.66 0.66 0.0 0 0 562.95 575.36
  L 542.62 588.38
  A 0.66 0.66 0.0 0 0 542.31 588.94
  L 542.50 638.14
  A 0.66 0.66 0.0 0 0 543.38 638.75
  L 563.84 631.23
  A 0.66 0.66 0.0 0 0 564.27 630.61
  L 563.97 575.91"
/>
<path stroke="#474d64" vector-effect="non-scaling-stroke" d="
  M 440.74 618.76
  Q 441.33 619.18 441.33 618.46
  L 441.25 585.49
  A 0.46 0.46 0.0 0 0 440.54 585.10
  C 436.37 587.75 419.92 599.59 424.83 604.88
  Q 431.87 612.46 440.74 618.76"
/>
<path stroke="#474d64" vector-effect="non-scaling-stroke" d="
  M 585.36 614.55
  Q 585.32 616.61 584.90 619.12
  Q 584.79 619.83 585.35 619.39
  Q 591.07 614.89 597.06 610.42
  C 599.38 608.69 601.53 606.50 603.40 604.28
  A 2.00 1.99 48.7 0 0 603.55 601.90
  Q 597.36 592.29 586.68 585.53
  Q 586.20 585.23 586.05 585.78
  Q 585.57 587.55 585.58 589.26
  Q 585.62 602.58 585.36 614.55"
/>
<path stroke="#474d64" vector-effect="non-scaling-stroke" d="
  M 510.27 602.29
  Q 499.08 596.73 488.95 590.04
  A 0.26 0.25 17.1 0 0 488.55 590.25
  L 488.35 638.22
  Q 488.35 639.16 489.27 639.34
  Q 513.34 644.11 537.44 639.49
  Q 538.56 639.27 538.56 638.14
  Q 538.61 613.40 538.13 594.00
  Q 538.10 592.66 537.97 591.63
  A 0.55 0.55 0.0 0 0 537.12 591.24
  Q 529.44 596.45 519.64 601.85
  Q 514.78 604.53 510.27 602.29"
/>
<path stroke="#8e909c" vector-effect="non-scaling-stroke" d="
  M 449.84 424.99
  A 0.30 0.30 0.0 0 0 449.87 425.35
  L 451.96 427.64
  A 0.30 0.30 0.0 0 0 452.47 427.54
  L 453.97 423.27
  A 0.30 0.30 0.0 0 0 453.88 422.94
  L 452.34 421.64
  A 0.30 0.30 0.0 0 0 451.90 421.71
  L 449.84 424.99"
/>
<path stroke="#6b7085" vector-effect="non-scaling-stroke" d="
  M 575.0000 429.5727
  A 4.76 4.36 111.7 0 0 580.8110 426.7621
  A 4.76 4.36 111.7 0 0 578.5200 420.7273
  A 4.76 4.36 111.7 0 0 572.7090 423.5379
  A 4.76 4.36 111.7 0 0 575.0000 429.5727"
/>
<path stroke="#8c8b8f" vector-effect="non-scaling-stroke" d="
  M 495.5810 492.2674
  A 6.43 5.29 96.6 0 0 501.5749 486.4880
  A 6.43 5.29 96.6 0 0 497.0590 479.4926
  A 6.43 5.29 96.6 0 0 491.0651 485.2720
  A 6.43 5.29 96.6 0 0 495.5810 492.2674"
/>
<path stroke="#8c8b8f" vector-effect="non-scaling-stroke" d="
  M 530.8493 492.4075
  A 6.47 5.35 91.6 0 0 536.3779 486.0894
  A 6.47 5.35 91.6 0 0 531.2107 479.4725
  A 6.47 5.35 91.6 0 0 525.6821 485.7906
  A 6.47 5.35 91.6 0 0 530.8493 492.4075"
/>
<path stroke="#dbdbdb" vector-effect="non-scaling-stroke" d="
  M 516.9532 505.1913
  A 2.89 2.31 -17.7 0 0 513.4977 503.8694
  A 2.89 2.31 -17.7 0 0 511.4468 506.9487
  A 2.89 2.31 -17.7 0 0 514.9023 508.2706
  A 2.89 2.31 -17.7 0 0 516.9532 505.1913"
/>
<path stroke="#6b7085" vector-effect="non-scaling-stroke" d="
  M 609.89 471.49
  A 0.67 0.66 82.8 0 1 609.31 472.24
  C 607.34 472.48 605.49 471.66 604.30 470.07
  Q 602.36 467.49 599.34 466.26
  A 0.60 0.60 0.0 0 0 598.54 466.65
  Q 597.35 470.74 598.88 474.88
  C 600.39 479.01 606.36 478.38 608.95 476.13
  C 612.90 472.69 615.14 467.22 612.01 462.53
  Q 608.83 457.75 603.46 457.24
  C 597.54 456.68 593.45 460.84 593.41 466.65
  C 593.39 469.85 593.71 473.71 596.43 475.80
  Q 597.01 476.24 596.79 475.55
  C 595.77 472.34 595.03 465.99 597.35 462.94
  A 0.80 0.80 0.0 0 1 598.62 462.92
  L 599.10 463.53
  A 1.63 1.58 79.5 0 0 599.82 464.04
  C 602.38 464.95 609.46 468.30 609.89 471.49"
/>
<path stroke="#6b7085" vector-effect="non-scaling-stroke" d="
  M 432.5413 509.9316
  A 7.41 6.65 97.2 0 0 440.0676 503.4135
  A 7.41 6.65 97.2 0 0 434.3987 495.2284
  A 7.41 6.65 97.2 0 0 426.8724 501.7465
  A 7.41 6.65 97.2 0 0 432.5413 509.9316"
/>
<path stroke="#8e909c" vector-effect="non-scaling-stroke" d="
  M 435.18 506.52
  Q 433.68 506.43 432.16 505.08
  Q 431.87 504.82 431.49 504.97
  Q 430.65 505.28 431.15 506.02
  Q 432.27 507.72 434.22 508.30
  A 1.48 1.41 6.8 0 0 436.12 506.88
  Q 436.11 506.69 435.45 506.59"
/>
<path stroke="#6b7085" vector-effect="non-scaling-stroke" d="
  M 435.45 506.59
  Q 436.13 506.66 436.63 506.52
  Q 437.13 506.37 436.93 505.89
  L 435.12 501.69
  A 1.14 1.13 -24.4 0 1 435.68 500.21
  L 436.87 499.66
  A 0.89 0.88 55.9 0 0 437.13 498.26
  Q 435.46 496.49 433.86 497.73
  Q 433.49 498.02 433.04 497.88
  Q 431.25 497.30 429.66 498.21
  A 0.95 0.95 0.0 0 0 429.22 499.27
  L 429.95 502.12
  A 0.97 0.96 58.4 0 0 431.61 502.52
  L 432.95 501.01
  Q 433.64 500.22 433.67 501.27
  Q 433.75 504.24 435.18 506.52"
/>
<path stroke="#dde0e8" vector-effect="non-scaling-stroke" d="
  M 435.45 506.59
  Q 435.60 506.78 435.18 506.52"
/>
<path stroke="#8e909c" vector-effect="non-scaling-stroke" d="
  M 579.5708 521.6090
  A 3.63 2.16 129.3 0 0 583.5415 520.1681
  A 3.63 2.16 129.3 0 0 584.1692 515.9910
  A 3.63 2.16 129.3 0 0 580.1985 517.4319
  A 3.63 2.16 129.3 0 0 579.5708 521.6090"
/>
</g>
<path fill="#ffffff" d="
  M 0.00 0.00
  L 1024.00 0.00
  L 1024.00 1024.00
  L 0.00 1024.00
  L 0.00 0.00
  Z
  M 416.89 410.15
  Q 413.48 413.06 410.28 416.73
  Q 405.07 422.68 400.12 428.96
  Q 397.77 431.94 395.70 435.51
  Q 391.77 442.29 388.07 449.08
  Q 386.34 452.25 384.94 455.62
  Q 383.53 459.02 382.18 462.38
  Q 380.82 465.77 379.78 469.18
  Q 378.80 472.43 377.55 475.99
  Q 375.65 481.39 373.96 492.23
  Q 373.94 492.37 373.82 492.46
  Q 373.70 492.53 373.61 492.63
  Q 373.50 492.73 373.48 492.88
  Q 372.69 499.57 372.89 505.78
  C 372.99 509.03 372.23 512.14 372.39 515.36
  Q 373.27 533.05 377.79 550.41
  Q 378.66 553.77 380.02 557.17
  Q 381.24 560.23 382.57 563.43
  Q 383.40 565.44 386.44 572.21
  Q 389.32 578.66 393.78 585.79
  Q 397.27 591.38 401.30 596.73
  Q 405.74 602.63 409.52 606.80
  Q 425.72 624.69 451.02 637.98
  Q 455.61 640.39 460.84 642.44
  Q 466.39 644.62 471.13 645.81
  Q 476.78 647.22 480.13 648.59
  Q 481.09 648.98 481.97 649.05
  Q 483.04 649.14 484.09 649.42
  Q 493.02 651.80 496.72 651.88
  Q 503.18 652.01 509.09 652.65
  Q 511.38 652.89 513.40 652.88
  C 517.03 652.86 520.68 652.91 524.23 652.56
  Q 529.76 652.02 535.13 651.38
  Q 539.64 650.84 543.33 649.99
  Q 547.67 648.99 551.36 647.82
  Q 553.29 647.21 555.11 646.77
  Q 557.27 646.25 558.78 645.59
  Q 560.94 644.65 562.95 643.81
  Q 565.03 642.95 567.02 641.96
  Q 574.17 638.39 581.74 634.80
  Q 584.68 633.40 587.19 631.69
  Q 589.86 629.87 592.61 628.17
  Q 596.43 625.80 600.29 622.48
  Q 603.01 620.14 605.74 617.99
  Q 608.30 615.98 610.72 613.44
  Q 614.66 609.31 618.73 605.13
  Q 619.51 604.33 620.24 603.49
  Q 623.69 599.49 626.21 595.62
  C 627.52 593.61 629.25 592.07 630.47 589.98
  C 632.45 586.58 634.83 583.46 636.53 579.86
  Q 638.67 575.35 641.07 571.46
  C 643.30 567.84 644.83 564.09 646.09 560.24
  Q 647.50 555.94 649.01 550.96
  Q 650.41 546.36 651.30 541.21
  Q 653.80 526.71 654.05 516.51
  Q 654.39 502.40 652.67 491.49
  Q 651.31 482.85 647.91 469.71
  Q 647.05 466.38 645.79 463.40
  Q 644.63 460.64 643.64 457.87
  Q 642.16 453.73 640.01 449.92
  Q 635.65 442.21 631.55 434.83
  Q 630.50 432.94 629.09 431.41
  C 626.68 428.76 625.01 425.57 622.54 423.10
  C 619.55 420.10 617.10 416.63 614.04 413.77
  Q 588.42 389.84 558.40 379.10
  Q 546.75 374.94 527.80 371.78
  Q 523.39 371.05 518.27 371.08
  Q 513.30 371.11 508.37 371.16
  Q 499.28 371.25 489.26 373.18
  Q 477.57 375.43 463.51 380.80
  Q 455.09 384.02 447.37 388.37
  Q 439.84 392.62 431.74 398.10
  Q 427.44 401.00 423.63 404.33
  Q 420.35 407.20 416.89 410.15
  Z"
/>
<path fill="#fbf6e5" d="
  M 423.63 404.33
  Q 427.44 401.00 431.74 398.10
  Q 439.84 392.62 447.37 388.37
  Q 455.09 384.02 463.51 380.80
  Q 477.57 375.43 489.26 373.18
  Q 499.28 371.25 508.37 371.16
  Q 513.30 371.11 518.27 371.08
  Q 523.39 371.05 527.80 371.78
  Q 546.75 374.94 558.40 379.10
  Q 588.42 389.84 614.04 413.77
  C 617.10 416.63 619.55 420.10 622.54 423.10
  C 625.01 425.57 626.68 428.76 629.09 431.41
  Q 630.50 432.94 631.55 434.83
  Q 635.65 442.21 640.01 449.92
  Q 642.16 453.73 643.64 457.87
  Q 644.63 460.64 645.79 463.40
  Q 647.05 466.38 647.91 469.71
  Q 651.31 482.85 652.67 491.49
  Q 654.39 502.40 654.05 516.51
  Q 653.80 526.71 651.30 541.21
  Q 650.41 546.36 649.01 550.96
  Q 647.50 555.94 646.09 560.24
  C 644.83 564.09 643.30 567.84 641.07 571.46
  Q 638.67 575.35 636.53 579.86
  C 634.83 583.46 632.45 586.58 630.47 589.98
  C 629.25 592.07 627.52 593.61 626.21 595.62
  Q 623.69 599.49 620.24 603.49
  Q 619.51 604.33 618.73 605.13
  Q 614.66 609.31 610.72 613.44
  Q 608.30 615.98 605.74 617.99
  Q 603.01 620.14 600.29 622.48
  Q 596.43 625.80 592.61 628.17
  Q 589.86 629.87 587.19 631.69
  Q 584.68 633.40 581.74 634.80
  Q 574.17 638.39 567.02 641.96
  Q 565.03 642.95 562.95 643.81
  Q 560.94 644.65 558.78 645.59
  Q 557.27 646.25 555.11 646.77
  Q 553.29 647.21 551.36 647.82
  Q 547.67 648.99 543.33 649.99
  Q 539.64 650.84 535.13 651.38
  Q 529.76 652.02 524.23 652.56
  C 520.68 652.91 517.03 652.86 513.40 652.88
  Q 511.38 652.89 509.09 652.65
  Q 503.18 652.01 496.72 651.88
  Q 493.02 651.80 484.09 649.42
  Q 483.04 649.14 481.97 649.05
  Q 481.09 648.98 480.13 648.59
  Q 476.78 647.22 471.13 645.81
  Q 466.39 644.62 460.84 642.44
  Q 455.61 640.39 451.02 637.98
  Q 425.72 624.69 409.52 606.80
  Q 405.74 602.63 401.30 596.73
  Q 397.27 591.38 393.78 585.79
  Q 389.32 578.66 386.44 572.21
  Q 383.40 565.44 382.57 563.43
  Q 381.24 560.23 380.02 557.17
  Q 378.66 553.77 377.79 550.41
  Q 373.27 533.05 372.39 515.36
  C 372.23 512.14 372.99 509.03 372.89 505.78
  Q 372.69 499.57 373.48 492.88
  Q 373.50 492.73 373.61 492.63
  Q 373.70 492.53 373.82 492.46
  Q 373.94 492.37 373.96 492.23
  Q 375.65 481.39 377.55 475.99
  Q 378.80 472.43 379.78 469.18
  Q 380.82 465.77 382.18 462.38
  Q 383.53 459.02 384.94 455.62
  Q 386.34 452.25 388.07 449.08
  Q 391.77 442.29 395.70 435.51
  Q 397.77 431.94 400.12 428.96
  Q 405.07 422.68 410.28 416.73
  Q 413.48 413.06 416.89 410.15
  Q 420.35 407.20 423.63 404.33
  Z
  M 635.08 565.34
  C 653.22 526.15 649.57 479.16 626.90 442.63
  Q 622.09 434.89 615.03 426.78
  Q 587.46 395.13 546.97 383.39
  Q 536.19 380.27 526.45 379.40
  C 482.75 375.50 441.59 393.06 412.50 425.27
  Q 406.73 431.66 401.07 440.53
  Q 381.63 471.00 380.66 507.03
  C 379.54 548.19 396.71 586.63 428.12 612.98
  Q 449.20 630.67 474.28 638.70
  C 510.40 650.27 549.26 645.44 581.69 625.39
  C 592.55 618.67 603.11 610.76 611.39 601.43
  Q 625.98 585.00 635.08 565.34
  Z"
/>
<path fill="#1c2039" d="
  M 635.08 565.34
  Q 625.98 585.00 611.39 601.43
  C 603.11 610.76 592.55 618.67 581.69 625.39
  C 549.26 645.44 510.40 650.27 474.28 638.70
  Q 449.20 630.67 428.12 612.98
  C 396.71 586.63 379.54 548.19 380.66 507.03
  Q 381.63 471.00 401.07 440.53
  Q 406.73 431.66 412.50 425.27
  C 441.59 393.06 482.75 375.50 526.45 379.40
  Q 536.19 380.27 546.97 383.39
  Q 587.46 395.13 615.03 426.78
  Q 622.09 434.89 626.90 442.63
  C 649.57 479.16 653.22 526.15 635.08 565.34
  Z
  M 528.27 409.08
  L 529.99 408.62
  Q 531.60 408.19 530.11 407.45
  L 528.41 406.60
  Q 527.88 406.34 527.85 405.75
  Q 527.81 404.74 527.17 403.95
  A 0.47 0.47 0.0 0 0 526.35 404.11
  Q 526.04 405.10 526.07 406.15
  Q 526.10 406.86 525.45 407.17
  L 524.40 407.67
  Q 523.70 408.01 524.27 408.54
  Q 524.76 408.99 525.38 409.20
  A 1.23 1.21 87.2 0 1 526.15 409.91
  L 526.85 411.67
  Q 527.54 413.38 527.93 411.58
  Q 528.11 410.74 527.83 409.92
  Q 527.60 409.27 528.27 409.08
  Z
  M 449.07 418.80
  Q 449.17 420.39 448.06 421.38
  A 1.22 1.21 57.4 0 1 446.14 420.95
  L 445.66 419.83
  A 1.31 1.31 0.0 0 0 443.24 419.88
  Q 442.77 421.10 443.93 422.47
  A 0.72 0.69 64.5 0 0 444.57 422.71
  L 445.25 422.59
  A 0.70 0.69 7.0 0 1 446.01 423.56
  Q 445.34 425.07 444.17 426.01
  Q 443.86 426.26 443.86 426.65
  Q 443.86 427.59 444.60 428.02
  Q 445.23 428.38 445.64 427.77
  Q 446.39 426.65 447.41 426.99
  Q 448.06 427.21 448.05 427.89
  Q 448.01 429.89 449.76 430.37
  A 1.44 1.44 0.0 0 0 450.97 430.18
  Q 451.87 429.59 452.38 428.63
  Q 452.64 428.14 453.18 427.99
  Q 455.57 427.36 455.53 424.54
  Q 455.52 423.93 455.13 423.45
  Q 454.40 422.57 454.25 421.37
  Q 454.17 420.72 453.68 420.27
  Q 451.44 418.22 448.30 417.91
  Q 447.90 417.87 448.22 418.12
  Q 448.43 418.29 448.70 418.36
  A 0.50 0.48 -86.1 0 1 449.07 418.80
  Z
  M 578.2197 431.8057
  A 6.80 6.62 77.0 0 0 583.1403 423.6908
  A 6.80 6.62 77.0 0 0 575.1603 418.5543
  A 6.80 6.62 77.0 0 0 570.2397 426.6692
  A 6.80 6.62 77.0 0 0 578.2197 431.8057
  Z
  M 540.62 433.14
  Q 533.15 429.27 525.79 425.76
  Q 512.49 419.41 498.76 423.60
  C 492.21 425.60 486.14 427.49 479.48 425.92
  Q 478.73 425.75 478.87 426.50
  Q 482.52 446.39 499.61 453.45
  C 507.74 456.81 517.60 457.19 526.18 454.70
  Q 543.84 449.57 557.30 437.48
  Q 558.20 436.68 558.60 435.57
  Q 558.85 434.91 558.15 435.00
  C 552.08 435.70 546.15 436.00 540.62 433.14
  Z
  M 442.9036 425.4209
  A 1.06 0.39 110.8 0 0 443.6446 424.5685
  A 1.06 0.39 110.8 0 0 443.6564 423.4391
  A 1.06 0.39 110.8 0 0 442.9154 424.2915
  A 1.06 0.39 110.8 0 0 442.9036 425.4209
  Z
  M 591.6959 432.8448
  A 2.18 1.39 54.5 0 0 591.5616 430.2628
  A 2.18 1.39 54.5 0 0 589.1641 429.2952
  A 2.18 1.39 54.5 0 0 589.2984 431.8772
  A 2.18 1.39 54.5 0 0 591.6959 432.8448
  Z
  M 472.71 475.92
  C 473.08 472.55 472.77 469.75 476.25 467.85
  C 479.18 466.25 481.11 464.35 481.90 460.98
  Q 483.11 455.76 483.15 450.75
  C 483.18 447.07 480.61 444.02 478.73 441.05
  A 0.45 0.45 0.0 0 0 477.98 441.03
  Q 475.47 444.45 472.66 447.64
  C 468.61 452.23 468.04 457.40 467.91 463.47
  Q 467.76 470.90 468.03 476.97
  Q 468.10 478.40 469.47 478.02
  L 471.35 477.51
  Q 472.57 477.18 472.71 475.92
  Z
  M 559.75 462.64
  C 559.94 457.02 557.68 452.33 554.75 447.57
  A 1.21 1.21 0.0 0 0 553.11 447.16
  L 545.01 451.85
  A 2.60 2.59 -20.4 0 0 543.76 454.56
  C 544.90 460.76 545.87 465.21 552.11 468.10
  C 554.98 469.43 555.29 473.13 554.79 475.89
  Q 554.58 477.11 555.79 477.32
  L 558.28 477.75
  Q 559.09 477.89 559.13 477.08
  Q 559.53 469.28 559.75 462.64
  Z
  M 481.38 517.30
  Q 484.93 526.06 491.60 532.36
  C 499.92 540.21 512.71 544.01 523.73 539.69
  Q 537.06 534.46 543.77 521.45
  Q 550.14 509.12 550.57 496.73
  Q 550.94 486.03 550.68 474.19
  Q 550.65 472.59 549.45 471.53
  C 546.75 469.12 543.72 466.89 542.29 463.46
  Q 540.42 458.95 540.46 454.28
  A 0.31 0.31 0.0 0 0 539.98 454.01
  C 534.16 457.70 526.23 459.94 519.68 460.68
  Q 502.76 462.59 488.95 452.64
  C 488.28 452.15 487.71 451.43 487.21 450.77
  Q 486.65 450.05 486.68 450.96
  C 486.92 458.47 485.67 465.09 479.84 470.49
  Q 478.52 471.71 477.29 472.85
  Q 476.78 473.33 476.76 474.03
  Q 476.42 486.83 476.86 498.12
  Q 477.20 506.97 481.38 517.30
  Z
  M 609.6700 478.4535
  A 12.55 12.10 58.7 0 0 613.4890 461.4438
  A 12.55 12.10 58.7 0 0 596.6300 457.0065
  A 12.55 12.10 58.7 0 0 592.8110 474.0162
  A 12.55 12.10 58.7 0 0 609.6700 478.4535
  Z
  M 444.5538 456.3504
  A 0.73 0.73 0.0 0 0 443.8263 455.6178
  L 410.7065 455.5022
  A 0.73 0.73 0.0 0 0 409.9740 456.2297
  L 409.9662 458.4496
  A 0.73 0.73 0.0 0 0 410.6937 459.1822
  L 443.8135 459.2978
  A 0.73 0.73 0.0 0 0 444.5460 458.5703
  L 444.5538 456.3504
  Z
  M 409.30 473.81
  A 0.94 0.94 0.0 0 0 409.63 474.41
  L 410.79 475.36
  A 0.94 0.94 0.0 0 0 412.31 474.80
  L 412.75 472.32
  A 0.94 0.94 0.0 0 0 411.83 471.22
  L 410.03 471.20
  A 0.94 0.94 0.0 0 0 409.09 472.27
  L 409.30 473.81
  Z
  M 444.38 471.44
  L 442.60 471.24
  A 0.68 0.68 0.0 0 0 441.84 471.84
  L 441.70 473.08
  A 1.55 1.31 -83.4 0 0 442.82 474.77
  L 443.36 474.83
  A 1.55 1.31 -83.4 0 0 444.84 473.44
  L 444.98 472.20
  A 0.68 0.68 0.0 0 0 444.38 471.44
  Z
  M 434.6556 472.6361
  A 0.88 0.88 0.0 0 0 433.7710 471.7607
  L 418.7512 471.8393
  A 0.88 0.88 0.0 0 0 417.8758 472.7239
  L 417.8844 474.3639
  A 0.88 0.88 0.0 0 0 418.7690 475.2393
  L 433.7888 475.1607
  A 0.88 0.88 0.0 0 0 434.6642 474.2761
  L 434.6556 472.6361
  Z
  M 620.6921 485.3034
  A 3.65 1.33 71.6 0 0 620.8020 481.4202
  A 3.65 1.33 71.6 0 0 618.3879 478.3766
  A 3.65 1.33 71.6 0 0 618.2780 482.2598
  A 3.65 1.33 71.6 0 0 620.6921 485.3034
  Z
  M 409.2127 481.9858
  A 0.98 0.98 0.0 0 0 408.4660 480.8182
  L 408.3879 480.8010
  A 0.98 0.98 0.0 0 0 407.2203 481.5477
  L 405.8073 487.9742
  A 0.98 0.98 0.0 0 0 406.5540 489.1418
  L 406.6321 489.1590
  A 0.98 0.98 0.0 0 0 407.7997 488.4123
  L 409.2127 481.9858
  Z
  M 554.50 481.52
  L 553.90 501.71
  A 0.08 0.08 0.0 0 0 553.98 501.80
  L 554.00 501.80
  A 10.13 8.84 -88.3 0 0 563.14 491.93
  L 563.14 491.83
  A 10.13 8.84 -88.3 0 0 554.60 481.44
  L 554.58 481.44
  A 0.08 0.08 0.0 0 0 554.50 481.52
  Z
  M 473.22 501.80
  L 473.22 481.56
  A 0.16 0.16 0.0 0 0 473.06 481.40
  L 473.04 481.40
  A 10.19 9.02 -90.0 0 0 464.02 491.59
  L 464.02 491.77
  A 10.19 9.02 90.0 0 0 473.04 501.96
  L 473.06 501.96
  A 0.16 0.16 0.0 0 0 473.22 501.80
  Z
  M 433.8137 512.1804
  A 9.34 8.70 87.4 0 0 442.0810 502.4553
  A 9.34 8.70 87.4 0 0 432.9663 493.5196
  A 9.34 8.70 87.4 0 0 424.6990 503.2447
  A 9.34 8.70 87.4 0 0 433.8137 512.1804
  Z
  M 586.39 510.45
  C 584.81 511.52 582.73 511.07 581.66 512.86
  C 579.86 515.84 576.57 516.74 578.03 520.93
  C 579.64 525.59 583.97 522.77 585.35 520.11
  Q 587.69 515.58 591.93 512.85
  Q 598.92 508.34 607.34 502.81
  Q 608.76 501.87 607.64 500.59
  L 606.12 498.86
  Q 605.04 497.64 603.71 498.57
  Q 595.35 504.40 586.39 510.45
  Z
  M 623.8931 499.4828
  A 0.80 0.80 0.0 0 0 623.0550 498.7228
  L 622.5356 498.7482
  A 0.80 0.80 0.0 0 0 621.7756 499.5863
  L 622.1469 507.1772
  A 0.80 0.80 0.0 0 0 622.9850 507.9372
  L 623.5044 507.9118
  A 0.80 0.80 0.0 0 0 624.2644 507.0737
  L 623.8931 499.4828
  Z
  M 407.49 507.55
  L 407.37 501.57
  A 0.25 0.25 0.0 0 0 407.12 501.32
  L 406.79 501.33
  A 2.54 1.62 88.9 0 0 405.22 503.90
  L 405.24 505.30
  A 2.54 1.62 88.9 0 0 406.91 507.81
  L 407.24 507.80
  A 0.25 0.25 0.0 0 0 407.49 507.55
  Z
  M 623.39 520.74
  A 0.73 0.73 0.0 0 0 622.08 520.18
  L 620.84 521.99
  A 0.73 0.73 0.0 0 0 620.72 522.30
  L 619.99 527.20
  A 0.73 0.73 0.0 0 0 621.11 527.92
  L 621.77 527.50
  A 0.73 0.73 0.0 0 0 622.09 527.03
  L 623.39 520.74
  Z
  M 408.0321 535.0540
  A 2.39 2.32 103.5 0 0 410.8459 533.2716
  A 2.39 2.32 103.5 0 0 409.1479 530.4060
  A 2.39 2.32 103.5 0 0 406.3341 532.1884
  A 2.39 2.32 103.5 0 0 408.0321 535.0540
  Z
  M 416.17 532.92
  Q 416.49 534.42 418.02 534.50
  C 422.06 534.71 427.49 535.25 431.20 533.69
  C 433.01 532.93 434.71 533.43 436.55 533.55
  Q 437.78 533.63 437.70 532.40
  Q 437.69 532.16 437.68 532.09
  Q 437.59 530.66 436.37 530.67
  L 417.21 530.84
  Q 415.74 530.86 416.04 532.29
  L 416.17 532.92
  Z
  M 606.76 544.84
  L 606.06 547.12
  A 1.56 1.56 0.0 0 0 607.17 549.09
  Q 609.34 549.63 611.06 548.86
  A 0.94 0.94 0.0 0 0 611.63 548.01
  L 611.67 544.58
  A 0.89 0.89 0.0 0 1 612.89 543.77
  Q 613.74 544.11 614.39 544.74
  A 0.92 0.92 0.0 0 0 615.90 544.39
  Q 616.86 541.66 615.72 539.23
  A 0.72 0.71 -17.4 0 0 614.94 538.83
  L 612.25 539.28
  A 0.90 0.89 0.4 0 1 611.22 538.24
  L 611.79 535.05
  A 0.74 0.73 4.7 0 0 611.04 534.18
  L 607.24 534.28
  Q 606.52 534.30 606.59 535.01
  L 606.87 538.10
  Q 607.00 539.45 605.65 539.56
  L 602.03 539.86
  A 0.59 0.58 86.9 0 0 601.50 540.46
  L 601.57 543.95
  Q 601.59 544.98 602.54 544.60
  Q 604.26 543.92 605.95 543.81
  Q 607.10 543.73 606.76 544.84
  Z
  M 491.05 550.27
  Q 490.45 555.64 489.59 559.84
  C 489.31 561.21 488.62 562.28 487.77 563.34
  Q 487.14 564.13 487.98 564.71
  Q 501.34 573.85 513.11 582.89
  Q 513.60 583.26 514.09 582.90
  L 539.25 564.50
  Q 539.72 564.16 539.42 563.76
  Q 537.20 560.75 536.60 556.36
  L 535.64 540.74
  Q 535.61 540.17 535.16 540.53
  Q 527.62 546.64 518.69 549.12
  C 509.62 551.65 498.66 545.97 491.62 540.27
  Q 491.15 539.89 491.14 540.49
  L 491.05 550.27
  Z
  M 440.25 546.54
  L 438.35 546.64
  A 0.71 0.71 0.0 0 0 437.68 547.39
  L 437.74 548.39
  A 1.95 1.47 86.9 0 0 439.31 550.26
  L 439.69 550.24
  A 1.95 1.47 86.9 0 0 441.05 548.21
  L 441.00 547.21
  A 0.71 0.71 0.0 0 0 440.25 546.54
  Z
  M 474.94 557.70
  A 2.44 2.42 -52.4 0 1 477.58 557.35
  Q 480.91 558.94 484.38 560.95
  A 1.03 1.03 0.0 0 0 485.92 560.24
  Q 487.16 553.26 487.20 547.48
  Q 487.21 546.56 486.28 546.54
  Q 475.06 546.32 464.48 546.57
  C 458.84 546.70 453.06 548.85 450.62 554.19
  C 448.32 559.23 451.53 562.70 455.47 565.12
  Q 467.10 572.23 479.46 579.83
  C 489.12 585.77 499.95 591.82 510.22 598.22
  Q 511.13 598.79 514.03 599.91
  Q 514.53 600.10 515.04 599.92
  Q 517.48 599.09 519.51 597.46
  A 1.09 1.09 0.0 0 0 519.67 595.91
  C 514.29 589.38 508.45 583.57 501.41 578.53
  Q 488.10 568.98 475.14 559.79
  A 1.40 1.40 0.0 0 1 474.70 558.01
  Q 474.79 557.83 474.94 557.70
  Z
  M 552.78 558.45
  A 0.93 0.93 0.0 0 1 552.40 559.29
  L 516.67 585.23
  A 1.28 1.27 50.6 0 0 516.49 587.13
  L 523.45 594.67
  Q 523.76 595.00 524.15 594.78
  C 530.11 591.39 535.78 587.43 541.67 583.90
  C 552.05 577.68 561.86 571.69 571.53 565.39
  C 575.99 562.49 578.60 558.92 575.76 553.72
  C 572.50 547.76 566.32 546.40 560.04 546.51
  Q 550.25 546.69 540.43 546.70
  Q 539.72 546.70 539.72 547.40
  Q 539.69 552.25 540.11 557.15
  Q 540.37 560.07 542.83 561.51
  Q 543.48 561.89 544.07 561.42
  Q 546.42 559.60 548.74 558.18
  Q 550.20 557.29 552.00 557.46
  Q 552.70 557.53 552.78 558.45
  Z
  M 410.26 546.83
  L 407.22 546.75
  A 0.88 0.88 0.0 0 0 406.31 547.61
  L 406.29 548.53
  A 2.48 2.10 -88.5 0 0 408.32 551.06
  L 408.92 551.08
  A 2.48 2.10 -88.5 0 0 411.09 548.65
  L 411.11 547.73
  A 0.88 0.88 0.0 0 0 410.26 546.83
  Z
  M 429.53 550.73
  A 1.22 1.22 0.0 0 0 430.73 549.70
  L 430.99 548.05
  A 1.22 1.22 0.0 0 0 429.76 546.65
  L 417.51 546.87
  A 1.22 1.22 0.0 0 0 416.32 548.25
  L 416.50 549.66
  A 1.22 1.22 0.0 0 0 417.71 550.73
  L 429.53 550.73
  Z
  M 454.53 569.31
  Q 452.06 567.90 449.81 565.19
  A 0.24 0.24 0.0 0 0 449.38 565.33
  L 448.97 573.51
  A 0.79 0.79 0.0 0 0 450.20 574.20
  Q 452.40 572.69 454.39 570.81
  Q 454.71 570.51 454.84 570.09
  Q 455.00 569.58 454.53 569.31
  Z
  M 576.56 566.60
  C 575.53 567.86 573.93 568.50 572.59 569.40
  A 0.80 0.80 0.0 0 0 572.56 570.70
  L 577.12 574.14
  Q 578.51 575.18 578.25 573.47
  L 577.25 566.79
  Q 577.12 565.92 576.56 566.60
  Z
  M 450.25 624.49
  Q 454.36 626.58 458.14 629.16
  A 0.32 0.32 0.0 0 0 458.64 628.91
  Q 459.16 601.88 458.98 575.24
  Q 458.98 573.82 458.73 572.33
  A 0.37 0.36 67.4 0 0 458.16 572.09
  Q 453.15 575.67 448.47 579.42
  C 447.49 580.20 446.44 580.65 445.40 581.30
  A 1.67 1.66 -16.1 0 0 444.62 582.71
  Q 444.53 597.42 444.58 614.96
  Q 444.59 617.41 444.81 620.05
  Q 444.85 620.62 445.27 621.01
  Q 447.44 623.07 450.25 624.49
  Z
  M 581.99 581.75
  A 0.75 0.75 0.0 0 0 581.66 581.13
  L 568.92 572.44
  A 0.75 0.75 0.0 0 0 567.75 573.06
  L 568.10 628.27
  A 0.75 0.75 0.0 0 0 569.23 628.92
  L 581.57 621.73
  A 0.75 0.75 0.0 0 0 581.94 621.08
  L 581.99 581.75
  Z
  M 464.16 631.25
  C 470.28 634.20 477.24 637.12 483.81 638.39
  Q 484.63 638.55 484.62 637.71
  L 484.38 588.80
  A 1.62 1.60 16.2 0 0 483.64 587.47
  L 463.81 574.97
  Q 462.87 574.38 462.87 575.48
  L 462.66 628.86
  A 2.67 2.65 13.0 0 0 464.16 631.25
  Z
  M 563.97 575.91
  A 0.66 0.66 0.0 0 0 562.95 575.36
  L 542.62 588.38
  A 0.66 0.66 0.0 0 0 542.31 588.94
  L 542.50 638.14
  A 0.66 0.66 0.0 0 0 543.38 638.75
  L 563.84 631.23
  A 0.66 0.66 0.0 0 0 564.27 630.61
  L 563.97 575.91
  Z
  M 440.74 618.76
  Q 441.33 619.18 441.33 618.46
  L 441.25 585.49
  A 0.46 0.46 0.0 0 0 440.54 585.10
  C 436.37 587.75 419.92 599.59 424.83 604.88
  Q 431.87 612.46 440.74 618.76
  Z
  M 585.36 614.55
  Q 585.32 616.61 584.90 619.12
  Q 584.79 619.83 585.35 619.39
  Q 591.07 614.89 597.06 610.42
  C 599.38 608.69 601.53 606.50 603.40 604.28
  A 2.00 1.99 48.7 0 0 603.55 601.90
  Q 597.36 592.29 586.68 585.53
  Q 586.20 585.23 586.05 585.78
  Q 585.57 587.55 585.58 589.26
  Q 585.62 602.58 585.36 614.55
  Z
  M 510.27 602.29
  Q 499.08 596.73 488.95 590.04
  A 0.26 0.25 17.1 0 0 488.55 590.25
  L 488.35 638.22
  Q 488.35 639.16 489.27 639.34
  Q 513.34 644.11 537.44 639.49
  Q 538.56 639.27 538.56 638.14
  Q 538.61 613.40 538.13 594.00
  Q 538.10 592.66 537.97 591.63
  A 0.55 0.55 0.0 0 0 537.12 591.24
  Q 529.44 596.45 519.64 601.85
  Q 514.78 604.53 510.27 602.29
  Z"
/>
<path fill="#ffffff" d="
  M 527.83 409.92
  Q 528.11 410.74 527.93 411.58
  Q 527.54 413.38 526.85 411.67
  L 526.15 409.91
  A 1.23 1.21 87.2 0 0 525.38 409.20
  Q 524.76 408.99 524.27 408.54
  Q 523.70 408.01 524.40 407.67
  L 525.45 407.17
  Q 526.10 406.86 526.07 406.15
  Q 526.04 405.10 526.35 404.11
  A 0.47 0.47 0.0 0 1 527.17 403.95
  Q 527.81 404.74 527.85 405.75
  Q 527.88 406.34 528.41 406.60
  L 530.11 407.45
  Q 531.60 408.19 529.99 408.62
  L 528.27 409.08
  Q 527.60 409.27 527.83 409.92
  Z"
/>
<path fill="#ffffff" d="
  M 448.70 418.36
  Q 448.43 418.29 448.22 418.12
  Q 447.90 417.87 448.30 417.91
  Q 451.44 418.22 453.68 420.27
  Q 454.17 420.72 454.25 421.37
  Q 454.40 422.57 455.13 423.45
  Q 455.52 423.93 455.53 424.54
  Q 455.57 427.36 453.18 427.99
  Q 452.64 428.14 452.38 428.63
  Q 451.87 429.59 450.97 430.18
  A 1.44 1.44 0.0 0 1 449.76 430.37
  Q 448.01 429.89 448.05 427.89
  Q 448.06 427.21 447.41 426.99
  Q 446.39 426.65 445.64 427.77
  Q 445.23 428.38 444.60 428.02
  Q 443.86 427.59 443.86 426.65
  Q 443.86 426.26 444.17 426.01
  Q 445.34 425.07 446.01 423.56
  A 0.70 0.69 7.0 0 0 445.25 422.59
  L 444.57 422.71
  A 0.72 0.69 64.5 0 1 443.93 422.47
  Q 442.77 421.10 443.24 419.88
  A 1.31 1.31 0.0 0 1 445.66 419.83
  L 446.14 420.95
  A 1.22 1.21 57.4 0 0 448.06 421.38
  Q 449.17 420.39 449.07 418.80
  A 0.50 0.48 -86.1 0 0 448.70 418.36
  Z
  M 449.84 424.99
  A 0.30 0.30 0.0 0 0 449.87 425.35
  L 451.96 427.64
  A 0.30 0.30 0.0 0 0 452.47 427.54
  L 453.97 423.27
  A 0.30 0.30 0.0 0 0 453.88 422.94
  L 452.34 421.64
  A 0.30 0.30 0.0 0 0 451.90 421.71
  L 449.84 424.99
  Z"
/>
<path fill="#bac0d0" d="
  M 578.2197 431.8057
  A 6.80 6.62 77.0 0 1 570.2397 426.6692
  A 6.80 6.62 77.0 0 1 575.1603 418.5543
  A 6.80 6.62 77.0 0 1 583.1403 423.6908
  A 6.80 6.62 77.0 0 1 578.2197 431.8057
  Z
  M 575.0000 429.5727
  A 4.76 4.36 111.7 0 0 580.8110 426.7621
  A 4.76 4.36 111.7 0 0 578.5200 420.7273
  A 4.76 4.36 111.7 0 0 572.7090 423.5379
  A 4.76 4.36 111.7 0 0 575.0000 429.5727
  Z"
/>
<ellipse fill="#1c2039" cx="0.00" cy="0.00" transform="translate(576.76,425.15) rotate(111.7)" rx="4.76" ry="4.36"/>
<path fill="#1c2039" d="
  M 449.84 424.99
  L 451.90 421.71
  A 0.30 0.30 0.0 0 1 452.34 421.64
  L 453.88 422.94
  A 0.30 0.30 0.0 0 1 453.97 423.27
  L 452.47 427.54
  A 0.30 0.30 0.0 0 1 451.96 427.64
  L 449.87 425.35
  A 0.30 0.30 0.0 0 1 449.84 424.99
  Z"
/>
<path fill="#72798e" d="
  M 540.62 433.14
  C 546.15 436.00 552.08 435.70 558.15 435.00
  Q 558.85 434.91 558.60 435.57
  Q 558.20 436.68 557.30 437.48
  Q 543.84 449.57 526.18 454.70
  C 517.60 457.19 507.74 456.81 499.61 453.45
  Q 482.52 446.39 478.87 426.50
  Q 478.73 425.75 479.48 425.92
  C 486.14 427.49 492.21 425.60 498.76 423.60
  Q 512.49 419.41 525.79 425.76
  Q 533.15 429.27 540.62 433.14
  Z"
/>
<ellipse fill="#bac0d0" cx="0.00" cy="0.00" transform="translate(443.28,424.43) rotate(110.8)" rx="1.06" ry="0.39"/>
<ellipse fill="#ffffff" cx="0.00" cy="0.00" transform="translate(590.43,431.07) rotate(54.5)" rx="2.18" ry="1.39"/>
<path fill="#72798e" d="
  M 476.25 467.85
  C 472.77 469.75 473.08 472.55 472.71 475.92
  Q 472.57 477.18 471.35 477.51
  L 469.47 478.02
  Q 468.10 478.40 468.03 476.97
  Q 467.76 470.90 467.91 463.47
  C 468.04 457.40 468.61 452.23 472.66 447.64
  Q 475.47 444.45 477.98 441.03
  A 0.45 0.45 0.0 0 1 478.73 441.05
  C 480.61 444.02 483.18 447.07 483.15 450.75
  Q 483.11 455.76 481.90 460.98
  C 481.11 464.35 479.18 466.25 476.25 467.85
  Z"
/>
<path fill="#72798e" d="
  M 554.75 447.57
  C 557.68 452.33 559.94 457.02 559.75 462.64
  Q 559.53 469.28 559.13 477.08
  Q 559.09 477.89 558.28 477.75
  L 555.79 477.32
  Q 554.58 477.11 554.79 475.89
  C 555.29 473.13 554.98 469.43 552.11 468.10
  C 545.87 465.21 544.90 460.76 543.76 454.56
  A 2.60 2.59 -20.4 0 1 545.01 451.85
  L 553.11 447.16
  A 1.21 1.21 0.0 0 1 554.75 447.57
  Z"
/>
<path fill="#fbf6e5" d="
  M 481.38 517.30
  Q 477.20 506.97 476.86 498.12
  Q 476.42 486.83 476.76 474.03
  Q 476.78 473.33 477.29 472.85
  Q 478.52 471.71 479.84 470.49
  C 485.67 465.09 486.92 458.47 486.68 450.96
  Q 486.65 450.05 487.21 450.77
  C 487.71 451.43 488.28 452.15 488.95 452.64
  Q 502.76 462.59 519.68 460.68
  C 526.23 459.94 534.16 457.70 539.98 454.01
  A 0.31 0.31 0.0 0 1 540.46 454.28
  Q 540.42 458.95 542.29 463.46
  C 543.72 466.89 546.75 469.12 549.45 471.53
  Q 550.65 472.59 550.68 474.19
  Q 550.94 486.03 550.57 496.73
  Q 550.14 509.12 543.77 521.45
  Q 537.06 534.46 523.73 539.69
  C 512.71 544.01 499.92 540.21 491.60 532.36
  Q 484.93 526.06 481.38 517.30
  Z
  M 495.5810 492.2674
  A 6.43 5.29 96.6 0 0 501.5749 486.4880
  A 6.43 5.29 96.6 0 0 497.0590 479.4926
  A 6.43 5.29 96.6 0 0 491.0651 485.2720
  A 6.43 5.29 96.6 0 0 495.5810 492.2674
  Z
  M 530.8493 492.4075
  A 6.47 5.35 91.6 0 0 536.3779 486.0894
  A 6.47 5.35 91.6 0 0 531.2107 479.4725
  A 6.47 5.35 91.6 0 0 525.6821 485.7906
  A 6.47 5.35 91.6 0 0 530.8493 492.4075
  Z
  M 516.9532 505.1913
  A 2.89 2.31 -17.7 0 0 513.4977 503.8694
  A 2.89 2.31 -17.7 0 0 511.4468 506.9487
  A 2.89 2.31 -17.7 0 0 514.9023 508.2706
  A 2.89 2.31 -17.7 0 0 516.9532 505.1913
  Z"
/>
<path fill="#bac0d0" d="
  M 609.6700 478.4535
  A 12.55 12.10 58.7 0 1 592.8110 474.0162
  A 12.55 12.10 58.7 0 1 596.6300 457.0065
  A 12.55 12.10 58.7 0 1 613.4890 461.4438
  A 12.55 12.10 58.7 0 1 609.6700 478.4535
  Z
  M 609.89 471.49
  A 0.67 0.66 82.8 0 1 609.31 472.24
  C 607.34 472.48 605.49 471.66 604.30 470.07
  Q 602.36 467.49 599.34 466.26
  A 0.60 0.60 0.0 0 0 598.54 466.65
  Q 597.35 470.74 598.88 474.88
  C 600.39 479.01 606.36 478.38 608.95 476.13
  C 612.90 472.69 615.14 467.22 612.01 462.53
  Q 608.83 457.75 603.46 457.24
  C 597.54 456.68 593.45 460.84 593.41 466.65
  C 593.39 469.85 593.71 473.71 596.43 475.80
  Q 597.01 476.24 596.79 475.55
  C 595.77 472.34 595.03 465.99 597.35 462.94
  A 0.80 0.80 0.0 0 1 598.62 462.92
  L 599.10 463.53
  A 1.63 1.58 79.5 0 0 599.82 464.04
  C 602.38 464.95 609.46 468.30 609.89 471.49
  Z"
/>
<rect fill="#bac0d0" x="-17.29" y="-1.84" transform="translate(427.26,457.40) rotate(0.2)" width="34.58" height="3.68" rx="0.73"/>
<path fill="#1c2039" d="
  M 609.89 471.49
  C 609.46 468.30 602.38 464.95 599.82 464.04
  A 1.63 1.58 79.5 0 1 599.10 463.53
  L 598.62 462.92
  A 0.80 0.80 0.0 0 0 597.35 462.94
  C 595.03 465.99 595.77 472.34 596.79 475.55
  Q 597.01 476.24 596.43 475.80
  C 593.71 473.71 593.39 469.85 593.41 466.65
  C 593.45 460.84 597.54 456.68 603.46 457.24
  Q 608.83 457.75 612.01 462.53
  C 615.14 467.22 612.90 472.69 608.95 476.13
  C 606.36 478.38 600.39 479.01 598.88 474.88
  Q 597.35 470.74 598.54 466.65
  A 0.60 0.60 0.0 0 1 599.34 466.26
  Q 602.36 467.49 604.30 470.07
  C 605.49 471.66 607.34 472.48 609.31 472.24
  A 0.67 0.66 82.8 0 0 609.89 471.49
  Z"
/>
<path fill="#ffffff" d="
  M 409.30 473.81
  L 409.09 472.27
  A 0.94 0.94 0.0 0 1 410.03 471.20
  L 411.83 471.22
  A 0.94 0.94 0.0 0 1 412.75 472.32
  L 412.31 474.80
  A 0.94 0.94 0.0 0 1 410.79 475.36
  L 409.63 474.41
  A 0.94 0.94 0.0 0 1 409.30 473.81
  Z"
/>
<path fill="#ffffff" d="
  M 444.38 471.44
  A 0.68 0.68 0.0 0 1 444.98 472.20
  L 444.84 473.44
  A 1.55 1.31 -83.4 0 1 443.36 474.83
  L 442.82 474.77
  A 1.55 1.31 -83.4 0 1 441.70 473.08
  L 441.84 471.84
  A 0.68 0.68 0.0 0 1 442.60 471.24
  L 444.38 471.44
  Z"
/>
<rect fill="#bac0d0" x="-8.39" y="-1.70" transform="translate(426.27,473.50) rotate(-0.3)" width="16.78" height="3.40" rx="0.88"/>
<ellipse fill="#bac0d0" cx="0.00" cy="0.00" transform="translate(619.54,481.84) rotate(71.6)" rx="3.65" ry="1.33"/>
<ellipse fill="#1c2039" cx="0.00" cy="0.00" transform="translate(496.32,485.88) rotate(96.6)" rx="6.43" ry="5.29"/>
<ellipse fill="#1c2039" cx="0.00" cy="0.00" transform="translate(531.03,485.94) rotate(91.6)" rx="6.47" ry="5.35"/>
<rect fill="#bac0d0" x="-1.02" y="-4.27" transform="translate(407.51,484.98) rotate(12.4)" width="2.04" height="8.54" rx="0.98"/>
<path fill="#fbf6e5" d="
  M 554.50 481.52
  A 0.08 0.08 0.0 0 1 554.58 481.44
  L 554.60 481.44
  A 10.13 8.84 -88.3 0 1 563.14 491.83
  L 563.14 491.93
  A 10.13 8.84 -88.3 0 1 554.00 501.80
  L 553.98 501.80
  A 0.08 0.08 0.0 0 1 553.90 501.71
  L 554.50 481.52
  Z"
/>
<path fill="#fbf6e5" d="
  M 473.22 501.80
  A 0.16 0.16 0.0 0 1 473.06 501.96
  L 473.04 501.96
  A 10.19 9.02 90.0 0 1 464.02 491.77
  L 464.02 491.59
  A 10.19 9.02 -90.0 0 1 473.04 481.40
  L 473.06 481.40
  A 0.16 0.16 0.0 0 1 473.22 481.56
  L 473.22 501.80
  Z"
/>
<path fill="#bac0d0" d="
  M 433.8137 512.1804
  A 9.34 8.70 87.4 0 1 424.6990 503.2447
  A 9.34 8.70 87.4 0 1 432.9663 493.5196
  A 9.34 8.70 87.4 0 1 442.0810 502.4553
  A 9.34 8.70 87.4 0 1 433.8137 512.1804
  Z
  M 432.5413 509.9316
  A 7.41 6.65 97.2 0 0 440.0676 503.4135
  A 7.41 6.65 97.2 0 0 434.3987 495.2284
  A 7.41 6.65 97.2 0 0 426.8724 501.7465
  A 7.41 6.65 97.2 0 0 432.5413 509.9316
  Z"
/>
<path fill="#1c2039" d="
  M 432.5413 509.9316
  A 7.41 6.65 97.2 0 1 426.8724 501.7465
  A 7.41 6.65 97.2 0 1 434.3987 495.2284
  A 7.41 6.65 97.2 0 1 440.0676 503.4135
  A 7.41 6.65 97.2 0 1 432.5413 509.9316
  Z
  M 435.18 506.52
  Q 433.68 506.43 432.16 505.08
  Q 431.87 504.82 431.49 504.97
  Q 430.65 505.28 431.15 506.02
  Q 432.27 507.72 434.22 508.30
  A 1.48 1.41 6.8 0 0 436.12 506.88
  Q 436.11 506.69 435.45 506.59
  Q 436.13 506.66 436.63 506.52
  Q 437.13 506.37 436.93 505.89
  L 435.12 501.69
  A 1.14 1.13 -24.4 0 1 435.68 500.21
  L 436.87 499.66
  A 0.89 0.88 55.9 0 0 437.13 498.26
  Q 435.46 496.49 433.86 497.73
  Q 433.49 498.02 433.04 497.88
  Q 431.25 497.30 429.66 498.21
  A 0.95 0.95 0.0 0 0 429.22 499.27
  L 429.95 502.12
  A 0.97 0.96 58.4 0 0 431.61 502.52
  L 432.95 501.01
  Q 433.64 500.22 433.67 501.27
  Q 433.75 504.24 435.18 506.52
  Z"
/>
<path fill="#bac0d0" d="
  M 435.45 506.59
  Q 435.60 506.78 435.18 506.52
  Q 433.75 504.24 433.67 501.27
  Q 433.64 500.22 432.95 501.01
  L 431.61 502.52
  A 0.97 0.96 58.4 0 1 429.95 502.12
  L 429.22 499.27
  A 0.95 0.95 0.0 0 1 429.66 498.21
  Q 431.25 497.30 433.04 497.88
  Q 433.49 498.02 433.86 497.73
  Q 435.46 496.49 437.13 498.26
  A 0.89 0.88 55.9 0 1 436.87 499.66
  L 435.68 500.21
  A 1.14 1.13 -24.4 0 0 435.12 501.69
  L 436.93 505.89
  Q 437.13 506.37 436.63 506.52
  Q 436.13 506.66 435.45 506.59
  Z"
/>
<path fill="#ffffff" d="
  M 586.39 510.45
  Q 595.35 504.40 603.71 498.57
  Q 605.04 497.64 606.12 498.86
  L 607.64 500.59
  Q 608.76 501.87 607.34 502.81
  Q 598.92 508.34 591.93 512.85
  Q 587.69 515.58 585.35 520.11
  C 583.97 522.77 579.64 525.59 578.03 520.93
  C 576.57 516.74 579.86 515.84 581.66 512.86
  C 582.73 511.07 584.81 511.52 586.39 510.45
  Z
  M 579.5708 521.6090
  A 3.63 2.16 129.3 0 0 583.5415 520.1681
  A 3.63 2.16 129.3 0 0 584.1692 515.9910
  A 3.63 2.16 129.3 0 0 580.1985 517.4319
  A 3.63 2.16 129.3 0 0 579.5708 521.6090
  Z"
/>
<rect fill="#bac0d0" x="-1.06" y="-4.60" transform="translate(623.02,503.33) rotate(-2.8)" width="2.12" height="9.20" rx="0.80"/>
<path fill="#ffffff" d="
  M 407.49 507.55
  A 0.25 0.25 0.0 0 1 407.24 507.80
  L 406.91 507.81
  A 2.54 1.62 88.9 0 1 405.24 505.30
  L 405.22 503.90
  A 2.54 1.62 88.9 0 1 406.79 501.33
  L 407.12 501.32
  A 0.25 0.25 0.0 0 1 407.37 501.57
  L 407.49 507.55
  Z"
/>
<ellipse fill="#bac0d0" cx="0.00" cy="0.00" transform="translate(514.20,506.07) rotate(-17.7)" rx="2.89" ry="2.31"/>
<path fill="#ffffff" d="
  M 435.18 506.52
  Q 435.60 506.78 435.45 506.59
  Q 436.11 506.69 436.12 506.88
  A 1.48 1.41 6.8 0 1 434.22 508.30
  Q 432.27 507.72 431.15 506.02
  Q 430.65 505.28 431.49 504.97
  Q 431.87 504.82 432.16 505.08
  Q 433.68 506.43 435.18 506.52
  Z"
/>
<ellipse fill="#1c2039" cx="0.00" cy="0.00" transform="translate(581.87,518.80) rotate(129.3)" rx="3.63" ry="2.16"/>
<path fill="#bac0d0" d="
  M 623.39 520.74
  L 622.09 527.03
  A 0.73 0.73 0.0 0 1 621.77 527.50
  L 621.11 527.92
  A 0.73 0.73 0.0 0 1 619.99 527.20
  L 620.72 522.30
  A 0.73 0.73 0.0 0 1 620.84 521.99
  L 622.08 520.18
  A 0.73 0.73 0.0 0 1 623.39 520.74
  Z"
/>
<ellipse fill="#ffffff" cx="0.00" cy="0.00" transform="translate(408.59,532.73) rotate(103.5)" rx="2.39" ry="2.32"/>
<path fill="#bac0d0" d="
  M 417.21 530.84
  L 436.37 530.67
  Q 437.59 530.66 437.68 532.09
  Q 437.69 532.16 437.70 532.40
  Q 437.78 533.63 436.55 533.55
  C 434.71 533.43 433.01 532.93 431.20 533.69
  C 427.49 535.25 422.06 534.71 418.02 534.50
  Q 416.49 534.42 416.17 532.92
  L 416.04 532.29
  Q 415.74 530.86 417.21 530.84
  Z"
/>
<path fill="#ffffff" d="
  M 605.95 543.81
  Q 604.26 543.92 602.54 544.60
  Q 601.59 544.98 601.57 543.95
  L 601.50 540.46
  A 0.59 0.58 86.9 0 1 602.03 539.86
  L 605.65 539.56
  Q 607.00 539.45 606.87 538.10
  L 606.59 535.01
  Q 606.52 534.30 607.24 534.28
  L 611.04 534.18
  A 0.74 0.73 4.7 0 1 611.79 535.05
  L 611.22 538.24
  A 0.90 0.89 0.4 0 0 612.25 539.28
  L 614.94 538.83
  A 0.72 0.71 -17.4 0 1 615.72 539.23
  Q 616.86 541.66 615.90 544.39
  A 0.92 0.92 0.0 0 1 614.39 544.74
  Q 613.74 544.11 612.89 543.77
  A 0.89 0.89 0.0 0 0 611.67 544.58
  L 611.63 548.01
  A 0.94 0.94 0.0 0 1 611.06 548.86
  Q 609.34 549.63 607.17 549.09
  A 1.56 1.56 0.0 0 1 606.06 547.12
  L 606.76 544.84
  Q 607.10 543.73 605.95 543.81
  Z"
/>
<path fill="#bac0d0" d="
  M 536.60 556.36
  Q 535.15 557.30 534.08 559.92
  Q 533.86 560.45 533.35 560.72
  Q 531.97 561.46 530.69 562.37
  C 529.67 563.10 528.61 563.17 527.70 564.11
  Q 527.32 564.49 526.80 564.64
  Q 522.23 565.98 517.91 566.84
  Q 516.67 567.09 515.52 566.71
  Q 514.48 566.37 513.43 566.38
  C 512.27 566.38 511.33 566.52 510.23 566.11
  Q 506.04 564.55 501.59 562.71
  Q 499.92 562.02 498.65 560.68
  Q 497.38 559.33 496.23 557.93
  Q 496.10 557.76 494.02 555.71
  Q 492.22 553.94 491.05 550.27
  L 491.14 540.49
  Q 491.15 539.89 491.62 540.27
  C 498.66 545.97 509.62 551.65 518.69 549.12
  Q 527.62 546.64 535.16 540.53
  Q 535.61 540.17 535.64 540.74
  L 536.60 556.36
  Z"
/>
<path fill="#bac0d0" d="
  M 440.25 546.54
  A 0.71 0.71 0.0 0 1 441.00 547.21
  L 441.05 548.21
  A 1.95 1.47 86.9 0 1 439.69 550.24
  L 439.31 550.26
  A 1.95 1.47 86.9 0 1 437.74 548.39
  L 437.68 547.39
  A 0.71 0.71 0.0 0 1 438.35 546.64
  L 440.25 546.54
  Z"
/>
<path fill="#72798e" d="
  M 474.94 557.70
  Q 474.79 557.83 474.70 558.01
  A 1.40 1.40 0.0 0 0 475.14 559.79
  Q 488.10 568.98 501.41 578.53
  C 508.45 583.57 514.29 589.38 519.67 595.91
  A 1.09 1.09 0.0 0 1 519.51 597.46
  Q 517.48 599.09 515.04 599.92
  Q 514.53 600.10 514.03 599.91
  Q 511.13 598.79 510.22 598.22
  C 499.95 591.82 489.12 585.77 479.46 579.83
  Q 467.10 572.23 455.47 565.12
  C 451.53 562.70 448.32 559.23 450.62 554.19
  C 453.06 548.85 458.84 546.70 464.48 546.57
  Q 475.06 546.32 486.28 546.54
  Q 487.21 546.56 487.20 547.48
  Q 487.16 553.26 485.92 560.24
  A 1.03 1.03 0.0 0 1 484.38 560.95
  Q 480.91 558.94 477.58 557.35
  A 2.44 2.42 -52.4 0 0 474.94 557.70
  Z"
/>
<path fill="#72798e" d="
  M 552.78 558.45
  Q 552.70 557.53 552.00 557.46
  Q 550.20 557.29 548.74 558.18
  Q 546.42 559.60 544.07 561.42
  Q 543.48 561.89 542.83 561.51
  Q 540.37 560.07 540.11 557.15
  Q 539.69 552.25 539.72 547.40
  Q 539.72 546.70 540.43 546.70
  Q 550.25 546.69 560.04 546.51
  C 566.32 546.40 572.50 547.76 575.76 553.72
  C 578.60 558.92 575.99 562.49 571.53 565.39
  C 561.86 571.69 552.05 577.68 541.67 583.90
  C 535.78 587.43 530.11 591.39 524.15 594.78
  Q 523.76 595.00 523.45 594.67
  L 516.49 587.13
  A 1.28 1.27 50.6 0 1 516.67 585.23
  L 552.40 559.29
  A 0.93 0.93 0.0 0 0 552.78 558.45
  Z"
/>
<path fill="#ffffff" d="
  M 410.26 546.83
  A 0.88 0.88 0.0 0 1 411.11 547.73
  L 411.09 548.65
  A 2.48 2.10 -88.5 0 1 408.92 551.08
  L 408.32 551.06
  A 2.48 2.10 -88.5 0 1 406.29 548.53
  L 406.31 547.61
  A 0.88 0.88 0.0 0 1 407.22 546.75
  L 410.26 546.83
  Z"
/>
<path fill="#bac0d0" d="
  M 429.53 550.73
  L 417.71 550.73
  A 1.22 1.22 0.0 0 1 416.50 549.66
  L 416.32 548.25
  A 1.22 1.22 0.0 0 1 417.51 546.87
  L 429.76 546.65
  A 1.22 1.22 0.0 0 1 430.99 548.05
  L 430.73 549.70
  A 1.22 1.22 0.0 0 1 429.53 550.73
  Z"
/>
<path fill="#fbf6e5" d="
  M 536.60 556.36
  Q 537.20 560.75 539.42 563.76
  Q 539.72 564.16 539.25 564.50
  L 514.09 582.90
  Q 513.60 583.26 513.11 582.89
  Q 501.34 573.85 487.98 564.71
  Q 487.14 564.13 487.77 563.34
  C 488.62 562.28 489.31 561.21 489.59 559.84
  Q 490.45 555.64 491.05 550.27
  Q 492.22 553.94 494.02 555.71
  Q 496.10 557.76 496.23 557.93
  Q 497.38 559.33 498.65 560.68
  Q 499.92 562.02 501.59 562.71
  Q 506.04 564.55 510.23 566.11
  C 511.33 566.52 512.27 566.38 513.43 566.38
  Q 514.48 566.37 515.52 566.71
  Q 516.67 567.09 517.91 566.84
  Q 522.23 565.98 526.80 564.64
  Q 527.32 564.49 527.70 564.11
  C 528.61 563.17 529.67 563.10 530.69 562.37
  Q 531.97 561.46 533.35 560.72
  Q 533.86 560.45 534.08 559.92
  Q 535.15 557.30 536.60 556.36
  Z"
/>
<path fill="#72798e" d="
  M 454.53 569.31
  Q 455.00 569.58 454.84 570.09
  Q 454.71 570.51 454.39 570.81
  Q 452.40 572.69 450.20 574.20
  A 0.79 0.79 0.0 0 1 448.97 573.51
  L 449.38 565.33
  A 0.24 0.24 0.0 0 1 449.81 565.19
  Q 452.06 567.90 454.53 569.31
  Z"
/>
<path fill="#72798e" d="
  M 572.59 569.40
  C 573.93 568.50 575.53 567.86 576.56 566.60
  Q 577.12 565.92 577.25 566.79
  L 578.25 573.47
  Q 578.51 575.18 577.12 574.14
  L 572.56 570.70
  A 0.80 0.80 0.0 0 1 572.59 569.40
  Z"
/>
<path fill="#bac0d0" d="
  M 450.25 624.49
  Q 447.44 623.07 445.27 621.01
  Q 444.85 620.62 444.81 620.05
  Q 444.59 617.41 444.58 614.96
  Q 444.53 597.42 444.62 582.71
  A 1.67 1.66 -16.1 0 1 445.40 581.30
  C 446.44 580.65 447.49 580.20 448.47 579.42
  Q 453.15 575.67 458.16 572.09
  A 0.37 0.36 67.4 0 1 458.73 572.33
  Q 458.98 573.82 458.98 575.24
  Q 459.16 601.88 458.64 628.91
  A 0.32 0.32 0.0 0 1 458.14 629.16
  Q 454.36 626.58 450.25 624.49
  Z"
/>
<path fill="#bac0d0" d="
  M 581.99 581.75
  L 581.94 621.08
  A 0.75 0.75 0.0 0 1 581.57 621.73
  L 569.23 628.92
  A 0.75 0.75 0.0 0 1 568.10 628.27
  L 567.75 573.06
  A 0.75 0.75 0.0 0 1 568.92 572.44
  L 581.66 581.13
  A 0.75 0.75 0.0 0 1 581.99 581.75
  Z"
/>
<path fill="#72798e" d="
  M 483.81 638.39
  C 477.24 637.12 470.28 634.20 464.16 631.25
  A 2.67 2.65 13.0 0 1 462.66 628.86
  L 462.87 575.48
  Q 462.87 574.38 463.81 574.97
  L 483.64 587.47
  A 1.62 1.60 16.2 0 1 484.38 588.80
  L 484.62 637.71
  Q 484.63 638.55 483.81 638.39
  Z"
/>
<path fill="#72798e" d="
  M 563.97 575.91
  L 564.27 630.61
  A 0.66 0.66 0.0 0 1 563.84 631.23
  L 543.38 638.75
  A 0.66 0.66 0.0 0 1 542.50 638.14
  L 542.31 588.94
  A 0.66 0.66 0.0 0 1 542.62 588.38
  L 562.95 575.36
  A 0.66 0.66 0.0 0 1 563.97 575.91
  Z"
/>
<path fill="#72798e" d="
  M 440.74 618.76
  Q 431.87 612.46 424.83 604.88
  C 419.92 599.59 436.37 587.75 440.54 585.10
  A 0.46 0.46 0.0 0 1 441.25 585.49
  L 441.33 618.46
  Q 441.33 619.18 440.74 618.76
  Z"
/>
<path fill="#72798e" d="
  M 585.36 614.55
  Q 585.62 602.58 585.58 589.26
  Q 585.57 587.55 586.05 585.78
  Q 586.20 585.23 586.68 585.53
  Q 597.36 592.29 603.55 601.90
  A 2.00 1.99 48.7 0 1 603.40 604.28
  C 601.53 606.50 599.38 608.69 597.06 610.42
  Q 591.07 614.89 585.35 619.39
  Q 584.79 619.83 584.90 619.12
  Q 585.32 616.61 585.36 614.55
  Z"
/>
<path fill="#72798e" d="
  M 510.27 602.29
  Q 514.78 604.53 519.64 601.85
  Q 529.44 596.45 537.12 591.24
  A 0.55 0.55 0.0 0 1 537.97 591.63
  Q 538.10 592.66 538.13 594.00
  Q 538.61 613.40 538.56 638.14
  Q 538.56 639.27 537.44 639.49
  Q 513.34 644.11 489.27 639.34
  Q 488.35 639.16 488.35 638.22
  L 488.55 590.25
  A 0.26 0.25 17.1 0 1 488.95 590.04
  Q 499.08 596.73 510.27 602.29
  Z"
/>
</svg>
