<svg id="visual" viewBox="0 0 900 600" width="900" height="600" xmlns="http://www.w3.org/2000/svg" xmlns:xlink="http://www.w3.org/1999/xlink" version="1.1"><path d="M0 85L53 85L53 121L106 121L106 37L159 37L159 31L212 31L212 61L265 61L265 37L318 37L318 103L371 103L371 25L424 25L424 97L476 97L476 73L529 73L529 49L582 49L582 13L635 13L635 25L688 25L688 103L741 103L741 91L794 91L794 43L847 43L847 79L900 79L900 91L900 0L900 0L847 0L847 0L794 0L794 0L741 0L741 0L688 0L688 0L635 0L635 0L582 0L582 0L529 0L529 0L476 0L476 0L424 0L424 0L371 0L371 0L318 0L318 0L265 0L265 0L212 0L212 0L159 0L159 0L106 0L106 0L53 0L53 0L0 0Z" fill="#f3ffd2"></path><path d="M0 163L53 163L53 241L106 241L106 163L159 163L159 163L212 163L212 133L265 133L265 223L318 223L318 241L371 241L371 181L424 181L424 229L476 229L476 373L529 373L529 91L582 91L582 103L635 103L635 61L688 61L688 205L741 205L741 217L794 217L794 109L847 109L847 271L900 271L900 271L900 89L900 77L847 77L847 41L794 41L794 89L741 89L741 101L688 101L688 23L635 23L635 11L582 11L582 47L529 47L529 71L476 71L476 95L424 95L424 23L371 23L371 101L318 101L318 35L265 35L265 59L212 59L212 29L159 29L159 35L106 35L106 119L53 119L53 83L0 83Z" fill="#f1ffcb"></path><path d="M0 211L53 211L53 289L106 289L106 217L159 217L159 193L212 193L212 139L265 139L265 289L318 289L318 301L371 301L371 271L424 271L424 277L476 277L476 391L529 391L529 127L582 127L582 109L635 109L635 85L688 85L688 253L741 253L741 301L794 301L794 127L847 127L847 307L900 307L900 331L900 269L900 269L847 269L847 107L794 107L794 215L741 215L741 203L688 203L688 59L635 59L635 101L582 101L582 89L529 89L529 371L476 371L476 227L424 227L424 179L371 179L371 239L318 239L318 221L265 221L265 131L212 131L212 161L159 161L159 161L106 161L106 239L53 239L53 161L0 161Z" fill="#effec4"></path><path d="M0 247L53 247L53 337L106 337L106 259L159 259L159 253L212 253L212 205L265 205L265 313L318 313L318 349L371 349L371 283L424 283L424 319L476 319L476 409L529 409L529 181L582 181L582 169L635 169L635 121L688 121L688 271L741 271L741 373L794 373L794 187L847 187L847 379L900 379L900 409L900 329L900 305L847 305L847 125L794 125L794 299L741 299L741 251L688 251L688 83L635 83L635 107L582 107L582 125L529 125L529 389L476 389L476 275L424 275L424 269L371 269L371 299L318 299L318 287L265 287L265 137L212 137L212 191L159 191L159 215L106 215L106 287L53 287L53 209L0 209Z" fill="#edfebd"></path><path d="M0 319L53 319L53 361L106 361L106 331L159 331L159 295L212 295L212 283L265 283L265 379L318 379L318 373L371 373L371 307L424 307L424 379L476 379L476 415L529 415L529 211L582 211L582 175L635 175L635 139L688 139L688 313L741 313L741 379L794 379L794 235L847 235L847 445L900 445L900 439L900 407L900 377L847 377L847 185L794 185L794 371L741 371L741 269L688 269L688 119L635 119L635 167L582 167L582 179L529 179L529 407L476 407L476 317L424 317L424 281L371 281L371 347L318 347L318 311L265 311L265 203L212 203L212 251L159 251L159 257L106 257L106 335L53 335L53 245L0 245Z" fill="#ebfeb5"></path><path d="M0 403L53 403L53 397L106 397L106 361L159 361L159 379L212 379L212 349L265 349L265 445L318 445L318 427L371 427L371 409L424 409L424 451L476 451L476 517L529 517L529 379L582 379L582 325L635 325L635 187L688 187L688 403L741 403L741 445L794 445L794 367L847 367L847 481L900 481L900 517L900 437L900 443L847 443L847 233L794 233L794 377L741 377L741 311L688 311L688 137L635 137L635 173L582 173L582 209L529 209L529 413L476 413L476 377L424 377L424 305L371 305L371 371L318 371L318 377L265 377L265 281L212 281L212 293L159 293L159 329L106 329L106 359L53 359L53 317L0 317Z" fill="#e9feae"></path><path d="M0 439L53 439L53 457L106 457L106 409L159 409L159 391L212 391L212 385L265 385L265 493L318 493L318 439L371 439L371 469L424 469L424 475L476 475L476 559L529 559L529 415L582 415L582 391L635 391L635 253L688 253L688 469L741 469L741 511L794 511L794 427L847 427L847 523L900 523L900 529L900 515L900 479L847 479L847 365L794 365L794 443L741 443L741 401L688 401L688 185L635 185L635 323L582 323L582 377L529 377L529 515L476 515L476 449L424 449L424 407L371 407L371 425L318 425L318 443L265 443L265 347L212 347L212 377L159 377L159 359L106 359L106 395L53 395L53 401L0 401Z" fill="#e6fda7"></path><path d="M0 601L53 601L53 601L106 601L106 601L159 601L159 601L212 601L212 601L265 601L265 601L318 601L318 601L371 601L371 601L424 601L424 601L476 601L476 601L529 601L529 601L582 601L582 601L635 601L635 601L688 601L688 601L741 601L741 601L794 601L794 601L847 601L847 601L900 601L900 601L900 527L900 521L847 521L847 425L794 425L794 509L741 509L741 467L688 467L688 251L635 251L635 389L582 389L582 413L529 413L529 557L476 557L476 473L424 473L424 467L371 467L371 437L318 437L318 491L265 491L265 383L212 383L212 389L159 389L159 407L106 407L106 455L53 455L53 437L0 437Z" fill="#e4fd9f"></path></svg>