<svg id="visual" viewBox="0 0 900 600" width="900" height="600" xmlns="http://www.w3.org/2000/svg" xmlns:xlink="http://www.w3.org/1999/xlink" version="1.1"><path d="M0 49L47 49L47 37L95 37L95 55L142 55L142 73L189 73L189 43L237 43L237 49L284 49L284 43L332 43L332 85L379 85L379 73L426 73L426 31L474 31L474 67L521 67L521 73L568 73L568 31L616 31L616 55L663 55L663 31L711 31L711 67L758 67L758 85L805 85L805 43L853 43L853 43L900 43L900 43L900 0L900 0L853 0L853 0L805 0L805 0L758 0L758 0L711 0L711 0L663 0L663 0L616 0L616 0L568 0L568 0L521 0L521 0L474 0L474 0L426 0L426 0L379 0L379 0L332 0L332 0L284 0L284 0L237 0L237 0L189 0L189 0L142 0L142 0L95 0L95 0L47 0L47 0L0 0Z" fill="#bff1ce"></path><path d="M0 259L47 259L47 271L95 271L95 223L142 223L142 265L189 265L189 163L237 163L237 283L284 283L284 217L332 217L332 241L379 241L379 283L426 283L426 169L474 169L474 271L521 271L521 265L568 265L568 187L616 187L616 223L663 223L663 199L711 199L711 199L758 199L758 217L805 217L805 127L853 127L853 163L900 163L900 271L900 41L900 41L853 41L853 41L805 41L805 83L758 83L758 65L711 65L711 29L663 29L663 53L616 53L616 29L568 29L568 71L521 71L521 65L474 65L474 29L426 29L426 71L379 71L379 83L332 83L332 41L284 41L284 47L237 47L237 41L189 41L189 71L142 71L142 53L95 53L95 35L47 35L47 47L0 47Z" fill="#b2e7c6"></path><path d="M0 343L47 343L47 301L95 301L95 289L142 289L142 307L189 307L189 259L237 259L237 379L284 379L284 277L332 277L332 289L379 289L379 355L426 355L426 265L474 265L474 337L521 337L521 301L568 301L568 259L616 259L616 277L663 277L663 265L711 265L711 277L758 277L758 253L805 253L805 169L853 169L853 259L900 259L900 343L900 269L900 161L853 161L853 125L805 125L805 215L758 215L758 197L711 197L711 197L663 197L663 221L616 221L616 185L568 185L568 263L521 263L521 269L474 269L474 167L426 167L426 281L379 281L379 239L332 239L332 215L284 215L284 281L237 281L237 161L189 161L189 263L142 263L142 221L95 221L95 269L47 269L47 257L0 257Z" fill="#a6dcbe"></path><path d="M0 427L47 427L47 433L95 433L95 409L142 409L142 397L189 397L189 433L237 433L237 487L284 487L284 475L332 475L332 397L379 397L379 421L426 421L426 433L474 433L474 415L521 415L521 403L568 403L568 421L616 421L616 487L663 487L663 415L711 415L711 451L758 451L758 427L805 427L805 361L853 361L853 403L900 403L900 421L900 341L900 257L853 257L853 167L805 167L805 251L758 251L758 275L711 275L711 263L663 263L663 275L616 275L616 257L568 257L568 299L521 299L521 335L474 335L474 263L426 263L426 353L379 353L379 287L332 287L332 275L284 275L284 377L237 377L237 257L189 257L189 305L142 305L142 287L95 287L95 299L47 299L47 341L0 341Z" fill="#9ad2b6"></path><path d="M0 541L47 541L47 481L95 481L95 517L142 517L142 505L189 505L189 547L237 547L237 535L284 535L284 553L332 553L332 523L379 523L379 493L426 493L426 493L474 493L474 511L521 511L521 547L568 547L568 559L616 559L616 547L663 547L663 487L711 487L711 565L758 565L758 505L805 505L805 493L853 493L853 517L900 517L900 565L900 419L900 401L853 401L853 359L805 359L805 425L758 425L758 449L711 449L711 413L663 413L663 485L616 485L616 419L568 419L568 401L521 401L521 413L474 413L474 431L426 431L426 419L379 419L379 395L332 395L332 473L284 473L284 485L237 485L237 431L189 431L189 395L142 395L142 407L95 407L95 431L47 431L47 425L0 425Z" fill="#8ec7af"></path><path d="M0 601L47 601L47 601L95 601L95 601L142 601L142 601L189 601L189 601L237 601L237 601L284 601L284 601L332 601L332 601L379 601L379 601L426 601L426 601L474 601L474 601L521 601L521 601L568 601L568 601L616 601L616 601L663 601L663 601L711 601L711 601L758 601L758 601L805 601L805 601L853 601L853 601L900 601L900 601L900 563L900 515L853 515L853 491L805 491L805 503L758 503L758 563L711 563L711 485L663 485L663 545L616 545L616 557L568 557L568 545L521 545L521 509L474 509L474 491L426 491L426 491L379 491L379 521L332 521L332 551L284 551L284 533L237 533L237 545L189 545L189 503L142 503L142 515L95 515L95 479L47 479L47 539L0 539Z" fill="#82bda7"></path></svg>