<svg id="visual" viewBox="0 0 900 600" width="900" height="600" xmlns="http://www.w3.org/2000/svg" xmlns:xlink="http://www.w3.org/1999/xlink" version="1.1"><rect x="0" y="0" width="900" height="600" fill="#f3ffd2"></rect><path d="M539 600L539 577L455 577L455 554L420 554L420 531L140 531L140 508L560 508L560 485L365 485L365 462L249 462L249 438L430 438L430 415L265 415L265 392L193 392L193 369L133 369L133 346L350 346L350 323L537 323L537 300L496 300L496 277L607 277L607 254L387 254L387 231L646 231L646 208L444 208L444 185L502 185L502 162L198 162L198 138L499 138L499 115L270 115L270 92L413 92L413 69L295 69L295 46L827 46L827 23L374 23L374 0" fill="none" stroke-linecap="square" stroke-linejoin="miter" stroke="#bff1ce" stroke-width="3"></path></svg>