<?xml version="1.0" encoding="UTF-8" standalone="no"?>
<!DOCTYPE svg PUBLIC "-//W3C//DTD SVG 1.1//EN" "http://www.w3.org/Graphics/SVG/1.1/DTD/svg11.dtd">
<svg xmlns="http://www.w3.org/2000/svg" version="1.1" viewBox="0.00 0.00 1024.00 1024.00">
<g stroke-width="2.00" fill="none" stroke-linecap="butt">
<path stroke="#335669" vector-effect="non-scaling-stroke" d="
  M 208.81 249.21
  L 219.86 238.26"
/>
<path stroke="#71909e" vector-effect="non-scaling-stroke" d="
  M 648.20 227.61
  C 617.29 210.74 582.67 199.77 547.71 194.33
  Q 534.79 192.33 525.25 191.55
  Q 517.82 190.95 512.53 195.58
  C 505.39 201.82 506.30 213.92 514.01 219.33
  Q 517.88 222.04 524.49 222.73
  C 562.24 226.66 597.95 236.90 631.27 254.47
  C 634.43 256.13 638.18 257.88 641.68 258.23
  C 651.00 259.16 659.22 252.29 658.94 242.55
  C 658.74 235.81 653.97 230.76 648.20 227.61"
/>
<path stroke="#71909e" vector-effect="non-scaling-stroke" d="
  M 375.38 248.33
  Q 417.87 229.12 464.65 223.46
  Q 467.90 223.06 470.98 222.19
  C 479.92 219.66 483.63 210.53 481.02 202.07
  C 478.42 193.65 471.10 191.11 462.93 192.07
  C 424.14 196.66 387.78 207.01 352.37 224.09
  C 347.27 226.54 340.93 229.33 337.23 232.78
  C 329.78 239.72 330.84 251.68 339.77 256.95
  C 346.03 260.64 353.16 259.13 359.40 255.98
  Q 367.26 252.00 375.38 248.33"
/>
<path stroke="#335669" vector-effect="non-scaling-stroke" d="
  M 504.4099 260.5094
  A 4.61 4.13 83.4 0 0 507.9826 255.4553
  A 4.61 4.13 83.4 0 0 503.3501 251.3506
  A 4.61 4.13 83.4 0 0 499.7774 256.4047
  A 4.61 4.13 83.4 0 0 504.4099 260.5094"
/>
<path stroke="#85959e" vector-effect="non-scaling-stroke" d="
  M 438.5067 269.9082
  A 7.18 6.83 70.5 0 0 442.5482 260.8601
  A 7.18 6.83 70.5 0 0 433.7133 256.3718
  A 7.18 6.83 70.5 0 0 429.6718 265.4199
  A 7.18 6.83 70.5 0 0 438.5067 269.9082"
/>
<path stroke="#335669" vector-effect="non-scaling-stroke" d="
  M 560.5439 269.0196
  A 4.63 4.25 69.6 0 0 562.9134 263.1986
  A 4.63 4.25 69.6 0 0 557.3161 260.3404
  A 4.63 4.25 69.6 0 0 554.9466 266.1614
  A 4.63 4.25 69.6 0 0 560.5439 269.0196"
/>
<path stroke="#85959e" vector-effect="non-scaling-stroke" d="
  M 313.82 281.25
  A 20.89 20.89 0.0 0 0 292.93 260.36
  A 20.89 20.89 0.0 0 0 272.04 281.25
  A 20.89 20.89 0.0 0 0 292.93 302.14
  A 20.89 20.89 0.0 0 0 313.82 281.25"
/>
<path stroke="#85959e" vector-effect="non-scaling-stroke" d="
  M 723.6724 288.7336
  A 21.09 20.84 20.9 0 0 711.4044 261.7412
  A 21.09 20.84 20.9 0 0 684.2676 273.6864
  A 21.09 20.84 20.9 0 0 696.5356 300.6788
  A 21.09 20.84 20.9 0 0 723.6724 288.7336"
/>
<path stroke="#335669" vector-effect="non-scaling-stroke" d="
  M 384.35 291.58
  A 4.36 4.36 0.0 0 0 379.99 287.22
  A 4.36 4.36 0.0 0 0 375.63 291.58
  A 4.36 4.36 0.0 0 0 379.99 295.94
  A 4.36 4.36 0.0 0 0 384.35 291.58"
/>
<path stroke="#85959e" vector-effect="non-scaling-stroke" d="
  M 550.93 556.36
  A 0.49 0.47 76.2 0 1 551.24 555.83
  C 565.22 550.69 578.22 543.35 589.51 533.41
  Q 616.03 510.05 627.86 476.51
  Q 641.38 438.18 631.75 398.07
  C 620.59 351.58 584.30 313.98 539.42 299.57
  C 498.27 286.36 454.43 291.86 417.59 314.32
  C 379.88 337.29 353.91 378.84 352.12 423.25
  Q 351.92 428.27 351.91 433.75
  Q 351.54 580.27 351.99 709.75
  Q 352.03 720.55 352.00 729.88
  Q 351.99 730.51 352.58 730.28
  C 361.01 727.09 368.92 722.92 376.66 718.39
  Q 384.87 713.58 392.18 707.08
  Q 416.62 685.37 416.90 651.88
  Q 417.25 610.73 416.96 568.76
  Q 416.96 568.16 417.56 568.15
  Q 444.90 567.92 473.51 568.06
  Q 475.67 568.07 477.27 569.78
  Q 494.53 588.25 516.37 610.78
  C 524.16 618.83 532.07 627.52 539.85 635.51
  Q 570.01 666.50 596.41 694.87
  Q 602.40 701.32 606.11 703.60
  Q 611.80 707.09 619.38 707.89
  Q 634.91 709.54 644.68 699.48
  C 652.65 691.26 655.09 678.98 651.96 668.19
  C 649.39 659.33 643.04 652.40 636.84 646.01
  Q 602.04 610.14 566.89 573.85
  Q 559.51 566.24 551.40 557.32
  Q 551.02 556.90 550.93 556.36"
/>
<path stroke="#85959e" vector-effect="non-scaling-stroke" d="
  M 656.86 308.86
  A 12.81 12.81 0.0 0 0 644.05 296.05
  A 12.81 12.81 0.0 0 0 631.24 308.86
  A 12.81 12.81 0.0 0 0 644.05 321.67
  A 12.81 12.81 0.0 0 0 656.86 308.86"
/>
<path stroke="#335669" vector-effect="non-scaling-stroke" d="
  M 333.7478 318.1311
  A 4.45 4.28 81.5 0 0 337.3230 313.0974
  A 4.45 4.28 81.5 0 0 332.4322 309.3289
  A 4.45 4.28 81.5 0 0 328.8570 314.3626
  A 4.45 4.28 81.5 0 0 333.7478 318.1311"
/>
<path stroke="#71909e" vector-effect="non-scaling-stroke" d="
  M 188.29 389.84
  C 183.15 400.61 179.22 411.93 175.49 423.17
  Q 173.34 429.67 172.53 435.25
  C 171.53 442.24 174.84 449.33 181.51 452.28
  C 188.06 455.17 196.31 453.72 200.81 448.06
  Q 203.29 444.94 205.17 438.54
  C 215.47 403.35 233.34 370.64 256.65 342.89
  Q 264.21 333.89 260.14 324.41
  C 255.34 313.26 240.90 311.26 233.08 320.41
  Q 206.68 351.31 188.29 389.84"
/>
<path stroke="#335669" vector-effect="non-scaling-stroke" d="
  M 682.8536 332.9539
  A 4.40 4.17 42.7 0 0 682.4479 326.9054
  A 4.40 4.17 42.7 0 0 676.3864 326.9861
  A 4.40 4.17 42.7 0 0 676.7921 333.0346
  A 4.40 4.17 42.7 0 0 682.8536 332.9539"
/>
<path stroke="#71909e" vector-effect="non-scaling-stroke" d="
  M 824.21 431.06
  C 816.44 403.18 804.51 376.74 787.69 353.66
  C 780.77 344.15 772.08 336.18 759.92 334.84
  Q 756.16 334.43 752.27 334.38
  Q 733.76 334.17 717.52 334.33
  C 707.52 334.43 700.07 343.25 704.38 352.81
  C 707.33 359.35 713.03 361.01 719.75 360.99
  Q 729.94 360.95 740.43 361.10
  C 744.62 361.15 748.13 361.20 751.84 362.97
  C 756.35 365.12 759.87 369.99 762.71 374.05
  Q 778.07 396.06 787.74 423.15
  Q 791.00 432.30 793.63 441.21
  Q 795.72 448.34 800.93 451.26
  C 809.67 456.16 820.57 452.87 824.29 443.26
  C 825.84 439.26 825.32 435.06 824.21 431.06"
/>
<path stroke="#85959e" vector-effect="non-scaling-stroke" d="
  M 335.33 348.30
  A 5.58 5.58 0.0 0 0 329.75 342.72
  A 5.58 5.58 0.0 0 0 324.17 348.30
  A 5.58 5.58 0.0 0 0 329.75 353.88
  A 5.58 5.58 0.0 0 0 335.33 348.30"
/>
<path stroke="#85959e" vector-effect="non-scaling-stroke" d="
  M 297.1951 384.6603
  A 12.87 12.56 67.5 0 0 303.8739 367.9635
  A 12.87 12.56 67.5 0 0 287.3449 360.8797
  A 12.87 12.56 67.5 0 0 280.6661 377.5765
  A 12.87 12.56 67.5 0 0 297.1951 384.6603"
/>
<path stroke="#85959e" vector-effect="non-scaling-stroke" d="
  M 675.8357 375.8940
  A 5.78 5.63 71.9 0 0 679.3914 368.6509
  A 5.78 5.63 71.9 0 0 672.2443 364.9060
  A 5.78 5.63 71.9 0 0 668.6886 372.1491
  A 5.78 5.63 71.9 0 0 675.8357 375.8940"
/>
<path stroke="#335669" vector-effect="non-scaling-stroke" d="
  M 736.2916 395.6668
  A 4.52 4.17 67.2 0 0 738.3842 389.8841
  A 4.52 4.17 67.2 0 0 732.7884 387.3332
  A 4.52 4.17 67.2 0 0 730.6958 393.1159
  A 4.52 4.17 67.2 0 0 736.2916 395.6668"
/>
<path stroke="#85959e" vector-effect="non-scaling-stroke" d="
  M 260.3358 400.0264
  A 5.79 5.57 81.5 0 0 264.9888 393.4767
  A 5.79 5.57 81.5 0 0 258.6242 388.5736
  A 5.79 5.57 81.5 0 0 253.9712 395.1233
  A 5.79 5.57 81.5 0 0 260.3358 400.0264"
/>
<path stroke="#85959e" vector-effect="non-scaling-stroke" d="
  M 714.6597 424.2067
  A 16.43 16.19 25.9 0 0 706.9518 402.4662
  A 16.43 16.19 25.9 0 0 685.1003 409.8533
  A 16.43 16.19 25.9 0 0 692.8082 431.5938
  A 16.43 16.19 25.9 0 0 714.6597 424.2067"
/>
<path stroke="#71909e" vector-effect="non-scaling-stroke" d="
  M 305.0982 443.6471
  A 12.52 12.52 0.0 0 0 292.5346 431.1709
  L 241.4549 431.3492
  A 12.52 12.52 0.0 0 0 228.9787 443.9129
  L 228.9818 444.8129
  A 12.52 12.52 0.0 0 0 241.5454 457.2891
  L 292.6251 457.1108
  A 12.52 12.52 0.0 0 0 305.1013 444.5471
  L 305.0982 443.6471"
/>
<path stroke="#85959e" vector-effect="non-scaling-stroke" d="
  M 760.7800 446.1232
  A 7.92 7.60 60.5 0 0 763.4947 435.4876
  A 7.92 7.60 60.5 0 0 752.9800 432.3368
  A 7.92 7.60 60.5 0 0 750.2653 442.9724
  A 7.92 7.60 60.5 0 0 760.7800 446.1232"
/>
<path stroke="#71909e" vector-effect="non-scaling-stroke" d="
  M 298.6094 491.7994
  A 13.72 13.72 0.0 0 0 284.8654 478.1033
  L 174.0656 478.2967
  A 13.72 13.72 0.0 0 0 160.3696 492.0406
  L 160.3706 492.6406
  A 13.72 13.72 0.0 0 0 174.1146 506.3367
  L 284.9144 506.1433
  A 13.72 13.72 0.0 0 0 298.6104 492.3994
  L 298.6094 491.7994"
/>
<path stroke="#71909e" vector-effect="non-scaling-stroke" d="
  M 837.46 492.02
  A 13.81 13.81 0.0 0 0 823.65 478.21
  L 688.49 478.21
  A 13.81 13.81 0.0 0 0 674.68 492.02
  L 674.68 492.54
  A 13.81 13.81 0.0 0 0 688.49 506.35
  L 823.65 506.35
  A 13.81 13.81 0.0 0 0 837.46 492.54
  L 837.46 492.02"
/>
<path stroke="#71909e" vector-effect="non-scaling-stroke" d="
  M 739.62 537.77
  A 12.44 12.44 0.0 0 0 727.18 525.33
  L 648.46 525.33
  A 12.44 12.44 0.0 0 0 636.02 537.77
  L 636.02 538.45
  A 12.44 12.44 0.0 0 0 648.46 550.89
  L 727.18 550.89
  A 12.44 12.44 0.0 0 0 739.62 538.45
  L 739.62 537.77"
/>
<path stroke="#85959e" vector-effect="non-scaling-stroke" d="
  M 231.1447 540.7586
  A 7.62 7.31 51.2 0 0 232.0670 530.2395
  A 7.62 7.31 51.2 0 0 221.5953 528.8814
  A 7.62 7.31 51.2 0 0 220.6730 539.4005
  A 7.62 7.31 51.2 0 0 231.1447 540.7586"
/>
<path stroke="#335669" vector-effect="non-scaling-stroke" d="
  M 772.5616 541.6456
  A 4.43 4.26 72.1 0 0 775.2538 536.1207
  A 4.43 4.26 72.1 0 0 769.8384 533.2144
  A 4.43 4.26 72.1 0 0 767.1462 538.7393
  A 4.43 4.26 72.1 0 0 772.5616 541.6456"
/>
<path stroke="#71909e" vector-effect="non-scaling-stroke" d="
  M 804.96 551.67
  C 804.80 560.21 805.60 568.95 793.89 569.00
  Q 761.66 569.14 726.60 569.17
  C 721.26 569.17 714.51 568.70 710.05 571.55
  C 703.80 575.55 701.65 583.69 705.58 590.28
  C 708.97 595.97 714.31 597.21 720.49 597.22
  Q 760.32 597.30 799.82 597.15
  C 805.47 597.12 811.22 597.31 816.40 596.04
  C 829.01 592.94 834.01 583.05 835.37 570.82
  Q 836.12 564.02 836.87 557.40
  C 837.69 550.17 836.29 543.07 829.96 538.94
  C 819.68 532.22 805.19 538.92 804.96 551.67"
/>
<path stroke="#85959e" vector-effect="non-scaling-stroke" d="
  M 309.4895 576.8376
  A 27.30 26.76 13.1 0 0 288.9652 544.5864
  A 27.30 26.76 13.1 0 0 256.3105 564.4624
  A 27.30 26.76 13.1 0 0 276.8348 596.7136
  A 27.30 26.76 13.1 0 0 309.4895 576.8376"
/>
<path stroke="#71909e" vector-effect="non-scaling-stroke" d="
  M 227.46 666.64
  Q 202.77 619.65 195.37 564.86
  Q 194.33 557.17 188.72 552.72
  C 184.43 549.31 177.99 548.54 173.08 550.64
  Q 161.48 555.59 163.11 569.43
  C 165.72 591.63 171.40 614.31 178.87 636.16
  Q 193.51 679.00 220.06 715.21
  C 227.62 725.52 234.92 734.53 248.46 735.60
  Q 253.40 735.98 258.50 735.98
  Q 279.05 735.95 299.21 736.11
  Q 303.13 736.14 306.45 735.24
  C 313.92 733.22 317.97 725.87 316.53 718.29
  C 315.09 710.78 308.21 706.06 300.90 706.04
  Q 279.29 705.96 257.20 706.01
  C 253.06 706.01 249.20 700.30 246.94 697.32
  Q 236.08 683.03 227.46 666.64"
/>
<path stroke="#85959e" vector-effect="non-scaling-stroke" d="
  M 677.2824 585.6305
  A 6.27 6.10 56.7 0 0 678.9384 577.0410
  A 6.27 6.10 56.7 0 0 670.3976 575.1495
  A 6.27 6.10 56.7 0 0 668.7416 583.7390
  A 6.27 6.10 56.7 0 0 677.2824 585.6305"
/>
<path stroke="#335669" vector-effect="non-scaling-stroke" d="
  M 233.55 585.34
  A 4.26 4.26 0.0 0 0 229.29 581.08
  A 4.26 4.26 0.0 0 0 225.03 585.34
  A 4.26 4.26 0.0 0 0 229.29 589.60
  A 4.26 4.26 0.0 0 0 233.55 585.34"
/>
<path stroke="#335669" vector-effect="non-scaling-stroke" d="
  M 637.4238 595.7180
  A 4.51 4.35 88.3 0 0 641.6381 591.0810
  A 4.51 4.35 88.3 0 0 637.1562 586.7020
  A 4.51 4.35 88.3 0 0 632.9419 591.3390
  A 4.51 4.35 88.3 0 0 637.4238 595.7180"
/>
<path stroke="#85959e" vector-effect="non-scaling-stroke" d="
  M 462.6591 634.8421
  A 11.79 11.50 63.4 0 0 467.6628 619.1508
  A 11.79 11.50 63.4 0 0 452.1009 613.7579
  A 11.79 11.50 63.4 0 0 447.0972 629.4492
  A 11.79 11.50 63.4 0 0 462.6591 634.8421"
/>
<path stroke="#71909e" vector-effect="non-scaling-stroke" d="
  M 778.68 647.92
  Q 748.44 721.55 684.19 768.14
  Q 670.06 778.39 652.91 787.91
  C 644.61 792.52 640.98 801.38 645.34 810.14
  Q 647.01 813.49 650.10 815.46
  C 658.88 821.04 666.08 817.92 674.10 813.11
  C 705.58 794.23 733.05 773.43 755.73 746.67
  Q 783.56 713.84 801.71 677.28
  Q 809.03 662.54 815.41 642.66
  C 817.22 637.00 817.79 631.32 814.74 625.98
  C 809.68 617.11 797.61 615.69 790.16 622.18
  C 786.80 625.11 785.15 629.27 783.88 633.45
  Q 781.68 640.63 778.68 647.92"
/>
<path stroke="#85959e" vector-effect="non-scaling-stroke" d="
  M 690.6063 635.5776
  A 7.81 7.61 62.5 0 0 693.7502 625.1361
  A 7.81 7.61 62.5 0 0 683.3937 621.7224
  A 7.81 7.61 62.5 0 0 680.2498 632.1639
  A 7.81 7.61 62.5 0 0 690.6063 635.5776"
/>
<path stroke="#335669" vector-effect="non-scaling-stroke" d="
  M 753.0794 635.6451
  A 4.72 4.26 77.9 0 0 756.2554 630.1370
  A 4.72 4.26 77.9 0 0 751.1006 626.4149
  A 4.72 4.26 77.9 0 0 747.9246 631.9230
  A 4.72 4.26 77.9 0 0 753.0794 635.6451"
/>
<path stroke="#85959e" vector-effect="non-scaling-stroke" d="
  M 255.31 637.17
  A 7.07 7.07 0.0 0 0 248.24 630.10
  A 7.07 7.07 0.0 0 0 241.17 637.17
  A 7.07 7.07 0.0 0 0 248.24 644.24
  A 7.07 7.07 0.0 0 0 255.31 637.17"
/>
<path stroke="#85959e" vector-effect="non-scaling-stroke" d="
  M 318.87 638.12
  A 5.57 5.57 0.0 0 0 313.30 632.55
  A 5.57 5.57 0.0 0 0 307.73 638.12
  A 5.57 5.57 0.0 0 0 313.30 643.69
  A 5.57 5.57 0.0 0 0 318.87 638.12"
/>
<path stroke="#85959e" vector-effect="non-scaling-stroke" d="
  M 733.6486 672.5515
  A 15.32 15.06 52.3 0 0 736.1958 651.2204
  A 15.32 15.06 52.3 0 0 714.9114 648.3085
  A 15.32 15.06 52.3 0 0 712.3642 669.6396
  A 15.32 15.06 52.3 0 0 733.6486 672.5515"
/>
<path stroke="#85959e" vector-effect="non-scaling-stroke" d="
  M 518.1985 672.1624
  A 14.27 14.00 46.8 0 0 518.6356 652.1763
  A 14.27 14.00 46.8 0 0 498.6615 651.3576
  A 14.27 14.00 46.8 0 0 498.2244 671.3437
  A 14.27 14.00 46.8 0 0 518.1985 672.1624"
/>
<path stroke="#85959e" vector-effect="non-scaling-stroke" d="
  M 288.6285 676.7964
  A 14.88 14.70 62.9 0 0 294.9361 656.8535
  A 14.88 14.70 62.9 0 0 275.0715 650.3036
  A 14.88 14.70 62.9 0 0 268.7639 670.2465
  A 14.88 14.70 62.9 0 0 288.6285 676.7964"
/>
<path stroke="#335669" vector-effect="non-scaling-stroke" d="
  M 467.9918 678.2242
  A 4.51 4.32 92.9 0 0 472.5345 673.9386
  A 4.51 4.32 92.9 0 0 468.4482 669.2158
  A 4.51 4.32 92.9 0 0 463.9055 673.5014
  A 4.51 4.32 92.9 0 0 467.9918 678.2242"
/>
<path stroke="#85959e" vector-effect="non-scaling-stroke" d="
  M 690.6240 683.2800
  A 5.84 5.59 58.7 0 0 692.3664 675.3859
  A 5.84 5.59 58.7 0 0 684.5560 673.3000
  A 5.84 5.59 58.7 0 0 682.8136 681.1941
  A 5.84 5.59 58.7 0 0 690.6240 683.2800"
/>
<path stroke="#71909e" vector-effect="non-scaling-stroke" d="
  M 567.14 708.50
  Q 563.34 706.30 558.38 706.30
  Q 511.76 706.33 463.05 706.30
  C 454.42 706.29 446.05 709.64 445.05 719.35
  Q 444.22 727.40 450.04 732.46
  C 454.81 736.60 460.55 736.22 466.42 736.19
  Q 511.56 735.93 556.51 736.14
  Q 563.22 736.18 566.50 734.71
  C 577.04 729.97 576.96 714.21 567.14 708.50"
/>
<path stroke="#85959e" vector-effect="non-scaling-stroke" d="
  M 700.4089 720.1341
  A 5.42 5.16 84.4 0 0 705.0154 714.2365
  A 5.42 5.16 84.4 0 0 699.3511 709.3459
  A 5.42 5.16 84.4 0 0 694.7446 715.2435
  A 5.42 5.16 84.4 0 0 700.4089 720.1341"
/>
<path stroke="#71909e" vector-effect="non-scaling-stroke" d="
  M 314.14 774.58
  A 17.74 17.74 0.0 0 0 296.40 756.84
  A 17.74 17.74 0.0 0 0 278.66 774.58
  A 17.74 17.74 0.0 0 0 296.40 792.32
  A 17.74 17.74 0.0 0 0 314.14 774.58"
/>
<path stroke="#71909e" vector-effect="non-scaling-stroke" d="
  M 582.0003 774.2164
  A 14.22 14.22 0.0 0 0 567.8052 759.9716
  L 428.5054 759.7285
  A 14.22 14.22 0.0 0 0 414.2606 773.9236
  L 414.2597 774.4636
  A 14.22 14.22 0.0 0 0 428.4548 788.7084
  L 567.7546 788.9515
  A 14.22 14.22 0.0 0 0 581.9994 774.7564
  L 582.0003 774.2164"
/>
<path stroke="#85959e" vector-effect="non-scaling-stroke" d="
  M 389.65 768.53
  A 5.27 5.27 0.0 0 0 384.38 763.26
  A 5.27 5.27 0.0 0 0 379.11 768.53
  A 5.27 5.27 0.0 0 0 384.38 773.80
  A 5.27 5.27 0.0 0 0 389.65 768.53"
/>
<path stroke="#85959e" vector-effect="non-scaling-stroke" d="
  M 613.6029 774.8591
  A 5.44 5.22 75.6 0 0 617.3060 768.2918
  A 5.44 5.22 75.6 0 0 610.8971 764.3209
  A 5.44 5.22 75.6 0 0 607.1940 770.8882
  A 5.44 5.22 75.6 0 0 613.6029 774.8591"
/>
<path stroke="#71909e" vector-effect="non-scaling-stroke" d="
  M 369.59 799.61
  Q 363.26 796.71 356.96 793.90
  C 349.58 790.60 342.07 790.72 336.47 797.00
  C 331.09 803.04 331.83 812.99 337.80 818.26
  Q 340.35 820.52 345.36 823.01
  Q 402.49 851.43 464.40 856.72
  Q 475.52 857.67 480.17 848.30
  C 484.17 840.25 479.80 830.06 471.35 827.15
  Q 467.71 825.90 464.50 825.55
  Q 414.34 820.12 369.59 799.61"
/>
<path stroke="#71909e" vector-effect="non-scaling-stroke" d="
  M 591.69 812.01
  C 569.16 819.09 545.86 823.59 521.94 826.00
  Q 515.16 826.68 510.90 831.09
  C 503.82 838.42 506.62 852.60 516.86 855.87
  Q 521.28 857.28 526.89 856.77
  Q 567.01 853.13 606.00 840.69
  C 613.50 838.30 618.80 832.98 618.85 824.67
  C 618.91 815.59 611.86 808.91 602.72 809.61
  Q 598.22 809.96 591.69 812.01"
/>
<path stroke="#85959e" vector-effect="non-scaling-stroke" d="
  M 558.73 471.05
  C 572.80 449.21 574.07 420.21 562.56 397.23
  C 541.54 355.25 491.91 343.13 452.62 367.17
  C 434.70 378.12 421.58 398.34 418.20 419.55
  Q 417.11 426.40 417.11 438.62
  Q 417.11 467.32 416.97 495.35
  Q 416.94 501.95 417.48 507.73
  Q 417.52 508.22 418.02 508.22
  Q 450.54 508.22 485.07 508.26
  Q 495.42 508.27 502.08 507.28
  Q 538.91 501.80 558.73 471.05"
/>
</g>
<path fill="#0a2b3d" d="
  M 208.81 249.21
  L 219.86 238.26
  Q 235.24 223.03 252.55 209.82
  Q 293.92 178.25 341.18 158.12
  Q 423.35 123.12 513.92 126.18
  Q 524.58 126.54 536.33 127.65
  Q 546.50 128.62 556.41 130.18
  Q 593.41 136.03 625.53 146.75
  Q 641.62 152.12 661.45 160.71
  Q 671.14 164.90 679.50 169.21
  Q 705.05 182.38 728.02 197.93
  C 745.95 210.07 763.04 224.38 778.53 239.00
  C 790.77 250.56 802.47 263.75 813.41 277.11
  Q 865.18 340.32 887.74 418.24
  Q 899.59 459.18 901.57 500.19
  Q 902.22 513.54 902.12 531.45
  Q 901.94 561.93 897.36 589.26
  Q 887.56 647.75 862.71 699.63
  C 858.76 707.87 853.99 716.36 849.35 724.62
  Q 846.49 729.70 843.57 734.33
  Q 826.45 761.44 805.90 785.59
  C 799.84 792.71 793.05 799.67 786.39 806.39
  Q 754.53 838.56 715.21 862.99
  Q 674.85 888.07 632.21 902.91
  Q 593.01 916.54 550.95 922.26
  Q 518.06 926.72 489.51 925.82
  Q 469.44 925.19 449.53 923.01
  Q 437.90 921.74 414.77 917.05
  Q 404.53 914.97 395.29 912.46
  C 331.03 895.06 270.82 862.58 222.38 817.42
  Q 198.43 795.10 176.24 766.18
  Q 137.89 716.18 117.71 658.19
  Q 116.94 655.99 116.21 653.77
  Q 100.01 604.83 96.33 555.25
  Q 96.08 551.81 95.95 540.16
  Q 95.89 534.59 95.40 529.28
  Q 94.89 523.77 95.40 518.51
  Q 95.89 513.49 95.94 508.68
  Q 96.11 493.16 98.26 476.28
  C 101.07 454.30 105.66 431.80 112.37 410.42
  Q 131.86 348.42 169.19 296.44
  Q 186.65 272.12 208.81 249.21
  Z
  M 648.20 227.61
  C 617.29 210.74 582.67 199.77 547.71 194.33
  Q 534.79 192.33 525.25 191.55
  Q 517.82 190.95 512.53 195.58
  C 505.39 201.82 506.30 213.92 514.01 219.33
  Q 517.88 222.04 524.49 222.73
  C 562.24 226.66 597.95 236.90 631.27 254.47
  C 634.43 256.13 638.18 257.88 641.68 258.23
  C 651.00 259.16 659.22 252.29 658.94 242.55
  C 658.74 235.81 653.97 230.76 648.20 227.61
  Z
  M 375.38 248.33
  Q 417.87 229.12 464.65 223.46
  Q 467.90 223.06 470.98 222.19
  C 479.92 219.66 483.63 210.53 481.02 202.07
  C 478.42 193.65 471.10 191.11 462.93 192.07
  C 424.14 196.66 387.78 207.01 352.37 224.09
  C 347.27 226.54 340.93 229.33 337.23 232.78
  C 329.78 239.72 330.84 251.68 339.77 256.95
  C 346.03 260.64 353.16 259.13 359.40 255.98
  Q 367.26 252.00 375.38 248.33
  Z
  M 504.4099 260.5094
  A 4.61 4.13 83.4 0 0 507.9826 255.4553
  A 4.61 4.13 83.4 0 0 503.3501 251.3506
  A 4.61 4.13 83.4 0 0 499.7774 256.4047
  A 4.61 4.13 83.4 0 0 504.4099 260.5094
  Z
  M 438.5067 269.9082
  A 7.18 6.83 70.5 0 0 442.5482 260.8601
  A 7.18 6.83 70.5 0 0 433.7133 256.3718
  A 7.18 6.83 70.5 0 0 429.6718 265.4199
  A 7.18 6.83 70.5 0 0 438.5067 269.9082
  Z
  M 560.5439 269.0196
  A 4.63 4.25 69.6 0 0 562.9134 263.1986
  A 4.63 4.25 69.6 0 0 557.3161 260.3404
  A 4.63 4.25 69.6 0 0 554.9466 266.1614
  A 4.63 4.25 69.6 0 0 560.5439 269.0196
  Z
  M 313.82 281.25
  A 20.89 20.89 0.0 0 0 292.93 260.36
  A 20.89 20.89 0.0 0 0 272.04 281.25
  A 20.89 20.89 0.0 0 0 292.93 302.14
  A 20.89 20.89 0.0 0 0 313.82 281.25
  Z
  M 723.6724 288.7336
  A 21.09 20.84 20.9 0 0 711.4044 261.7412
  A 21.09 20.84 20.9 0 0 684.2676 273.6864
  A 21.09 20.84 20.9 0 0 696.5356 300.6788
  A 21.09 20.84 20.9 0 0 723.6724 288.7336
  Z
  M 384.35 291.58
  A 4.36 4.36 0.0 0 0 379.99 287.22
  A 4.36 4.36 0.0 0 0 375.63 291.58
  A 4.36 4.36 0.0 0 0 379.99 295.94
  A 4.36 4.36 0.0 0 0 384.35 291.58
  Z
  M 550.93 556.36
  A 0.49 0.47 76.2 0 1 551.24 555.83
  C 565.22 550.69 578.22 543.35 589.51 533.41
  Q 616.03 510.05 627.86 476.51
  Q 641.38 438.18 631.75 398.07
  C 620.59 351.58 584.30 313.98 539.42 299.57
  C 498.27 286.36 454.43 291.86 417.59 314.32
  C 379.88 337.29 353.91 378.84 352.12 423.25
  Q 351.92 428.27 351.91 433.75
  Q 351.54 580.27 351.99 709.75
  Q 352.03 720.55 352.00 729.88
  Q 351.99 730.51 352.58 730.28
  C 361.01 727.09 368.92 722.92 376.66 718.39
  Q 384.87 713.58 392.18 707.08
  Q 416.62 685.37 416.90 651.88
  Q 417.25 610.73 416.96 568.76
  Q 416.96 568.16 417.56 568.15
  Q 444.90 567.92 473.51 568.06
  Q 475.67 568.07 477.27 569.78
  Q 494.53 588.25 516.37 610.78
  C 524.16 618.83 532.07 627.52 539.85 635.51
  Q 570.01 666.50 596.41 694.87
  Q 602.40 701.32 606.11 703.60
  Q 611.80 707.09 619.38 707.89
  Q 634.91 709.54 644.68 699.48
  C 652.65 691.26 655.09 678.98 651.96 668.19
  C 649.39 659.33 643.04 652.40 636.84 646.01
  Q 602.04 610.14 566.89 573.85
  Q 559.51 566.24 551.40 557.32
  Q 551.02 556.90 550.93 556.36
  Z
  M 656.86 308.86
  A 12.81 12.81 0.0 0 0 644.05 296.05
  A 12.81 12.81 0.0 0 0 631.24 308.86
  A 12.81 12.81 0.0 0 0 644.05 321.67
  A 12.81 12.81 0.0 0 0 656.86 308.86
  Z
  M 333.7478 318.1311
  A 4.45 4.28 81.5 0 0 337.3230 313.0974
  A 4.45 4.28 81.5 0 0 332.4322 309.3289
  A 4.45 4.28 81.5 0 0 328.8570 314.3626
  A 4.45 4.28 81.5 0 0 333.7478 318.1311
  Z
  M 188.29 389.84
  C 183.15 400.61 179.22 411.93 175.49 423.17
  Q 173.34 429.67 172.53 435.25
  C 171.53 442.24 174.84 449.33 181.51 452.28
  C 188.06 455.17 196.31 453.72 200.81 448.06
  Q 203.29 444.94 205.17 438.54
  C 215.47 403.35 233.34 370.64 256.65 342.89
  Q 264.21 333.89 260.14 324.41
  C 255.34 313.26 240.90 311.26 233.08 320.41
  Q 206.68 351.31 188.29 389.84
  Z
  M 682.8536 332.9539
  A 4.40 4.17 42.7 0 0 682.4479 326.9054
  A 4.40 4.17 42.7 0 0 676.3864 326.9861
  A 4.40 4.17 42.7 0 0 676.7921 333.0346
  A 4.40 4.17 42.7 0 0 682.8536 332.9539
  Z
  M 824.21 431.06
  C 816.44 403.18 804.51 376.74 787.69 353.66
  C 780.77 344.15 772.08 336.18 759.92 334.84
  Q 756.16 334.43 752.27 334.38
  Q 733.76 334.17 717.52 334.33
  C 707.52 334.43 700.07 343.25 704.38 352.81
  C 707.33 359.35 713.03 361.01 719.75 360.99
  Q 729.94 360.95 740.43 361.10
  C 744.62 361.15 748.13 361.20 751.84 362.97
  C 756.35 365.12 759.87 369.99 762.71 374.05
  Q 778.07 396.06 787.74 423.15
  Q 791.00 432.30 793.63 441.21
  Q 795.72 448.34 800.93 451.26
  C 809.67 456.16 820.57 452.87 824.29 443.26
  C 825.84 439.26 825.32 435.06 824.21 431.06
  Z
  M 335.33 348.30
  A 5.58 5.58 0.0 0 0 329.75 342.72
  A 5.58 5.58 0.0 0 0 324.17 348.30
  A 5.58 5.58 0.0 0 0 329.75 353.88
  A 5.58 5.58 0.0 0 0 335.33 348.30
  Z
  M 297.1951 384.6603
  A 12.87 12.56 67.5 0 0 303.8739 367.9635
  A 12.87 12.56 67.5 0 0 287.3449 360.8797
  A 12.87 12.56 67.5 0 0 280.6661 377.5765
  A 12.87 12.56 67.5 0 0 297.1951 384.6603
  Z
  M 675.8357 375.8940
  A 5.78 5.63 71.9 0 0 679.3914 368.6509
  A 5.78 5.63 71.9 0 0 672.2443 364.9060
  A 5.78 5.63 71.9 0 0 668.6886 372.1491
  A 5.78 5.63 71.9 0 0 675.8357 375.8940
  Z
  M 736.2916 395.6668
  A 4.52 4.17 67.2 0 0 738.3842 389.8841
  A 4.52 4.17 67.2 0 0 732.7884 387.3332
  A 4.52 4.17 67.2 0 0 730.6958 393.1159
  A 4.52 4.17 67.2 0 0 736.2916 395.6668
  Z
  M 260.3358 400.0264
  A 5.79 5.57 81.5 0 0 264.9888 393.4767
  A 5.79 5.57 81.5 0 0 258.6242 388.5736
  A 5.79 5.57 81.5 0 0 253.9712 395.1233
  A 5.79 5.57 81.5 0 0 260.3358 400.0264
  Z
  M 714.6597 424.2067
  A 16.43 16.19 25.9 0 0 706.9518 402.4662
  A 16.43 16.19 25.9 0 0 685.1003 409.8533
  A 16.43 16.19 25.9 0 0 692.8082 431.5938
  A 16.43 16.19 25.9 0 0 714.6597 424.2067
  Z
  M 305.0982 443.6471
  A 12.52 12.52 0.0 0 0 292.5346 431.1709
  L 241.4549 431.3492
  A 12.52 12.52 0.0 0 0 228.9787 443.9129
  L 228.9818 444.8129
  A 12.52 12.52 0.0 0 0 241.5454 457.2891
  L 292.6251 457.1108
  A 12.52 12.52 0.0 0 0 305.1013 444.5471
  L 305.0982 443.6471
  Z
  M 760.7800 446.1232
  A 7.92 7.60 60.5 0 0 763.4947 435.4876
  A 7.92 7.60 60.5 0 0 752.9800 432.3368
  A 7.92 7.60 60.5 0 0 750.2653 442.9724
  A 7.92 7.60 60.5 0 0 760.7800 446.1232
  Z
  M 298.6094 491.7994
  A 13.72 13.72 0.0 0 0 284.8654 478.1033
  L 174.0656 478.2967
  A 13.72 13.72 0.0 0 0 160.3696 492.0406
  L 160.3706 492.6406
  A 13.72 13.72 0.0 0 0 174.1146 506.3367
  L 284.9144 506.1433
  A 13.72 13.72 0.0 0 0 298.6104 492.3994
  L 298.6094 491.7994
  Z
  M 837.46 492.02
  A 13.81 13.81 0.0 0 0 823.65 478.21
  L 688.49 478.21
  A 13.81 13.81 0.0 0 0 674.68 492.02
  L 674.68 492.54
  A 13.81 13.81 0.0 0 0 688.49 506.35
  L 823.65 506.35
  A 13.81 13.81 0.0 0 0 837.46 492.54
  L 837.46 492.02
  Z
  M 739.62 537.77
  A 12.44 12.44 0.0 0 0 727.18 525.33
  L 648.46 525.33
  A 12.44 12.44 0.0 0 0 636.02 537.77
  L 636.02 538.45
  A 12.44 12.44 0.0 0 0 648.46 550.89
  L 727.18 550.89
  A 12.44 12.44 0.0 0 0 739.62 538.45
  L 739.62 537.77
  Z
  M 231.1447 540.7586
  A 7.62 7.31 51.2 0 0 232.0670 530.2395
  A 7.62 7.31 51.2 0 0 221.5953 528.8814
  A 7.62 7.31 51.2 0 0 220.6730 539.4005
  A 7.62 7.31 51.2 0 0 231.1447 540.7586
  Z
  M 772.5616 541.6456
  A 4.43 4.26 72.1 0 0 775.2538 536.1207
  A 4.43 4.26 72.1 0 0 769.8384 533.2144
  A 4.43 4.26 72.1 0 0 767.1462 538.7393
  A 4.43 4.26 72.1 0 0 772.5616 541.6456
  Z
  M 804.96 551.67
  C 804.80 560.21 805.60 568.95 793.89 569.00
  Q 761.66 569.14 726.60 569.17
  C 721.26 569.17 714.51 568.70 710.05 571.55
  C 703.80 575.55 701.65 583.69 705.58 590.28
  C 708.97 595.97 714.31 597.21 720.49 597.22
  Q 760.32 597.30 799.82 597.15
  C 805.47 597.12 811.22 597.31 816.40 596.04
  C 829.01 592.94 834.01 583.05 835.37 570.82
  Q 836.12 564.02 836.87 557.40
  C 837.69 550.17 836.29 543.07 829.96 538.94
  C 819.68 532.22 805.19 538.92 804.96 551.67
  Z
  M 309.4895 576.8376
  A 27.30 26.76 13.1 0 0 288.9652 544.5864
  A 27.30 26.76 13.1 0 0 256.3105 564.4624
  A 27.30 26.76 13.1 0 0 276.8348 596.7136
  A 27.30 26.76 13.1 0 0 309.4895 576.8376
  Z
  M 227.46 666.64
  Q 202.77 619.65 195.37 564.86
  Q 194.33 557.17 188.72 552.72
  C 184.43 549.31 177.99 548.54 173.08 550.64
  Q 161.48 555.59 163.11 569.43
  C 165.72 591.63 171.40 614.31 178.87 636.16
  Q 193.51 679.00 220.06 715.21
  C 227.62 725.52 234.92 734.53 248.46 735.60
  Q 253.40 735.98 258.50 735.98
  Q 279.05 735.95 299.21 736.11
  Q 303.13 736.14 306.45 735.24
  C 313.92 733.22 317.97 725.87 316.53 718.29
  C 315.09 710.78 308.21 706.06 300.90 706.04
  Q 279.29 705.96 257.20 706.01
  C 253.06 706.01 249.20 700.30 246.94 697.32
  Q 236.08 683.03 227.46 666.64
  Z
  M 677.2824 585.6305
  A 6.27 6.10 56.7 0 0 678.9384 577.0410
  A 6.27 6.10 56.7 0 0 670.3976 575.1495
  A 6.27 6.10 56.7 0 0 668.7416 583.7390
  A 6.27 6.10 56.7 0 0 677.2824 585.6305
  Z
  M 233.55 585.34
  A 4.26 4.26 0.0 0 0 229.29 581.08
  A 4.26 4.26 0.0 0 0 225.03 585.34
  A 4.26 4.26 0.0 0 0 229.29 589.60
  A 4.26 4.26 0.0 0 0 233.55 585.34
  Z
  M 637.4238 595.7180
  A 4.51 4.35 88.3 0 0 641.6381 591.0810
  A 4.51 4.35 88.3 0 0 637.1562 586.7020
  A 4.51 4.35 88.3 0 0 632.9419 591.3390
  A 4.51 4.35 88.3 0 0 637.4238 595.7180
  Z
  M 462.6591 634.8421
  A 11.79 11.50 63.4 0 0 467.6628 619.1508
  A 11.79 11.50 63.4 0 0 452.1009 613.7579
  A 11.79 11.50 63.4 0 0 447.0972 629.4492
  A 11.79 11.50 63.4 0 0 462.6591 634.8421
  Z
  M 778.68 647.92
  Q 748.44 721.55 684.19 768.14
  Q 670.06 778.39 652.91 787.91
  C 644.61 792.52 640.98 801.38 645.34 810.14
  Q 647.01 813.49 650.10 815.46
  C 658.88 821.04 666.08 817.92 674.10 813.11
  C 705.58 794.23 733.05 773.43 755.73 746.67
  Q 783.56 713.84 801.71 677.28
  Q 809.03 662.54 815.41 642.66
  C 817.22 637.00 817.79 631.32 814.74 625.98
  C 809.68 617.11 797.61 615.69 790.16 622.18
  C 786.80 625.11 785.15 629.27 783.88 633.45
  Q 781.68 640.63 778.68 647.92
  Z
  M 690.6063 635.5776
  A 7.81 7.61 62.5 0 0 693.7502 625.1361
  A 7.81 7.61 62.5 0 0 683.3937 621.7224
  A 7.81 7.61 62.5 0 0 680.2498 632.1639
  A 7.81 7.61 62.5 0 0 690.6063 635.5776
  Z
  M 753.0794 635.6451
  A 4.72 4.26 77.9 0 0 756.2554 630.1370
  A 4.72 4.26 77.9 0 0 751.1006 626.4149
  A 4.72 4.26 77.9 0 0 747.9246 631.9230
  A 4.72 4.26 77.9 0 0 753.0794 635.6451
  Z
  M 255.31 637.17
  A 7.07 7.07 0.0 0 0 248.24 630.10
  A 7.07 7.07 0.0 0 0 241.17 637.17
  A 7.07 7.07 0.0 0 0 248.24 644.24
  A 7.07 7.07 0.0 0 0 255.31 637.17
  Z
  M 318.87 638.12
  A 5.57 5.57 0.0 0 0 313.30 632.55
  A 5.57 5.57 0.0 0 0 307.73 638.12
  A 5.57 5.57 0.0 0 0 313.30 643.69
  A 5.57 5.57 0.0 0 0 318.87 638.12
  Z
  M 733.6486 672.5515
  A 15.32 15.06 52.3 0 0 736.1958 651.2204
  A 15.32 15.06 52.3 0 0 714.9114 648.3085
  A 15.32 15.06 52.3 0 0 712.3642 669.6396
  A 15.32 15.06 52.3 0 0 733.6486 672.5515
  Z
  M 518.1985 672.1624
  A 14.27 14.00 46.8 0 0 518.6356 652.1763
  A 14.27 14.00 46.8 0 0 498.6615 651.3576
  A 14.27 14.00 46.8 0 0 498.2244 671.3437
  A 14.27 14.00 46.8 0 0 518.1985 672.1624
  Z
  M 288.6285 676.7964
  A 14.88 14.70 62.9 0 0 294.9361 656.8535
  A 14.88 14.70 62.9 0 0 275.0715 650.3036
  A 14.88 14.70 62.9 0 0 268.7639 670.2465
  A 14.88 14.70 62.9 0 0 288.6285 676.7964
  Z
  M 467.9918 678.2242
  A 4.51 4.32 92.9 0 0 472.5345 673.9386
  A 4.51 4.32 92.9 0 0 468.4482 669.2158
  A 4.51 4.32 92.9 0 0 463.9055 673.5014
  A 4.51 4.32 92.9 0 0 467.9918 678.2242
  Z
  M 690.6240 683.2800
  A 5.84 5.59 58.7 0 0 692.3664 675.3859
  A 5.84 5.59 58.7 0 0 684.5560 673.3000
  A 5.84 5.59 58.7 0 0 682.8136 681.1941
  A 5.84 5.59 58.7 0 0 690.6240 683.2800
  Z
  M 567.14 708.50
  Q 563.34 706.30 558.38 706.30
  Q 511.76 706.33 463.05 706.30
  C 454.42 706.29 446.05 709.64 445.05 719.35
  Q 444.22 727.40 450.04 732.46
  C 454.81 736.60 460.55 736.22 466.42 736.19
  Q 511.56 735.93 556.51 736.14
  Q 563.22 736.18 566.50 734.71
  C 577.04 729.97 576.96 714.21 567.14 708.50
  Z
  M 700.4089 720.1341
  A 5.42 5.16 84.4 0 0 705.0154 714.2365
  A 5.42 5.16 84.4 0 0 699.3511 709.3459
  A 5.42 5.16 84.4 0 0 694.7446 715.2435
  A 5.42 5.16 84.4 0 0 700.4089 720.1341
  Z
  M 314.14 774.58
  A 17.74 17.74 0.0 0 0 296.40 756.84
  A 17.74 17.74 0.0 0 0 278.66 774.58
  A 17.74 17.74 0.0 0 0 296.40 792.32
  A 17.74 17.74 0.0 0 0 314.14 774.58
  Z
  M 582.0003 774.2164
  A 14.22 14.22 0.0 0 0 567.8052 759.9716
  L 428.5054 759.7285
  A 14.22 14.22 0.0 0 0 414.2606 773.9236
  L 414.2597 774.4636
  A 14.22 14.22 0.0 0 0 428.4548 788.7084
  L 567.7546 788.9515
  A 14.22 14.22 0.0 0 0 581.9994 774.7564
  L 582.0003 774.2164
  Z
  M 389.65 768.53
  A 5.27 5.27 0.0 0 0 384.38 763.26
  A 5.27 5.27 0.0 0 0 379.11 768.53
  A 5.27 5.27 0.0 0 0 384.38 773.80
  A 5.27 5.27 0.0 0 0 389.65 768.53
  Z
  M 613.6029 774.8591
  A 5.44 5.22 75.6 0 0 617.3060 768.2918
  A 5.44 5.22 75.6 0 0 610.8971 764.3209
  A 5.44 5.22 75.6 0 0 607.1940 770.8882
  A 5.44 5.22 75.6 0 0 613.6029 774.8591
  Z
  M 369.59 799.61
  Q 363.26 796.71 356.96 793.90
  C 349.58 790.60 342.07 790.72 336.47 797.00
  C 331.09 803.04 331.83 812.99 337.80 818.26
  Q 340.35 820.52 345.36 823.01
  Q 402.49 851.43 464.40 856.72
  Q 475.52 857.67 480.17 848.30
  C 484.17 840.25 479.80 830.06 471.35 827.15
  Q 467.71 825.90 464.50 825.55
  Q 414.34 820.12 369.59 799.61
  Z
  M 591.69 812.01
  C 569.16 819.09 545.86 823.59 521.94 826.00
  Q 515.16 826.68 510.90 831.09
  C 503.82 838.42 506.62 852.60 516.86 855.87
  Q 521.28 857.28 526.89 856.77
  Q 567.01 853.13 606.00 840.69
  C 613.50 838.30 618.80 832.98 618.85 824.67
  C 618.91 815.59 611.86 808.91 602.72 809.61
  Q 598.22 809.96 591.69 812.01
  Z"
/>
<path fill="#d7f5fe" d="
  M 547.71 194.33
  C 582.67 199.77 617.29 210.74 648.20 227.61
  C 653.97 230.76 658.74 235.81 658.94 242.55
  C 659.22 252.29 651.00 259.16 641.68 258.23
  C 638.18 257.88 634.43 256.13 631.27 254.47
  C 597.95 236.90 562.24 226.66 524.49 222.73
  Q 517.88 222.04 514.01 219.33
  C 506.30 213.92 505.39 201.82 512.53 195.58
  Q 517.82 190.95 525.25 191.55
  Q 534.79 192.33 547.71 194.33
  Z"
/>
<path fill="#d7f5fe" d="
  M 375.38 248.33
  Q 367.26 252.00 359.40 255.98
  C 353.16 259.13 346.03 260.64 339.77 256.95
  C 330.84 251.68 329.78 239.72 337.23 232.78
  C 340.93 229.33 347.27 226.54 352.37 224.09
  C 387.78 207.01 424.14 196.66 462.93 192.07
  C 471.10 191.11 478.42 193.65 481.02 202.07
  C 483.63 210.53 479.92 219.66 470.98 222.19
  Q 467.90 223.06 464.65 223.46
  Q 417.87 229.12 375.38 248.33
  Z"
/>
<path fill="#5b8095" d="
  M 219.86 238.26
  L 208.81 249.21
  Q 213.82 243.18 219.86 238.26
  Z"
/>
<ellipse fill="#5b8095" cx="0.00" cy="0.00" transform="translate(503.88,255.93) rotate(83.4)" rx="4.61" ry="4.13"/>
<ellipse fill="#ffffff" cx="0.00" cy="0.00" transform="translate(436.11,263.14) rotate(70.5)" rx="7.18" ry="6.83"/>
<ellipse fill="#5b8095" cx="0.00" cy="0.00" transform="translate(558.93,264.68) rotate(69.6)" rx="4.63" ry="4.25"/>
<circle fill="#ffffff" cx="292.93" cy="281.25" r="20.89"/>
<ellipse fill="#ffffff" cx="0.00" cy="0.00" transform="translate(703.97,281.21) rotate(20.9)" rx="21.09" ry="20.84"/>
<circle fill="#5b8095" cx="379.99" cy="291.58" r="4.36"/>
<path fill="#ffffff" d="
  M 550.93 556.36
  Q 551.02 556.90 551.40 557.32
  Q 559.51 566.24 566.89 573.85
  Q 602.04 610.14 636.84 646.01
  C 643.04 652.40 649.39 659.33 651.96 668.19
  C 655.09 678.98 652.65 691.26 644.68 699.48
  Q 634.91 709.54 619.38 707.89
  Q 611.80 707.09 606.11 703.60
  Q 602.40 701.32 596.41 694.87
  Q 570.01 666.50 539.85 635.51
  C 532.07 627.52 524.16 618.83 516.37 610.78
  Q 494.53 588.25 477.27 569.78
  Q 475.67 568.07 473.51 568.06
  Q 444.90 567.92 417.56 568.15
  Q 416.96 568.16 416.96 568.76
  Q 417.25 610.73 416.90 651.88
  Q 416.62 685.37 392.18 707.08
  Q 384.87 713.58 376.66 718.39
  C 368.92 722.92 361.01 727.09 352.58 730.28
  Q 351.99 730.51 352.00 729.88
  Q 352.03 720.55 351.99 709.75
  Q 351.54 580.27 351.91 433.75
  Q 351.92 428.27 352.12 423.25
  C 353.91 378.84 379.88 337.29 417.59 314.32
  C 454.43 291.86 498.27 286.36 539.42 299.57
  C 584.30 313.98 620.59 351.58 631.75 398.07
  Q 641.38 438.18 627.86 476.51
  Q 616.03 510.05 589.51 533.41
  C 578.22 543.35 565.22 550.69 551.24 555.83
  A 0.49 0.47 76.2 0 0 550.93 556.36
  Z
  M 558.73 471.05
  C 572.80 449.21 574.07 420.21 562.56 397.23
  C 541.54 355.25 491.91 343.13 452.62 367.17
  C 434.70 378.12 421.58 398.34 418.20 419.55
  Q 417.11 426.40 417.11 438.62
  Q 417.11 467.32 416.97 495.35
  Q 416.94 501.95 417.48 507.73
  Q 417.52 508.22 418.02 508.22
  Q 450.54 508.22 485.07 508.26
  Q 495.42 508.27 502.08 507.28
  Q 538.91 501.80 558.73 471.05
  Z"
/>
<circle fill="#ffffff" cx="644.05" cy="308.86" r="12.81"/>
<ellipse fill="#5b8095" cx="0.00" cy="0.00" transform="translate(333.09,313.73) rotate(81.5)" rx="4.45" ry="4.28"/>
<path fill="#d7f5fe" d="
  M 188.29 389.84
  Q 206.68 351.31 233.08 320.41
  C 240.90 311.26 255.34 313.26 260.14 324.41
  Q 264.21 333.89 256.65 342.89
  C 233.34 370.64 215.47 403.35 205.17 438.54
  Q 203.29 444.94 200.81 448.06
  C 196.31 453.72 188.06 455.17 181.51 452.28
  C 174.84 449.33 171.53 442.24 172.53 435.25
  Q 173.34 429.67 175.49 423.17
  C 179.22 411.93 183.15 400.61 188.29 389.84
  Z"
/>
<ellipse fill="#5b8095" cx="0.00" cy="0.00" transform="translate(679.62,329.97) rotate(42.7)" rx="4.40" ry="4.17"/>
<path fill="#d7f5fe" d="
  M 787.69 353.66
  C 804.51 376.74 816.44 403.18 824.21 431.06
  C 825.32 435.06 825.84 439.26 824.29 443.26
  C 820.57 452.87 809.67 456.16 800.93 451.26
  Q 795.72 448.34 793.63 441.21
  Q 791.00 432.30 787.74 423.15
  Q 778.07 396.06 762.71 374.05
  C 759.87 369.99 756.35 365.12 751.84 362.97
  C 748.13 361.20 744.62 361.15 740.43 361.10
  Q 729.94 360.95 719.75 360.99
  C 713.03 361.01 707.33 359.35 704.38 352.81
  C 700.07 343.25 707.52 334.43 717.52 334.33
  Q 733.76 334.17 752.27 334.38
  Q 756.16 334.43 759.92 334.84
  C 772.08 336.18 780.77 344.15 787.69 353.66
  Z"
/>
<circle fill="#ffffff" cx="329.75" cy="348.30" r="5.58"/>
<path fill="#0a2b3d" d="
  M 558.73 471.05
  Q 538.91 501.80 502.08 507.28
  Q 495.42 508.27 485.07 508.26
  Q 450.54 508.22 418.02 508.22
  Q 417.52 508.22 417.48 507.73
  Q 416.94 501.95 416.97 495.35
  Q 417.11 467.32 417.11 438.62
  Q 417.11 426.40 418.20 419.55
  C 421.58 398.34 434.70 378.12 452.62 367.17
  C 491.91 343.13 541.54 355.25 562.56 397.23
  C 574.07 420.21 572.80 449.21 558.73 471.05
  Z"
/>
<ellipse fill="#ffffff" cx="0.00" cy="0.00" transform="translate(292.27,372.77) rotate(67.5)" rx="12.87" ry="12.56"/>
<ellipse fill="#ffffff" cx="0.00" cy="0.00" transform="translate(674.04,370.40) rotate(71.9)" rx="5.78" ry="5.63"/>
<ellipse fill="#5b8095" cx="0.00" cy="0.00" transform="translate(734.54,391.50) rotate(67.2)" rx="4.52" ry="4.17"/>
<ellipse fill="#ffffff" cx="0.00" cy="0.00" transform="translate(259.48,394.30) rotate(81.5)" rx="5.79" ry="5.57"/>
<ellipse fill="#ffffff" cx="0.00" cy="0.00" transform="translate(699.88,417.03) rotate(25.9)" rx="16.43" ry="16.19"/>
<rect fill="#d7f5fe" x="-38.06" y="-12.97" transform="translate(267.04,444.23) rotate(-0.2)" width="76.12" height="25.94" rx="12.52"/>
<ellipse fill="#ffffff" cx="0.00" cy="0.00" transform="translate(756.88,439.23) rotate(60.5)" rx="7.92" ry="7.60"/>
<rect fill="#d7f5fe" x="-69.12" y="-14.02" transform="translate(229.49,492.22) rotate(-0.1)" width="138.24" height="28.04" rx="13.72"/>
<rect fill="#d7f5fe" x="674.68" y="478.21" width="162.78" height="28.14" rx="13.81"/>
<rect fill="#d7f5fe" x="636.02" y="525.33" width="103.60" height="25.56" rx="12.44"/>
<ellipse fill="#ffffff" cx="0.00" cy="0.00" transform="translate(226.37,534.82) rotate(51.2)" rx="7.62" ry="7.31"/>
<ellipse fill="#5b8095" cx="0.00" cy="0.00" transform="translate(771.20,537.43) rotate(72.1)" rx="4.43" ry="4.26"/>
<path fill="#d7f5fe" d="
  M 793.89 569.00
  C 805.60 568.95 804.80 560.21 804.96 551.67
  C 805.19 538.92 819.68 532.22 829.96 538.94
  C 836.29 543.07 837.69 550.17 836.87 557.40
  Q 836.12 564.02 835.37 570.82
  C 834.01 583.05 829.01 592.94 816.40 596.04
  C 811.22 597.31 805.47 597.12 799.82 597.15
  Q 760.32 597.30 720.49 597.22
  C 714.31 597.21 708.97 595.97 705.58 590.28
  C 701.65 583.69 703.80 575.55 710.05 571.55
  C 714.51 568.70 721.26 569.17 726.60 569.17
  Q 761.66 569.14 793.89 569.00
  Z"
/>
<ellipse fill="#ffffff" cx="0.00" cy="0.00" transform="translate(282.90,570.65) rotate(13.1)" rx="27.30" ry="26.76"/>
<path fill="#d7f5fe" d="
  M 227.46 666.64
  Q 236.08 683.03 246.94 697.32
  C 249.20 700.30 253.06 706.01 257.20 706.01
  Q 279.29 705.96 300.90 706.04
  C 308.21 706.06 315.09 710.78 316.53 718.29
  C 317.97 725.87 313.92 733.22 306.45 735.24
  Q 303.13 736.14 299.21 736.11
  Q 279.05 735.95 258.50 735.98
  Q 253.40 735.98 248.46 735.60
  C 234.92 734.53 227.62 725.52 220.06 715.21
  Q 193.51 679.00 178.87 636.16
  C 171.40 614.31 165.72 591.63 163.11 569.43
  Q 161.48 555.59 173.08 550.64
  C 177.99 548.54 184.43 549.31 188.72 552.72
  Q 194.33 557.17 195.37 564.86
  Q 202.77 619.65 227.46 666.64
  Z"
/>
<ellipse fill="#ffffff" cx="0.00" cy="0.00" transform="translate(673.84,580.39) rotate(56.7)" rx="6.27" ry="6.10"/>
<circle fill="#5b8095" cx="229.29" cy="585.34" r="4.26"/>
<ellipse fill="#5b8095" cx="0.00" cy="0.00" transform="translate(637.29,591.21) rotate(88.3)" rx="4.51" ry="4.35"/>
<ellipse fill="#ffffff" cx="0.00" cy="0.00" transform="translate(457.38,624.30) rotate(63.4)" rx="11.79" ry="11.50"/>
<path fill="#d7f5fe" d="
  M 778.68 647.92
  Q 781.68 640.63 783.88 633.45
  C 785.15 629.27 786.80 625.11 790.16 622.18
  C 797.61 615.69 809.68 617.11 814.74 625.98
  C 817.79 631.32 817.22 637.00 815.41 642.66
  Q 809.03 662.54 801.71 677.28
  Q 783.56 713.84 755.73 746.67
  C 733.05 773.43 705.58 794.23 674.10 813.11
  C 666.08 817.92 658.88 821.04 650.10 815.46
  Q 647.01 813.49 645.34 810.14
  C 640.98 801.38 644.61 792.52 652.91 787.91
  Q 670.06 778.39 684.19 768.14
  Q 748.44 721.55 778.68 647.92
  Z"
/>
<ellipse fill="#ffffff" cx="0.00" cy="0.00" transform="translate(687.00,628.65) rotate(62.5)" rx="7.81" ry="7.61"/>
<ellipse fill="#5b8095" cx="0.00" cy="0.00" transform="translate(752.09,631.03) rotate(77.9)" rx="4.72" ry="4.26"/>
<circle fill="#ffffff" cx="248.24" cy="637.17" r="7.07"/>
<circle fill="#ffffff" cx="313.30" cy="638.12" r="5.57"/>
<ellipse fill="#ffffff" cx="0.00" cy="0.00" transform="translate(724.28,660.43) rotate(52.3)" rx="15.32" ry="15.06"/>
<ellipse fill="#ffffff" cx="0.00" cy="0.00" transform="translate(508.43,661.76) rotate(46.8)" rx="14.27" ry="14.00"/>
<ellipse fill="#ffffff" cx="0.00" cy="0.00" transform="translate(281.85,663.55) rotate(62.9)" rx="14.88" ry="14.70"/>
<ellipse fill="#5b8095" cx="0.00" cy="0.00" transform="translate(468.22,673.72) rotate(92.9)" rx="4.51" ry="4.32"/>
<ellipse fill="#ffffff" cx="0.00" cy="0.00" transform="translate(687.59,678.29) rotate(58.7)" rx="5.84" ry="5.59"/>
<path fill="#d7f5fe" d="
  M 567.14 708.50
  C 576.96 714.21 577.04 729.97 566.50 734.71
  Q 563.22 736.18 556.51 736.14
  Q 511.56 735.93 466.42 736.19
  C 460.55 736.22 454.81 736.60 450.04 732.46
  Q 444.22 727.40 445.05 719.35
  C 446.05 709.64 454.42 706.29 463.05 706.30
  Q 511.76 706.33 558.38 706.30
  Q 563.34 706.30 567.14 708.50
  Z"
/>
<ellipse fill="#ffffff" cx="0.00" cy="0.00" transform="translate(699.88,714.74) rotate(84.4)" rx="5.42" ry="5.16"/>
<circle fill="#d7f5fe" cx="296.40" cy="774.58" r="17.74"/>
<rect fill="#d7f5fe" x="-83.87" y="-14.49" transform="translate(498.13,774.34) rotate(0.1)" width="167.74" height="28.98" rx="14.22"/>
<circle fill="#ffffff" cx="384.38" cy="768.53" r="5.27"/>
<ellipse fill="#ffffff" cx="0.00" cy="0.00" transform="translate(612.25,769.59) rotate(75.6)" rx="5.44" ry="5.22"/>
<path fill="#d7f5fe" d="
  M 369.59 799.61
  Q 414.34 820.12 464.50 825.55
  Q 467.71 825.90 471.35 827.15
  C 479.80 830.06 484.17 840.25 480.17 848.30
  Q 475.52 857.67 464.40 856.72
  Q 402.49 851.43 345.36 823.01
  Q 340.35 820.52 337.80 818.26
  C 331.83 812.99 331.09 803.04 336.47 797.00
  C 342.07 790.72 349.58 790.60 356.96 793.90
  Q 363.26 796.71 369.59 799.61
  Z"
/>
<path fill="#d7f5fe" d="
  M 602.72 809.61
  C 611.86 808.91 618.91 815.59 618.85 824.67
  C 618.80 832.98 613.50 838.30 606.00 840.69
  Q 567.01 853.13 526.89 856.77
  Q 521.28 857.28 516.86 855.87
  C 506.62 852.60 503.82 838.42 510.90 831.09
  Q 515.16 826.68 521.94 826.00
  C 545.86 823.59 569.16 819.09 591.69 812.01
  Q 598.22 809.96 602.72 809.61
  Z"
/>
</svg>
