<?xml version="1.0" encoding="UTF-8" standalone="no"?>
<!DOCTYPE svg PUBLIC "-//W3C//DTD SVG 1.1//EN" "http://www.w3.org/Graphics/SVG/1.1/DTD/svg11.dtd">
<svg xmlns="http://www.w3.org/2000/svg" version="1.1" viewBox="0.00 0.00 512.00 512.00">
<path fill="#000000" d="
  M 248.56 0.00
  L 263.53 0.00
  C 333.31 2.44 399.19 32.69 445.35 83.89
  Q 508.09 153.47 512.00 248.77
  L 512.00 263.55
  Q 509.95 322.81 483.68 373.17
  Q 461.64 415.42 427.66 445.90
  Q 358.18 508.24 263.26 512.00
  L 248.65 512.00
  C 178.55 509.63 112.39 479.24 66.10 427.66
  Q 3.94 358.37 0.00 263.71
  L 0.00 248.15
  Q 3.49 160.86 57.54 94.27
  C 104.13 36.87 173.81 2.54 248.56 0.00
  Z
  M 486.34 255.97
  A 230.37 230.37 0.0 0 0 255.97 25.60
  A 230.37 230.37 0.0 0 0 25.60 255.97
  A 230.37 230.37 0.0 0 0 255.97 486.34
  A 230.37 230.37 0.0 0 0 486.34 255.97
  Z"
/>
<path fill="#000000" d="
  M 204.77 282.29
  Q 204.79 312.90 204.77 345.01
  Q 204.77 351.35 200.41 355.19
  C 192.26 362.37 179.22 356.46 179.22 345.83
  Q 179.25 257.57 179.14 166.73
  C 179.14 161.32 182.56 156.15 187.57 154.46
  Q 190.37 153.52 193.98 153.53
  Q 236.73 153.57 295.39 153.61
  C 322.83 153.63 347.38 172.79 355.52 198.49
  C 361.07 216.03 358.44 235.83 348.39 251.64
  Q 336.92 269.65 316.16 277.53
  A 0.36 0.35 -27.1 0 0 315.99 278.05
  Q 335.26 307.11 354.02 335.04
  Q 357.77 340.62 358.17 343.56
  C 359.71 354.75 347.24 362.48 338.12 355.86
  Q 335.76 354.14 332.41 349.05
  Q 310.17 315.33 287.71 281.90
  Q 287.50 281.58 287.11 281.58
  L 205.48 281.58
  Q 204.77 281.58 204.77 282.29
  Z
  M 204.77 179.68
  L 204.77 255.52
  A 0.54 0.54 0.0 0 0 205.31 256.06
  L 293.89 256.06
  A 38.88 38.43 -0.0 0 0 332.77 217.63
  L 332.77 217.57
  A 38.88 38.43 0.0 0 0 293.89 179.14
  L 205.31 179.14
  A 0.54 0.54 0.0 0 0 204.77 179.68
  Z"
/>
</svg>
