<?xml version="1.0" encoding="UTF-8" standalone="no"?>
<!DOCTYPE svg PUBLIC "-//W3C//DTD SVG 1.1//EN" "http://www.w3.org/Graphics/SVG/1.1/DTD/svg11.dtd">
<svg xmlns="http://www.w3.org/2000/svg" version="1.1" viewBox="0.00 0.00 66.00 62.00">
<g stroke-width="2.00" fill="none" stroke-linecap="butt">
<path stroke="#888989" vector-effect="non-scaling-stroke" d="
  M 30.71 8.67
  Q 29.47 10.07 29.07 11.75"
/>
<path stroke="#565d6e" vector-effect="non-scaling-stroke" d="
  M 28.95 12.20
  Q 27.69 13.60 27.93 14.99"
/>
<path stroke="#888989" vector-effect="non-scaling-stroke" d="
  M 27.93 15.83
  Q 26.62 20.83 28.10 25.97
  Q 29.21 29.86 32.16 32.53"
/>
<path stroke="#888989" vector-effect="non-scaling-stroke" d="
  M 33.52 34.06
  Q 36.44 36.49 40.32 36.02"
/>
<path stroke="#888989" vector-effect="non-scaling-stroke" d="
  M 41.20 36.04
  Q 42.55 35.32 43.00 35.81
  Q 44.96 35.54 46.28 34.10"
/>
<path stroke="#888989" vector-effect="non-scaling-stroke" d="
  M 48.16 31.50
  Q 49.72 32.24 49.87 28.84"
/>
<path stroke="#565d6e" vector-effect="non-scaling-stroke" d="
  M 44.56 49.84
  L 39.00 52.01"
/>
<path stroke="#565d6e" vector-effect="non-scaling-stroke" d="
  M 38.76 52.09
  Q 33.12 53.39 27.76 52.13"
/>
<path stroke="#565d6e" vector-effect="non-scaling-stroke" d="
  M 26.95 52.41
  Q 24.85 50.26 21.95 49.87"
/>
<path stroke="#888989" vector-effect="non-scaling-stroke" d="
  M 16.73 44.85
  Q 5.11 29.17 16.25 14.00
  Q 19.57 9.48 28.16 5.91"
/>
<path stroke="#888989" vector-effect="non-scaling-stroke" d="
  M 45.22 38.02
  C 36.70 41.33 28.98 36.13 25.86 28.12
  Q 22.32 19.04 26.46 9.82
  Q 26.76 9.14 26.14 9.56
  C 18.91 14.41 13.37 20.32 13.85 29.43
  Q 14.47 40.96 23.68 47.02
  C 34.12 53.89 49.09 48.16 50.22 35.18
  Q 50.45 32.66 49.13 34.83
  Q 47.81 37.01 45.22 38.02"
/>
</g>
<path fill="#1d2332" d="
  M 30.71 8.67
  Q 29.47 10.07 29.07 11.75
  L 28.95 12.20
  Q 27.69 13.60 27.93 14.99
  Q 28.10 15.55 27.93 15.83
  Q 26.62 20.83 28.10 25.97
  Q 29.21 29.86 32.16 32.53
  L 33.52 34.06
  Q 36.44 36.49 40.32 36.02
  Q 40.80 35.79 41.20 36.04
  Q 42.55 35.32 43.00 35.81
  Q 44.96 35.54 46.28 34.10
  Q 48.08 33.06 48.16 31.50
  Q 49.72 32.24 49.87 28.84
  Q 50.37 27.39 52.19 28.22
  Q 52.72 28.46 52.65 29.04
  Q 52.57 29.62 52.78 30.16
  Q 53.64 32.39 53.65 35.16
  Q 53.65 35.60 53.30 35.86
  Q 52.76 36.27 53.11 36.82
  Q 53.40 37.27 53.20 37.78
  Q 50.92 43.68 48.71 46.49
  Q 47.96 47.44 44.56 49.84
  L 39.00 52.01
  Q 38.71 52.36 38.76 52.09
  Q 33.12 53.39 27.76 52.13
  Q 26.68 51.89 26.95 52.41
  Q 24.85 50.26 21.95 49.87
  L 16.73 44.85
  Q 5.11 29.17 16.25 14.00
  Q 19.57 9.48 28.16 5.91
  Q 29.27 5.09 31.49 6.11
  Q 31.98 6.33 31.72 6.80
  L 30.71 8.67
  Z
  M 45.22 38.02
  C 36.70 41.33 28.98 36.13 25.86 28.12
  Q 22.32 19.04 26.46 9.82
  Q 26.76 9.14 26.14 9.56
  C 18.91 14.41 13.37 20.32 13.85 29.43
  Q 14.47 40.96 23.68 47.02
  C 34.12 53.89 49.09 48.16 50.22 35.18
  Q 50.45 32.66 49.13 34.83
  Q 47.81 37.01 45.22 38.02
  Z"
/>
<path fill="#f3eedf" d="
  M 28.16 5.91
  Q 19.57 9.48 16.25 14.00
  Q 5.11 29.17 16.73 44.85
  Q 12.36 40.48 10.79 34.50
  Q 9.34 29.01 11.00 23.02
  Q 12.85 16.34 17.33 11.85
  Q 21.10 8.07 28.16 5.91
  Z"
/>
<path fill="#f3eedf" d="
  M 30.71 8.67
  L 30.65 11.14
  Q 30.64 11.59 30.19 11.64
  L 29.07 11.75
  Q 29.47 10.07 30.71 8.67
  Z"
/>
<path fill="#f3eedf" d="
  M 25.86 28.12
  C 28.98 36.13 36.70 41.33 45.22 38.02
  Q 47.81 37.01 49.13 34.83
  Q 50.45 32.66 50.22 35.18
  C 49.09 48.16 34.12 53.89 23.68 47.02
  Q 14.47 40.96 13.85 29.43
  C 13.37 20.32 18.91 14.41 26.14 9.56
  Q 26.76 9.14 26.46 9.82
  Q 22.32 19.04 25.86 28.12
  Z"
/>
<path fill="#9097ab" fill-opacity="0.996" d="
  M 28.95 12.20
  Q 29.27 13.84 27.93 14.99
  Q 27.69 13.60 28.95 12.20
  Z"
/>
<path fill="#f3eedf" d="
  M 27.93 15.83
  L 27.98 24.74
  Q 27.98 25.23 28.23 25.67
  L 32.16 32.53
  Q 29.21 29.86 28.10 25.97
  Q 26.62 20.83 27.93 15.83
  Z"
/>
<path fill="#f3eedf" d="
  M 49.87 28.84
  Q 49.72 32.24 48.16 31.50
  Q 49.08 30.56 49.87 28.84
  Z"
/>
<path fill="#f3eedf" d="
  M 46.28 34.10
  Q 44.96 35.54 43.00 35.81
  Q 42.55 35.32 41.20 36.04
  Q 41.47 34.16 43.14 33.78
  Q 43.89 33.61 43.47 34.24
  Q 43.34 34.42 43.66 34.52
  A 0.42 0.40 41.4 0 0 43.95 34.51
  Q 45.05 34.00 46.28 34.10
  Z"
/>
<path fill="#f3eedf" d="
  M 33.52 34.06
  C 35.18 33.77 36.02 34.97 37.42 35.45
  A 1.90 1.86 47.9 0 0 38.39 35.51
  Q 39.57 35.28 40.32 36.02
  Q 36.44 36.49 33.52 34.06
  Z"
/>
<path fill="#9097ab" fill-opacity="0.996" d="
  M 26.95 52.41
  L 21.95 49.87
  Q 24.85 50.26 26.95 52.41
  Z"
/>
<path fill="#9097ab" fill-opacity="0.996" d="
  M 44.56 49.84
  Q 41.98 51.85 39.00 52.01
  L 44.56 49.84
  Z"
/>
<path fill="#9097ab" fill-opacity="0.996" d="
  M 38.76 52.09
  C 35.66 53.95 31.43 53.24 28.49 52.85
  Q 27.99 52.78 27.76 52.13
  Q 33.12 53.39 38.76 52.09
  Z"
/>
</svg>
