<?xml version="1.0" encoding="UTF-8" standalone="no"?>
<!DOCTYPE svg PUBLIC "-//W3C//DTD SVG 1.1//EN" "http://www.w3.org/Graphics/SVG/1.1/DTD/svg11.dtd">
<svg xmlns="http://www.w3.org/2000/svg" version="1.1" viewBox="0.00 0.00 95.00 57.00">
<g stroke-width="2.00" fill="none" stroke-linecap="butt">
<path stroke="#8e8e94" vector-effect="non-scaling-stroke" d="
  M 26.06 22.77
  A 0.38 0.38 0.0 0 1 25.40 22.93
  C 14.08 10.48 -5.43 30.07 8.15 41.49
  Q 10.22 43.22 13.16 43.25
  Q 41.60 43.53 70.70 43.49
  Q 78.50 43.48 81.36 36.60
  C 84.20 29.75 80.12 22.32 73.33 19.65
  Q 70.15 18.40 67.63 19.63
  A 1.63 1.62 68.0 0 1 65.38 18.67
  Q 62.70 10.44 55.52 6.39
  C 46.98 1.58 36.55 4.52 30.95 12.20
  Q 27.56 16.84 26.06 22.77"
/>
<path stroke="#6c6f7d" vector-effect="non-scaling-stroke" d="
  M 64.16 23.04
  C 60.70 15.87 59.57 9.95 51.08 7.33
  C 41.21 4.29 32.38 11.57 29.33 20.53
  Q 28.46 23.10 27.79 25.92
  A 1.07 1.06 23.2 0 1 26.18 26.56
  C 23.98 25.15 22.03 23.26 19.54 22.40
  Q 14.52 20.66 10.31 24.36
  Q 4.28 29.65 7.13 36.27
  C 8.25 38.89 10.76 40.79 13.65 40.76
  Q 36.84 40.56 66.91 41.11
  C 70.46 41.17 74.98 41.13 77.30 38.09
  Q 82.87 30.82 75.73 24.27
  Q 71.92 20.77 67.62 22.03
  C 66.73 22.30 65.84 22.88 65.01 23.32
  Q 64.44 23.61 64.16 23.04"
/>
</g>
<path fill="#ffffff" d="
  M 0.00 0.00
  L 95.00 0.00
  L 95.00 57.00
  L 0.00 57.00
  L 0.00 0.00
  Z
  M 26.06 22.77
  A 0.38 0.38 0.0 0 1 25.40 22.93
  C 14.08 10.48 -5.43 30.07 8.15 41.49
  Q 10.22 43.22 13.16 43.25
  Q 41.60 43.53 70.70 43.49
  Q 78.50 43.48 81.36 36.60
  C 84.20 29.75 80.12 22.32 73.33 19.65
  Q 70.15 18.40 67.63 19.63
  A 1.63 1.62 68.0 0 1 65.38 18.67
  Q 62.70 10.44 55.52 6.39
  C 46.98 1.58 36.55 4.52 30.95 12.20
  Q 27.56 16.84 26.06 22.77
  Z"
/>
<path fill="#1c1d29" d="
  M 26.06 22.77
  Q 27.56 16.84 30.95 12.20
  C 36.55 4.52 46.98 1.58 55.52 6.39
  Q 62.70 10.44 65.38 18.67
  A 1.63 1.62 68.0 0 0 67.63 19.63
  Q 70.15 18.40 73.33 19.65
  C 80.12 22.32 84.20 29.75 81.36 36.60
  Q 78.50 43.48 70.70 43.49
  Q 41.60 43.53 13.16 43.25
  Q 10.22 43.22 8.15 41.49
  C -5.43 30.07 14.08 10.48 25.40 22.93
  A 0.38 0.38 0.0 0 0 26.06 22.77
  Z
  M 64.16 23.04
  C 60.70 15.87 59.57 9.95 51.08 7.33
  C 41.21 4.29 32.38 11.57 29.33 20.53
  Q 28.46 23.10 27.79 25.92
  A 1.07 1.06 23.2 0 1 26.18 26.56
  C 23.98 25.15 22.03 23.26 19.54 22.40
  Q 14.52 20.66 10.31 24.36
  Q 4.28 29.65 7.13 36.27
  C 8.25 38.89 10.76 40.79 13.65 40.76
  Q 36.84 40.56 66.91 41.11
  C 70.46 41.17 74.98 41.13 77.30 38.09
  Q 82.87 30.82 75.73 24.27
  Q 71.92 20.77 67.62 22.03
  C 66.73 22.30 65.84 22.88 65.01 23.32
  Q 64.44 23.61 64.16 23.04
  Z"
/>
<path fill="#bbc1d1" d="
  M 65.01 23.32
  C 65.84 22.88 66.73 22.30 67.62 22.03
  Q 71.92 20.77 75.73 24.27
  Q 82.87 30.82 77.30 38.09
  C 74.98 41.13 70.46 41.17 66.91 41.11
  Q 36.84 40.56 13.65 40.76
  C 10.76 40.79 8.25 38.89 7.13 36.27
  Q 4.28 29.65 10.31 24.36
  Q 14.52 20.66 19.54 22.40
  C 22.03 23.26 23.98 25.15 26.18 26.56
  A 1.07 1.06 23.2 0 0 27.79 25.92
  Q 28.46 23.10 29.33 20.53
  C 32.38 11.57 41.21 4.29 51.08 7.33
  C 59.57 9.95 60.70 15.87 64.16 23.04
  Q 64.44 23.61 65.01 23.32
  Z"
/>
</svg>
