<?xml version="1.0" encoding="UTF-8" standalone="no"?>
<!DOCTYPE svg PUBLIC "-//W3C//DTD SVG 1.1//EN" "http://www.w3.org/Graphics/SVG/1.1/DTD/svg11.dtd">
<svg xmlns="http://www.w3.org/2000/svg" version="1.1" viewBox="0.00 0.00 84.00 65.00">
<g stroke-width="2.00" fill="none" stroke-linecap="butt">
<path stroke="#7e8088" vector-effect="non-scaling-stroke" d="
  M 35.37 14.18
  Q 34.41 13.97 33.00 14.81
  Q 31.76 15.56 32.17 16.54"
/>
<path stroke="#646b77" vector-effect="non-scaling-stroke" d="
  M 29.71 16.24
  Q 29.77 15.57 29.54 15.02
  Q 29.34 14.54 28.74 14.21
  Q 27.49 13.52 25.72 13.05"
/>
<path stroke="#646b77" vector-effect="non-scaling-stroke" d="
  M 26.65 12.17
  Q 30.59 12.94 29.10 11.47"
/>
<path stroke="#646b77" vector-effect="non-scaling-stroke" d="
  M 54.56 22.03
  Q 49.04 18.52 43.09 18.98"
/>
<path stroke="#7e8088" vector-effect="non-scaling-stroke" d="
  M 57.40 24.43
  Q 59.73 27.75 61.59 31.14
  Q 62.34 32.51 63.48 31.92"
/>
<path stroke="#646b77" vector-effect="non-scaling-stroke" d="
  M 65.19 32.23
  Q 66.06 33.21 67.55 32.90"
/>
<path stroke="#646b77" vector-effect="non-scaling-stroke" d="
  M 69.88 34.50
  L 73.69 38.82"
/>
<path stroke="#7e8088" vector-effect="non-scaling-stroke" d="
  M 73.69 38.82
  Q 75.91 42.34 75.41 47.08"
/>
<path stroke="#646b77" vector-effect="non-scaling-stroke" d="
  M 75.41 47.08
  L 74.21 51.51"
/>
<path stroke="#646b77" vector-effect="non-scaling-stroke" d="
  M 73.75 52.97
  Q 71.99 55.62 69.46 57.12
  C 67.81 58.11 66.09 57.97 64.25 58.17
  Q 62.17 58.38 60.08 58.33
  Q 38.27 57.73 19.55 58.31
  Q 11.06 58.58 7.63 51.47
  C 6.89 49.93 6.65 48.45 6.07 46.85"
/>
<path stroke="#7e8088" vector-effect="non-scaling-stroke" d="
  M 5.84 43.31
  Q 6.69 41.60 7.29 39.91
  Q 8.13 37.54 8.79 36.56
  Q 10.98 33.30 14.74 31.12"
/>
<path stroke="#7e8088" vector-effect="non-scaling-stroke" d="
  M 14.81 30.96
  Q 18.57 29.16 22.67 29.97
  C 24.31 30.30 25.36 31.17 26.57 32.20
  A 0.68 0.67 37.2 0 0 27.57 32.07
  L 33.30 23.68"
/>
<path stroke="#d6d9e4" vector-effect="non-scaling-stroke" d="
  M 75.71 47.72
  Q 75.52 47.46 75.41 47.08"
/>
<path stroke="#d6d9e4" vector-effect="non-scaling-stroke" d="
  M 74.00 38.53
  Q 73.81 38.62 73.69 38.82"
/>
<path stroke="#646b77" vector-effect="non-scaling-stroke" d="
  M 41.58 19.03
  L 35.99 21.42"
/>
<path stroke="#646b77" vector-effect="non-scaling-stroke" d="
  M 29.06 35.99
  A 0.49 0.48 28.4 0 1 28.28 36.22
  C 24.93 33.42 20.15 31.30 16.13 33.48
  C 8.97 37.35 6.63 45.54 11.32 52.54
  Q 13.52 55.83 16.95 55.91
  C 32.53 56.32 48.54 56.71 64.28 55.95
  C 68.16 55.76 70.58 54.10 71.87 50.56
  Q 74.97 42.07 68.57 36.57
  Q 65.34 33.81 60.93 35.44
  Q 60.27 35.68 60.04 35.02
  C 58.11 29.34 55.43 24.76 49.97 22.40
  C 39.73 17.96 31.68 27.05 29.06 35.99"
/>
</g>
<path fill="#0c111b" d="
  M 35.37 14.18
  Q 34.41 13.97 33.00 14.81
  Q 31.76 15.56 32.17 16.54
  Q 31.45 17.46 30.40 17.76
  Q 29.67 17.98 29.52 17.50
  Q 29.38 17.07 29.71 16.24
  Q 29.77 15.57 29.54 15.02
  Q 29.34 14.54 28.74 14.21
  Q 27.49 13.52 25.72 13.05
  Q 26.12 12.80 26.14 12.51
  Q 26.15 12.34 26.27 12.22
  Q 26.53 11.99 26.65 12.17
  Q 30.59 12.94 29.10 11.47
  Q 30.23 9.76 29.40 7.64
  A 0.17 0.17 0.0 0 1 29.57 7.41
  L 31.48 7.49
  A 0.40 0.38 -8.4 0 1 31.81 7.72
  Q 32.54 9.41 32.51 11.02
  Q 32.49 12.07 33.48 12.52
  Q 33.92 12.72 34.27 12.38
  Q 34.66 12.01 35.19 11.99
  Q 35.73 11.97 35.92 12.47
  Q 36.34 13.58 35.37 14.18
  Z"
/>
<path fill="#bcc4d3" d="
  M 29.10 11.47
  Q 30.59 12.94 26.65 12.17
  Q 28.05 12.00 29.10 11.47
  Z"
/>
<path fill="#bcc4d3" d="
  M 25.72 13.05
  Q 27.49 13.52 28.74 14.21
  Q 29.34 14.54 29.54 15.02
  Q 29.77 15.57 29.71 16.24
  L 25.72 13.05
  Z"
/>
<path fill="#efeef4" d="
  M 35.37 14.18
  L 32.17 16.54
  Q 31.76 15.56 33.00 14.81
  Q 34.41 13.97 35.37 14.18
  Z"
/>
<path fill="#bcc4d3" d="
  M 54.56 22.03
  Q 49.04 18.52 43.09 18.98
  Q 42.94 18.67 43.00 18.42
  A 0.52 0.52 0.0 0 1 43.66 18.04
  Q 45.25 18.51 46.93 18.31
  Q 47.50 18.23 47.83 18.71
  Q 47.91 18.82 48.02 18.89
  Q 48.26 19.03 48.57 19.02
  Q 52.23 18.93 54.56 22.03
  Z"
/>
<path fill="#bcc4d3" d="
  M 41.58 19.03
  L 35.99 21.42
  Q 38.04 19.25 41.01 18.55
  Q 41.37 18.46 41.58 19.03
  Z"
/>
<path fill="#0c111b" d="
  M 41.58 19.03
  L 43.09 18.98
  Q 49.04 18.52 54.56 22.03
  L 57.40 24.43
  Q 59.73 27.75 61.59 31.14
  Q 62.34 32.51 63.48 31.92
  L 65.19 32.23
  Q 66.06 33.21 67.55 32.90
  L 69.88 34.50
  L 73.69 38.82
  Q 75.91 42.34 75.41 47.08
  L 74.21 51.51
  Q 74.12 52.23 73.75 52.97
  Q 71.99 55.62 69.46 57.12
  C 67.81 58.11 66.09 57.97 64.25 58.17
  Q 62.17 58.38 60.08 58.33
  Q 38.27 57.73 19.55 58.31
  Q 11.06 58.58 7.63 51.47
  C 6.89 49.93 6.65 48.45 6.07 46.85
  Q 5.63 46.68 5.40 46.32
  Q 5.13 45.88 5.39 45.44
  Q 6.23 44.02 5.84 43.31
  Q 6.69 41.60 7.29 39.91
  Q 8.13 37.54 8.79 36.56
  Q 10.98 33.30 14.74 31.12
  Q 14.78 31.04 14.81 30.96
  Q 18.57 29.16 22.67 29.97
  C 24.31 30.30 25.36 31.17 26.57 32.20
  A 0.68 0.67 37.2 0 0 27.57 32.07
  L 33.30 23.68
  L 35.99 21.42
  L 41.58 19.03
  Z
  M 29.06 35.99
  A 0.49 0.48 28.4 0 1 28.28 36.22
  C 24.93 33.42 20.15 31.30 16.13 33.48
  C 8.97 37.35 6.63 45.54 11.32 52.54
  Q 13.52 55.83 16.95 55.91
  C 32.53 56.32 48.54 56.71 64.28 55.95
  C 68.16 55.76 70.58 54.10 71.87 50.56
  Q 74.97 42.07 68.57 36.57
  Q 65.34 33.81 60.93 35.44
  Q 60.27 35.68 60.04 35.02
  C 58.11 29.34 55.43 24.76 49.97 22.40
  C 39.73 17.96 31.68 27.05 29.06 35.99
  Z"
/>
<path fill="#bcc4d3" d="
  M 29.06 35.99
  C 31.68 27.05 39.73 17.96 49.97 22.40
  C 55.43 24.76 58.11 29.34 60.04 35.02
  Q 60.27 35.68 60.93 35.44
  Q 65.34 33.81 68.57 36.57
  Q 74.97 42.07 71.87 50.56
  C 70.58 54.10 68.16 55.76 64.28 55.95
  C 48.54 56.71 32.53 56.32 16.95 55.91
  Q 13.52 55.83 11.32 52.54
  C 6.63 45.54 8.97 37.35 16.13 33.48
  C 20.15 31.30 24.93 33.42 28.28 36.22
  A 0.49 0.48 28.4 0 0 29.06 35.99
  Z"
/>
<path fill="#efeef4" d="
  M 33.30 23.68
  L 27.57 32.07
  A 0.68 0.67 37.2 0 1 26.57 32.20
  C 25.36 31.17 24.31 30.30 22.67 29.97
  Q 18.57 29.16 14.81 30.96
  Q 15.45 28.84 17.04 29.39
  Q 17.63 29.59 18.07 29.16
  Q 19.48 27.78 20.98 28.77
  C 21.72 29.25 22.79 29.12 23.51 28.67
  Q 23.78 28.50 23.89 28.80
  Q 24.32 30.07 26.00 30.37
  Q 27.25 30.60 27.56 29.38
  Q 27.64 29.02 28.01 29.02
  L 28.50 29.01
  A 0.51 0.51 0.0 0 0 29.01 28.50
  L 29.00 28.00
  Q 29.00 27.73 29.16 27.50
  Q 30.78 25.07 33.30 23.68
  Z"
/>
<path fill="#efeef4" d="
  M 57.40 24.43
  Q 58.81 25.65 60.10 27.08
  C 61.32 28.44 61.90 30.46 63.48 31.92
  Q 62.34 32.51 61.59 31.14
  Q 59.73 27.75 57.40 24.43
  Z"
/>
<path fill="#efeef4" d="
  M 14.74 31.12
  Q 10.98 33.30 8.79 36.56
  Q 8.13 37.54 7.29 39.91
  Q 6.69 41.60 5.84 43.31
  Q 5.95 40.61 7.19 38.17
  Q 7.81 36.96 8.22 35.81
  Q 8.98 33.68 11.23 33.01
  Q 11.64 32.89 11.88 32.54
  Q 12.05 32.29 12.00 31.99
  Q 11.90 31.37 12.44 31.06
  Q 13.50 30.46 14.74 31.12
  Z"
/>
<path fill="#bcc4d3" d="
  M 67.55 32.90
  Q 66.06 33.21 65.19 32.23
  Q 66.61 31.71 67.55 32.90
  Z"
/>
<path fill="#bcc4d3" d="
  M 69.88 34.50
  C 72.58 35.04 72.59 36.92 74.00 38.53
  Q 73.81 38.62 73.69 38.82
  L 69.88 34.50
  Z"
/>
<path fill="#efeef4" d="
  M 74.00 38.53
  Q 75.54 39.99 75.82 41.25
  Q 76.41 43.95 75.71 47.72
  Q 75.52 47.46 75.41 47.08
  Q 75.91 42.34 73.69 38.82
  Q 73.81 38.62 74.00 38.53
  Z"
/>
<path fill="#bcc4d3" d="
  M 73.75 52.97
  Q 72.75 56.21 71.46 56.92
  Q 69.90 57.77 68.45 58.76
  Q 68.02 59.05 67.50 59.05
  Q 41.01 58.96 15.75 58.99
  C 11.78 59.00 7.58 53.44 6.14 50.38
  Q 5.91 49.90 5.94 49.38
  L 6.07 46.85
  C 6.65 48.45 6.89 49.93 7.63 51.47
  Q 11.06 58.58 19.55 58.31
  Q 38.27 57.73 60.08 58.33
  Q 62.17 58.38 64.25 58.17
  C 66.09 57.97 67.81 58.11 69.46 57.12
  Q 71.99 55.62 73.75 52.97
  Z"
/>
<path fill="#bcc4d3" d="
  M 75.41 47.08
  Q 75.52 47.46 75.71 47.72
  Q 75.66 49.84 74.21 51.51
  L 75.41 47.08
  Z"
/>
</svg>
