<?xml version="1.0" encoding="UTF-8" standalone="no"?>
<!DOCTYPE svg PUBLIC "-//W3C//DTD SVG 1.1//EN" "http://www.w3.org/Graphics/SVG/1.1/DTD/svg11.dtd">
<svg xmlns="http://www.w3.org/2000/svg" version="1.1" viewBox="0.00 0.00 346.00 335.00">
<g stroke-width="2.00" fill="none" stroke-linecap="butt">
<path stroke="#306982" vector-effect="non-scaling-stroke" d="
  M 110.04 9.27
  Q 108.53 8.23 107.13 7.65
  Q 105.47 6.96 104.07 7.60
  Q 100.87 9.06 101.48 12.18
  Q 102.33 16.54 106.98 15.99
  Q 109.77 15.67 110.65 11.15"
/>
<path stroke="#306982" vector-effect="non-scaling-stroke" d="
  M 63.47 15.55
  Q 66.37 7.37 57.60 7.82"
/>
<path stroke="#306982" vector-effect="non-scaling-stroke" d="
  M 58.74 17.10
  Q 56.35 15.67 54.91 13.13"
/>
<path stroke="#306982" vector-effect="non-scaling-stroke" d="
  M 293.43 14.09
  Q 290.35 11.60 292.72 7.93"
/>
<path stroke="#306982" vector-effect="non-scaling-stroke" d="
  M 153.78 19.10
  Q 147.85 15.07 153.23 10.11"
/>
<path stroke="#306982" vector-effect="non-scaling-stroke" d="
  M 9.06 16.11
  Q 12.78 18.85 14.63 16.01
  Q 15.75 14.29 14.74 12.97
  Q 12.41 9.97 8.97 13.25"
/>
<path stroke="#306982" vector-effect="non-scaling-stroke" d="
  M 329.59 40.36
  Q 328.78 40.16 329.08 39.50
  C 330.07 37.25 329.74 35.71 328.98 33.37
  Q 327.95 30.22 324.71 28.79
  Q 322.36 27.77 319.54 27.49"
/>
<path stroke="#306982" vector-effect="non-scaling-stroke" d="
  M 328.21 42.80
  Q 313.61 51.99 311.34 35.06"
/>
<path stroke="#306982" vector-effect="non-scaling-stroke" d="
  M 314.94 29.35
  Q 316.82 29.06 318.44 27.69"
/>
<path stroke="#306982" vector-effect="non-scaling-stroke" d="
  M 83.73 30.45
  Q 89.11 33.62 85.69 37.93
  C 83.52 40.65 80.43 39.57 78.62 37.29
  Q 77.67 36.08 77.96 34.48
  Q 78.20 33.14 79.03 31.57"
/>
<path stroke="#306982" vector-effect="non-scaling-stroke" d="
  M 272.32 30.83
  Q 275.86 33.67 273.10 37.19"
/>
<path stroke="#306982" vector-effect="non-scaling-stroke" d="
  M 180.51 41.18
  L 175.45 41.49"
/>
<path stroke="#306982" vector-effect="non-scaling-stroke" d="
  M 174.76 41.05
  L 172.84 37.44"
/>
<path stroke="#306982" vector-effect="non-scaling-stroke" d="
  M 133.81 42.25
  Q 132.25 42.04 130.90 42.55"
/>
<path stroke="#306982" vector-effect="non-scaling-stroke" d="
  M 38.12 38.38
  Q 36.58 40.37 35.25 40.36
  Q 31.69 40.33 31.55 36.44"
/>
<path stroke="#306982" vector-effect="non-scaling-stroke" d="
  M 306.40 57.76
  Q 305.95 60.18 306.42 62.66"
/>
<path stroke="#306982" vector-effect="non-scaling-stroke" d="
  M 299.98 69.32
  L 294.51 69.32"
/>
<path stroke="#306982" vector-effect="non-scaling-stroke" d="
  M 287.97 58.27
  Q 289.22 56.70 289.27 55.10"
/>
<path stroke="#306982" vector-effect="non-scaling-stroke" d="
  M 291.70 52.55
  Q 293.63 52.44 294.85 51.06"
/>
<path stroke="#306982" vector-effect="non-scaling-stroke" d="
  M 155.82 55.55
  Q 157.94 57.12 159.28 59.20"
/>
<path stroke="#306982" vector-effect="non-scaling-stroke" d="
  M 149.96 58.49
  Q 151.51 57.53 152.39 55.86"
/>
<path stroke="#306982" vector-effect="non-scaling-stroke" d="
  M 322.86 73.66
  L 317.29 73.61"
/>
<path stroke="#306982" vector-effect="non-scaling-stroke" d="
  M 328.75 78.99
  L 329.28 84.81"
/>
<path stroke="#306982" vector-effect="non-scaling-stroke" d="
  M 311.01 85.84
  Q 310.44 82.73 310.97 79.76"
/>
<path stroke="#306982" vector-effect="non-scaling-stroke" d="
  M 312.88 76.42
  Q 315.18 75.54 316.58 73.85"
/>
<path stroke="#306982" vector-effect="non-scaling-stroke" d="
  M 281.23 82.22
  L 281.41 87.67"
/>
<path stroke="#306982" vector-effect="non-scaling-stroke" d="
  M 274.54 94.44
  Q 266.62 94.96 263.10 87.75"
/>
<path stroke="#306982" vector-effect="non-scaling-stroke" d="
  M 262.96 83.33
  Q 264.42 81.47 264.77 79.41"
/>
<path stroke="#306982" vector-effect="non-scaling-stroke" d="
  M 266.69 77.56
  Q 268.73 77.35 270.03 76.02"
/>
<path stroke="#306982" vector-effect="non-scaling-stroke" d="
  M 227.59 80.92
  Q 227.44 82.90 226.81 84.41
  C 225.50 87.51 221.97 87.49 219.70 85.48
  C 218.12 84.08 219.32 82.68 218.35 81.19"
/>
<path stroke="#306982" vector-effect="non-scaling-stroke" d="
  M 136.04 84.36
  Q 134.60 86.98 132.53 87.80
  Q 130.40 88.64 128.39 86.86
  Q 124.44 83.35 130.01 78.65"
/>
<path stroke="#306982" vector-effect="non-scaling-stroke" d="
  M 299.62 116.15
  Q 295.33 118.00 290.86 116.69"
/>
<path stroke="#306982" vector-effect="non-scaling-stroke" d="
  M 244.80 117.00
  Q 256.64 119.39 258.08 109.18
  C 258.21 108.26 257.83 107.47 257.86 106.54
  Q 257.90 105.54 257.39 104.59
  Q 254.07 98.37 245.58 99.64"
/>
<path stroke="#306982" vector-effect="non-scaling-stroke" d="
  M 241.70 114.47
  Q 240.79 112.09 239.90 109.74
  C 239.25 108.02 240.82 105.54 240.90 103.69"
/>
<path stroke="#306982" vector-effect="non-scaling-stroke" d="
  M 157.69 109.28
  Q 159.78 100.31 151.07 102.14"
/>
<path stroke="#306982" vector-effect="non-scaling-stroke" d="
  M 111.44 112.22
  L 112.10 107.58
  Q 112.17 107.08 111.85 106.70
  C 110.96 105.62 110.48 104.36 109.21 103.64
  Q 104.86 101.18 101.70 104.51
  Q 98.23 108.17 100.94 111.99
  Q 102.17 113.73 104.95 115.08"
/>
<path stroke="#306982" vector-effect="non-scaling-stroke" d="
  M 60.76 102.90
  Q 64.51 103.95 65.97 107.05
  Q 66.43 108.02 66.17 109.00
  Q 65.92 109.93 66.61 110.26"
/>
<path stroke="#306982" vector-effect="non-scaling-stroke" d="
  M 60.84 115.68
  Q 53.10 114.82 54.79 106.40"
/>
<path stroke="#306982" vector-effect="non-scaling-stroke" d="
  M 309.84 124.85
  Q 307.29 129.82 309.23 134.11
  C 311.13 138.30 315.70 140.52 320.05 139.24
  C 324.76 137.86 327.57 132.71 326.17 127.93
  C 324.72 122.94 319.70 120.28 314.69 121.83
  Q 313.68 122.14 312.25 123.25
  Q 311.11 124.14 309.84 124.85"
/>
<path stroke="#306982" vector-effect="non-scaling-stroke" d="
  M 274.13 122.07
  L 279.08 125.00"
/>
<path stroke="#306982" vector-effect="non-scaling-stroke" d="
  M 280.89 132.26
  Q 279.05 139.99 270.91 140.49"
/>
<path stroke="#306982" vector-effect="non-scaling-stroke" d="
  M 264.16 136.73
  Q 260.86 130.44 264.97 124.42"
/>
<path stroke="#306982" vector-effect="non-scaling-stroke" d="
  M 235.20 133.72
  Q 234.17 135.35 233.22 136.88
  Q 232.06 138.74 230.69 139.52
  Q 225.33 142.59 218.87 138.25"
/>
<path stroke="#306982" vector-effect="non-scaling-stroke" d="
  M 216.55 133.82
  Q 216.94 131.62 216.61 129.45"
/>
<path stroke="#306982" vector-effect="non-scaling-stroke" d="
  M 181.36 127.74
  Q 181.01 131.75 178.42 132.94
  Q 174.18 134.89 171.52 129.09"
/>
<path stroke="#306982" vector-effect="non-scaling-stroke" d="
  M 129.73 124.86
  Q 133.11 126.45 135.05 129.78"
/>
<path stroke="#306982" vector-effect="non-scaling-stroke" d="
  M 129.83 137.62
  Q 128.29 136.92 126.87 137.42"
/>
<path stroke="#306982" vector-effect="non-scaling-stroke" d="
  M 122.64 133.31
  Q 123.00 131.72 122.43 129.95"
/>
<path stroke="#306982" vector-effect="non-scaling-stroke" d="
  M 36.34 126.29
  Q 47.03 128.51 40.73 137.80"
/>
<path stroke="#306982" vector-effect="non-scaling-stroke" d="
  M 38.80 138.69
  Q 36.85 138.25 34.78 138.46"
/>
<path stroke="#306982" vector-effect="non-scaling-stroke" d="
  M 296.14 144.34
  Q 294.01 145.09 292.39 144.39"
/>
<path stroke="#306982" vector-effect="non-scaling-stroke" d="
  M 300.80 146.67
  Q 304.31 151.31 303.09 156.10
  Q 301.95 160.55 297.91 162.10
  Q 293.97 163.62 289.02 161.58"
/>
<path stroke="#306982" vector-effect="non-scaling-stroke" d="
  M 285.29 156.57
  Q 284.33 151.29 288.06 146.58"
/>
<path stroke="#306982" vector-effect="non-scaling-stroke" d="
  M 254.08 162.15
  Q 258.57 156.85 256.99 151.27
  Q 256.05 147.95 253.04 146.44
  Q 247.96 143.88 243.11 146.91
  Q 240.80 148.35 239.98 151.15
  C 238.16 157.40 242.00 163.93 249.00 163.37
  Q 250.37 163.26 251.12 163.58"
/>
<path stroke="#306982" vector-effect="non-scaling-stroke" d="
  M 206.91 146.59
  Q 203.86 145.63 200.41 145.74"
/>
<path stroke="#306982" vector-effect="non-scaling-stroke" d="
  M 210.97 150.68
  Q 212.39 155.18 210.67 159.89"
/>
<path stroke="#306982" vector-effect="non-scaling-stroke" d="
  M 207.32 163.21
  Q 201.95 165.53 196.82 162.63"
/>
<path stroke="#306982" vector-effect="non-scaling-stroke" d="
  M 194.08 159.39
  Q 192.83 155.26 193.85 151.11"
/>
<path stroke="#306982" vector-effect="non-scaling-stroke" d="
  M 148.33 159.79
  Q 152.59 161.19 155.27 158.52
  Q 158.24 155.54 157.09 152.13
  Q 155.47 147.34 149.52 147.76"
/>
<path stroke="#306982" vector-effect="non-scaling-stroke" d="
  M 111.64 156.43
  Q 111.92 151.77 109.30 149.78
  C 106.37 147.56 101.55 148.55 100.10 152.13
  Q 98.40 156.32 102.29 160.07"
/>
<path stroke="#306982" vector-effect="non-scaling-stroke" d="
  M 66.02 154.39
  L 64.01 160.02"
/>
<path stroke="#306982" vector-effect="non-scaling-stroke" d="
  M 59.20 161.53
  Q 50.64 158.07 55.76 150.14"
/>
<path stroke="#306982" vector-effect="non-scaling-stroke" d="
  M 20.05 157.15
  Q 18.41 160.60 14.98 162.10"
/>
<path stroke="#306982" vector-effect="non-scaling-stroke" d="
  M 7.40 157.07
  Q 8.04 155.08 7.86 153.04"
/>
<path stroke="#306982" vector-effect="non-scaling-stroke" d="
  M 322.42 168.55
  Q 324.99 171.36 326.31 174.47"
/>
<path stroke="#306982" vector-effect="non-scaling-stroke" d="
  M 326.28 178.40
  Q 325.03 179.92 324.82 181.75"
/>
<path stroke="#306982" vector-effect="non-scaling-stroke" d="
  M 319.53 185.53
  L 313.36 185.16"
/>
<path stroke="#306982" vector-effect="non-scaling-stroke" d="
  M 272.51 167.59
  Q 271.32 168.13 269.76 167.59"
/>
<path stroke="#306982" vector-effect="non-scaling-stroke" d="
  M 277.75 170.20
  Q 278.66 171.61 279.32 173.01
  Q 279.95 174.32 280.03 176.12
  Q 280.11 177.79 280.24 179.57"
/>
<path stroke="#306982" vector-effect="non-scaling-stroke" d="
  M 262.20 173.76
  Q 263.94 170.66 266.67 169.17
  Q 266.72 169.14 266.83 169.11
  Q 267.17 169.01 267.14 168.37"
/>
<path stroke="#306982" vector-effect="non-scaling-stroke" d="
  M 229.34 186.14
  Q 233.74 182.99 234.21 178.27
  Q 234.54 174.86 232.57 172.12
  Q 230.44 169.15 226.76 168.48
  Q 221.07 167.44 216.92 173.06"
/>
<path stroke="#306982" vector-effect="non-scaling-stroke" d="
  M 182.57 188.09
  Q 176.49 190.76 171.68 186.97
  Q 171.51 186.83 171.42 187.03
  Q 171.38 187.14 171.41 187.29"
/>
<path stroke="#306982" vector-effect="non-scaling-stroke" d="
  M 169.59 185.20
  Q 167.66 180.88 168.83 176.22"
/>
<path stroke="#306982" vector-effect="non-scaling-stroke" d="
  M 172.37 171.98
  Q 174.12 172.19 175.37 170.69"
/>
<path stroke="#306982" vector-effect="non-scaling-stroke" d="
  M 132.15 172.06
  Q 136.84 179.53 130.08 183.23"
/>
<path stroke="#306982" vector-effect="non-scaling-stroke" d="
  M 126.73 183.35
  L 124.06 181.57
  Q 123.66 181.30 123.43 180.87
  L 121.93 178.03"
/>
<path stroke="#306982" vector-effect="non-scaling-stroke" d="
  M 88.70 177.12
  Q 87.84 181.85 86.02 182.65
  Q 84.34 183.38 82.49 184.07"
/>
<path stroke="#306982" vector-effect="non-scaling-stroke" d="
  M 76.58 180.30
  L 76.16 176.26"
/>
<path stroke="#306982" vector-effect="non-scaling-stroke" d="
  M 39.41 172.89
  L 35.32 172.13"
/>
<path stroke="#306982" vector-effect="non-scaling-stroke" d="
  M 42.55 177.15
  Q 41.73 178.72 42.44 180.27"
/>
<path stroke="#306982" vector-effect="non-scaling-stroke" d="
  M 38.97 184.34
  Q 34.41 185.35 30.84 182.00"
/>
<path stroke="#306982" vector-effect="non-scaling-stroke" d="
  M 302.24 203.79
  Q 302.54 202.07 302.72 200.43
  Q 302.92 198.58 302.47 197.10
  Q 300.09 189.31 290.43 190.66"
/>
<path stroke="#306982" vector-effect="non-scaling-stroke" d="
  M 296.62 208.68
  Q 291.45 209.23 286.83 206.25"
/>
<path stroke="#306982" vector-effect="non-scaling-stroke" d="
  M 284.54 202.35
  L 284.38 197.50"
/>
<path stroke="#306982" vector-effect="non-scaling-stroke" d="
  M 254.54 193.99
  L 257.03 198.32"
/>
<path stroke="#306982" vector-effect="non-scaling-stroke" d="
  M 256.74 202.66
  L 252.82 208.07"
/>
<path stroke="#306982" vector-effect="non-scaling-stroke" d="
  M 238.36 201.87
  Q 238.86 200.24 238.47 198.43"
/>
<path stroke="#306982" vector-effect="non-scaling-stroke" d="
  M 240.05 195.02
  Q 242.54 192.60 245.43 191.21"
/>
<path stroke="#306982" vector-effect="non-scaling-stroke" d="
  M 202.80 193.64
  L 197.29 193.61"
/>
<path stroke="#306982" vector-effect="non-scaling-stroke" d="
  M 208.75 198.99
  L 209.17 205.27"
/>
<path stroke="#306982" vector-effect="non-scaling-stroke" d="
  M 191.01 205.83
  Q 190.48 202.78 190.97 199.76"
/>
<path stroke="#306982" vector-effect="non-scaling-stroke" d="
  M 192.89 196.42
  Q 195.15 195.54 196.54 193.87"
/>
<path stroke="#306982" vector-effect="non-scaling-stroke" d="
  M 155.17 193.86
  Q 163.75 196.12 163.21 203.75
  Q 163.07 205.74 163.36 206.42"
/>
<path stroke="#306982" vector-effect="non-scaling-stroke" d="
  M 162.65 208.00
  L 159.75 211.17"
/>
<path stroke="#306982" vector-effect="non-scaling-stroke" d="
  M 157.02 212.46
  L 151.08 212.26"
/>
<path stroke="#306982" vector-effect="non-scaling-stroke" d="
  M 148.53 210.84
  Q 144.36 206.15 145.29 200.52"
/>
<path stroke="#306982" vector-effect="non-scaling-stroke" d="
  M 111.31 201.50
  L 109.17 205.23"
/>
<path stroke="#306982" vector-effect="non-scaling-stroke" d="
  M 106.32 206.61
  Q 102.10 206.39 100.51 204.50
  Q 99.67 203.49 98.54 200.01"
/>
<path stroke="#306982" vector-effect="non-scaling-stroke" d="
  M 64.55 198.12
  Q 61.63 194.50 57.56 194.66"
/>
<path stroke="#306982" vector-effect="non-scaling-stroke" d="
  M 65.15 199.26
  Q 64.76 200.95 65.27 202.51"
/>
<path stroke="#306982" vector-effect="non-scaling-stroke" d="
  M 60.77 207.14
  L 57.72 207.35"
/>
<path stroke="#306982" vector-effect="non-scaling-stroke" d="
  M 52.72 202.30
  L 52.87 199.29"
/>
<path stroke="#306982" vector-effect="non-scaling-stroke" d="
  M 41.12 213.94
  Q 39.67 213.55 38.29 213.10
  Q 36.83 212.63 35.40 212.57
  Q 33.43 212.48 31.41 212.34"
/>
<path stroke="#306982" vector-effect="non-scaling-stroke" d="
  M 22.64 234.19
  Q 19.69 228.81 20.51 222.69"
/>
<path stroke="#306982" vector-effect="non-scaling-stroke" d="
  M 274.01 231.55
  Q 280.75 227.48 279.28 220.54
  C 278.65 217.56 276.61 215.63 273.99 214.30
  Q 273.07 213.84 271.42 213.79
  Q 269.92 213.75 268.74 213.34"
/>
<path stroke="#306982" vector-effect="non-scaling-stroke" d="
  M 267.61 231.76
  Q 260.16 227.73 261.39 220.01"
/>
<path stroke="#306982" vector-effect="non-scaling-stroke" d="
  M 262.07 218.30
  L 267.01 213.84"
/>
<path stroke="#306982" vector-effect="non-scaling-stroke" d="
  M 224.62 215.94
  Q 229.82 218.11 232.06 223.34"
/>
<path stroke="#306982" vector-effect="non-scaling-stroke" d="
  M 232.00 227.44
  L 228.75 232.61"
/>
<path stroke="#306982" vector-effect="non-scaling-stroke" d="
  M 225.26 234.41
  Q 221.59 234.61 218.17 233.55"
/>
<path stroke="#306982" vector-effect="non-scaling-stroke" d="
  M 214.93 219.90
  L 219.96 216.18"
/>
<path stroke="#306982" vector-effect="non-scaling-stroke" d="
  M 323.58 234.51
  Q 317.14 235.72 312.67 232.01"
/>
<path stroke="#306982" vector-effect="non-scaling-stroke" d="
  M 310.74 228.55
  L 310.61 223.41"
/>
<path stroke="#306982" vector-effect="non-scaling-stroke" d="
  M 185.93 228.75
  Q 184.04 232.47 180.80 234.52"
/>
<path stroke="#306982" vector-effect="non-scaling-stroke" d="
  M 173.52 234.75
  L 169.15 231.37"
/>
<path stroke="#306982" vector-effect="non-scaling-stroke" d="
  M 127.30 235.24
  Q 136.38 237.01 139.53 229.99
  C 140.13 228.68 139.96 227.24 140.10 225.82
  Q 140.25 224.37 139.46 222.79
  Q 136.20 216.30 127.68 217.62"
/>
<path stroke="#306982" vector-effect="non-scaling-stroke" d="
  M 122.81 231.17
  Q 122.16 228.86 121.95 226.81
  C 121.76 225.07 122.67 223.50 122.91 221.68"
/>
<path stroke="#306982" vector-effect="non-scaling-stroke" d="
  M 86.89 220.23
  Q 88.70 224.75 85.43 228.87"
/>
<path stroke="#306982" vector-effect="non-scaling-stroke" d="
  M 77.99 229.16
  Q 74.41 225.27 75.95 220.51"
/>
<path stroke="#306982" vector-effect="non-scaling-stroke" d="
  M 58.48 234.63
  Q 56.63 235.05 54.78 234.59"
/>
<path stroke="#306982" vector-effect="non-scaling-stroke" d="
  M 58.60 234.84
  C 62.98 236.32 65.62 237.66 68.18 241.37
  Q 70.26 244.38 70.33 247.88
  Q 70.46 254.31 65.97 258.56
  C 63.95 260.47 61.55 261.40 58.99 262.51"
/>
<path stroke="#306982" vector-effect="non-scaling-stroke" d="
  M 58.80 262.63
  Q 53.06 262.60 48.33 259.55
  Q 48.25 259.50 48.23 259.60
  Q 48.21 259.64 48.20 259.69"
/>
<path stroke="#306982" vector-effect="non-scaling-stroke" d="
  M 45.81 257.26
  L 42.80 250.55"
/>
<path stroke="#306982" vector-effect="non-scaling-stroke" d="
  M 42.56 249.82
  Q 43.00 248.34 42.62 246.76"
/>
<path stroke="#306982" vector-effect="non-scaling-stroke" d="
  M 42.87 245.89
  Q 44.03 244.43 43.89 242.67"
/>
<path stroke="#306982" vector-effect="non-scaling-stroke" d="
  M 49.92 236.37
  Q 52.15 236.12 54.02 234.79"
/>
<path stroke="#306982" vector-effect="non-scaling-stroke" d="
  M 248.61 239.12
  L 243.56 238.68"
/>
<path stroke="#306982" vector-effect="non-scaling-stroke" d="
  M 251.77 241.08
  Q 257.52 248.94 250.54 255.92"
/>
<path stroke="#306982" vector-effect="non-scaling-stroke" d="
  M 249.03 256.74
  Q 243.71 258.15 238.95 255.10"
/>
<path stroke="#306982" vector-effect="non-scaling-stroke" d="
  M 299.83 240.11
  L 294.40 239.74"
/>
<path stroke="#306982" vector-effect="non-scaling-stroke" d="
  M 304.94 244.65
  Q 306.20 248.43 305.25 252.71"
/>
<path stroke="#306982" vector-effect="non-scaling-stroke" d="
  M 301.26 257.24
  Q 293.94 260.40 288.19 253.65"
/>
<path stroke="#306982" vector-effect="non-scaling-stroke" d="
  M 156.09 239.97
  Q 157.42 240.89 158.94 241.78
  Q 160.71 242.82 161.48 244.24
  Q 163.86 248.65 161.80 253.16
  Q 160.30 256.47 156.82 257.69
  Q 153.43 258.89 149.35 257.57"
/>
<path stroke="#306982" vector-effect="non-scaling-stroke" d="
  M 144.98 253.04
  L 144.45 246.79"
/>
<path stroke="#306982" vector-effect="non-scaling-stroke" d="
  M 110.08 240.62
  L 105.88 240.37"
/>
<path stroke="#306982" vector-effect="non-scaling-stroke" d="
  M 111.51 241.32
  Q 114.72 243.40 116.78 247.06"
/>
<path stroke="#306982" vector-effect="non-scaling-stroke" d="
  M 117.02 251.89
  Q 115.58 253.44 115.13 255.47"
/>
<path stroke="#306982" vector-effect="non-scaling-stroke" d="
  M 113.70 256.94
  L 109.24 258.95"
/>
<path stroke="#306982" vector-effect="non-scaling-stroke" d="
  M 105.10 258.70
  L 101.20 256.53"
/>
<path stroke="#306982" vector-effect="non-scaling-stroke" d="
  M 39.65 259.33
  Q 44.78 262.65 46.25 267.26
  Q 48.47 274.26 44.09 280.39
  Q 40.36 285.59 33.61 285.45
  Q 23.50 285.24 20.34 275.49
  Q 20.10 274.77 19.70 275.11"
/>
<path stroke="#306982" vector-effect="non-scaling-stroke" d="
  M 19.42 273.47
  Q 20.06 271.63 19.42 270.52"
/>
<path stroke="#306982" vector-effect="non-scaling-stroke" d="
  M 19.84 268.28
  L 23.00 262.51"
/>
<path stroke="#306982" vector-effect="non-scaling-stroke" d="
  M 231.64 270.15
  Q 230.65 271.51 231.49 273.38"
/>
<path stroke="#306982" vector-effect="non-scaling-stroke" d="
  M 228.14 278.68
  Q 224.66 280.41 220.39 280.47"
/>
<path stroke="#306982" vector-effect="non-scaling-stroke" d="
  M 213.02 268.31
  Q 213.96 267.07 214.79 265.87
  Q 215.77 264.45 216.84 263.74
  Q 218.46 262.66 220.54 261.78"
/>
<path stroke="#306982" vector-effect="non-scaling-stroke" d="
  M 323.29 263.11
  L 317.39 262.22"
/>
<path stroke="#306982" vector-effect="non-scaling-stroke" d="
  M 323.29 263.11
  Q 324.69 264.48 325.86 265.86
  Q 329.70 270.37 327.10 276.54"
/>
<path stroke="#306982" vector-effect="non-scaling-stroke" d="
  M 309.47 272.84
  Q 310.23 270.98 309.52 269.83"
/>
<path stroke="#306982" vector-effect="non-scaling-stroke" d="
  M 175.48 262.28
  Q 176.48 263.13 178.07 262.40"
/>
<path stroke="#306982" vector-effect="non-scaling-stroke" d="
  M 185.63 269.75
  Q 185.82 279.53 177.06 281.21"
/>
<path stroke="#306982" vector-effect="non-scaling-stroke" d="
  M 167.86 276.00
  Q 165.73 270.29 170.03 264.64"
/>
<path stroke="#306982" vector-effect="non-scaling-stroke" d="
  M 133.05 263.38
  Q 126.20 262.34 121.92 268.04"
/>
<path stroke="#306982" vector-effect="non-scaling-stroke" d="
  M 134.82 264.11
  Q 134.71 264.20 134.61 264.28
  Q 134.46 264.40 134.62 264.51
  C 139.97 267.86 140.86 274.05 136.72 278.84
  Q 134.13 281.84 129.67 281.56
  Q 124.10 281.22 121.19 275.16"
/>
<path stroke="#306982" vector-effect="non-scaling-stroke" d="
  M 275.34 270.88
  Q 277.09 274.61 274.39 277.96"
/>
<path stroke="#306982" vector-effect="non-scaling-stroke" d="
  M 269.06 278.16
  Q 268.36 276.93 267.46 276.02
  Q 266.37 274.93 266.97 273.11
  C 267.23 272.29 268.02 271.81 267.94 270.61"
/>
<path stroke="#306982" vector-effect="non-scaling-stroke" d="
  M 86.79 271.90
  Q 88.81 280.57 80.01 278.86"
/>
<path stroke="#306982" vector-effect="non-scaling-stroke" d="
  M 78.14 273.10
  L 81.56 269.99"
/>
<path stroke="#306982" vector-effect="non-scaling-stroke" d="
  M 203.44 286.11
  Q 206.65 288.50 208.08 292.55"
/>
<path stroke="#306982" vector-effect="non-scaling-stroke" d="
  M 208.23 295.90
  Q 207.08 297.68 206.77 299.75"
/>
<path stroke="#306982" vector-effect="non-scaling-stroke" d="
  M 201.49 303.38
  L 195.32 303.15"
/>
<path stroke="#306982" vector-effect="non-scaling-stroke" d="
  M 190.73 289.60
  Q 192.25 288.70 192.96 286.96"
/>
<path stroke="#306982" vector-effect="non-scaling-stroke" d="
  M 143.61 293.47
  Q 144.27 302.70 151.64 303.96
  Q 155.25 304.59 157.83 302.71
  Q 161.18 300.26 161.90 296.89
  Q 162.82 292.57 159.92 289.17
  Q 157.06 285.83 151.80 285.56"
/>
<path stroke="#306982" vector-effect="non-scaling-stroke" d="
  M 144.38 290.98
  L 148.26 286.75"
/>
<path stroke="#306982" vector-effect="non-scaling-stroke" d="
  M 296.00 292.40
  Q 298.43 294.27 298.62 296.68
  Q 298.66 297.17 298.40 297.60
  Q 297.79 298.60 297.86 299.83"
/>
<path stroke="#306982" vector-effect="non-scaling-stroke" d="
  M 103.42 302.18
  Q 97.93 297.15 103.87 292.70"
/>
<path stroke="#306982" vector-effect="non-scaling-stroke" d="
  M 181.56 324.88
  Q 184.22 321.38 184.49 319.26
  Q 185.37 312.55 180.25 309.59
  Q 176.72 307.54 171.18 309.01"
/>
<path stroke="#306982" vector-effect="non-scaling-stroke" d="
  M 179.55 326.16
  Q 173.28 327.72 169.56 324.44
  Q 164.06 319.58 167.85 311.81"
/>
<path stroke="#306982" vector-effect="non-scaling-stroke" d="
  M 319.64 315.24
  L 315.12 314.60"
/>
<path stroke="#306982" vector-effect="non-scaling-stroke" d="
  M 321.60 318.19
  Q 320.79 319.71 321.27 321.33"
/>
<path stroke="#306982" vector-effect="non-scaling-stroke" d="
  M 315.44 324.04
  L 311.93 320.34"
/>
<path stroke="#306982" vector-effect="non-scaling-stroke" d="
  M 222.69 324.75
  Q 220.00 322.22 220.67 318.40"
/>
<path stroke="#306982" vector-effect="non-scaling-stroke" d="
  M 41.03 320.28
  Q 40.18 326.61 34.17 325.67"
/>
<path stroke="#306982" vector-effect="non-scaling-stroke" d="
  M 345.77 4.65
  Q 342.62 4.29 338.90 5.67"
/>
<path stroke="#306982" vector-effect="non-scaling-stroke" d="
  M 342.56 22.91
  L 336.56 20.00"
/>
<path stroke="#306982" vector-effect="non-scaling-stroke" d="
  M 345.74 50.70
  Q 340.47 49.78 335.85 53.48"
/>
<path stroke="#306982" vector-effect="non-scaling-stroke" d="
  M 345.68 68.50
  Q 342.37 68.75 338.28 67.66"
/>
<path stroke="#306982" vector-effect="non-scaling-stroke" d="
  M 112.98 61.07
  A 4.44 4.44 0.0 0 0 108.54 56.63
  A 4.44 4.44 0.0 0 0 104.10 61.07
  A 4.44 4.44 0.0 0 0 108.54 65.51
  A 4.44 4.44 0.0 0 0 112.98 61.07"
/>
<path stroke="#306982" vector-effect="non-scaling-stroke" d="
  M 8.71 61.00
  A 2.02 2.02 0.0 0 0 10.28 63.09
  L 11.59 63.38
  A 2.02 2.02 0.0 0 0 14.01 61.82
  L 14.33 60.27
  A 2.02 2.02 0.0 0 0 12.52 57.85
  L 10.98 57.72
  A 2.02 2.02 0.0 0 0 8.79 59.61
  L 8.71 61.00"
/>
<path stroke="#306982" vector-effect="non-scaling-stroke" d="
  M 82.6593 92.1754
  A 6.17 5.96 98.3 0 0 89.4476 86.9304
  A 6.17 5.96 98.3 0 0 84.4407 79.9646
  A 6.17 5.96 98.3 0 0 77.6524 85.2096
  A 6.17 5.96 98.3 0 0 82.6593 92.1754"
/>
<path stroke="#306982" vector-effect="non-scaling-stroke" d="
  M 345.68 96.84
  Q 339.47 95.28 335.07 99.94"
/>
<path stroke="#306982" vector-effect="non-scaling-stroke" d="
  M 345.80 114.22
  C 337.36 115.91 331.25 109.65 334.12 101.45"
/>
<path stroke="#306982" vector-effect="non-scaling-stroke" d="
  M 345.53 160.93
  Q 344.34 161.40 343.17 161.88
  Q 341.89 162.41 340.74 162.37
  Q 331.24 162.04 330.53 151.53"
/>
<path stroke="#306982" vector-effect="non-scaling-stroke" d="
  M 335.43 145.03
  Q 337.21 145.11 338.27 144.08"
/>
<path stroke="#306982" vector-effect="non-scaling-stroke" d="
  M 21.48 212.75
  Q 26.23 206.78 24.89 200.76
  C 23.66 195.25 18.37 189.87 12.08 189.55
  Q 9.78 189.43 8.26 189.89
  Q 6.43 190.43 1.03 193.79"
/>
<path stroke="#306982" vector-effect="non-scaling-stroke" d="
  M 17.34 216.09
  Q 11.66 218.15 6.71 215.92
  Q 4.78 215.06 2.61 214.21"
/>
<path stroke="#306982" vector-effect="non-scaling-stroke" d="
  M 345.71 193.63
  L 339.49 193.79"
/>
<path stroke="#306982" vector-effect="non-scaling-stroke" d="
  M 345.69 211.14
  C 342.56 212.15 341.03 210.61 338.43 210.70"
/>
<path stroke="#306982" vector-effect="non-scaling-stroke" d="
  M 335.40 208.03
  Q 334.22 205.37 333.95 202.82
  C 333.78 201.13 334.64 199.45 334.88 197.65"
/>
<path stroke="#306982" vector-effect="non-scaling-stroke" d="
  M 13.84 235.61
  Q 12.54 235.88 11.27 235.81
  Q 9.59 235.70 8.73 235.91
  Q 5.80 236.61 2.70 237.96"
/>
<path stroke="#306982" vector-effect="non-scaling-stroke" d="
  M 19.66 238.49
  L 23.51 243.48"
/>
<path stroke="#306982" vector-effect="non-scaling-stroke" d="
  M 24.52 247.16
  Q 24.58 249.44 24.07 251.33
  C 23.90 251.94 24.03 252.45 24.28 252.97"
/>
<path stroke="#306982" vector-effect="non-scaling-stroke" d="
  M 23.16 255.57
  Q 19.84 261.49 12.98 262.92"
/>
<path stroke="#306982" vector-effect="non-scaling-stroke" d="
  M 8.83 262.93
  Q 4.45 261.87 1.18 259.21
  Q 1.09 259.13 1.02 259.23
  Q 0.94 259.33 0.87 259.43"
/>
<path stroke="#306982" vector-effect="non-scaling-stroke" d="
  M 208.62 248.54
  A 9.06 9.06 0.0 0 0 199.56 239.48
  A 9.06 9.06 0.0 0 0 190.50 248.54
  A 9.06 9.06 0.0 0 0 199.56 257.60
  A 9.06 9.06 0.0 0 0 208.62 248.54"
/>
<path stroke="#306982" vector-effect="non-scaling-stroke" d="
  M 345.68 239.79
  Q 343.27 239.00 342.00 239.13
  Q 340.83 239.25 337.01 240.64"
/>
<path stroke="#306982" vector-effect="non-scaling-stroke" d="
  M 344.97 257.65
  L 339.35 257.17"
/>
<path stroke="#306982" vector-effect="non-scaling-stroke" d="
  M 336.62 255.79
  Q 331.81 250.85 334.38 243.40"
/>
<path stroke="#306982" vector-effect="non-scaling-stroke" d="
  M 0.00 274.13
  Q 1.53 273.42 0.59 271.69
  Q 0.35 271.26 0.40 270.77
  Q 0.54 269.37 0.00 268.33"
/>
<path stroke="#306982" vector-effect="non-scaling-stroke" d="
  M 13.19 281.53
  L 7.73 281.55"
/>
<path stroke="#306982" vector-effect="non-scaling-stroke" d="
  M 22.43 287.83
  Q 22.68 290.04 23.24 292.16
  Q 23.92 294.74 23.69 296.45
  Q 23.03 301.27 19.96 304.81
  Q 18.34 306.68 15.74 307.62
  Q 14.61 308.03 13.29 308.20
  Q 11.74 308.40 11.05 309.45"
/>
<path stroke="#306982" vector-effect="non-scaling-stroke" d="
  M 9.48 308.94
  L 1.94 306.58"
/>
<path stroke="#306982" vector-effect="non-scaling-stroke" d="
  M 1.15 284.09
  Q 3.08 284.30 3.38 282.90"
/>
<path stroke="#306982" vector-effect="non-scaling-stroke" d="
  M 332.31 295.89
  Q 332.80 294.12 332.48 292.47"
/>
</g>
<path fill="#5a8ea6" fill-opacity="0.996" d="
  M 345.77 4.65
  Q 342.62 4.29 338.90 5.67
  Q 342.13 3.93 345.42 4.11
  Q 345.65 4.13 345.73 4.34
  Q 345.79 4.51 345.77 4.65
  Z"
/>
<path fill="#06445e" d="
  M 345.77 4.65
  Q 345.84 5.33 346.00 5.51
  L 346.00 21.52
  Q 345.79 24.05 342.56 22.91
  L 336.56 20.00
  Q 331.18 11.28 338.90 5.67
  Q 342.62 4.29 345.77 4.65
  Z"
/>
<path fill="#5a8ea6" fill-opacity="0.996" d="
  M 110.04 9.27
  Q 108.53 8.23 107.13 7.65
  Q 105.47 6.96 104.07 7.60
  Q 100.87 9.06 101.48 12.18
  Q 102.33 16.54 106.98 15.99
  Q 109.77 15.67 110.65 11.15
  A 4.90 4.89 87.4 0 1 105.71 16.58
  A 4.92 4.90 -13.6 0 1 101.47 14.00
  A 4.90 4.90 0.0 0 1 102.53 8.03
  A 4.90 4.89 -35.6 0 1 110.04 9.27
  Z"
/>
<path fill="#5a8ea6" fill-opacity="0.996" d="
  M 63.47 15.55
  Q 66.37 7.37 57.60 7.82
  A 4.95 4.94 -11.7 0 1 64.71 12.48
  A 5.01 4.98 -23.1 0 1 63.47 15.55
  Z"
/>
<path fill="#06445e" d="
  M 110.04 9.27
  A 4.92 4.85 27.5 0 1 110.65 11.15
  Q 109.77 15.67 106.98 15.99
  Q 102.33 16.54 101.48 12.18
  Q 100.87 9.06 104.07 7.60
  Q 105.47 6.96 107.13 7.65
  Q 108.53 8.23 110.04 9.27
  Z"
/>
<path fill="#06445e" d="
  M 293.43 14.09
  Q 290.35 11.60 292.72 7.93
  A 3.43 3.43 0.0 0 1 297.76 11.99
  A 3.43 3.43 0.0 0 1 293.43 14.09
  Z"
/>
<path fill="#06445e" d="
  M 63.47 15.55
  A 4.99 4.96 26.7 0 1 58.74 17.10
  Q 56.35 15.67 54.91 13.13
  A 4.94 4.94 0.0 0 1 57.60 7.82
  Q 66.37 7.37 63.47 15.55
  Z"
/>
<circle fill="#06445e" cx="248.53" cy="11.48" r="3.42"/>
<path fill="#5a8ea6" fill-opacity="0.996" d="
  M 292.72 7.93
  Q 290.35 11.60 293.43 14.09
  A 3.42 3.42 0.0 0 1 291.20 10.04
  A 3.45 3.38 -9.8 0 1 292.72 7.93
  Z"
/>
<ellipse fill="#06445e" cx="0.00" cy="0.00" transform="translate(200.80,14.03) rotate(89.4)" rx="5.02" ry="4.76"/>
<path fill="#06445e" d="
  M 153.78 19.10
  Q 147.85 15.07 153.23 10.11
  A 4.90 4.73 -5.4 0 1 158.31 10.95
  A 4.91 4.74 -3.4 0 1 159.93 15.06
  A 4.91 4.74 -3.9 0 1 153.78 19.10
  Z"
/>
<path fill="#5a8ea6" fill-opacity="0.996" d="
  M 153.23 10.11
  Q 147.85 15.07 153.78 19.10
  A 4.91 4.74 -3.7 0 1 153.23 10.11
  Z"
/>
<path fill="#5a8ea6" fill-opacity="0.996" d="
  M 9.06 16.11
  Q 12.78 18.85 14.63 16.01
  Q 15.75 14.29 14.74 12.97
  Q 12.41 9.97 8.97 13.25
  A 3.44 3.44 0.0 0 1 14.19 11.82
  A 3.42 3.41 -74.8 0 1 15.57 14.24
  A 3.44 3.44 0.0 0 1 10.73 17.72
  A 3.45 3.40 88.5 0 1 9.06 16.11
  Z"
/>
<path fill="#06445e" d="
  M 9.06 16.11
  A 3.48 3.48 0.0 0 1 8.97 13.25
  Q 12.41 9.97 14.74 12.97
  Q 15.75 14.29 14.63 16.01
  Q 12.78 18.85 9.06 16.11
  Z"
/>
<path fill="#5a8ea6" fill-opacity="0.996" d="
  M 54.91 13.13
  Q 56.35 15.67 58.74 17.10
  A 4.95 4.94 1.1 0 1 54.91 13.13
  Z"
/>
<path fill="#5a8ea6" fill-opacity="0.996" d="
  M 336.56 20.00
  L 342.56 22.91
  Q 338.84 22.99 336.56 20.00
  Z"
/>
<path fill="#5a8ea6" fill-opacity="0.996" d="
  M 329.59 40.36
  Q 328.78 40.16 329.08 39.50
  C 330.07 37.25 329.74 35.71 328.98 33.37
  Q 327.95 30.22 324.71 28.79
  Q 322.36 27.77 319.54 27.49
  A 9.55 9.53 62.7 0 1 327.10 29.91
  A 9.56 9.54 -58.5 0 1 329.59 40.36
  Z"
/>
<path fill="#06445e" d="
  M 319.54 27.49
  Q 322.36 27.77 324.71 28.79
  Q 327.95 30.22 328.98 33.37
  C 329.74 35.71 330.07 37.25 329.08 39.50
  Q 328.78 40.16 329.59 40.36
  A 9.68 9.61 -15.7 0 1 328.21 42.80
  Q 313.61 51.99 311.34 35.06
  A 9.54 9.51 77.3 0 1 314.94 29.35
  Q 316.82 29.06 318.44 27.69
  A 8.06 5.78 -22.1 0 1 319.54 27.49
  Z"
/>
<path fill="#5a8ea6" fill-opacity="0.996" d="
  M 318.44 27.69
  Q 316.82 29.06 314.94 29.35
  A 9.47 9.36 -70.0 0 1 318.44 27.69
  Z"
/>
<path fill="#06445e" d="
  M 83.73 30.45
  Q 89.11 33.62 85.69 37.93
  C 83.52 40.65 80.43 39.57 78.62 37.29
  Q 77.67 36.08 77.96 34.48
  Q 78.20 33.14 79.03 31.57
  A 5.12 4.70 0.3 0 1 83.73 30.45
  Z"
/>
<path fill="#5a8ea6" fill-opacity="0.996" d="
  M 83.73 30.45
  A 5.15 4.71 0.1 0 1 87.65 34.77
  A 5.13 4.72 1.0 0 1 86.00 38.49
  A 5.13 4.70 -0.0 0 1 79.05 38.50
  A 5.14 4.71 0.4 0 1 79.03 31.57
  Q 78.20 33.14 77.96 34.48
  Q 77.67 36.08 78.62 37.29
  C 80.43 39.57 83.52 40.65 85.69 37.93
  Q 89.11 33.62 83.73 30.45
  Z"
/>
<path fill="#06445e" d="
  M 272.32 30.83
  Q 275.86 33.67 273.10 37.19
  A 3.49 3.46 -47.0 0 1 269.97 37.31
  A 3.46 3.45 -60.6 0 1 268.55 32.23
  A 3.46 3.45 24.6 0 1 272.32 30.83
  Z"
/>
<path fill="#5a8ea6" fill-opacity="0.996" d="
  M 272.32 30.83
  A 3.45 3.45 0.0 0 1 274.85 34.48
  A 3.46 3.44 77.9 0 1 273.10 37.19
  Q 275.86 33.67 272.32 30.83
  Z"
/>
<rect fill="#06445e" x="-4.54" y="-4.58" transform="translate(223.51,36.52) rotate(-44.2)" width="9.08" height="9.16" rx="3.30"/>
<path fill="#06445e" d="
  M 180.51 41.18
  L 175.45 41.49
  A 5.26 4.74 74.5 0 1 174.76 41.05
  L 172.84 37.44
  A 4.88 4.88 0.0 0 1 175.22 32.98
  A 4.87 4.87 0.0 0 1 181.59 34.20
  A 4.89 4.88 53.8 0 1 180.51 41.18
  Z"
/>
<path fill="#06445e" d="
  M 133.81 42.25
  Q 132.25 42.04 130.90 42.55
  A 4.88 4.85 87.3 0 1 127.22 39.18
  A 4.86 4.86 0.0 0 1 131.50 32.95
  A 4.86 4.86 0.0 0 1 136.65 38.71
  A 4.88 4.86 83.8 0 1 133.81 42.25
  Z"
/>
<path fill="#06445e" d="
  M 38.12 38.38
  Q 36.58 40.37 35.25 40.36
  Q 31.69 40.33 31.55 36.44
  A 3.43 3.43 0.0 0 1 36.11 34.26
  A 3.43 3.42 -71.1 0 1 38.12 38.38
  Z"
/>
<path fill="#5a8ea6" fill-opacity="0.996" d="
  M 311.34 35.06
  Q 313.61 51.99 328.21 42.80
  A 9.53 9.53 0.0 0 1 316.80 45.67
  A 9.53 9.52 -72.2 0 1 311.34 35.06
  Z"
/>
<path fill="#5a8ea6" fill-opacity="0.996" d="
  M 31.55 36.44
  Q 31.69 40.33 35.25 40.36
  Q 36.58 40.37 38.12 38.38
  A 3.45 3.40 83.2 0 1 36.56 40.40
  A 3.43 3.43 0.0 0 1 31.55 36.44
  Z"
/>
<path fill="#5a8ea6" fill-opacity="0.996" d="
  M 172.84 37.44
  L 174.76 41.05
  A 4.89 4.88 -73.1 0 1 172.84 37.44
  Z"
/>
<path fill="#5a8ea6" fill-opacity="0.996" d="
  M 180.51 41.18
  A 4.89 4.88 -48.4 0 1 175.45 41.49
  L 180.51 41.18
  Z"
/>
<path fill="#5a8ea6" fill-opacity="0.996" d="
  M 133.81 42.25
  A 4.87 4.84 -50.7 0 1 130.90 42.55
  Q 132.25 42.04 133.81 42.25
  Z"
/>
<path fill="#5a8ea6" fill-opacity="0.996" d="
  M 345.74 50.70
  Q 340.47 49.78 335.85 53.48
  Q 339.71 49.07 345.38 50.13
  Q 345.60 50.17 345.68 50.30
  Q 345.78 50.46 345.74 50.70
  Z"
/>
<path fill="#06445e" d="
  M 345.74 50.70
  Q 345.83 51.32 346.00 51.56
  L 346.00 67.75
  Q 345.81 67.81 345.68 68.50
  Q 342.37 68.75 338.28 67.66
  Q 330.83 62.02 335.85 53.48
  Q 340.47 49.78 345.74 50.70
  Z"
/>
<path fill="#06445e" d="
  M 306.40 57.76
  Q 305.95 60.18 306.42 62.66
  A 9.50 9.49 89.0 0 1 299.98 69.32
  L 294.51 69.32
  A 9.48 9.47 14.4 0 1 287.97 58.27
  Q 289.22 56.70 289.27 55.10
  A 9.58 9.40 -1.9 0 1 291.70 52.55
  Q 293.63 52.44 294.85 51.06
  A 9.49 9.49 0.0 0 1 306.40 57.76
  Z"
/>
<path fill="#5a8ea6" fill-opacity="0.996" d="
  M 294.85 51.06
  Q 293.63 52.44 291.70 52.55
  A 9.58 9.46 -70.0 0 1 294.85 51.06
  Z"
/>
<circle fill="#06445e" cx="246.02" cy="59.23" r="4.90"/>
<circle fill="#06445e" cx="200.37" cy="59.76" r="4.89"/>
<path fill="#5a8ea6" fill-opacity="0.996" d="
  M 289.27 55.10
  Q 289.22 56.70 287.97 58.27
  A 9.62 9.51 -23.0 0 1 289.27 55.10
  Z"
/>
<path fill="#06445e" d="
  M 155.82 55.55
  Q 157.94 57.12 159.28 59.20
  A 4.88 4.87 -7.6 0 1 154.75 65.12
  A 4.88 4.88 0.0 0 1 149.96 58.49
  Q 151.51 57.53 152.39 55.86
  A 4.84 4.81 -50.0 0 1 155.82 55.55
  Z"
/>
<path fill="#5a8ea6" fill-opacity="0.996" d="
  M 155.82 55.55
  A 4.87 4.87 0.0 0 1 159.28 59.20
  Q 157.94 57.12 155.82 55.55
  Z"
/>
<path fill="#5a8ea6" fill-opacity="0.996" d="
  M 113.6194 60.9497
  A 5.11 4.74 -0.9 0 1 108.5845 65.7694
  A 5.11 4.74 -0.9 0 1 103.4006 61.1103
  A 5.11 4.74 -0.9 0 1 108.4355 56.2906
  A 5.11 4.74 -0.9 0 1 113.6194 60.9497
  Z
  M 112.98 61.07
  A 4.44 4.44 0.0 0 0 108.54 56.63
  A 4.44 4.44 0.0 0 0 104.10 61.07
  A 4.44 4.44 0.0 0 0 108.54 65.51
  A 4.44 4.44 0.0 0 0 112.98 61.07
  Z"
/>
<path fill="#5a8ea6" fill-opacity="0.996" d="
  M 152.39 55.86
  Q 151.51 57.53 149.96 58.49
  A 4.90 4.85 88.0 0 1 152.39 55.86
  Z"
/>
<circle fill="#06445e" cx="57.43" cy="59.86" r="3.46"/>
<circle fill="#06445e" cx="108.54" cy="61.07" r="4.44"/>
<path fill="#5a8ea6" fill-opacity="0.996" d="
  M 14.85 60.52
  A 3.36 3.36 0.0 0 1 11.49 63.88
  A 3.36 3.36 0.0 0 1 8.13 60.52
  A 3.36 3.36 0.0 0 1 11.49 57.16
  A 3.36 3.36 0.0 0 1 14.85 60.52
  Z
  M 8.71 61.00
  A 2.02 2.02 0.0 0 0 10.28 63.09
  L 11.59 63.38
  A 2.02 2.02 0.0 0 0 14.01 61.82
  L 14.33 60.27
  A 2.02 2.02 0.0 0 0 12.52 57.85
  L 10.98 57.72
  A 2.02 2.02 0.0 0 0 8.79 59.61
  L 8.71 61.00
  Z"
/>
<path fill="#06445e" d="
  M 8.71 61.00
  L 8.79 59.61
  A 2.02 2.02 0.0 0 1 10.98 57.72
  L 12.52 57.85
  A 2.02 2.02 0.0 0 1 14.33 60.27
  L 14.01 61.82
  A 2.02 2.02 0.0 0 1 11.59 63.38
  L 10.28 63.09
  A 2.02 2.02 0.0 0 1 8.71 61.00
  Z"
/>
<path fill="#5a8ea6" fill-opacity="0.996" d="
  M 306.40 57.76
  A 9.57 9.53 44.9 0 1 306.42 62.66
  Q 305.95 60.18 306.40 57.76
  Z"
/>
<path fill="#5a8ea6" fill-opacity="0.996" d="
  M 345.68 68.50
  Q 345.74 68.63 345.65 68.75
  Q 345.59 68.83 345.46 68.86
  Q 341.89 69.67 338.28 67.66
  Q 342.37 68.75 345.68 68.50
  Z"
/>
<path fill="#5a8ea6" fill-opacity="0.996" d="
  M 294.51 69.32
  L 299.98 69.32
  A 9.45 9.39 44.8 0 1 294.51 69.32
  Z"
/>
<path fill="#5a8ea6" fill-opacity="0.996" d="
  M 322.86 73.66
  L 317.29 73.61
  A 9.50 9.48 45.4 0 1 322.86 73.66
  Z"
/>
<path fill="#06445e" d="
  M 317.29 73.61
  L 322.86 73.66
  A 9.51 9.50 87.1 0 1 328.75 78.99
  L 329.28 84.81
  A 9.50 9.50 0.0 0 1 319.50 92.23
  A 9.52 9.51 -8.0 0 1 311.01 85.84
  Q 310.44 82.73 310.97 79.76
  A 9.51 9.45 74.9 0 1 312.88 76.42
  Q 315.18 75.54 316.58 73.85
  A 5.31 2.20 -17.0 0 1 317.29 73.61
  Z"
/>
<path fill="#5a8ea6" fill-opacity="0.996" d="
  M 316.58 73.85
  Q 315.18 75.54 312.88 76.42
  A 9.63 9.62 10.2 0 1 316.58 73.85
  Z"
/>
<path fill="#06445e" d="
  M 281.23 82.22
  L 281.41 87.67
  A 9.49 9.47 0.4 0 1 274.54 94.44
  Q 266.62 94.96 263.10 87.75
  A 9.51 9.45 -47.0 0 1 262.96 83.33
  Q 264.42 81.47 264.77 79.41
  A 9.58 9.57 -88.9 0 1 266.69 77.56
  Q 268.73 77.35 270.03 76.02
  A 9.48 9.48 0.0 0 1 281.23 82.22
  Z"
/>
<path fill="#5a8ea6" fill-opacity="0.996" d="
  M 270.03 76.02
  Q 268.73 77.35 266.69 77.56
  A 9.53 9.48 -69.6 0 1 270.03 76.02
  Z"
/>
<path fill="#06445e" d="
  M 227.59 80.92
  Q 227.44 82.90 226.81 84.41
  C 225.50 87.51 221.97 87.49 219.70 85.48
  C 218.12 84.08 219.32 82.68 218.35 81.19
  A 4.86 4.83 -4.9 0 1 221.00 78.06
  A 4.84 4.83 -21.5 0 1 227.59 80.92
  Z"
/>
<circle fill="#06445e" cx="177.24" cy="83.00" r="4.86"/>
<path fill="#06445e" d="
  M 136.04 84.36
  Q 134.60 86.98 132.53 87.80
  Q 130.40 88.64 128.39 86.86
  Q 124.44 83.35 130.01 78.65
  A 4.98 4.98 0.0 0 1 136.04 84.36
  Z"
/>
<path fill="#5a8ea6" fill-opacity="0.996" d="
  M 130.01 78.65
  Q 124.44 83.35 128.39 86.86
  Q 130.40 88.64 132.53 87.80
  Q 134.60 86.98 136.04 84.36
  A 4.98 4.98 0.0 0 1 131.21 88.47
  A 4.97 4.96 88.0 0 1 126.17 83.76
  A 4.98 4.98 0.0 0 1 130.01 78.65
  Z"
/>
<path fill="#5a8ea6" fill-opacity="0.996" d="
  M 328.75 78.99
  A 9.57 9.52 -50.4 0 1 329.28 84.81
  L 328.75 78.99
  Z"
/>
<path fill="#5a8ea6" fill-opacity="0.996" d="
  M 89.94 86.03
  A 6.44 6.44 0.0 0 1 83.50 92.47
  A 6.44 6.44 0.0 0 1 77.06 86.03
  A 6.44 6.44 0.0 0 1 83.50 79.59
  A 6.44 6.44 0.0 0 1 89.94 86.03
  Z
  M 82.6593 92.1754
  A 6.17 5.96 98.3 0 0 89.4476 86.9304
  A 6.17 5.96 98.3 0 0 84.4407 79.9646
  A 6.17 5.96 98.3 0 0 77.6524 85.2096
  A 6.17 5.96 98.3 0 0 82.6593 92.1754
  Z"
/>
<path fill="#5a8ea6" fill-opacity="0.996" d="
  M 264.77 79.41
  Q 264.42 81.47 262.96 83.33
  A 9.55 9.55 0.0 0 1 264.77 79.41
  Z"
/>
<ellipse fill="#06445e" cx="0.00" cy="0.00" transform="translate(83.55,86.07) rotate(98.3)" rx="6.17" ry="5.96"/>
<path fill="#5a8ea6" fill-opacity="0.996" d="
  M 310.97 79.76
  Q 310.44 82.73 311.01 85.84
  A 9.49 9.46 -45.5 0 1 310.97 79.76
  Z"
/>
<ellipse fill="#06445e" cx="0.00" cy="0.00" transform="translate(34.23,83.21) rotate(44.0)" rx="3.46" ry="3.26"/>
<path fill="#5a8ea6" fill-opacity="0.996" d="
  M 227.59 80.92
  A 4.83 4.83 0.0 0 1 225.72 86.46
  A 4.83 4.82 44.9 0 1 220.33 86.47
  A 4.83 4.83 0.0 0 1 218.35 81.19
  C 219.32 82.68 218.12 84.08 219.70 85.48
  C 221.97 87.49 225.50 87.51 226.81 84.41
  Q 227.44 82.90 227.59 80.92
  Z"
/>
<path fill="#5a8ea6" fill-opacity="0.996" d="
  M 281.23 82.22
  A 9.47 9.45 43.2 0 1 281.41 87.67
  L 281.23 82.22
  Z"
/>
<path fill="#5a8ea6" fill-opacity="0.996" d="
  M 263.10 87.75
  Q 266.62 94.96 274.54 94.44
  A 9.48 9.48 0.0 0 1 263.10 87.75
  Z"
/>
<path fill="#5a8ea6" fill-opacity="0.996" d="
  M 345.68 96.84
  Q 339.47 95.28 335.07 99.94
  Q 338.80 94.75 345.47 96.23
  Q 345.76 96.29 345.74 96.59
  Q 345.73 96.71 345.68 96.84
  Z"
/>
<path fill="#06445e" d="
  M 345.68 96.84
  L 346.00 97.26
  L 346.00 114.12
  Q 345.80 114.09 345.80 114.22
  C 337.36 115.91 331.25 109.65 334.12 101.45
  Q 333.94 100.73 335.07 99.94
  Q 339.47 95.28 345.68 96.84
  Z"
/>
<path fill="#06445e" d="
  M 299.62 116.15
  Q 295.33 118.00 290.86 116.69
  A 9.50 9.49 6.0 0 1 285.42 109.97
  A 9.51 9.50 61.6 0 1 288.01 101.25
  A 9.49 9.48 16.2 0 1 292.62 98.72
  A 9.51 9.45 45.2 0 1 296.98 98.75
  A 9.52 9.52 0.0 0 1 304.19 106.97
  A 9.52 9.52 0.0 0 1 299.62 116.15
  Z"
/>
<path fill="#5a8ea6" fill-opacity="0.996" d="
  M 244.80 117.00
  Q 256.64 119.39 258.08 109.18
  C 258.21 108.26 257.83 107.47 257.86 106.54
  Q 257.90 105.54 257.39 104.59
  Q 254.07 98.37 245.58 99.64
  A 9.58 9.56 -41.7 0 1 253.68 100.09
  A 9.57 9.56 -75.7 0 1 258.70 108.54
  A 9.55 9.55 0.0 0 1 244.80 117.00
  Z"
/>
<path fill="#06445e" d="
  M 245.58 99.64
  Q 254.07 98.37 257.39 104.59
  Q 257.90 105.54 257.86 106.54
  C 257.83 107.47 258.21 108.26 258.08 109.18
  Q 256.64 119.39 244.80 117.00
  A 9.54 9.49 84.0 0 1 241.70 114.47
  Q 240.79 112.09 239.90 109.74
  C 239.25 108.02 240.82 105.54 240.90 103.69
  A 9.57 9.52 -85.7 0 1 245.58 99.64
  Z"
/>
<circle fill="#06445e" cx="199.73" cy="105.66" r="4.89"/>
<path fill="#5a8ea6" fill-opacity="0.996" d="
  M 157.69 109.28
  Q 159.78 100.31 151.07 102.14
  A 4.94 4.94 0.0 0 1 158.71 106.02
  A 4.88 4.87 -27.7 0 1 157.69 109.28
  Z"
/>
<path fill="#5a8ea6" fill-opacity="0.996" d="
  M 334.12 101.45
  C 331.25 109.65 337.36 115.91 345.80 114.22
  Q 345.94 114.70 345.58 114.80
  C 338.04 116.93 331.10 109.97 333.33 102.37
  Q 333.51 101.72 334.12 101.45
  Z"
/>
<path fill="#06445e" d="
  M 157.69 109.28
  A 4.94 4.93 -49.5 0 1 150.39 109.86
  A 4.94 4.94 0.0 0 1 151.07 102.14
  Q 159.78 100.31 157.69 109.28
  Z"
/>
<path fill="#5a8ea6" fill-opacity="0.996" d="
  M 111.44 112.22
  L 112.10 107.58
  Q 112.17 107.08 111.85 106.70
  C 110.96 105.62 110.48 104.36 109.21 103.64
  Q 104.86 101.18 101.70 104.51
  Q 98.23 108.17 100.94 111.99
  Q 102.17 113.73 104.95 115.08
  A 6.52 6.52 0.0 0 1 99.58 109.84
  A 6.52 6.52 0.0 0 1 103.57 102.58
  A 6.55 6.54 40.9 0 1 107.50 102.30
  A 6.52 6.51 -66.7 0 1 111.44 112.22
  Z"
/>
<path fill="#06445e" d="
  M 111.44 112.22
  A 6.52 6.50 -68.7 0 1 104.95 115.08
  Q 102.17 113.73 100.94 111.99
  Q 98.23 108.17 101.70 104.51
  Q 104.86 101.18 109.21 103.64
  C 110.48 104.36 110.96 105.62 111.85 106.70
  Q 112.17 107.08 112.10 107.58
  L 111.44 112.22
  Z"
/>
<rect fill="#06445e" x="-3.08" y="-3.36" transform="translate(10.95,106.35) rotate(2.1)" width="6.16" height="6.72" rx="2.69"/>
<path fill="#06445e" d="
  M 60.76 102.90
  Q 64.51 103.95 65.97 107.05
  Q 66.43 108.02 66.17 109.00
  Q 65.92 109.93 66.61 110.26
  A 6.48 6.28 -52.9 0 1 60.84 115.68
  Q 53.10 114.82 54.79 106.40
  A 6.46 6.27 -53.1 0 1 60.76 102.90
  Z"
/>
<path fill="#5a8ea6" fill-opacity="0.996" d="
  M 60.76 102.90
  A 6.48 6.28 -54.9 0 1 66.61 110.26
  Q 65.92 109.93 66.17 109.00
  Q 66.43 108.02 65.97 107.05
  Q 64.51 103.95 60.76 102.90
  Z"
/>
<path fill="#5a8ea6" fill-opacity="0.996" d="
  M 240.90 103.69
  C 240.82 105.54 239.25 108.02 239.90 109.74
  Q 240.79 112.09 241.70 114.47
  A 9.56 9.54 -49.3 0 1 240.90 103.69
  Z"
/>
<path fill="#5a8ea6" fill-opacity="0.996" d="
  M 54.79 106.40
  Q 53.10 114.82 60.84 115.68
  A 6.48 6.28 -54.9 0 1 54.65 112.28
  A 6.49 6.28 -54.0 0 1 54.79 106.40
  Z"
/>
<path fill="#5a8ea6" fill-opacity="0.996" d="
  M 299.62 116.15
  A 9.51 9.50 -48.5 0 1 290.86 116.69
  Q 295.33 118.00 299.62 116.15
  Z"
/>
<path fill="#5a8ea6" fill-opacity="0.996" d="
  M 309.84 124.85
  Q 307.29 129.82 309.23 134.11
  C 311.13 138.30 315.70 140.52 320.05 139.24
  C 324.76 137.86 327.57 132.71 326.17 127.93
  C 324.72 122.94 319.70 120.28 314.69 121.83
  Q 313.68 122.14 312.25 123.25
  Q 311.11 124.14 309.84 124.85
  A 9.53 9.52 -60.3 0 1 321.22 121.73
  A 9.56 9.52 -88.6 0 1 326.47 127.27
  A 9.54 9.52 -35.6 0 1 324.94 136.46
  A 9.53 9.52 50.0 0 1 309.14 135.07
  A 9.53 9.52 -41.1 0 1 309.84 124.85
  Z"
/>
<path fill="#06445e" d="
  M 309.84 124.85
  Q 311.11 124.14 312.25 123.25
  Q 313.68 122.14 314.69 121.83
  C 319.70 120.28 324.72 122.94 326.17 127.93
  C 327.57 132.71 324.76 137.86 320.05 139.24
  C 315.70 140.52 311.13 138.30 309.23 134.11
  Q 307.29 129.82 309.84 124.85
  Z"
/>
<path fill="#06445e" d="
  M 274.13 122.07
  L 279.08 125.00
  Q 281.97 128.25 280.89 132.26
  Q 279.05 139.99 270.91 140.49
  Q 266.68 140.26 264.16 136.73
  Q 260.86 130.44 264.97 124.42
  Q 268.94 120.92 274.13 122.07
  Z"
/>
<path fill="#5a8ea6" fill-opacity="0.996" d="
  M 274.13 122.07
  Q 277.58 122.48 279.08 125.00
  L 274.13 122.07
  Z"
/>
<path fill="#06445e" d="
  M 235.20 133.72
  Q 234.17 135.35 233.22 136.88
  Q 232.06 138.74 230.69 139.52
  Q 225.33 142.59 218.87 138.25
  A 9.56 9.55 -72.7 0 1 216.55 133.82
  Q 216.94 131.62 216.61 129.45
  A 9.62 9.58 -11.0 0 1 220.29 124.02
  A 9.56 9.54 40.7 0 1 230.23 123.28
  A 9.54 9.52 19.6 0 1 235.20 133.72
  Z"
/>
<path fill="#06445e" d="
  M 181.36 127.74
  Q 181.01 131.75 178.42 132.94
  Q 174.18 134.89 171.52 129.09
  A 5.00 4.99 -2.7 0 1 176.26 123.88
  A 4.99 4.99 0.0 0 1 181.36 127.74
  Z"
/>
<path fill="#5a8ea6" fill-opacity="0.996" d="
  M 264.97 124.42
  Q 260.86 130.44 264.16 136.73
  Q 259.69 130.23 264.97 124.42
  Z"
/>
<path fill="#06445e" d="
  M 129.73 124.86
  Q 133.11 126.45 135.05 129.78
  A 6.46 6.46 0.0 0 1 129.83 137.62
  Q 128.29 136.92 126.87 137.42
  A 6.46 6.46 0.0 0 1 122.64 133.31
  Q 123.00 131.72 122.43 129.95
  A 6.47 6.47 0.0 0 1 129.73 124.86
  Z"
/>
<path fill="#5a8ea6" fill-opacity="0.996" d="
  M 129.73 124.86
  A 6.47 6.44 87.6 0 1 135.05 129.78
  Q 133.11 126.45 129.73 124.86
  Z"
/>
<circle fill="#06445e" cx="82.98" cy="131.97" r="6.32"/>
<path fill="#06445e" d="
  M 36.34 126.29
  Q 47.03 128.51 40.73 137.80
  A 6.34 6.30 -69.6 0 1 38.80 138.69
  Q 36.85 138.25 34.78 138.46
  A 6.34 6.33 -81.0 0 1 30.82 133.01
  A 6.34 6.33 84.4 0 1 36.34 126.29
  Z"
/>
<path fill="#5a8ea6" fill-opacity="0.996" d="
  M 36.34 126.29
  A 6.35 6.34 1.2 0 1 43.39 133.62
  A 6.38 6.38 0.0 0 1 40.73 137.80
  Q 47.03 128.51 36.34 126.29
  Z"
/>
<path fill="#5a8ea6" fill-opacity="0.996" d="
  M 181.36 127.74
  A 4.99 4.98 -8.0 0 1 176.76 133.84
  A 5.00 4.99 87.1 0 1 171.52 129.09
  Q 174.18 134.89 178.42 132.94
  Q 181.01 131.75 181.36 127.74
  Z"
/>
<path fill="#5a8ea6" fill-opacity="0.996" d="
  M 216.61 129.45
  Q 216.94 131.62 216.55 133.82
  A 9.63 9.60 -44.3 0 1 216.61 129.45
  Z"
/>
<path fill="#5a8ea6" fill-opacity="0.996" d="
  M 122.43 129.95
  Q 123.00 131.72 122.64 133.31
  A 6.45 6.43 -48.7 0 1 122.43 129.95
  Z"
/>
<path fill="#5a8ea6" fill-opacity="0.996" d="
  M 280.89 132.26
  Q 281.08 135.98 278.36 138.12
  Q 274.91 140.83 270.91 140.49
  Q 279.05 139.99 280.89 132.26
  Z"
/>
<path fill="#5a8ea6" fill-opacity="0.996" d="
  M 235.20 133.72
  A 9.59 9.57 70.6 0 1 233.24 137.82
  A 9.55 9.54 -46.7 0 1 218.87 138.25
  Q 225.33 142.59 230.69 139.52
  Q 232.06 138.74 233.22 136.88
  Q 234.17 135.35 235.20 133.72
  Z"
/>
<path fill="#5a8ea6" fill-opacity="0.996" d="
  M 129.83 137.62
  A 6.48 6.42 48.6 0 1 126.87 137.42
  Q 128.29 136.92 129.83 137.62
  Z"
/>
<path fill="#5a8ea6" fill-opacity="0.996" d="
  M 38.80 138.69
  A 6.33 6.32 -41.7 0 1 34.78 138.46
  Q 36.85 138.25 38.80 138.69
  Z"
/>
<path fill="#06445e" d="
  M 346.00 147.31
  L 346.00 159.30
  Q 345.70 159.86 345.53 160.93
  Q 344.34 161.40 343.17 161.88
  Q 341.89 162.41 340.74 162.37
  Q 331.24 162.04 330.53 151.53
  Q 331.95 146.85 335.43 145.03
  Q 337.21 145.11 338.27 144.08
  C 341.26 143.43 345.19 143.78 346.00 147.31
  Z"
/>
<path fill="#5a8ea6" fill-opacity="0.996" d="
  M 296.14 144.34
  Q 294.01 145.09 292.39 144.39
  A 9.56 9.56 0.0 0 1 296.14 144.34
  Z"
/>
<path fill="#5a8ea6" fill-opacity="0.996" d="
  M 338.27 144.08
  Q 337.21 145.11 335.43 145.03
  Q 336.67 144.11 338.27 144.08
  Z"
/>
<path fill="#06445e" d="
  M 292.39 144.39
  Q 294.01 145.09 296.14 144.34
  A 9.52 9.49 71.5 0 1 300.80 146.67
  Q 304.31 151.31 303.09 156.10
  Q 301.95 160.55 297.91 162.10
  Q 293.97 163.62 289.02 161.58
  A 9.57 9.56 -81.7 0 1 285.29 156.57
  Q 284.33 151.29 288.06 146.58
  A 9.53 9.45 -71.6 0 1 292.39 144.39
  Z"
/>
<path fill="#5a8ea6" fill-opacity="0.996" d="
  M 254.08 162.15
  Q 258.57 156.85 256.99 151.27
  Q 256.05 147.95 253.04 146.44
  Q 247.96 143.88 243.11 146.91
  Q 240.80 148.35 239.98 151.15
  C 238.16 157.40 242.00 163.93 249.00 163.37
  Q 250.37 163.26 251.12 163.58
  A 9.61 9.57 43.2 0 1 246.36 163.72
  A 9.58 9.57 15.1 0 1 239.34 151.53
  A 9.57 9.57 0.0 0 1 248.49 144.81
  A 9.52 9.52 0.0 0 1 252.53 145.71
  A 9.58 9.58 0.0 0 1 254.08 162.15
  Z"
/>
<path fill="#5a8ea6" fill-opacity="0.996" d="
  M 206.91 146.59
  Q 203.86 145.63 200.41 145.74
  A 9.51 9.48 -37.5 0 1 206.91 146.59
  Z"
/>
<path fill="#06445e" d="
  M 254.08 162.15
  A 9.68 9.48 18.6 0 1 251.12 163.58
  Q 250.37 163.26 249.00 163.37
  C 242.00 163.93 238.16 157.40 239.98 151.15
  Q 240.80 148.35 243.11 146.91
  Q 247.96 143.88 253.04 146.44
  Q 256.05 147.95 256.99 151.27
  Q 258.57 156.85 254.08 162.15
  Z"
/>
<path fill="#06445e" d="
  M 200.41 145.74
  Q 203.86 145.63 206.91 146.59
  A 9.51 9.51 0.0 0 1 210.97 150.68
  Q 212.39 155.18 210.67 159.89
  A 9.50 9.49 -89.7 0 1 207.32 163.21
  Q 201.95 165.53 196.82 162.63
  A 9.59 9.54 4.9 0 1 194.08 159.39
  Q 192.83 155.26 193.85 151.11
  A 9.50 9.50 0.0 0 1 200.41 145.74
  Z"
/>
<path fill="#5a8ea6" fill-opacity="0.996" d="
  M 288.06 146.58
  Q 284.33 151.29 285.29 156.57
  A 9.54 9.53 -29.5 0 1 288.06 146.58
  Z"
/>
<path fill="#5a8ea6" fill-opacity="0.996" d="
  M 300.80 146.67
  A 9.52 9.52 0.0 0 1 303.12 157.51
  A 9.53 9.53 0.0 0 1 289.02 161.58
  Q 293.97 163.62 297.91 162.10
  Q 301.95 160.55 303.09 156.10
  Q 304.31 151.31 300.80 146.67
  Z"
/>
<path fill="#5a8ea6" fill-opacity="0.996" d="
  M 148.33 159.79
  Q 152.59 161.19 155.27 158.52
  Q 158.24 155.54 157.09 152.13
  Q 155.47 147.34 149.52 147.76
  A 6.52 6.52 0.0 0 1 157.89 154.01
  A 6.53 6.52 0.4 0 1 151.25 160.54
  A 6.56 6.54 -30.5 0 1 148.33 159.79
  Z"
/>
<path fill="#06445e" d="
  M 149.52 147.76
  Q 155.47 147.34 157.09 152.13
  Q 158.24 155.54 155.27 158.52
  Q 152.59 161.19 148.33 159.79
  A 6.53 6.52 -64.1 0 1 145.41 151.34
  A 6.51 6.50 -86.0 0 1 149.52 147.76
  Z"
/>
<path fill="#5a8ea6" fill-opacity="0.996" d="
  M 111.64 156.43
  Q 111.92 151.77 109.30 149.78
  C 106.37 147.56 101.55 148.55 100.10 152.13
  Q 98.40 156.32 102.29 160.07
  A 6.41 6.41 0.0 0 1 99.74 151.74
  A 6.44 6.41 -1.8 0 1 102.39 148.93
  A 6.42 6.41 54.2 0 1 110.26 150.22
  A 6.42 6.42 0.0 0 1 111.64 156.43
  Z"
/>
<path fill="#06445e" d="
  M 66.02 154.39
  L 64.01 160.02
  A 6.51 6.32 31.1 0 1 59.20 161.53
  Q 50.64 158.07 55.76 150.14
  A 6.45 6.28 31.8 0 1 66.02 154.39
  Z"
/>
<path fill="#06445e" d="
  M 111.64 156.43
  A 6.43 6.43 0.0 0 1 107.10 160.74
  A 6.42 6.40 52.9 0 1 102.29 160.07
  Q 98.40 156.32 100.10 152.13
  C 101.55 148.55 106.37 147.56 109.30 149.78
  Q 111.92 151.77 111.64 156.43
  Z"
/>
<path fill="#06445e" d="
  M 20.05 157.15
  Q 18.41 160.60 14.98 162.10
  A 6.48 6.48 0.0 0 1 7.40 157.07
  Q 8.04 155.08 7.86 153.04
  A 6.48 6.46 11.2 0 1 13.50 149.28
  A 6.48 6.48 0.0 0 1 20.21 155.74
  A 6.48 6.16 -40.0 0 1 20.05 157.15
  Z"
/>
<path fill="#5a8ea6" fill-opacity="0.996" d="
  M 55.76 150.14
  Q 50.64 158.07 59.20 161.53
  A 6.46 6.29 31.6 0 1 55.76 150.14
  Z"
/>
<path fill="#5a8ea6" fill-opacity="0.996" d="
  M 210.97 150.68
  A 9.51 9.51 0.0 0 1 210.67 159.89
  Q 212.39 155.18 210.97 150.68
  Z"
/>
<path fill="#5a8ea6" fill-opacity="0.996" d="
  M 193.85 151.11
  Q 192.83 155.26 194.08 159.39
  A 9.51 9.49 -46.7 0 1 193.85 151.11
  Z"
/>
<path fill="#5a8ea6" fill-opacity="0.996" d="
  M 330.53 151.53
  Q 331.24 162.04 340.74 162.37
  Q 341.89 162.41 343.17 161.88
  Q 344.34 161.40 345.53 160.93
  Q 339.80 165.03 334.59 161.16
  Q 329.36 157.29 330.53 151.53
  Z"
/>
<path fill="#5a8ea6" fill-opacity="0.996" d="
  M 7.86 153.04
  Q 8.04 155.08 7.40 157.07
  A 6.52 6.51 -38.5 0 1 7.86 153.04
  Z"
/>
<path fill="#5a8ea6" fill-opacity="0.996" d="
  M 66.02 154.39
  A 6.45 6.28 32.0 0 1 64.01 160.02
  L 66.02 154.39
  Z"
/>
<path fill="#5a8ea6" fill-opacity="0.996" d="
  M 20.05 157.15
  A 6.48 6.46 0.6 0 1 14.98 162.10
  Q 18.41 160.60 20.05 157.15
  Z"
/>
<path fill="#5a8ea6" fill-opacity="0.996" d="
  M 196.82 162.63
  Q 201.95 165.53 207.32 163.21
  A 9.52 9.51 48.1 0 1 196.82 162.63
  Z"
/>
<path fill="#06445e" d="
  M 322.42 168.55
  Q 324.99 171.36 326.31 174.47
  A 9.53 9.49 45.6 0 1 326.28 178.40
  Q 325.03 179.92 324.82 181.75
  A 9.54 9.53 -80.5 0 1 319.53 185.53
  L 313.36 185.16
  A 9.52 9.51 30.8 0 1 309.62 170.34
  A 9.51 9.51 0.0 0 1 322.42 168.55
  Z"
/>
<path fill="#5a8ea6" fill-opacity="0.996" d="
  M 272.51 167.59
  Q 271.32 168.13 269.76 167.59
  A 9.67 9.43 44.3 0 1 272.51 167.59
  Z"
/>
<path fill="#06445e" d="
  M 269.76 167.59
  Q 271.32 168.13 272.51 167.59
  A 9.48 9.43 71.3 0 1 277.75 170.20
  Q 278.66 171.61 279.32 173.01
  Q 279.95 174.32 280.03 176.12
  Q 280.11 177.79 280.24 179.57
  A 9.47 9.47 0.0 0 1 273.00 186.26
  A 9.48 9.48 0.0 0 1 262.64 181.20
  A 9.49 9.47 41.7 0 1 262.20 173.76
  Q 263.94 170.66 266.67 169.17
  Q 266.72 169.14 266.83 169.11
  Q 267.17 169.01 267.14 168.37
  A 9.55 9.40 27.9 0 1 269.76 167.59
  Z"
/>
<path fill="#5a8ea6" fill-opacity="0.996" d="
  M 229.34 186.14
  Q 233.74 182.99 234.21 178.27
  Q 234.54 174.86 232.57 172.12
  Q 230.44 169.15 226.76 168.48
  Q 221.07 167.44 216.92 173.06
  A 9.52 9.51 33.1 0 1 231.23 170.06
  A 9.52 9.52 0.0 0 1 233.98 181.47
  A 9.52 9.52 0.0 0 1 229.34 186.14
  Z"
/>
<path fill="#06445e" d="
  M 229.34 186.14
  A 9.53 9.52 49.3 0 1 220.05 185.43
  A 9.51 9.51 0.0 0 1 216.92 173.06
  Q 221.07 167.44 226.76 168.48
  Q 230.44 169.15 232.57 172.12
  Q 234.54 174.86 234.21 178.27
  Q 233.74 182.99 229.34 186.14
  Z"
/>
<path fill="#5a8ea6" fill-opacity="0.996" d="
  M 267.14 168.37
  Q 267.17 169.01 266.83 169.11
  Q 266.72 169.14 266.67 169.17
  Q 263.94 170.66 262.20 173.76
  A 9.46 9.45 -2.5 0 1 267.14 168.37
  Z"
/>
<path fill="#5a8ea6" fill-opacity="0.996" d="
  M 322.42 168.55
  A 9.53 9.52 -78.3 0 1 326.31 174.47
  Q 324.99 171.36 322.42 168.55
  Z"
/>
<path fill="#06445e" d="
  M 182.57 188.09
  Q 176.49 190.76 171.68 186.97
  Q 171.51 186.83 171.42 187.03
  Q 171.38 187.14 171.41 187.29
  A 9.65 9.49 88.5 0 1 169.59 185.20
  Q 167.66 180.88 168.83 176.22
  A 9.53 9.48 88.8 0 1 172.37 171.98
  Q 174.12 172.19 175.37 170.69
  A 9.57 9.46 88.3 0 1 182.38 171.82
  A 9.56 9.43 88.8 0 1 186.96 180.00
  A 9.56 9.46 87.8 0 1 182.57 188.09
  Z"
/>
<path fill="#5a8ea6" fill-opacity="0.996" d="
  M 277.75 170.20
  A 9.46 9.46 0.0 0 1 280.24 179.57
  Q 280.11 177.79 280.03 176.12
  Q 279.95 174.32 279.32 173.01
  Q 278.66 171.61 277.75 170.20
  Z"
/>
<path fill="#06445e" d="
  M 132.15 172.06
  Q 136.84 179.53 130.08 183.23
  A 6.43 6.25 -32.2 0 1 126.73 183.35
  L 124.06 181.57
  Q 123.66 181.30 123.43 180.87
  L 121.93 178.03
  A 6.44 6.30 -29.2 0 1 132.15 172.06
  Z"
/>
<path fill="#5a8ea6" fill-opacity="0.996" d="
  M 175.37 170.69
  Q 174.12 172.19 172.37 171.98
  A 9.64 9.49 -86.0 0 1 175.37 170.69
  Z"
/>
<path fill="#06445e" d="
  M 88.70 177.12
  Q 87.84 181.85 86.02 182.65
  Q 84.34 183.38 82.49 184.07
  A 6.41 6.27 26.4 0 1 76.58 180.30
  L 76.16 176.26
  A 6.36 6.21 17.4 0 1 77.91 173.20
  A 6.40 6.25 27.6 0 1 82.74 171.49
  A 6.41 6.27 28.8 0 1 88.70 177.12
  Z"
/>
<path fill="#5a8ea6" fill-opacity="0.996" d="
  M 39.41 172.89
  L 35.32 172.13
  A 6.45 6.41 55.3 0 1 39.41 172.89
  Z"
/>
<path fill="#06445e" d="
  M 35.32 172.13
  L 39.41 172.89
  A 6.44 6.43 -81.4 0 1 42.55 177.15
  Q 41.73 178.72 42.44 180.27
  A 6.46 6.43 85.6 0 1 38.97 184.34
  Q 34.41 185.35 30.84 182.00
  A 6.41 6.33 -66.2 0 1 29.89 179.51
  A 6.45 6.44 -8.7 0 1 35.32 172.13
  Z"
/>
<path fill="#5a8ea6" fill-opacity="0.996" d="
  M 132.15 172.06
  A 6.46 6.32 -27.8 0 1 134.59 178.27
  A 6.44 6.29 -25.6 0 1 130.08 183.23
  Q 136.84 179.53 132.15 172.06
  Z"
/>
<path fill="#06445e" d="
  M 0.00 172.64
  Q 5.99 180.70 0.00 189.30
  L 0.00 183.27
  Q 0.48 180.59 0.00 177.86
  L 0.00 172.64
  Z"
/>
<path fill="#5a8ea6" fill-opacity="0.996" d="
  M 76.16 176.26
  L 76.58 180.30
  A 6.35 6.22 26.9 0 1 76.16 176.26
  Z"
/>
<path fill="#5a8ea6" fill-opacity="0.996" d="
  M 168.83 176.22
  Q 167.66 180.88 169.59 185.20
  A 9.56 9.45 84.6 0 1 168.83 176.22
  Z"
/>
<path fill="#5a8ea6" fill-opacity="0.996" d="
  M 42.55 177.15
  A 6.39 6.33 -43.3 0 1 42.44 180.27
  Q 41.73 178.72 42.55 177.15
  Z"
/>
<path fill="#5a8ea6" fill-opacity="0.996" d="
  M 88.70 177.12
  A 6.40 6.27 28.3 0 1 82.49 184.07
  Q 84.34 183.38 86.02 182.65
  Q 87.84 181.85 88.70 177.12
  Z"
/>
<path fill="#5a8ea6" fill-opacity="0.996" d="
  M 121.93 178.03
  L 123.43 180.87
  Q 123.66 181.30 124.06 181.57
  L 126.73 183.35
  A 6.44 6.28 -25.2 0 1 121.93 178.03
  Z"
/>
<path fill="#5a8ea6" fill-opacity="0.996" d="
  M 326.28 178.40
  A 9.45 9.43 68.6 0 1 324.82 181.75
  Q 325.03 179.92 326.28 178.40
  Z"
/>
<path fill="#5a8ea6" fill-opacity="0.996" d="
  M 30.84 182.00
  Q 34.41 185.35 38.97 184.34
  A 6.45 6.44 61.0 0 1 30.84 182.00
  Z"
/>
<path fill="#5a8ea6" fill-opacity="0.996" d="
  M 319.53 185.53
  A 9.56 9.54 -41.5 0 1 313.36 185.16
  L 319.53 185.53
  Z"
/>
<path fill="#5a8ea6" fill-opacity="0.996" d="
  M 182.57 188.09
  A 9.56 9.44 84.1 0 1 171.41 187.29
  Q 171.38 187.14 171.42 187.03
  Q 171.51 186.83 171.68 186.97
  Q 176.49 190.76 182.57 188.09
  Z"
/>
<path fill="#5a8ea6" fill-opacity="0.996" d="
  M 21.48 212.75
  Q 26.23 206.78 24.89 200.76
  C 23.66 195.25 18.37 189.87 12.08 189.55
  Q 9.78 189.43 8.26 189.89
  Q 6.43 190.43 1.03 193.79
  Q 11.32 185.31 19.87 192.34
  C 26.63 197.90 28.01 206.21 21.48 212.75
  Z"
/>
<path fill="#06445e" d="
  M 21.48 212.75
  Q 19.88 214.87 17.34 216.09
  Q 11.66 218.15 6.71 215.92
  Q 4.78 215.06 2.61 214.21
  Q 0.75 212.90 0.00 210.66
  L 0.00 196.46
  Q 0.31 194.56 1.03 193.79
  Q 6.43 190.43 8.26 189.89
  Q 9.78 189.43 12.08 189.55
  C 18.37 189.87 23.66 195.25 24.89 200.76
  Q 26.23 206.78 21.48 212.75
  Z"
/>
<path fill="#5a8ea6" fill-opacity="0.996" d="
  M 302.24 203.79
  Q 302.54 202.07 302.72 200.43
  Q 302.92 198.58 302.47 197.10
  Q 300.09 189.31 290.43 190.66
  A 9.53 9.52 68.2 0 1 302.39 195.78
  A 9.53 9.53 0.0 0 1 302.24 203.79
  Z"
/>
<path fill="#06445e" d="
  M 302.24 203.79
  A 9.58 9.54 3.9 0 1 296.62 208.68
  Q 291.45 209.23 286.83 206.25
  A 9.55 9.54 -75.5 0 1 284.54 202.35
  L 284.38 197.50
  A 9.54 9.54 0.0 0 1 290.43 190.66
  Q 300.09 189.31 302.47 197.10
  Q 302.92 198.58 302.72 200.43
  Q 302.54 202.07 302.24 203.79
  Z"
/>
<path fill="#06445e" d="
  M 254.54 193.99
  L 257.03 198.32
  Q 257.70 200.74 256.74 202.66
  L 252.82 208.07
  Q 247.03 212.01 241.67 207.34
  Q 239.00 205.01 238.36 201.87
  Q 238.86 200.24 238.47 198.43
  Q 238.82 196.43 240.05 195.02
  Q 242.54 192.60 245.43 191.21
  Q 251.10 189.41 254.54 193.99
  Z"
/>
<path fill="#5a8ea6" fill-opacity="0.996" d="
  M 245.43 191.21
  Q 242.54 192.60 240.05 195.02
  Q 241.64 191.74 245.43 191.21
  Z"
/>
<path fill="#5a8ea6" fill-opacity="0.996" d="
  M 345.71 193.63
  L 339.49 193.79
  Q 342.23 192.56 345.01 192.93
  Q 345.64 193.01 345.71 193.63
  Z"
/>
<path fill="#5a8ea6" fill-opacity="0.996" d="
  M 202.80 193.64
  L 197.29 193.61
  A 9.50 9.50 0.0 0 1 202.80 193.64
  Z"
/>
<path fill="#06445e" d="
  M 197.29 193.61
  L 202.80 193.64
  A 9.54 9.54 0.0 0 1 208.75 198.99
  L 209.17 205.27
  A 9.53 9.52 7.0 0 1 200.25 212.24
  A 9.51 9.51 0.0 0 1 191.01 205.83
  Q 190.48 202.78 190.97 199.76
  A 9.42 9.39 -15.2 0 1 192.89 196.42
  Q 195.15 195.54 196.54 193.87
  A 5.62 2.21 -17.7 0 1 197.29 193.61
  Z"
/>
<path fill="#06445e" d="
  M 345.71 193.63
  Q 345.74 194.00 346.00 194.12
  L 346.00 209.51
  L 345.69 211.14
  C 342.56 212.15 341.03 210.61 338.43 210.70
  Q 336.67 209.73 335.40 208.03
  Q 334.22 205.37 333.95 202.82
  C 333.78 201.13 334.64 199.45 334.88 197.65
  Q 336.60 194.97 339.49 193.79
  L 345.71 193.63
  Z"
/>
<path fill="#06445e" d="
  M 155.17 193.86
  Q 163.75 196.12 163.21 203.75
  Q 163.07 205.74 163.36 206.42
  A 9.52 9.13 -22.0 0 1 162.65 208.00
  L 159.75 211.17
  A 9.33 9.28 -70.2 0 1 157.02 212.46
  L 151.08 212.26
  A 9.93 9.90 74.0 0 1 148.53 210.84
  Q 144.36 206.15 145.29 200.52
  A 9.52 9.51 -79.0 0 1 155.17 193.86
  Z"
/>
<path fill="#5a8ea6" fill-opacity="0.996" d="
  M 196.54 193.87
  Q 195.15 195.54 192.89 196.42
  A 9.60 9.58 10.0 0 1 196.54 193.87
  Z"
/>
<path fill="#06445e" d="
  M 111.31 201.50
  L 109.17 205.23
  A 6.40 6.24 8.9 0 1 106.32 206.61
  Q 102.10 206.39 100.51 204.50
  Q 99.67 203.49 98.54 200.01
  A 6.43 6.29 4.3 0 1 100.83 195.58
  A 6.44 6.30 9.5 0 1 108.71 195.33
  A 6.43 6.29 6.9 0 1 111.31 201.50
  Z"
/>
<path fill="#5a8ea6" fill-opacity="0.996" d="
  M 155.17 193.86
  A 9.53 9.50 71.0 0 1 161.36 196.89
  A 9.51 9.51 0.0 0 1 163.36 206.42
  Q 163.07 205.74 163.21 203.75
  Q 163.75 196.12 155.17 193.86
  Z"
/>
<path fill="#5a8ea6" fill-opacity="0.996" d="
  M 254.54 193.99
  Q 256.93 195.69 257.03 198.32
  L 254.54 193.99
  Z"
/>
<path fill="#5a8ea6" fill-opacity="0.996" d="
  M 64.55 198.12
  Q 61.63 194.50 57.56 194.66
  Q 61.79 193.62 64.55 198.12
  Z"
/>
<path fill="#06445e" d="
  M 57.56 194.66
  Q 61.63 194.50 64.55 198.12
  Q 64.98 198.39 65.15 199.26
  Q 64.76 200.95 65.27 202.51
  Q 64.25 206.05 60.77 207.14
  L 57.72 207.35
  Q 53.68 206.18 52.72 202.30
  L 52.87 199.29
  Q 53.87 195.96 57.56 194.66
  Z"
/>
<path fill="#5a8ea6" fill-opacity="0.996" d="
  M 284.38 197.50
  L 284.54 202.35
  A 9.54 9.48 -47.1 0 1 284.38 197.50
  Z"
/>
<path fill="#5a8ea6" fill-opacity="0.996" d="
  M 334.88 197.65
  C 334.64 199.45 333.78 201.13 333.95 202.82
  Q 334.22 205.37 335.40 208.03
  Q 331.88 203.28 334.88 197.65
  Z"
/>
<path fill="#5a8ea6" fill-opacity="0.996" d="
  M 238.47 198.43
  Q 238.86 200.24 238.36 201.87
  Q 237.69 199.92 238.47 198.43
  Z"
/>
<path fill="#5a8ea6" fill-opacity="0.996" d="
  M 208.75 198.99
  A 9.54 9.50 41.3 0 1 209.17 205.27
  L 208.75 198.99
  Z"
/>
<path fill="#5a8ea6" fill-opacity="0.996" d="
  M 52.87 199.29
  L 52.72 202.30
  Q 51.72 200.96 52.87 199.29
  Z"
/>
<path fill="#5a8ea6" fill-opacity="0.996" d="
  M 65.15 199.26
  Q 66.31 200.87 65.27 202.51
  Q 64.76 200.95 65.15 199.26
  Z"
/>
<path fill="#5a8ea6" fill-opacity="0.996" d="
  M 190.97 199.76
  Q 190.48 202.78 191.01 205.83
  A 9.54 9.52 44.7 0 1 190.97 199.76
  Z"
/>
<path fill="#5a8ea6" fill-opacity="0.996" d="
  M 98.54 200.01
  Q 99.67 203.49 100.51 204.50
  Q 102.10 206.39 106.32 206.61
  A 6.43 6.31 6.7 0 1 98.54 200.01
  Z"
/>
<path fill="#5a8ea6" fill-opacity="0.996" d="
  M 145.29 200.52
  Q 144.36 206.15 148.53 210.84
  A 9.51 9.51 0.0 0 1 145.29 200.52
  Z"
/>
<path fill="#5a8ea6" fill-opacity="0.996" d="
  M 111.31 201.50
  A 6.48 6.30 -0.0 0 1 109.17 205.23
  L 111.31 201.50
  Z"
/>
<path fill="#5a8ea6" fill-opacity="0.996" d="
  M 256.74 202.66
  Q 256.36 206.27 252.82 208.07
  L 256.74 202.66
  Z"
/>
<path fill="#5a8ea6" fill-opacity="0.996" d="
  M 286.83 206.25
  Q 291.45 209.23 296.62 208.68
  A 9.53 9.52 58.9 0 1 286.83 206.25
  Z"
/>
<path fill="#5a8ea6" fill-opacity="0.996" d="
  M 60.77 207.14
  Q 59.11 208.21 57.72 207.35
  L 60.77 207.14
  Z"
/>
<path fill="#5a8ea6" fill-opacity="0.996" d="
  M 162.65 208.00
  A 9.52 9.47 -2.7 0 1 159.75 211.17
  L 162.65 208.00
  Z"
/>
<path fill="#5a8ea6" fill-opacity="0.996" d="
  M 345.69 211.14
  Q 345.88 211.83 345.45 211.93
  Q 341.95 212.75 338.43 210.70
  C 341.03 210.61 342.56 212.15 345.69 211.14
  Z"
/>
<path fill="#5a8ea6" fill-opacity="0.996" d="
  M 41.12 213.94
  Q 39.67 213.55 38.29 213.10
  Q 36.83 212.63 35.40 212.57
  Q 33.43 212.48 31.41 212.34
  A 14.04 14.00 54.3 0 1 41.12 213.94
  Z"
/>
<path fill="#5a8ea6" fill-opacity="0.996" d="
  M 157.02 212.46
  A 9.50 9.47 46.8 0 1 151.08 212.26
  L 157.02 212.46
  Z"
/>
<path fill="#06445e" d="
  M 31.41 212.34
  Q 33.43 212.48 35.40 212.57
  Q 36.83 212.63 38.29 213.10
  Q 39.67 213.55 41.12 213.94
  A 14.04 14.03 16.2 0 1 48.15 226.73
  A 14.06 14.05 -11.5 0 1 40.13 238.81
  A 14.04 14.03 59.8 0 1 22.64 234.19
  Q 19.69 228.81 20.51 222.69
  A 14.03 14.01 1.4 0 1 31.41 212.34
  Z"
/>
<path fill="#5a8ea6" fill-opacity="0.996" d="
  M 274.01 231.55
  Q 280.75 227.48 279.28 220.54
  C 278.65 217.56 276.61 215.63 273.99 214.30
  Q 273.07 213.84 271.42 213.79
  Q 269.92 213.75 268.74 213.34
  A 9.52 9.52 0.0 0 1 279.99 223.73
  A 9.52 9.51 82.4 0 1 274.01 231.55
  Z"
/>
<path fill="#06445e" d="
  M 268.74 213.34
  Q 269.92 213.75 271.42 213.79
  Q 273.07 213.84 273.99 214.30
  C 276.61 215.63 278.65 217.56 279.28 220.54
  Q 280.75 227.48 274.01 231.55
  A 9.51 9.49 43.1 0 1 267.61 231.76
  Q 260.16 227.73 261.39 220.01
  A 9.90 9.57 67.7 0 1 262.07 218.30
  L 267.01 213.84
  A 9.82 9.61 28.3 0 1 268.74 213.34
  Z"
/>
<path fill="#5a8ea6" fill-opacity="0.996" d="
  M 267.01 213.84
  L 262.07 218.30
  A 9.61 9.56 2.8 0 1 267.01 213.84
  Z"
/>
<path fill="#5a8ea6" fill-opacity="0.996" d="
  M 2.61 214.21
  Q 4.78 215.06 6.71 215.92
  Q 11.66 218.15 17.34 216.09
  Q 9.53 220.02 2.61 214.21
  Z"
/>
<path fill="#06445e" d="
  M 224.62 215.94
  Q 229.82 218.11 232.06 223.34
  A 9.40 9.33 46.0 0 1 232.00 227.44
  L 228.75 232.61
  A 9.47 9.38 17.5 0 1 225.26 234.41
  Q 221.59 234.61 218.17 233.55
  A 9.48 9.44 -0.7 0 1 214.60 230.08
  A 9.48 9.47 46.9 0 1 214.93 219.90
  L 219.96 216.18
  A 9.51 9.50 -47.9 0 1 224.62 215.94
  Z"
/>
<path fill="#5a8ea6" fill-opacity="0.996" d="
  M 224.62 215.94
  A 9.54 9.52 76.8 0 1 230.30 219.47
  A 9.38 9.38 0.0 0 1 232.06 223.34
  Q 229.82 218.11 224.62 215.94
  Z"
/>
<path fill="#06445e" d="
  M 323.58 234.51
  Q 317.14 235.72 312.67 232.01
  A 9.53 9.35 16.4 0 1 310.74 228.55
  L 310.61 223.41
  A 9.50 9.48 79.8 0 1 314.42 217.91
  A 9.53 9.53 0.0 0 1 324.22 217.28
  A 9.54 9.53 -77.2 0 1 329.37 225.48
  A 9.54 9.53 -12.4 0 1 323.58 234.51
  Z"
/>
<path fill="#06445e" d="
  M 185.93 228.75
  Q 184.04 232.47 180.80 234.52
  A 9.48 9.47 43.2 0 1 173.52 234.75
  L 169.15 231.37
  A 9.49 9.49 0.0 0 1 177.51 216.41
  A 9.48 9.44 -24.3 0 1 182.64 218.34
  A 9.49 9.48 27.5 0 1 185.93 228.75
  Z"
/>
<path fill="#5a8ea6" fill-opacity="0.996" d="
  M 219.96 216.18
  L 214.93 219.90
  A 9.52 9.48 -81.4 0 1 219.96 216.18
  Z"
/>
<path fill="#5a8ea6" fill-opacity="0.996" d="
  M 127.30 235.24
  Q 136.38 237.01 139.53 229.99
  C 140.13 228.68 139.96 227.24 140.10 225.82
  Q 140.25 224.37 139.46 222.79
  Q 136.20 216.30 127.68 217.62
  A 9.53 9.52 60.8 0 1 138.72 220.76
  A 9.52 9.52 0.0 0 1 138.08 233.02
  A 9.52 9.51 33.3 0 1 127.30 235.24
  Z"
/>
<path fill="#06445e" d="
  M 86.89 220.23
  Q 88.70 224.75 85.43 228.87
  A 6.43 6.42 -47.2 0 1 77.99 229.16
  Q 74.41 225.27 75.95 220.51
  A 6.44 6.44 0.0 0 1 86.89 220.23
  Z"
/>
<path fill="#06445e" d="
  M 127.68 217.62
  Q 136.20 216.30 139.46 222.79
  Q 140.25 224.37 140.10 225.82
  C 139.96 227.24 140.13 228.68 139.53 229.99
  Q 136.38 237.01 127.30 235.24
  A 9.50 9.50 0.0 0 1 122.81 231.17
  Q 122.16 228.86 121.95 226.81
  C 121.76 225.07 122.67 223.50 122.91 221.68
  A 9.54 9.53 -85.4 0 1 127.68 217.62
  Z"
/>
<path fill="#06445e" d="
  M 0.00 233.44
  L 0.00 222.32
  Q 0.73 216.81 1.97 225.24
  Q 2.68 230.03 0.00 233.44
  Z"
/>
<path fill="#5a8ea6" fill-opacity="0.996" d="
  M 261.39 220.01
  Q 260.16 227.73 267.61 231.76
  A 9.52 9.52 0.0 0 1 261.39 220.01
  Z"
/>
<path fill="#5a8ea6" fill-opacity="0.996" d="
  M 86.89 220.23
  A 6.44 6.44 0.0 0 1 85.43 228.87
  Q 88.70 224.75 86.89 220.23
  Z"
/>
<path fill="#5a8ea6" fill-opacity="0.996" d="
  M 75.95 220.51
  Q 74.41 225.27 77.99 229.16
  A 6.43 6.43 0.0 0 1 75.95 220.51
  Z"
/>
<path fill="#5a8ea6" fill-opacity="0.996" d="
  M 122.91 221.68
  C 122.67 223.50 121.76 225.07 121.95 226.81
  Q 122.16 228.86 122.81 231.17
  A 9.55 9.54 -44.4 0 1 122.91 221.68
  Z"
/>
<path fill="#5a8ea6" fill-opacity="0.996" d="
  M 20.51 222.69
  Q 19.69 228.81 22.64 234.19
  A 14.04 14.03 -55.5 0 1 20.51 222.69
  Z"
/>
<path fill="#5a8ea6" fill-opacity="0.996" d="
  M 310.61 223.41
  L 310.74 228.55
  A 9.48 9.46 -46.5 0 1 310.61 223.41
  Z"
/>
<path fill="#5a8ea6" fill-opacity="0.996" d="
  M 232.00 227.44
  A 9.44 9.43 -12.9 0 1 228.75 232.61
  L 232.00 227.44
  Z"
/>
<path fill="#5a8ea6" fill-opacity="0.996" d="
  M 185.93 228.75
  A 9.49 9.47 86.7 0 1 180.80 234.52
  Q 184.04 232.47 185.93 228.75
  Z"
/>
<path fill="#5a8ea6" fill-opacity="0.996" d="
  M 169.15 231.37
  L 173.52 234.75
  A 9.46 9.43 82.6 0 1 169.15 231.37
  Z"
/>
<path fill="#5a8ea6" fill-opacity="0.996" d="
  M 312.67 232.01
  Q 317.14 235.72 323.58 234.51
  A 9.53 9.51 45.2 0 1 316.03 234.47
  A 9.43 9.40 -8.7 0 1 312.67 232.01
  Z"
/>
<path fill="#5a8ea6" fill-opacity="0.996" d="
  M 225.26 234.41
  A 9.49 9.49 0.0 0 1 218.17 233.55
  Q 221.59 234.61 225.26 234.41
  Z"
/>
<path fill="#5a8ea6" fill-opacity="0.996" d="
  M 58.48 234.63
  Q 56.63 235.05 54.78 234.59
  Q 56.54 233.81 58.48 234.63
  Z"
/>
<path fill="#06445e" d="
  M 54.78 234.59
  Q 56.63 235.05 58.48 234.63
  Q 59.01 234.56 58.60 234.84
  C 62.98 236.32 65.62 237.66 68.18 241.37
  Q 70.26 244.38 70.33 247.88
  Q 70.46 254.31 65.97 258.56
  C 63.95 260.47 61.55 261.40 58.99 262.51
  Q 58.95 262.66 58.80 262.63
  Q 53.06 262.60 48.33 259.55
  Q 48.25 259.50 48.23 259.60
  Q 48.21 259.64 48.20 259.69
  Q 46.68 258.70 45.81 257.26
  L 42.80 250.55
  Q 42.47 250.42 42.56 249.82
  Q 43.00 248.34 42.62 246.76
  Q 42.58 246.28 42.87 245.89
  Q 44.03 244.43 43.89 242.67
  Q 46.04 238.69 49.92 236.37
  Q 52.15 236.12 54.02 234.79
  Q 54.14 234.45 54.78 234.59
  Z"
/>
<path fill="#5a8ea6" fill-opacity="0.996" d="
  M 54.02 234.79
  Q 52.15 236.12 49.92 236.37
  Q 51.62 234.90 54.02 234.79
  Z"
/>
<path fill="#5a8ea6" fill-opacity="0.996" d="
  M 58.60 234.84
  Q 59.89 234.61 60.99 235.08
  C 67.50 237.86 72.60 244.81 70.32 252.03
  Q 67.66 260.43 58.99 262.51
  C 61.55 261.40 63.95 260.47 65.97 258.56
  Q 70.46 254.31 70.33 247.88
  Q 70.26 244.38 68.18 241.37
  C 65.62 237.66 62.98 236.32 58.60 234.84
  Z"
/>
<path fill="#5a8ea6" fill-opacity="0.996" d="
  M 13.84 235.61
  Q 12.54 235.88 11.27 235.81
  Q 9.59 235.70 8.73 235.91
  Q 5.80 236.61 2.70 237.96
  Q 7.97 234.37 13.84 235.61
  Z"
/>
<path fill="#06445e" d="
  M 13.84 235.61
  Q 16.93 236.16 19.66 238.49
  L 23.51 243.48
  Q 24.42 245.08 24.52 247.16
  Q 24.58 249.44 24.07 251.33
  C 23.90 251.94 24.03 252.45 24.28 252.97
  Q 24.00 254.43 23.16 255.57
  Q 19.84 261.49 12.98 262.92
  Q 10.85 263.68 8.83 262.93
  Q 4.45 261.87 1.18 259.21
  Q 1.09 259.13 1.02 259.23
  Q 0.94 259.33 0.87 259.43
  Q 0.38 258.92 0.00 257.86
  L 0.00 240.79
  Q 0.94 238.57 2.70 237.96
  Q 5.80 236.61 8.73 235.91
  Q 9.59 235.70 11.27 235.81
  Q 12.54 235.88 13.84 235.61
  Z"
/>
<path fill="#5a8ea6" fill-opacity="0.996" d="
  M 248.61 239.12
  L 243.56 238.68
  A 9.51 9.46 -39.9 0 1 248.61 239.12
  Z"
/>
<path fill="#5a8ea6" fill-opacity="0.996" d="
  M 19.66 238.49
  Q 22.67 240.17 23.51 243.48
  L 19.66 238.49
  Z"
/>
<path fill="#06445e" d="
  M 243.56 238.68
  L 248.61 239.12
  A 9.71 9.66 76.7 0 1 251.77 241.08
  Q 257.52 248.94 250.54 255.92
  A 9.63 9.31 -72.5 0 1 249.03 256.74
  Q 243.71 258.15 238.95 255.10
  A 9.39 9.36 9.5 0 1 236.55 251.74
  A 9.50 9.49 73.2 0 1 243.56 238.68
  Z"
/>
<path fill="#5a8ea6" fill-opacity="0.996" d="
  M 209.17 248.53
  A 9.61 9.61 0.0 0 1 199.56 258.14
  A 9.61 9.61 0.0 0 1 189.95 248.53
  A 9.61 9.61 0.0 0 1 199.56 238.92
  A 9.61 9.61 0.0 0 1 209.17 248.53
  Z
  M 208.62 248.54
  A 9.06 9.06 0.0 0 0 199.56 239.48
  A 9.06 9.06 0.0 0 0 190.50 248.54
  A 9.06 9.06 0.0 0 0 199.56 257.60
  A 9.06 9.06 0.0 0 0 208.62 248.54
  Z"
/>
<path fill="#5a8ea6" fill-opacity="0.996" d="
  M 345.68 239.79
  Q 343.27 239.00 342.00 239.13
  Q 340.83 239.25 337.01 240.64
  Q 340.81 238.18 345.24 239.02
  A 0.59 0.58 0.8 0 1 345.70 239.49
  Q 345.72 239.63 345.68 239.79
  Z"
/>
<path fill="#5a8ea6" fill-opacity="0.996" d="
  M 299.83 240.11
  L 294.40 239.74
  A 9.57 9.57 0.0 0 1 299.83 240.11
  Z"
/>
<path fill="#06445e" d="
  M 345.68 239.79
  Q 345.81 240.16 346.00 240.34
  L 346.00 254.48
  Q 345.76 256.91 344.97 257.65
  L 339.35 257.17
  Q 338.12 257.09 336.62 255.79
  Q 331.81 250.85 334.38 243.40
  Q 335.10 241.67 337.01 240.64
  Q 340.83 239.25 342.00 239.13
  Q 343.27 239.00 345.68 239.79
  Z"
/>
<circle fill="#06445e" cx="199.56" cy="248.54" r="9.06"/>
<path fill="#06445e" d="
  M 294.40 239.74
  L 299.83 240.11
  A 9.54 9.51 -3.3 0 1 304.94 244.65
  Q 306.20 248.43 305.25 252.71
  A 9.51 9.45 -3.8 0 1 301.26 257.24
  Q 293.94 260.40 288.19 253.65
  A 9.50 9.48 -53.5 0 1 287.20 247.01
  A 9.51 9.49 89.8 0 1 294.40 239.74
  Z"
/>
<path fill="#06445e" d="
  M 156.09 239.97
  Q 157.42 240.89 158.94 241.78
  Q 160.71 242.82 161.48 244.24
  Q 163.86 248.65 161.80 253.16
  Q 160.30 256.47 156.82 257.69
  Q 153.43 258.89 149.35 257.57
  A 9.61 9.48 -3.7 0 1 144.98 253.04
  L 144.45 246.79
  A 9.61 9.54 30.9 0 1 146.15 243.38
  A 9.62 9.48 -5.3 0 1 156.09 239.97
  Z"
/>
<path fill="#5a8ea6" fill-opacity="0.996" d="
  M 110.08 240.62
  L 105.88 240.37
  Q 108.10 239.67 110.08 240.62
  Z"
/>
<path fill="#5a8ea6" fill-opacity="0.996" d="
  M 156.09 239.97
  A 9.61 9.47 -4.0 0 1 162.40 253.23
  A 9.62 9.44 -3.8 0 1 159.31 256.85
  A 9.57 9.41 1.7 0 1 154.00 258.61
  A 9.57 9.44 2.1 0 1 149.35 257.57
  Q 153.43 258.89 156.82 257.69
  Q 160.30 256.47 161.80 253.16
  Q 163.86 248.65 161.48 244.24
  Q 160.71 242.82 158.94 241.78
  Q 157.42 240.89 156.09 239.97
  Z"
/>
<path fill="#06445e" d="
  M 105.88 240.37
  L 110.08 240.62
  Q 110.88 240.61 111.51 241.32
  Q 114.72 243.40 116.78 247.06
  Q 117.67 249.43 117.02 251.89
  Q 115.58 253.44 115.13 255.47
  Q 114.66 256.46 113.70 256.94
  L 109.24 258.95
  Q 107.23 259.49 105.10 258.70
  L 101.20 256.53
  Q 96.85 252.14 98.52 247.25
  Q 100.31 242.04 105.88 240.37
  Z"
/>
<path fill="#5a8ea6" fill-opacity="0.996" d="
  M 111.51 241.32
  Q 115.91 242.91 116.78 247.06
  Q 114.72 243.40 111.51 241.32
  Z"
/>
<path fill="#5a8ea6" fill-opacity="0.996" d="
  M 251.77 241.08
  A 9.49 9.49 0.0 0 1 250.54 255.92
  Q 257.52 248.94 251.77 241.08
  Z"
/>
<path fill="#5a8ea6" fill-opacity="0.996" d="
  M 43.89 242.67
  Q 44.03 244.43 42.87 245.89
  Q 42.77 243.96 43.89 242.67
  Z"
/>
<path fill="#5a8ea6" fill-opacity="0.996" d="
  M 334.38 243.40
  Q 331.81 250.85 336.62 255.79
  Q 330.26 251.11 334.38 243.40
  Z"
/>
<path fill="#5a8ea6" fill-opacity="0.996" d="
  M 304.94 244.65
  A 9.53 9.51 42.8 0 1 305.25 252.71
  Q 306.20 248.43 304.94 244.65
  Z"
/>
<path fill="#5a8ea6" fill-opacity="0.996" d="
  M 42.62 246.76
  Q 43.00 248.34 42.56 249.82
  Q 41.47 248.53 42.62 246.76
  Z"
/>
<path fill="#5a8ea6" fill-opacity="0.996" d="
  M 144.45 246.79
  L 144.98 253.04
  A 9.60 9.46 -5.6 0 1 144.45 246.79
  Z"
/>
<path fill="#5a8ea6" fill-opacity="0.996" d="
  M 24.52 247.16
  Q 25.50 249.76 24.28 252.97
  C 24.03 252.45 23.90 251.94 24.07 251.33
  Q 24.58 249.44 24.52 247.16
  Z"
/>
<path fill="#5a8ea6" fill-opacity="0.996" d="
  M 42.80 250.55
  L 45.81 257.26
  Q 42.80 254.59 42.80 250.55
  Z"
/>
<path fill="#5a8ea6" fill-opacity="0.996" d="
  M 117.02 251.89
  Q 116.81 254.07 115.13 255.47
  Q 115.58 253.44 117.02 251.89
  Z"
/>
<path fill="#5a8ea6" fill-opacity="0.996" d="
  M 288.19 253.65
  Q 293.94 260.40 301.26 257.24
  A 9.51 9.50 60.3 0 1 288.19 253.65
  Z"
/>
<path fill="#5a8ea6" fill-opacity="0.996" d="
  M 238.95 255.10
  Q 243.71 258.15 249.03 256.74
  A 9.51 9.50 54.2 0 1 238.95 255.10
  Z"
/>
<path fill="#5a8ea6" fill-opacity="0.996" d="
  M 23.16 255.57
  Q 20.77 262.38 12.98 262.92
  Q 19.84 261.49 23.16 255.57
  Z"
/>
<path fill="#5a8ea6" fill-opacity="0.996" d="
  M 101.20 256.53
  L 105.10 258.70
  Q 102.56 258.44 101.20 256.53
  Z"
/>
<path fill="#5a8ea6" fill-opacity="0.996" d="
  M 113.70 256.94
  Q 112.04 259.11 109.24 258.95
  L 113.70 256.94
  Z"
/>
<path fill="#5a8ea6" fill-opacity="0.996" d="
  M 344.97 257.65
  Q 342.07 258.58 339.35 257.17
  L 344.97 257.65
  Z"
/>
<path fill="#06445e" d="
  M 39.65 259.33
  Q 44.78 262.65 46.25 267.26
  Q 48.47 274.26 44.09 280.39
  Q 40.36 285.59 33.61 285.45
  Q 23.50 285.24 20.34 275.49
  Q 20.10 274.77 19.70 275.11
  A 11.78 10.16 85.0 0 1 19.42 273.47
  Q 20.06 271.63 19.42 270.52
  A 14.91 13.84 -36.5 0 1 19.84 268.28
  L 23.00 262.51
  A 14.09 14.09 0.0 0 1 39.65 259.33
  Z"
/>
<path fill="#5a8ea6" fill-opacity="0.996" d="
  M 8.83 262.93
  Q 4.50 262.78 0.87 259.43
  Q 0.94 259.33 1.02 259.23
  Q 1.09 259.13 1.18 259.21
  Q 4.45 261.87 8.83 262.93
  Z"
/>
<path fill="#5a8ea6" fill-opacity="0.996" d="
  M 39.65 259.33
  A 14.13 14.12 -1.2 0 1 45.78 265.20
  A 14.07 14.07 0.0 0 1 46.02 278.29
  A 14.08 14.06 7.5 0 1 36.25 285.78
  A 14.10 14.10 0.0 0 1 24.82 283.13
  A 14.08 14.07 -77.6 0 1 19.70 275.11
  Q 20.10 274.77 20.34 275.49
  Q 23.50 285.24 33.61 285.45
  Q 40.36 285.59 44.09 280.39
  Q 48.47 274.26 46.25 267.26
  Q 44.78 262.65 39.65 259.33
  Z"
/>
<path fill="#5a8ea6" fill-opacity="0.996" d="
  M 58.80 262.63
  Q 53.16 263.71 48.20 259.69
  Q 48.21 259.64 48.23 259.60
  Q 48.25 259.50 48.33 259.55
  Q 53.06 262.60 58.80 262.63
  Z"
/>
<path fill="#06445e" d="
  M 231.64 270.15
  Q 230.65 271.51 231.49 273.38
  A 9.63 9.47 35.7 0 1 228.14 278.68
  Q 224.66 280.41 220.39 280.47
  A 9.61 9.43 36.4 0 1 213.02 268.31
  Q 213.96 267.07 214.79 265.87
  Q 215.77 264.45 216.84 263.74
  Q 218.46 262.66 220.54 261.78
  A 9.60 9.43 36.5 0 1 231.64 270.15
  Z"
/>
<path fill="#5a8ea6" fill-opacity="0.996" d="
  M 323.29 263.11
  L 317.39 262.22
  A 9.61 9.43 12.4 0 1 323.29 263.11
  Z"
/>
<path fill="#5a8ea6" fill-opacity="0.996" d="
  M 220.54 261.78
  Q 218.46 262.66 216.84 263.74
  Q 215.77 264.45 214.79 265.87
  Q 213.96 267.07 213.02 268.31
  A 9.59 9.42 38.2 0 1 220.54 261.78
  Z"
/>
<path fill="#06445e" d="
  M 317.39 262.22
  L 323.29 263.11
  Q 324.69 264.48 325.86 265.86
  Q 329.70 270.37 327.10 276.54
  A 8.60 8.54 36.9 0 1 326.32 277.58
  A 9.60 9.41 0.9 0 1 311.78 277.74
  A 9.61 9.32 9.1 0 1 309.47 272.84
  Q 310.23 270.98 309.52 269.83
  A 9.61 9.42 1.5 0 1 317.39 262.22
  Z"
/>
<path fill="#06445e" d="
  M 175.48 262.28
  Q 176.48 263.13 178.07 262.40
  A 9.50 9.49 89.2 0 1 185.63 269.75
  Q 185.82 279.53 177.06 281.21
  A 9.49 9.48 -15.5 0 1 167.86 276.00
  Q 165.73 270.29 170.03 264.64
  A 9.57 9.56 -68.4 0 1 175.48 262.28
  Z"
/>
<path fill="#5a8ea6" fill-opacity="0.996" d="
  M 175.48 262.28
  A 9.51 9.34 47.1 0 1 178.07 262.40
  Q 176.48 263.13 175.48 262.28
  Z"
/>
<path fill="#5a8ea6" fill-opacity="0.996" d="
  M 23.00 262.51
  L 19.84 268.28
  A 14.19 14.14 -16.4 0 1 23.00 262.51
  Z"
/>
<path fill="#5a8ea6" fill-opacity="0.996" d="
  M 133.05 263.38
  Q 126.20 262.34 121.92 268.04
  A 9.52 9.52 0.0 0 1 133.05 263.38
  Z"
/>
<path fill="#5a8ea6" fill-opacity="0.996" d="
  M 323.29 263.11
  A 9.59 9.38 2.0 0 1 328.36 269.52
  A 9.64 9.44 -1.4 0 1 327.10 276.54
  Q 329.70 270.37 325.86 265.86
  Q 324.69 264.48 323.29 263.11
  Z"
/>
<path fill="#06445e" d="
  M 133.05 263.38
  A 9.27 8.93 66.3 0 1 134.82 264.11
  Q 134.71 264.20 134.61 264.28
  Q 134.46 264.40 134.62 264.51
  C 139.97 267.86 140.86 274.05 136.72 278.84
  Q 134.13 281.84 129.67 281.56
  Q 124.10 281.22 121.19 275.16
  A 9.52 9.51 50.9 0 1 121.92 268.04
  Q 126.20 262.34 133.05 263.38
  Z"
/>
<path fill="#5a8ea6" fill-opacity="0.996" d="
  M 134.82 264.11
  A 9.54 9.53 -74.5 0 1 139.84 272.99
  A 9.52 9.51 -10.5 0 1 134.19 281.20
  A 9.50 9.50 0.0 0 1 124.38 279.94
  A 9.53 9.48 -78.9 0 1 121.19 275.16
  Q 124.10 281.22 129.67 281.56
  Q 134.13 281.84 136.72 278.84
  C 140.86 274.05 139.97 267.86 134.62 264.51
  Q 134.46 264.40 134.61 264.28
  Q 134.71 264.20 134.82 264.11
  Z"
/>
<path fill="#5a8ea6" fill-opacity="0.996" d="
  M 170.03 264.64
  Q 165.73 270.29 167.86 276.00
  A 9.51 9.50 -34.2 0 1 170.03 264.64
  Z"
/>
<path fill="#5a8ea6" fill-opacity="0.996" d="
  M 0.00 266.74
  Q 1.90 270.27 1.82 272.75
  Q 1.76 274.89 0.00 278.13
  L 0.00 274.13
  Q 1.53 273.42 0.59 271.69
  Q 0.35 271.26 0.40 270.77
  Q 0.54 269.37 0.00 268.33
  L 0.00 266.74
  Z"
/>
<path fill="#06445e" d="
  M 0.00 268.33
  Q 0.54 269.37 0.40 270.77
  Q 0.35 271.26 0.59 271.69
  Q 1.53 273.42 0.00 274.13
  L 0.00 268.33
  Z"
/>
<path fill="#06445e" d="
  M 275.34 270.88
  Q 277.09 274.61 274.39 277.96
  A 5.15 4.75 2.0 0 1 269.06 278.16
  Q 268.36 276.93 267.46 276.02
  Q 266.37 274.93 266.97 273.11
  C 267.23 272.29 268.02 271.81 267.94 270.61
  A 5.13 4.73 2.1 0 1 275.34 270.88
  Z"
/>
<path fill="#06445e" d="
  M 86.79 271.90
  Q 88.81 280.57 80.01 278.86
  A 4.93 4.92 -63.0 0 1 78.14 273.10
  L 81.56 269.99
  A 4.94 4.93 -24.9 0 1 86.79 271.90
  Z"
/>
<path fill="#5a8ea6" fill-opacity="0.996" d="
  M 81.56 269.99
  L 78.14 273.10
  A 4.94 4.92 2.6 0 1 81.56 269.99
  Z"
/>
<path fill="#5a8ea6" fill-opacity="0.996" d="
  M 185.63 269.75
  A 9.51 9.51 0.0 0 1 184.97 275.71
  A 9.50 9.49 -79.8 0 1 177.06 281.21
  Q 185.82 279.53 185.63 269.75
  Z"
/>
<path fill="#5a8ea6" fill-opacity="0.996" d="
  M 309.52 269.83
  Q 310.23 270.98 309.47 272.84
  A 9.75 9.55 6.4 0 1 309.52 269.83
  Z"
/>
<path fill="#5a8ea6" fill-opacity="0.996" d="
  M 231.64 270.15
  A 9.56 9.17 44.3 0 1 231.49 273.38
  Q 230.65 271.51 231.64 270.15
  Z"
/>
<path fill="#5a8ea6" fill-opacity="0.996" d="
  M 19.42 270.52
  Q 20.06 271.63 19.42 273.47
  A 14.81 14.33 46.0 0 1 19.42 270.52
  Z"
/>
<path fill="#5a8ea6" fill-opacity="0.996" d="
  M 267.94 270.61
  C 268.02 271.81 267.23 272.29 266.97 273.11
  Q 266.37 274.93 267.46 276.02
  Q 268.36 276.93 269.06 278.16
  A 5.13 4.74 1.7 0 1 266.45 274.72
  A 5.16 4.75 1.0 0 1 267.94 270.61
  Z"
/>
<path fill="#5a8ea6" fill-opacity="0.996" d="
  M 275.34 270.88
  A 5.13 4.73 1.5 0 1 274.39 277.96
  Q 277.09 274.61 275.34 270.88
  Z"
/>
<path fill="#5a8ea6" fill-opacity="0.996" d="
  M 86.79 271.90
  A 4.92 4.91 28.5 0 1 87.71 275.00
  A 4.94 4.94 0.0 0 1 80.01 278.86
  Q 88.81 280.57 86.79 271.90
  Z"
/>
<path fill="#5a8ea6" fill-opacity="0.996" d="
  M 228.14 278.68
  A 9.60 9.43 37.2 0 1 220.39 280.47
  Q 224.66 280.41 228.14 278.68
  Z"
/>
<path fill="#5a8ea6" fill-opacity="0.996" d="
  M 13.19 281.53
  L 7.73 281.55
  Q 10.41 280.58 13.19 281.53
  Z"
/>
<path fill="#06445e" d="
  M 7.73 281.55
  L 13.19 281.53
  Q 18.51 282.79 22.43 287.83
  Q 22.68 290.04 23.24 292.16
  Q 23.92 294.74 23.69 296.45
  Q 23.03 301.27 19.96 304.81
  Q 18.34 306.68 15.74 307.62
  Q 14.61 308.03 13.29 308.20
  Q 11.74 308.40 11.05 309.45
  Q 10.70 309.03 9.48 308.94
  L 1.94 306.58
  Q 0.49 305.70 0.00 303.67
  L 0.00 286.04
  Q 0.51 284.46 1.15 284.09
  Q 3.08 284.30 3.38 282.90
  Q 5.46 281.80 7.73 281.55
  Z"
/>
<path fill="#5a8ea6" fill-opacity="0.996" d="
  M 3.38 282.90
  Q 3.08 284.30 1.15 284.09
  Q 2.20 283.30 3.38 282.90
  Z"
/>
<path fill="#06445e" d="
  M 346.00 285.70
  L 346.00 301.47
  Q 345.14 304.27 341.15 303.83
  C 336.76 303.35 333.43 300.08 332.31 295.89
  Q 332.80 294.12 332.48 292.47
  Q 333.68 286.82 338.29 285.31
  Q 342.60 283.89 346.00 285.70
  Z"
/>
<path fill="#06445e" d="
  M 203.44 286.11
  Q 206.65 288.50 208.08 292.55
  Q 208.94 294.41 208.23 295.90
  Q 207.08 297.68 206.77 299.75
  Q 204.80 302.85 201.49 303.38
  L 195.32 303.15
  Q 186.87 298.89 190.73 289.60
  Q 192.25 288.70 192.96 286.96
  Q 198.14 283.39 203.44 286.11
  Z"
/>
<path fill="#5a8ea6" fill-opacity="0.996" d="
  M 143.61 293.47
  Q 144.27 302.70 151.64 303.96
  Q 155.25 304.59 157.83 302.71
  Q 161.18 300.26 161.90 296.89
  Q 162.82 292.57 159.92 289.17
  Q 157.06 285.83 151.80 285.56
  A 9.52 9.52 0.0 0 1 162.51 295.24
  A 9.53 9.52 -7.4 0 1 155.66 304.13
  A 9.62 9.61 -49.2 0 1 151.76 304.42
  A 9.51 9.51 0.0 0 1 143.61 293.47
  Z"
/>
<path fill="#06445e" d="
  M 151.80 285.56
  Q 157.06 285.83 159.92 289.17
  Q 162.82 292.57 161.90 296.89
  Q 161.18 300.26 157.83 302.71
  Q 155.25 304.59 151.64 303.96
  Q 144.27 302.70 143.61 293.47
  A 9.96 9.74 62.8 0 1 144.38 290.98
  L 148.26 286.75
  A 9.50 9.48 26.4 0 1 151.80 285.56
  Z"
/>
<path fill="#5a8ea6" fill-opacity="0.996" d="
  M 203.44 286.11
  Q 207.83 287.89 208.08 292.55
  Q 206.65 288.50 203.44 286.11
  Z"
/>
<path fill="#5a8ea6" fill-opacity="0.996" d="
  M 148.26 286.75
  L 144.38 290.98
  A 9.50 9.50 0.0 0 1 148.26 286.75
  Z"
/>
<path fill="#5a8ea6" fill-opacity="0.996" d="
  M 192.96 286.96
  Q 192.25 288.70 190.73 289.60
  Q 191.38 287.68 192.96 286.96
  Z"
/>
<path fill="#5a8ea6" fill-opacity="0.996" d="
  M 22.43 287.83
  Q 28.89 305.48 11.05 309.45
  Q 11.74 308.40 13.29 308.20
  Q 14.61 308.03 15.74 307.62
  Q 18.34 306.68 19.96 304.81
  Q 23.03 301.27 23.69 296.45
  Q 23.92 294.74 23.24 292.16
  Q 22.68 290.04 22.43 287.83
  Z"
/>
<path fill="#06445e" d="
  M 296.00 292.40
  Q 298.43 294.27 298.62 296.68
  Q 298.66 297.17 298.40 297.60
  Q 297.79 298.60 297.86 299.83
  A 5.00 4.80 3.5 0 1 292.46 301.35
  A 5.00 4.79 2.8 0 1 290.04 293.84
  A 4.99 4.79 3.8 0 1 296.00 292.40
  Z"
/>
<path fill="#06445e" d="
  M 103.42 302.18
  Q 97.93 297.15 103.87 292.70
  A 5.00 4.98 56.0 0 1 108.15 293.54
  A 4.98 4.98 0.0 0 1 109.20 300.41
  A 4.99 4.98 27.9 0 1 103.42 302.18
  Z"
/>
<circle fill="#06445e" cx="248.35" cy="297.29" r="4.89"/>
<path fill="#5a8ea6" fill-opacity="0.996" d="
  M 296.00 292.40
  A 5.00 4.82 2.1 0 1 298.95 296.26
  A 4.99 4.79 3.7 0 1 297.86 299.83
  Q 297.79 298.60 298.40 297.60
  Q 298.66 297.17 298.62 296.68
  Q 298.43 294.27 296.00 292.40
  Z"
/>
<path fill="#5a8ea6" fill-opacity="0.996" d="
  M 332.48 292.47
  Q 332.80 294.12 332.31 295.89
  Q 331.67 293.85 332.48 292.47
  Z"
/>
<path fill="#5a8ea6" fill-opacity="0.996" d="
  M 103.87 292.70
  Q 97.93 297.15 103.42 302.18
  A 4.99 4.96 -85.6 0 1 100.27 298.49
  A 4.99 4.98 -13.2 0 1 103.87 292.70
  Z"
/>
<circle fill="#06445e" cx="59.51" cy="298.02" r="4.84"/>
<path fill="#5a8ea6" fill-opacity="0.996" d="
  M 208.23 295.90
  Q 208.26 298.33 206.77 299.75
  Q 207.08 297.68 208.23 295.90
  Z"
/>
<path fill="#5a8ea6" fill-opacity="0.996" d="
  M 201.49 303.38
  Q 198.30 304.66 195.32 303.15
  L 201.49 303.38
  Z"
/>
<path fill="#5a8ea6" fill-opacity="0.996" d="
  M 1.94 306.58
  L 9.48 308.94
  Q 4.97 309.07 1.94 306.58
  Z"
/>
<path fill="#5a8ea6" fill-opacity="0.996" d="
  M 181.56 324.88
  Q 184.22 321.38 184.49 319.26
  Q 185.37 312.55 180.25 309.59
  Q 176.72 307.54 171.18 309.01
  A 9.53 9.53 0.0 0 1 181.32 309.96
  A 9.54 9.54 0.0 0 1 181.56 324.88
  Z"
/>
<path fill="#06445e" d="
  M 181.56 324.88
  A 9.27 9.16 12.2 0 1 179.55 326.16
  Q 173.28 327.72 169.56 324.44
  Q 164.06 319.58 167.85 311.81
  A 9.59 9.55 -84.9 0 1 171.18 309.01
  Q 176.72 307.54 180.25 309.59
  Q 185.37 312.55 184.49 319.26
  Q 184.22 321.38 181.56 324.88
  Z"
/>
<path fill="#5a8ea6" fill-opacity="0.996" d="
  M 167.85 311.81
  Q 164.06 319.58 169.56 324.44
  Q 173.28 327.72 179.55 326.16
  A 9.55 9.54 57.0 0 1 168.28 323.76
  A 9.54 9.54 0.0 0 1 167.85 311.81
  Z"
/>
<path fill="#5a8ea6" fill-opacity="0.996" d="
  M 319.64 315.24
  L 315.12 314.60
  A 4.97 4.95 -36.8 0 1 319.64 315.24
  Z"
/>
<path fill="#06445e" d="
  M 315.12 314.60
  L 319.64 315.24
  A 4.99 4.97 -78.7 0 1 321.60 318.19
  Q 320.79 319.71 321.27 321.33
  A 4.96 4.95 -69.9 0 1 315.44 324.04
  L 311.93 320.34
  A 4.95 4.95 0.0 0 1 315.12 314.60
  Z"
/>
<rect fill="#06445e" x="-4.77" y="-4.78" transform="translate(128.01,320.02) rotate(43.9)" width="9.54" height="9.56" rx="4.00"/>
<ellipse fill="#5a8ea6" fill-opacity="0.996" cx="0.00" cy="0.00" transform="translate(0.59,318.36) rotate(89.6)" rx="3.45" ry="0.39"/>
<circle fill="#06445e" cx="270.90" cy="319.83" r="4.86"/>
<circle fill="#06445e" cx="82.16" cy="320.68" r="4.89"/>
<path fill="#06445e" d="
  M 222.69 324.75
  Q 220.00 322.22 220.67 318.40
  A 5.02 4.98 -8.6 0 1 221.73 316.97
  A 4.83 4.82 43.9 0 1 228.15 316.85
  A 4.82 4.81 -56.9 0 1 229.36 322.61
  A 4.83 4.82 -62.8 0 1 222.69 324.75
  Z"
/>
<path fill="#06445e" d="
  M 41.03 320.28
  Q 40.18 326.61 34.17 325.67
  A 4.84 4.84 0.0 0 1 31.92 319.26
  A 4.84 4.84 0.0 0 1 41.03 320.28
  Z"
/>
<path fill="#5a8ea6" fill-opacity="0.996" d="
  M 321.60 318.19
  A 5.01 4.96 -39.3 0 1 321.27 321.33
  Q 320.79 319.71 321.60 318.19
  Z"
/>
<path fill="#5a8ea6" fill-opacity="0.996" d="
  M 220.67 318.40
  Q 220.00 322.22 222.69 324.75
  A 4.84 4.83 27.4 0 1 220.67 318.40
  Z"
/>
<path fill="#5a8ea6" fill-opacity="0.996" d="
  M 41.03 320.28
  A 4.84 4.84 0.0 0 1 34.17 325.67
  Q 40.18 326.61 41.03 320.28
  Z"
/>
<path fill="#5a8ea6" fill-opacity="0.996" d="
  M 311.93 320.34
  L 315.44 324.04
  A 4.97 4.94 -88.6 0 1 311.93 320.34
  Z"
/>
</svg>
