<?xml version="1.0" encoding="UTF-8" standalone="no"?>
<!DOCTYPE svg PUBLIC "-//W3C//DTD SVG 1.1//EN" "http://www.w3.org/Graphics/SVG/1.1/DTD/svg11.dtd">
<svg xmlns="http://www.w3.org/2000/svg" version="1.1" viewBox="0.00 0.00 82.00 69.00">
<g stroke-width="2.00" fill="none" stroke-linecap="butt">
<path stroke="#636b7c" vector-effect="non-scaling-stroke" d="
  M 44.37 13.79
  Q 51.74 17.37 55.69 24.09
  Q 56.80 25.97 57.34 28.07
  C 58.18 31.33 59.02 33.94 58.56 37.48
  A 1.50 1.49 4.1 0 0 60.02 39.16
  L 69.80 39.28
  A 0.69 0.69 0.0 0 1 70.40 40.29
  Q 69.67 41.69 70.62 41.84"
/>
<path stroke="#636b7c" vector-effect="non-scaling-stroke" d="
  M 57.86 41.96
  L 54.06 48.48"
/>
<path stroke="#4d5263" vector-effect="non-scaling-stroke" d="
  M 33.23 57.52
  Q 31.84 56.79 30.93 57.17"
/>
<path stroke="#4d5263" vector-effect="non-scaling-stroke" d="
  M 29.83 57.04
  Q 29.80 56.83 29.65 56.67
  Q 29.53 56.54 29.29 56.49
  C 23.03 55.06 17.20 49.83 14.52 44.15
  Q 14.46 44.02 14.31 43.97
  Q 14.15 43.91 14.04 43.98"
/>
<path stroke="#4d5263" vector-effect="non-scaling-stroke" d="
  M 13.97 43.27
  Q 14.00 42.07 13.24 41.10
  Q 12.93 40.71 12.87 40.21
  Q 11.74 30.65 16.73 21.90"
/>
<path stroke="#4d5263" vector-effect="non-scaling-stroke" d="
  M 11.89 41.48
  Q 12.51 40.72 10.24 38.99"
/>
<path stroke="#4d5263" vector-effect="non-scaling-stroke" d="
  M 10.47 41.94
  Q 10.44 41.40 9.88 41.00"
/>
<path stroke="#4d5263" vector-effect="non-scaling-stroke" d="
  M 25.18 17.78
  Q 19.07 20.59 16.44 28.48
  C 12.79 39.43 18.28 49.42 28.71 53.49
  C 39.76 57.81 49.54 51.85 55.04 42.36
  A 0.44 0.44 0.0 0 0 54.65 41.70
  Q 50.68 41.78 47.14 41.67
  Q 45.75 41.62 45.78 40.24
  A 1.20 1.19 1.0 0 1 47.00 39.07
  L 54.13 39.22"
/>
<path stroke="#636b7c" vector-effect="non-scaling-stroke" d="
  M 54.13 39.22
  Q 54.95 39.02 55.38 38.86
  Q 55.86 38.68 55.89 38.17
  C 56.55 26.20 50.09 17.79 38.75 15.02
  Q 31.91 13.36 25.18 17.78"
/>
<path stroke="#9ca5b8" vector-effect="non-scaling-stroke" d="
  M 54.13 39.22
  Q 51.14 23.50 38.48 17.51
  Q 33.52 15.16 25.18 17.78"
/>
</g>
<path fill="#141726" d="
  M 44.37 13.79
  Q 51.74 17.37 55.69 24.09
  Q 56.80 25.97 57.34 28.07
  C 58.18 31.33 59.02 33.94 58.56 37.48
  A 1.50 1.49 4.1 0 0 60.02 39.16
  L 69.80 39.28
  A 0.69 0.69 0.0 0 1 70.40 40.29
  Q 69.67 41.69 70.62 41.84
  L 57.86 41.96
  L 54.06 48.48
  Q 52.38 51.16 49.44 52.55
  A 1.99 1.96 -85.0 0 0 48.63 53.24
  Q 47.85 54.43 46.59 54.71
  Q 46.04 54.83 45.78 55.32
  Q 45.48 55.87 44.95 55.66
  Q 44.46 55.47 43.99 55.73
  C 43.08 56.22 42.25 56.91 41.21 57.08
  Q 37.26 57.72 33.23 57.52
  Q 31.84 56.79 30.93 57.17
  Q 30.41 56.88 29.83 57.04
  Q 29.80 56.83 29.65 56.67
  Q 29.53 56.54 29.29 56.49
  C 23.03 55.06 17.20 49.83 14.52 44.15
  Q 14.46 44.02 14.31 43.97
  Q 14.15 43.91 14.04 43.98
  Q 13.91 43.57 13.97 43.27
  Q 14.00 42.07 13.24 41.10
  Q 12.93 40.71 12.87 40.21
  Q 11.74 30.65 16.73 21.90
  Q 19.26 18.24 22.52 15.81
  Q 26.12 13.14 30.89 13.19
  Q 31.38 13.19 31.80 12.94
  Q 32.41 12.57 33.04 12.44
  Q 39.29 11.23 44.37 13.79
  Z
  M 25.18 17.78
  Q 19.07 20.59 16.44 28.48
  C 12.79 39.43 18.28 49.42 28.71 53.49
  C 39.76 57.81 49.54 51.85 55.04 42.36
  A 0.44 0.44 0.0 0 0 54.65 41.70
  Q 50.68 41.78 47.14 41.67
  Q 45.75 41.62 45.78 40.24
  A 1.20 1.19 1.0 0 1 47.00 39.07
  L 54.13 39.22
  Q 54.95 39.02 55.38 38.86
  Q 55.86 38.68 55.89 38.17
  C 56.55 26.20 50.09 17.79 38.75 15.02
  Q 31.91 13.36 25.18 17.78
  Z"
/>
<path fill="#b2bed1" d="
  M 44.37 13.79
  Q 46.74 13.72 48.63 15.05
  C 50.02 16.02 50.37 17.70 52.07 18.26
  Q 52.56 18.42 52.80 18.88
  Q 54.01 21.29 56.44 22.15
  Q 57.03 22.36 56.52 22.73
  Q 55.48 23.49 56.58 24.20
  Q 57.92 25.07 57.35 26.13
  Q 57.15 26.50 57.44 26.81
  Q 58.18 27.61 58.02 28.76
  Q 57.92 29.45 58.44 29.92
  Q 58.94 30.36 58.99 31.06
  Q 59.15 33.34 58.96 35.63
  A 1.97 1.95 -61.3 0 0 59.34 36.96
  Q 60.57 38.57 61.22 37.59
  Q 61.52 37.13 61.76 37.62
  Q 61.83 37.74 61.89 37.86
  A 0.34 0.33 -15.6 0 0 62.20 38.03
  Q 66.34 37.71 70.15 38.54
  A 1.51 1.48 76.0 0 1 70.98 39.05
  Q 72.22 40.57 70.62 41.84
  Q 69.67 41.69 70.40 40.29
  A 0.69 0.69 0.0 0 0 69.80 39.28
  L 60.02 39.16
  A 1.50 1.49 4.1 0 1 58.56 37.48
  C 59.02 33.94 58.18 31.33 57.34 28.07
  Q 56.80 25.97 55.69 24.09
  Q 51.74 17.37 44.37 13.79
  Z"
/>
<path fill="#b2bed1" d="
  M 54.13 39.22
  Q 51.14 23.50 38.48 17.51
  Q 33.52 15.16 25.18 17.78
  Q 31.91 13.36 38.75 15.02
  C 50.09 17.79 56.55 26.20 55.89 38.17
  Q 55.86 38.68 55.38 38.86
  Q 54.95 39.02 54.13 39.22
  Z"
/>
<path fill="#858c9f" d="
  M 54.13 39.22
  L 47.00 39.07
  A 1.20 1.19 1.0 0 0 45.78 40.24
  Q 45.75 41.62 47.14 41.67
  Q 50.68 41.78 54.65 41.70
  A 0.44 0.44 0.0 0 1 55.04 42.36
  C 49.54 51.85 39.76 57.81 28.71 53.49
  C 18.28 49.42 12.79 39.43 16.44 28.48
  Q 19.07 20.59 25.18 17.78
  Q 33.52 15.16 38.48 17.51
  Q 51.14 23.50 54.13 39.22
  Z"
/>
<path fill="#858c9f" d="
  M 16.73 21.90
  Q 11.74 30.65 12.87 40.21
  Q 12.93 40.71 13.24 41.10
  Q 14.00 42.07 13.97 43.27
  Q 12.52 42.72 11.89 41.48
  Q 12.51 40.72 10.24 38.99
  L 11.26 38.72
  Q 11.95 38.54 11.57 37.94
  Q 11.30 37.52 11.78 37.27
  Q 12.27 37.03 12.26 36.48
  L 12.24 31.03
  Q 12.23 30.48 12.59 30.07
  C 13.21 29.36 12.91 28.56 13.22 27.67
  Q 14.35 24.37 16.73 21.90
  Z"
/>
<path fill="#141726" d="
  M 10.24 38.99
  Q 12.51 40.72 11.89 41.48
  L 10.47 41.94
  Q 10.44 41.40 9.88 41.00
  L 10.24 38.99
  Z"
/>
<path fill="#858c9f" d="
  M 9.88 41.00
  Q 10.44 41.40 10.47 41.94
  Q 9.72 42.09 9.25 41.87
  A 0.38 0.38 0.0 0 1 9.08 41.36
  Q 9.23 41.06 9.88 41.00
  Z"
/>
<path fill="#b2bed1" d="
  M 57.86 41.96
  Q 57.78 45.56 54.06 48.48
  L 57.86 41.96
  Z"
/>
<path fill="#858c9f" d="
  M 14.04 43.98
  Q 14.15 43.91 14.31 43.97
  Q 14.46 44.02 14.52 44.15
  C 17.20 49.83 23.03 55.06 29.29 56.49
  Q 29.53 56.54 29.65 56.67
  Q 29.80 56.83 29.83 57.04
  Q 29.81 57.23 29.72 57.33
  Q 29.56 57.51 29.35 57.39
  C 28.06 56.70 26.88 55.91 25.39 55.73
  Q 23.88 55.55 22.82 54.53
  Q 22.43 54.16 21.93 54.01
  Q 21.10 53.77 20.30 52.94
  Q 17.70 50.26 14.01 45.22
  Q 13.44 44.45 14.04 43.98
  Z"
/>
<path fill="#858c9f" d="
  M 33.23 57.52
  Q 31.54 58.24 30.93 57.17
  Q 31.84 56.79 33.23 57.52
  Z"
/>
</svg>
